<?xml version="1.0" standalone="no"?>
<!DOCTYPE svg PUBLIC "-//W3C//DTD SVG 1.1//EN" "http://www.w3.org/Graphics/SVG/1.1/DTD/svg11.dtd" >
<svg>
<metadata>
Created by FontForge 20090622 at Fri May 25 06:52:01 2018
 By deploy user
Copyright 1990-1993 Bitstream Inc.  All rights reserved.
</metadata>
<defs>
<font id="MisterEarlBT-Regular" horiz-adv-x="1024" >
  <font-face 
    font-family="MisterEarl BT"
    font-weight="400"
    font-stretch="semi-condensed"
    units-per-em="2048"
    panose-1="3 8 8 2 2 3 2 2 2 3"
    ascent="1638"
    descent="-410"
    x-height="942"
    cap-height="1487"
    bbox="-342 -483 2062 1972"
    underline-thickness="162"
    underline-position="-97"
    unicode-range="U+0020-U+F002"
  />
<missing-glyph horiz-adv-x="1229" 
d="M102 -362v1806h1024v-1806h-1024zM217 -248h795v1577h-795v-1577z" />
    <glyph glyph-name=".notdef" horiz-adv-x="1229" 
d="M102 -362v1806h1024v-1806h-1024zM217 -248h795v1577h-795v-1577z" />
    <glyph glyph-name=".null" horiz-adv-x="0" 
 />
    <glyph glyph-name="nonmarkingreturn" horiz-adv-x="391" 
 />
    <glyph glyph-name="space" unicode=" " horiz-adv-x="391" 
 />
    <glyph glyph-name="exclam" unicode="!" horiz-adv-x="408" 
d="M96 231h58q43 0 87.5 -1.5t88.5 -4.5q3 -33 4.5 -73t1.5 -89v-71l-240 -2v6q-4 92 -4 133q0 21 1 44.5t3 57.5zM358 1468q-18 -63 -28.5 -348t-10.5 -737q-44 3 -89.5 4.5t-94.5 1.5h-45q-4 251 -6 479.5t-2 425.5v187z" />
    <glyph glyph-name="quotedbl" unicode="&#x22;" horiz-adv-x="678" 
d="M406 1438h192v-559h-192v559zM80 1438h192v-559h-192v559z" />
    <glyph glyph-name="numbersign" unicode="#" horiz-adv-x="1575" 
d="M709 848l-88 -244h251l86 244h-249zM709 1464h221l-146 -415h242l148 415h221l-148 -415h283l-74 -201h-280l-84 -242h290l-71 -200h-291l-148 -416h-221l148 416h-244l-149 -416h-220l146 416h-287l76 200h282l86 242h-299l74 201h297z" />
    <glyph glyph-name="dollar" unicode="$" horiz-adv-x="782" 
d="M322 108q-33 -7 -64 -10.5t-61 -3.5q-11 0 -24 1t-37 3q3 19 5 37.5t2 40.5q0 48 -11.5 100t-35.5 109q24 -6 41.5 -9t30.5 -3q75 0 122.5 44t47.5 113q0 38 -16 83.5t-50 105.5l-38 65q-105 174 -105 273q0 121 79 205t220 114q0 33 -5.5 74t-16.5 88q30 11 57 16t55 5
q13 0 27.5 -2t27.5 -5l-22 -170q48 0 86 -11t72 -34q-9 -74 -21 -130t-29 -101q-27 8 -53 12t-51 4q-64 0 -97.5 -26.5t-33.5 -77.5q0 -56 89 -184l44 -66q59 -92 85 -161t26 -132q0 -90 -43 -167.5t-125 -135.5q1 -13 1.5 -28t0.5 -46q0 -43 -3 -85.5t-10 -84.5h-26
q-32 0 -64.5 -3t-66.5 -9q1 11 1.5 23.5t0.5 37.5q0 34 -3 66.5t-9 64.5z" />
    <glyph glyph-name="percent" unicode="%" horiz-adv-x="1145" 
d="M885 557q-28 0 -43 -43.5t-15 -126.5q0 -86 14.5 -128t43.5 -42q31 0 47 43.5t16 126.5q0 80 -17 125t-46 45zM674 397q0 181 69 301.5t164 120.5q86 0 142.5 -118.5t56.5 -305.5q0 -182 -61 -297.5t-154 -115.5q-96 0 -156.5 114.5t-60.5 300.5zM244 1227
q-29 0 -43.5 -42.5t-14.5 -125.5q0 -86 14.5 -128t43.5 -42q31 0 46 42t15 126q0 81 -16 125.5t-45 44.5zM33 1067q0 182 68.5 303t162.5 121q86 0 143.5 -119t57.5 -305q0 -181 -61 -298.5t-152 -117.5q-98 0 -158.5 114t-60.5 302zM315 -96q71 423 167.5 819.5
t219.5 767.5l193 -33q-131 -313 -239.5 -689.5t-192.5 -807.5z" />
    <glyph glyph-name="ampersand" unicode="&#x26;" horiz-adv-x="815" 
d="M666 299q-43 -157 -124 -236t-198 -79q-136 0 -218.5 116.5t-82.5 311.5q0 139 40 255t118 205q-50 74 -74.5 151.5t-24.5 158.5q0 127 64 204.5t168 77.5q101 0 164 -66t63 -173q0 -19 -2 -36t-6 -32l-125 -100q-23 66 -46 99.5t-46 33.5q-19 0 -31 -16t-12 -41
q0 -29 14.5 -70t44.5 -96l29 20l115 -143q-114 -96 -169 -191t-55 -194q0 -75 26 -123.5t62 -48.5q31 0 57.5 37.5t53.5 117.5q-16 15 -34.5 36.5t-47.5 58.5q40 52 89.5 95t109.5 79q52 -82 109 -134t124 -79q-15 -59 -41 -114t-63 -108z" />
    <glyph glyph-name="quotesingle" unicode="'" horiz-adv-x="352" 
d="M80 1438h192v-559h-192v559z" />
    <glyph glyph-name="parenleft" unicode="(" horiz-adv-x="465" 
d="M272 -217q-115 150 -169 334t-54 428q0 282 64 535.5t194 484.5l72 -54l47 -65q-77 -184 -115.5 -384.5t-38.5 -414.5q0 -227 50 -401t147 -287q-30 -67 -78 -110t-119 -66z" />
    <glyph glyph-name="parenright" unicode=")" horiz-adv-x="465" 
d="M190 1565q116 -151 170 -335t54 -427q0 -282 -64 -536t-194 -484l-72 51l-47 66q76 186 114.5 387.5t38.5 410.5q0 226 -49.5 400t-146.5 288q31 69 79.5 113.5t116.5 65.5z" />
    <glyph glyph-name="asterisk" unicode="*" horiz-adv-x="635" 
d="M322 1491l24 2l72 -199l196 17l7 -25l-172 -123l149 -125l-8 -26l-180 18l-70 -190l-27 -9l-92 201l-176 -20l-6 24l143 131l-172 129l4 21l219 -23z" />
    <glyph glyph-name="plus" unicode="+" horiz-adv-x="1706" 
d="M752 1221h202v-510h498v-199h-498v-512h-202v512h-498v199h498v510z" />
    <glyph glyph-name="comma" unicode="," horiz-adv-x="389" 
d="M-51 -125q76 98 115 184.5t43 163.5q39 8 77 12.5t74 4.5q8 0 24.5 -1t24.5 -1q0 -134 -54.5 -252.5t-166.5 -229.5q-34 23 -68 52.5t-69 66.5z" />
    <glyph glyph-name="hyphen" unicode="-" horiz-adv-x="541" 
d="M41 398q-3 17 -4.5 37t-1.5 42q0 28 3.5 61.5t10.5 77.5q67 -3 144 -4.5t165 -1.5h154q-4 -25 -6 -54t-2 -64q0 -38 1 -58t3 -36q-42 -2 -88 -2.5t-135 -0.5q-97 0 -147.5 0.5t-96.5 2.5z" />
    <glyph glyph-name="period" unicode="." horiz-adv-x="389" 
d="M70 243q74 -5 222 -9q2 0 3 -1q10 -27 15 -56.5t5 -59.5q0 -18 -2.5 -44t-11.5 -79l-229 16v11q4 67 4 98q0 33 -1.5 64t-4.5 60z" />
    <glyph glyph-name="slash" unicode="/" horiz-adv-x="569" 
d="M90 -190l-139 36l257 796.5t267 850.5l143 -43l-247.5 -795.5z" />
    <glyph glyph-name="zero" unicode="0" horiz-adv-x="782" 
d="M397 1069q-51 0 -77.5 -100t-26.5 -293q0 -181 20.5 -258.5t67.5 -77.5q49 0 78.5 105t29.5 284q0 180 -21.5 260t-70.5 80zM375 -8q-156 0 -244 185.5t-88 516.5q0 362 100 573.5t267 211.5q148 0 237.5 -203.5t89.5 -552.5q0 -332 -100 -531.5t-262 -199.5z" />
    <glyph glyph-name="one" unicode="1" horiz-adv-x="543" 
d="M150 -14q16 125 24 304.5t8 440.5q0 101 -2.5 197.5t-7.5 185.5l-156 -4l49 155.5l44 129.5q85 12 130 29t68 44h15q25 0 53.5 5t60.5 13q-7 -118 -10.5 -266t-3.5 -333q0 -219 4.5 -438.5t13.5 -442.5z" />
    <glyph glyph-name="two" unicode="2" horiz-adv-x="782" 
d="M84 31q-8 42 -20 84t-29 84q180 199 278.5 394t98.5 351q0 84 -19 125t-57 41q-39 0 -58.5 -33.5t-19.5 -99.5v-10q-57 -7 -106.5 -18.5t-96.5 -28.5v18q0 256 84.5 396.5t237.5 140.5q134 0 208 -120.5t74 -338.5q0 -204 -80 -380.5t-253 -354.5q37 -16 79.5 -23.5
t94.5 -7.5q47 0 95 6t101 18q-43 -70 -71.5 -133t-40.5 -118q-54 -15 -117.5 -22t-140.5 -7q-70 0 -129.5 9t-112.5 28z" />
    <glyph glyph-name="three" unicode="3" horiz-adv-x="735" 
d="M25 383l179 110q10 -118 38 -174.5t77 -56.5q51 0 83 58.5t32 152.5q0 90 -37.5 141.5t-103.5 51.5q-13 0 -35 -4t-59 -13l4 209h12q89 0 140 55t51 150q0 50 -26.5 82.5t-66.5 32.5q-31 0 -69 -24.5t-88 -76.5q-13 50 -33.5 102.5t-50.5 112.5q65 94 143 142.5t164 48.5
q118 0 189 -89.5t71 -240.5q0 -102 -40.5 -193.5t-119.5 -168.5q96 -16 147.5 -94t51.5 -208q0 -210 -101 -352.5t-245 -142.5q-127 0 -214.5 109t-92.5 280z" />
    <glyph glyph-name="four" unicode="4" horiz-adv-x="754" 
d="M268 590q13 -2 27.5 -3t42.5 -1q23 0 34.5 0.5t20.5 1.5q4 141 18 289t38 307l-7 2q-68 -151 -111.5 -300t-62.5 -296zM686 1262q-34 -167 -55.5 -332.5t-30.5 -328.5l115 7l16 -67l-4 -105l-135 -41q0 -14 -1 -44t-1 -46q0 -72 4.5 -146t13.5 -150l-215 -23
q-6 66 -9 132.5t-3 133.5q0 48 0.5 73t1.5 45q-35 -4 -72 -7t-73 -3q-106 0 -163 16t-57 46q0 79 34.5 251.5t92.5 352.5q49 151 105 270.5t117 202.5q66 -35 114 -78t78 -94l-44 -63q20 3 39.5 4.5t39.5 1.5q26 0 48.5 -2t43.5 -6z" />
    <glyph glyph-name="five" unicode="5" horiz-adv-x="698" 
d="M33 381l161 102q5 -91 33.5 -142.5t73.5 -51.5q50 0 78.5 63.5t28.5 175.5q0 95 -25 146t-70 51q-29 0 -52.5 -17.5t-43.5 -54.5q-37 23 -75.5 39t-75.5 25q23 129 35 250.5t12 234.5q0 53 -2 107t-7 110q79 28 155.5 42t152.5 14q36 0 81.5 -4t106.5 -13l-61 -251
q-14 0 -41 3q-51 4 -66 4q-37 0 -71 -5t-66 -15q-2 -96 -13.5 -174t-33.5 -143q33 39 71.5 58t83.5 19q109 0 175.5 -109.5t66.5 -291.5q0 -245 -96 -407t-234 -162q-116 0 -198.5 113t-83.5 284z" />
    <glyph glyph-name="six" unicode="6" horiz-adv-x="735" 
d="M305 602q-6 -32 -9 -58t-3 -46q0 -104 20 -153.5t62 -49.5q40 0 63 40t23 111q0 79 -27.5 121.5t-79.5 42.5q-12 0 -24.5 -2t-24.5 -6zM328 838q22 17 44 24.5t48 7.5q119 0 194.5 -115.5t75.5 -301.5q0 -213 -86.5 -345.5t-222.5 -132.5q-157 0 -242.5 150t-85.5 426
q0 183 36 354.5t106 321.5q61 132 129 200t141 68q39 0 76 -39.5t59 -105.5q-12 -43 -26 -102t-31 -144q-15 11 -28.5 16.5t-27.5 5.5q-58 0 -100.5 -76t-58.5 -212z" />
    <glyph glyph-name="seven" unicode="7" horiz-adv-x="735" 
d="M14 1137q17 66 27.5 141t15.5 159q94 -8 164.5 -12t122.5 -4q91 0 181 4t175 10l-26 -294q-124 -265 -187.5 -549.5t-67.5 -589.5q-79 -3 -147.5 -11.5t-128.5 -23.5q27 316 101.5 613t197.5 579q-13 0 -38.5 1t-38.5 1q-83 0 -169.5 -6t-181.5 -18z" />
    <glyph glyph-name="eight" unicode="8" horiz-adv-x="764" 
d="M741 1339q-36 -138 -87 -266t-119 -248q87 -75 129.5 -173t42.5 -224q0 -185 -100 -309.5t-247 -124.5q-140 0 -230.5 108.5t-90.5 278.5q0 108 40.5 211.5t119.5 195.5q-74 74 -111 163.5t-37 195.5q0 158 80.5 246t224.5 88q21 0 46 -2.5t57 -8.5q13 -27 25.5 -58
t25.5 -69l27 125q67 -8 117 -39.5t87 -89.5zM360 954q37 57 64 115.5t45 118.5q-20 21 -39.5 32t-38.5 11q-42 0 -68 -35.5t-26 -91.5q0 -51 15.5 -88t47.5 -62zM381 651q-47 -69 -72.5 -130t-25.5 -101q0 -59 25.5 -97t64.5 -38q43 0 73.5 43.5t30.5 107.5q0 61 -24.5 116
t-71.5 99z" />
    <glyph glyph-name="nine" unicode="9" horiz-adv-x="750" 
d="M449 537q-30 -38 -64 -56t-74 -18q-122 0 -197 130t-75 349q0 251 89 400t237 149q163 0 246 -170t83 -504q0 -376 -101 -608t-257 -232q-67 0 -110 34t-70 110q21 56 35 107t20 98q24 -17 47 -25t45 -8q61 0 96 58.5t50 185.5zM444 755q1 24 1.5 50.5t0.5 75.5
q0 151 -18 222t-57 71q-40 0 -66 -60.5t-26 -157.5q0 -116 24.5 -180.5t69.5 -64.5q19 0 37 11t34 33z" />
    <glyph glyph-name="colon" unicode=":" horiz-adv-x="389" 
d="M76 639v6q4 72 4 105q0 35 -1.5 68.5t-4.5 63.5q10 2 21 2.5t34 0.5q46 0 88.5 -3.5t83.5 -11.5q6 -22 9 -49.5t3 -58.5q0 -30 -3 -63t-9 -68zM74 238q4 0 12 1q86 7 125 7q24 0 47 -1.5t45 -5.5q6 -33 9 -60.5t3 -47.5q0 -29 -5 -60t-15 -65h-33q-40 0 -87.5 -3
t-102.5 -9q3 26 4.5 56t1.5 63q0 35 -4 113v12z" />
    <glyph glyph-name="semicolon" unicode=";" horiz-adv-x="389" 
d="M78 755q34 4 65 5.5t58 1.5q28 0 54.5 -1.5t51.5 -4.5q6 -35 9 -61t3 -46q0 -29 -5 -60t-15 -65h-33q-40 0 -87.5 -3t-102.5 -9q3 26 4.5 56.5t1.5 62.5q0 35 -4 113v11zM-68 -125q74 91 113.5 179t48.5 181q12 2 24 2.5t38 0.5q37 0 72.5 -4t68.5 -11
q-12 -131 -68 -246.5t-159 -220.5q-34 23 -68 52.5t-70 66.5z" />
    <glyph glyph-name="less" unicode="&#x3c;" horiz-adv-x="1706" 
d="M1442 1194v-219l-893 -365l893 -364v-219l-1178 485v199z" />
    <glyph glyph-name="equal" unicode="=" horiz-adv-x="1706" 
d="M254 496h1198v-199h-1198v199zM254 926h1198v-199h-1198v199z" />
    <glyph glyph-name="greater" unicode="&#x3e;" horiz-adv-x="1706" 
d="M264 1194l1178 -483v-199l-1178 -485v219l895 364l-895 365v219z" />
    <glyph glyph-name="question" unicode="?" horiz-adv-x="678" 
d="M187 225q40 3 83 4.5t88 1.5h62q8 -61 11 -99t3 -66q0 -22 -1.5 -40.5t-4.5 -33.5l-231 2q-6 71 -8.5 118.5t-2.5 82.5zM215 383q-3 46 -4.5 91t-1.5 91q0 39 4.5 87.5t13.5 103.5q86 13 127 68t41 155q0 98 -22 148.5t-66 50.5q-48 0 -78 -64t-34 -176l-177 98v13
q0 204 85 326t225 122q133 0 220 -132.5t87 -342.5q0 -176 -51 -277t-162 -147q-1 -17 -1.5 -43t-0.5 -88v-74z" />
    <glyph glyph-name="at" unicode="@" horiz-adv-x="2048" 
d="M1167 272q-55 -84 -127 -123.5t-170 -39.5q-158 0 -240.5 86t-82.5 254q0 239 139.5 401t343.5 162q80 0 139 -33t97 -98l53 98h178l-147 -598q-3 -11 -5 -22.5t-2 -18.5q0 -35 24 -52.5t71 -17.5q39 0 81.5 20t79.5 56q86 80 130.5 187t44.5 235q0 240 -185.5 394.5
t-478.5 154.5q-141 0 -262.5 -34t-220.5 -101q-170 -114 -261.5 -285t-91.5 -375q0 -307 207 -490.5t553 -183.5q162 0 316.5 49t287.5 142l82 -117q-153 -115 -324.5 -173t-357.5 -58q-192 0 -353 48.5t-286 143.5q-155 121 -232 279t-77 358q0 167 52.5 318.5t154.5 275.5
q148 181 356 274t463 93q169 0 317.5 -45.5t258.5 -128.5q135 -105 201.5 -239.5t66.5 -303.5q0 -165 -65.5 -304.5t-188.5 -238.5q-70 -56 -152.5 -85.5t-171.5 -29.5q-106 0 -159.5 42t-55.5 124zM1217 700q-13 81 -57.5 123.5t-117.5 42.5q-114 0 -198 -124t-84 -298
q0 -92 40.5 -140t117.5 -48q83 0 151.5 63t93.5 164z" />
    <glyph glyph-name="A" unicode="A" horiz-adv-x="692" 
d="M281 301h133q-21 135 -39 297t-33 348q-14 -178 -29.5 -339.5t-31.5 -305.5zM-25 8q97 438 155.5 803t82.5 674l287 -4q29 -370 77 -734.5t115 -723.5l-235 -33l-17 112l-184 -2l-18 -131z" />
    <glyph glyph-name="B" unicode="B" horiz-adv-x="807" 
d="M362 1495l-2 -59q23 12 48.5 18t52.5 6q116 0 190 -80t74 -206q0 -81 -35 -165t-106 -178q92 -99 137 -198t45 -201q0 -213 -114 -335t-314 -122q-49 0 -110 7.5t-125 21.5l4 202t2 181q0 224 -10 487t-29 576zM365 234q67 13 103 58.5t36 117.5q0 84 -41 156t-111 111
q3 -124 6 -235t7 -208zM350 920q56 49 84.5 97.5t28.5 92.5t-27 74t-67 30q-3 0 -8.5 -1t-8.5 -1q-1 -40 -1.5 -84.5t-0.5 -130.5v-77z" />
    <glyph glyph-name="C" unicode="C" horiz-adv-x="711" 
d="M647 403q-2 -63 -5 -133.5t-3 -79.5q0 -26 1.5 -55t6.5 -77q-39 -40 -92 -60.5t-117 -20.5q-171 0 -283 186.5t-112 483.5q0 176 40 338.5t114 288.5q64 108 142 164.5t165 56.5q42 0 81.5 -14.5t73.5 -42.5q-19 -70 -32.5 -142t-22.5 -149q-20 15 -36 21.5t-33 7.5
q-89 0 -155.5 -136.5t-66.5 -339.5q0 -162 61 -260t158 -98q38 0 66.5 15.5t48.5 45.5z" />
    <glyph glyph-name="D" unicode="D" horiz-adv-x="809" 
d="M84 2q1 28 2 81q6 314 6 439q0 315 -10 552t-29 386q73 32 144 48t141 16h14l-10 -92q24 20 51 30.5t60 10.5q147 0 228 -160t81 -453q0 -228 -43.5 -417.5t-122.5 -309.5q-50 -76 -106 -107.5t-144 -31.5q-68 0 -132.5 2t-129.5 6zM346 262h29q59 100 91 244t32 311
q0 163 -28.5 243.5t-84.5 80.5q-9 0 -19.5 -3.5t-22.5 -10.5q-5 -53 -7 -102.5t-2 -98.5q0 -80 6 -369q4 -185 6 -295z" />
    <glyph glyph-name="E" unicode="E" horiz-adv-x="659" 
d="M51 2q22 138 34 313.5t15 388.5l-82 9q29 55 49 110.5t33 112.5q0 118 -8 247.5t-24 274.5q76 12 147 18.5t135 6.5q44 0 93 -2t102 -7q7 -32 10.5 -63.5t3.5 -60.5q0 -30 -5.5 -63t-16.5 -70q-54 3 -101.5 4.5t-91.5 0.5q5 -68 6.5 -114t1.5 -88v-47l236 6
q10 -52 14 -84t4 -59q0 -28 -2 -56t-6 -57q-72 -9 -131.5 -13.5t-108.5 -5.5q-3 -94 -7.5 -197.5t-10.5 -215.5q16 -1 35 -1.5t57 -0.5q52 0 99 2t92 6q0 -70 -13 -138.5t-39 -140.5q-95 -16 -183.5 -24t-156.5 -8q-25 0 -34.5 0.5t-14.5 1.5z" />
    <glyph glyph-name="F" unicode="F" horiz-adv-x="616" 
d="M43 23q22 261 32.5 491.5t10.5 431.5q0 143 -6 270.5t-18 237.5q149 2 255.5 10.5t167.5 24.5q12 -65 17.5 -104.5t5.5 -63.5q0 -17 -2.5 -40.5t-7.5 -57.5q-38 -13 -78 -21.5t-80 -12.5q0 -21 1 -74.5t1 -84.5q0 -95 -1 -180t-3 -176l246 16v-18q0 -47 -6.5 -107
t-20.5 -141q-53 0 -107.5 -3t-111.5 -9q-6 -81 -9 -168t-3 -178v-72q-82 11 -153 18.5t-130 10.5z" />
    <glyph glyph-name="G" unicode="G" horiz-adv-x="758" 
d="M706 51l-85 25q-38 -50 -84.5 -74.5t-104.5 -24.5q-173 0 -282 193.5t-109 509.5q0 177 33.5 322t101.5 266q62 110 136 168.5t151 58.5q42 0 83.5 -15.5t84.5 -47.5q-10 -151 -19 -229t-22 -124q-31 37 -60 55.5t-55 18.5q-81 0 -133.5 -126t-52.5 -329
q0 -172 40 -286.5t95 -114.5q9 0 20 3t25 9q5 46 7.5 84.5t2.5 71.5q0 109 -12 209q-2 14 -2 16l-88 21q6 69 9 137.5t3 136.5q68 -21 147 -33.5t168 -15.5q-4 -177 -6 -273t-2 -178q0 -105 2.5 -213.5t7.5 -220.5z" />
    <glyph glyph-name="H" unicode="H" horiz-adv-x="797" 
d="M70 -2q7 214 10.5 472.5t3.5 645.5q0 122 -3.5 203.5t-10.5 148.5q53 7 109.5 10t115.5 3l47 -1q1 -63 1.5 -139t0.5 -225q0 -179 -1 -266.5t-3 -161.5h125v18q4 166 4 240q0 152 -5 284.5t-15 239.5l282 15q-8 -314 -12 -537.5t-4 -386.5q0 -144 2 -288t6 -289
q-42 6 -104 11t-170 11q3 75 6 166.5t8 263.5l-123 -6q-5 -108 -7.5 -196t-2.5 -164l-1 -68q-17 1 -38 1.5t-62 0.5q-45 0 -84.5 -1.5t-74.5 -4.5z" />
    <glyph glyph-name="I" unicode="I" horiz-adv-x="432" 
d="M72 -10q6 144 9 291t3 297q0 274 -10 492.5t-31 389.5l279 27q16 -245 24 -507t8 -542q0 -123 -7 -392q-1 -24 -1 -36q-78 -10 -145.5 -15t-128.5 -5z" />
    <glyph glyph-name="J" unicode="J" horiz-adv-x="483" 
d="M397 1493q-3 -95 -4.5 -184.5t-1.5 -175.5q0 -56 2 -191t2 -215q0 -357 -35 -507.5t-118 -262.5q-46 -61 -114 -109.5t-159 -85.5l-61 175q126 91 178.5 246t52.5 464q0 217 -8.5 423t-26.5 400z" />
    <glyph glyph-name="K" unicode="K" horiz-adv-x="778" 
d="M52 0q15 266 23.5 491.5t8.5 401.5q0 169 -7.5 304t-23.5 247q66 14 130 23t124 11q12 -116 18.5 -258t6.5 -305v-69q59 161 95 321t50 320h27q48 0 102.5 -9t116.5 -26q-23 -193 -73.5 -366t-127.5 -324q97 -185 162.5 -369t99.5 -370q-65 -24 -121.5 -36t-107.5 -12
q-18 0 -26.5 0.5t-15.5 1.5q-24 144 -68 300t-113 337q0 -169 -6.5 -323.5t-20.5 -298.5q-46 5 -88.5 7.5t-83.5 2.5q-33 0 -50 -0.5t-31 -1.5z" />
    <glyph glyph-name="L" unicode="L" horiz-adv-x="606" 
d="M59 0q12 144 17.5 305t5.5 461q0 239 -6 411.5t-19 301.5l275 14q0 -26 -1 -81t-1 -83q0 -108 3 -332.5t3 -343.5t-2 -216.5t-6 -182.5q31 -2 64 -3t91 -1q28 0 92 3q9 1 12 1q3 -33 4 -53.5t1 -36.5q0 -41 -3 -84.5t-9 -89.5q-8 0 -26 -1t-28 -1q-44 0 -187 6t-243 6
h-37z" />
    <glyph glyph-name="M" unicode="M" horiz-adv-x="977" 
d="M12 35q46 250 69 507t23 521q0 88 -3.5 184.5t-10.5 197.5q57 19 115.5 31.5t118.5 18.5q43 -168 83.5 -405t77.5 -547q62 226 100.5 459t53.5 477q51 -12 100 -17.5t99 -5.5q7 0 22.5 1t22.5 1q-14 -120 -20.5 -225.5t-6.5 -196.5q0 -232 32.5 -473t96.5 -489
q-68 -19 -126.5 -43t-108.5 -54q-34 133 -54.5 307.5t-27.5 395.5q-31 -118 -51 -276t-31 -369l-176 -25q-16 171 -45.5 332.5t-73.5 316.5q-7 -123 -11 -245t-4 -238q0 -75 0.5 -110.5t1.5 -65.5q-64 13 -131 21.5t-135 13.5z" />
    <glyph glyph-name="N" unicode="N" horiz-adv-x="797" 
d="M18 18q36 227 54 477.5t18 522.5q0 111 -6.5 212.5t-20.5 196.5q64 11 125 29t119 43q41 -191 86.5 -379.5t98.5 -386.5q0 202 -4 385.5t-11 349.5q29 -3 55 -4.5t52 -1.5q42 0 85.5 5t84.5 13q-24 -168 -35.5 -359.5t-11.5 -411.5q0 -171 5.5 -339t16.5 -333
q-58 -2 -114.5 -16.5t-110.5 -43.5q-9 89 -60.5 295.5t-138.5 501.5q-4 -74 -6 -138.5t-2 -111.5q0 -211 2.5 -347t7.5 -179q-68 5 -165 11.5t-124 8.5z" />
    <glyph glyph-name="O" unicode="O" horiz-adv-x="782" 
d="M397 1075q-51 0 -77.5 -101t-26.5 -298q0 -181 21 -262.5t67 -81.5q49 0 78.5 106.5t29.5 288.5q0 185 -21.5 266.5t-70.5 81.5zM375 -23q-156 0 -244 189t-88 528q0 368 100.5 584.5t266.5 216.5q148 0 237.5 -209t89.5 -565q0 -338 -100 -541t-262 -203z" />
    <glyph glyph-name="P" unicode="P" horiz-adv-x="758" 
d="M66 -49q10 120 15 274t5 373q0 232 -4 449.5t-12 418.5l282 54l-6 -76q28 13 51 19.5t41 6.5q127 0 202 -140.5t75 -383.5q0 -245 -83 -378.5t-235 -133.5q-21 0 -33 0.5t-24 1.5q0 -8 -1 -24q-3 -150 -3 -219q0 -64 3 -120.5t9 -105.5q-2 0 -7 1q-49 3 -71 3
q-40 0 -89 -4.5t-115 -15.5zM332 694q8 -3 14 -4.5t10 -1.5q47 0 75 81.5t28 219.5q0 98 -24 157.5t-60 59.5q-8 0 -17 -3t-18 -9q-5 -111 -7.5 -202.5t-2.5 -170.5q0 -53 0.5 -79.5t1.5 -47.5z" />
    <glyph glyph-name="Q" unicode="Q" horiz-adv-x="797" 
d="M823 150q-31 -54 -57.5 -113.5t-46.5 -122.5q-70 48 -143 71t-156 23q-70 0 -131.5 -12.5t-116.5 -38.5q-31 40 -46.5 85t-16.5 98q28 21 57.5 33.5t60.5 16.5q-81 41 -125.5 194.5t-44.5 393.5q0 321 100 518t255 197q157 0 240 -182.5t83 -530.5q0 -212 -38.5 -347
t-114.5 -195q58 -2 119 -24t122 -64zM389 354q48 0 72 88t24 263t-24 272.5t-68 97.5q-42 0 -65 -95.5t-23 -270.5q0 -170 22 -262.5t62 -92.5z" />
    <glyph glyph-name="R" unicode="R" horiz-adv-x="760" 
d="M340 803q51 33 76.5 94t25.5 152q0 66 -21.5 108.5t-53.5 42.5q-13 0 -22 -6.5t-13 -17.5q5 -128 6.5 -191t1.5 -117v-65zM31 -16q33 188 49 405.5t16 474.5q0 152 -9 292.5t-28 273.5q51 11 110.5 35t123.5 59q6 -23 13 -66q3 -18 5 -28q34 33 66.5 48t71.5 15
q95 0 161 -118t66 -300q0 -104 -24 -189.5t-72 -152.5q32 -165 79.5 -340t110.5 -358q-60 -27 -127.5 -49t-144.5 -41l-125 657l-31 -22v-25q0 -103 -11 -234.5t-34 -297.5h-18q-40 0 -98 -9t-150 -30z" />
    <glyph glyph-name="S" unicode="S" horiz-adv-x="653" 
d="M115 -20q-3 73 -16 150t-36 159h17q104 0 166.5 54.5t62.5 143.5q0 48 -20.5 98.5t-87.5 149.5q-86 127 -116 209t-30 170q0 177 113 281t303 104h35q24 -61 44 -130t38 -148q-20 6 -38.5 9t-35.5 3q-80 0 -132 -40.5t-52 -102.5q0 -36 20 -79.5t86 -140.5
q103 -148 133.5 -234.5t30.5 -184.5q0 -218 -127 -344.5t-344 -126.5h-14z" />
    <glyph glyph-name="T" unicode="T" horiz-adv-x="664" 
d="M12 1219q0 109 -0.5 161.5t-1.5 93.5q96 -9 187.5 -13.5t179.5 -4.5q82 0 151.5 3.5t130.5 10.5q-4 -45 -6 -92.5t-2 -99.5q0 -37 0.5 -54.5t1.5 -33.5q-44 6 -92 10.5t-100 7.5q-12 -195 -18.5 -417.5t-6.5 -471.5q0 -59 2.5 -132t7.5 -166q-61 -4 -157.5 -11.5
l-122.5 -9.5q1 282 9 586.5t22 627.5q-52 3 -80.5 4t-53.5 1h-51z" />
    <glyph glyph-name="U" unicode="U" horiz-adv-x="768" 
d="M723 1474q-19 -323 -29 -578.5t-10 -428.5q0 -118 8.5 -232t26.5 -225q-59 0 -117 -3t-117 -9l-14 123q-27 -50 -72 -78.5t-96 -28.5q-124 0 -182 125.5t-58 395.5q0 147 12.5 394t12.5 347q0 50 -7 167q-1 9 -1 13q71 3 142.5 12.5t139.5 24.5q-25 -267 -39 -494.5
t-14 -388.5q0 -116 26 -172.5t79 -56.5q6 0 21 3q4 1 5 1q-2 36 -3 82.5t-1 148.5q0 186 10.5 441t10.5 323q0 44 -0.5 63.5t-1.5 34.5q60 -4 95 -6t64 -2q18 0 40.5 1z" />
    <glyph glyph-name="V" unicode="V" horiz-adv-x="758" 
d="M197 -20q-39 445 -85.5 825t-96.5 663q42 -2 119 -13t110 -11q8 0 17.5 1t22.5 3q12 -175 31 -406.5l47 -545.5q64 296 102 529.5t52 420.5h31q55 0 117.5 8.5t136.5 26.5q-130 -513 -217 -905t-111 -570h-20q-50 0 -111.5 -6.5t-144.5 -19.5z" />
    <glyph glyph-name="W" unicode="W" horiz-adv-x="1042" 
d="M250 0q-55 396 -116.5 750.5t-132.5 691.5q83 7 148 16.5t119 24.5q16 -184 39 -388t53 -425q20 171 39.5 378t38.5 443q43 -15 80 -22t72 -7h14l53.5 -416l57.5 -415q36 268 61 477t37 356h231q-86 -461 -141 -834t-74 -622l-194 -28q-9 77 -38 259.5l-71 428.5
q-20 -172 -35.5 -331.5t-27.5 -309.5z" />
    <glyph glyph-name="X" unicode="X" horiz-adv-x="797" 
d="M278 -14q-48 5 -112.5 10t-158.5 10q77 176 142 360t117 379q-67 196 -134.5 355t-141.5 295l141 38l154 42q20 -96 48.5 -194.5t63.5 -199.5q24 86 47 185t45 212q64 -4 121.5 -12t110.5 -20q-72 -215 -124.5 -389t-76.5 -277l153.5 -378l167.5 -390q-81 -3 -156 -10.5
t-146 -19.5q-25 98 -59 209.5t-79 244.5q-26 -80 -57 -192.5t-66 -257.5z" />
    <glyph glyph-name="Y" unicode="Y" horiz-adv-x="895" 
d="M311 -22q7 99 11 227t6 311q-51 203 -133.5 440.5t-194.5 501.5q12 -1 26 -1.5t42 -0.5q60 0 119 7.5t116 21.5l89 -326.5l81 -320.5q44 174 82 340t68 319q44 -7 79.5 -10.5t67.5 -3.5t63 3t64 9q-50 -140 -130 -395l-187 -615l-5 -483q-82 -9 -148 -15t-116 -9z" />
    <glyph glyph-name="Z" unicode="Z" horiz-adv-x="664" 
d="M-8 -6q73 195 151.5 502t157.5 704h-51q-54 0 -99.5 2.5t-88.5 7.5q17 65 27 134t12 143q70 -15 151 -22t176 -7q49 0 98 4t99 13q-93 -357 -162.5 -662.5t-109.5 -538.5q24 -3 43 -4.5t36 -1.5q34 0 77 7.5t99 23.5q-15 -73 -27.5 -147.5t-21.5 -149.5
q-33 -7 -62.5 -10.5t-58.5 -3.5q-42 0 -138 6t-150 6q-29 0 -69 -1.5t-89 -4.5z" />
    <glyph glyph-name="bracketleft" unicode="[" horiz-adv-x="465" 
d="M383 -182q-25 -3 -52.5 -4.5t-56.5 -1.5q-50 0 -95.5 4t-88.5 12q-5 209 -7.5 337.5t-2.5 223.5q0 337 6 617.5t19 527.5q73 -3 120.5 -4.5t69.5 -1.5q28 0 58.5 1t76.5 3q2 -11 3 -23.5t1 -38.5q0 -24 -3 -48.5t-9 -49.5l-94 -12q-11 -188 -17 -441t-6 -561
q0 -121 2 -212.5t6 -163.5l98 -23q-3 -25 -9.5 -58t-18.5 -83z" />
    <glyph glyph-name="backslash" unicode="\" horiz-adv-x="569" 
d="M479 -190l-285.5 860l-242.5 780l143 43q83 -289 268 -853.5l256 -793.5z" />
    <glyph glyph-name="bracketright" unicode="]" horiz-adv-x="465" 
d="M80 1528q35 2 56.5 3t39.5 1q51 0 101 -3.5t98 -11.5q4 -149 6 -307t2 -329q0 -260 -6 -528.5t-19 -542.5q-74 3 -121.5 4.5t-68.5 1.5q-27 0 -57.5 -1t-77.5 -3q-3 23 -3.5 34t-0.5 21q0 28 3.5 54t10.5 50l92 15q11 194 17 446.5t6 552.5q0 167 -1.5 243t-5.5 136
l-95 14q1 37 7 74t17 76z" />
    <glyph glyph-name="asciicircum" unicode="^" horiz-adv-x="2048" 
d="M897 1460h252l481 -561h-235l-371 371l-373 -371h-235z" />
    <glyph glyph-name="underscore" unicode="_" 
d="M0 -279h1024v-204h-1024v204z" />
    <glyph glyph-name="grave" unicode="`" 
d="M516 1442q22 -101 42 -183t42 -157l-133 -29q-59 77 -103 163.5t-73 182.5z" />
    <glyph glyph-name="a" unicode="a" horiz-adv-x="707" 
d="M413 239q1 59 -5 120t-17 124h-2q-39 0 -65.5 -41t-26.5 -104q0 -50 21 -81.5t55 -31.5q9 0 19.5 3.5t20.5 10.5zM418 109q-68 -72 -115.5 -99.5t-97.5 -27.5q-84 0 -137.5 71.5t-53.5 188.5q0 164 91.5 265t250.5 114q-15 49 -50.5 76.5t-84.5 27.5q-20 0 -35.5 -4.5
t-27.5 -13.5q12 44 18 99t6 120v28q23 18 48 26.5t57 8.5q168 0 266.5 -187t110.5 -532l8 -225q-64 -6 -126.5 -24t-123.5 -48z" />
    <glyph glyph-name="b" unicode="b" horiz-adv-x="702" 
d="M58 -2q2 148 3.5 309.5t1.5 335.5q0 258 -4 469t-12 365q60 8 121.5 20.5t126.5 30.5v-540q171 -4 272 -146t101 -383q0 -200 -69 -329.5t-171 -129.5q-48 0 -80 25.5t-67 95.5l2 -129q-10 1 -27 2q-57 6 -74 6q-26 0 -67.5 -1t-56.5 -1zM295 338q6 -9 15 -13.5t22 -5.5
q41 0 66.5 42t25.5 112q0 97 -36 157.5t-93 63.5v-356z" />
    <glyph glyph-name="c" unicode="c" horiz-adv-x="551" 
d="M491 229q-4 -42 -6 -67t-2 -45q0 -14 1 -30t3 -41q-27 -39 -68 -59t-91 -20q-124 0 -206.5 132.5t-82.5 338.5q0 234 97 387.5t241 153.5q43 0 75.5 -14.5t53.5 -42.5q-17 -61 -28 -121.5t-15 -120.5q-20 19 -31.5 25t-28.5 6q-58 0 -93.5 -67t-35.5 -181
q0 -108 50.5 -182t119.5 -74q15 0 26.5 5.5t20.5 16.5z" />
    <glyph glyph-name="d" unicode="d" horiz-adv-x="702" 
d="M401 643q-12 9 -23 13.5t-22 5.5q-45 0 -72.5 -39t-27.5 -105q0 -82 34.5 -137t84.5 -55q9 0 18 2t17 6q-2 26 -6 214q-2 61 -3 95zM447 -33l-19 152q-28 -58 -73.5 -91.5t-96.5 -33.5q-96 0 -159.5 138.5t-63.5 359.5q0 215 73 352t183 137q36 0 62 -23t50 -77
q0 119 -3.5 239.5t-9.5 239.5q63 5 137 18.5t159 34.5q-25 -261 -38 -521.5t-13 -516.5q0 -119 7 -206t22 -159l-108.5 -23t-108.5 -20z" />
    <glyph glyph-name="e" unicode="e" horiz-adv-x="668" 
d="M291 537q30 5 58.5 12.5t55.5 17.5q-1 89 -15 132.5t-42 43.5q-26 0 -43.5 -35t-17.5 -92q0 -6 1.5 -33zM582 299q0 -12 3 -45.5t3 -48.5q0 -33 -3 -67.5t-10 -76.5q-45 -39 -98.5 -58t-116.5 -19q-149 0 -235 125t-86 346q0 232 100.5 391.5t233.5 159.5
q113 0 178.5 -140.5t77.5 -408.5q-72 -27 -149 -50t-161 -42q11 -58 42.5 -87.5t82.5 -29.5q42 0 76 12.5t62 38.5z" />
    <glyph glyph-name="f" unicode="f" horiz-adv-x="512" 
d="M58 0q2 113 3.5 238.5t1.5 261.5q0 125 -1 267q-1 40 -1 50q0 319 82 476t248 157q47 0 86.5 -10t75.5 -31v-14q0 -40 -11.5 -99.5t-43.5 -181.5q-21 34 -42 50t-44 16q-56 0 -79.5 -85.5t-23.5 -306.5q0 -20 1 -64.5t1 -69.5q35 2 76.5 9t89.5 19q0 -13 1 -36t1 -34
q0 -48 -4 -93.5t-12 -84.5q-37 -15 -74.5 -25.5t-74.5 -15.5q-2 -44 -2.5 -84.5t-0.5 -81.5q0 -67 3.5 -122.5t10.5 -102.5q-31 3 -63 4.5t-63 1.5q-40 0 -75 -2t-66 -6z" />
    <glyph glyph-name="g" unicode="g" horiz-adv-x="668" 
d="M254 571q0 -51 20 -78.5t56 -27.5q38 0 60 28.5t22 77.5q0 47 -23.5 78t-58.5 31q-33 0 -54.5 -30.5t-21.5 -78.5zM518 870q25 27 53.5 42t59.5 17q6 -53 19 -98t34 -86q-23 -19 -45.5 -35t-48.5 -30q8 -39 12 -69t4 -54q0 -167 -78 -273t-198 -106q-13 0 -19 0.5
t-11 1.5q97 -87 164.5 -194t104.5 -234l-207 -94q-47 141 -135.5 252.5t-214.5 187.5l107 197q-38 56 -57 126.5t-19 153.5q0 188 81 306t206 118q61 0 109 -33t79 -96z" />
    <glyph glyph-name="h" unicode="h" horiz-adv-x="721" 
d="M57 -12q4 197 6.5 382t2.5 355q0 213 -2.5 402t-6.5 366h35q66 0 121 5t102 15q-8 -179 -12 -308.5t-4 -225.5v-59q26 29 50.5 42t53.5 13q115 0 190 -197t75 -512q0 -63 -3.5 -125.5t-9.5 -122.5q-84 -9 -140 -20t-99 -25l1 13q11 147 11 219q0 232 -26.5 328t-88.5 96
q-3 0 -8 -1t-8 -1v-129q0 -139 2.5 -253t7.5 -198q-66 -8 -128.5 -23t-121.5 -36z" />
    <glyph glyph-name="i" unicode="i" horiz-adv-x="379" 
d="M291 1415l-2 -268l-238 -8q-2 38 -5 103q-6 125 -9 169zM64 6v19q4 235 4 342q0 176 -5 328t-13 278l243 26q6 -201 9 -408.5t3 -422.5v-172q-43 6 -85 9t-85 3q-29 0 -44 -0.5t-27 -1.5z" />
    <glyph glyph-name="j" unicode="j" horiz-adv-x="389" 
d="M326 1421l-19 -254h-246v64q0 56 -3 177q-1 9 -1 13q18 0 58 -1t63 -1q22 0 71 1t77 1zM-20 -190q48 69 70 187t22 312q0 180 -4 350t-10 324l261 6q-9 -186 -12 -550q-1 -160 -2 -239q-2 -113 -27 -199.5t-77 -162.5q-55 -14 -110 -21t-111 -7z" />
    <glyph glyph-name="k" unicode="k" horiz-adv-x="711" 
d="M55 14q1 17 2 48q6 194 6 278q0 381 -3.5 665.5t-10.5 427.5l266 56q-8 -124 -12 -312.5t-4 -469.5v-201q43 15 80 126t70 320q17 3 35.5 4.5t35.5 1.5q48 0 87 -12t71 -37l-4 -18q-88 -399 -146 -463q52 -52 98 -150t89 -249q-62 -27 -122.5 -40.5t-123.5 -13.5
q-67 230 -99 294.5t-65 64.5h-6q0 -91 4 -169.5t12 -144.5z" />
    <glyph glyph-name="l" unicode="l" horiz-adv-x="371" 
d="M319 -25l-243 15q-4 141 -6 272.5t-2 249.5q0 255 5 496t15 473l242 45q-14 -250 -20.5 -484.5t-6.5 -453.5q0 -176 4 -326.5t12 -286.5z" />
    <glyph glyph-name="m" unicode="m" horiz-adv-x="1028" 
d="M58 -6q5 206 7.5 341t2.5 232q0 98 -4 196t-11 193l242 43l-6 -141q29 52 63.5 77.5t77.5 25.5q42 0 75 -30t54 -87q21 62 60 97.5t86 35.5q130 0 194 -161t64 -490q0 -43 -2.5 -109.5t-8.5 -175.5q-55 -2 -110 -10t-111 -23q6 111 9 206.5t3 176.5q0 147 -21.5 199.5
t-76.5 52.5q-12 0 -17.5 -0.5t-10.5 -1.5q6 -82 9 -159t3 -150q0 -62 -2.5 -141.5t-8.5 -188.5q-53 -5 -105.5 -12.5t-104.5 -18.5q0 32 2 94q6 215 6 291q0 203 -15 252t-55 49q-10 0 -21 -4.5t-28 -15.5q-1 -35 -1.5 -78.5t-0.5 -132.5q0 -101 1.5 -209.5t4.5 -226.5z" />
    <glyph glyph-name="n" unicode="n" horiz-adv-x="717" 
d="M52 -4q10 278 14 407.5t4 221.5q0 73 -1.5 157.5t-4.5 178.5q45 7 101.5 24t129.5 45l-10 -174q36 73 69.5 107t69.5 34q94 0 168 -222t74 -550q0 -54 -3.5 -107.5t-9.5 -105.5q-54 -16 -111 -27t-118 -18v62v98q0 285 -20 398.5t-68 113.5q-9 0 -16.5 -2t-14.5 -7
q-6 -154 -9 -309.5t-4 -310.5q-50 -7 -100.5 -10.5t-103.5 -3.5h-36z" />
    <glyph glyph-name="o" unicode="o" horiz-adv-x="651" 
d="M401 477q0 71 -21 109.5t-61 38.5q-35 0 -54 -38.5t-19 -111.5q0 -72 18.5 -106.5t57.5 -34.5q38 0 58.5 36.5t20.5 106.5zM346 997q116 0 191 -141.5t75 -368.5q0 -217 -80 -356t-202 -139q-131 0 -211 135.5t-80 361.5q0 221 89 364.5t218 143.5z" />
    <glyph glyph-name="p" unicode="p" horiz-adv-x="702" 
d="M297 317h18q60 0 90.5 50.5t30.5 148.5q0 59 -22.5 94t-59.5 35q-13 0 -28 -5t-29 -15v-308zM37 -244q12 191 18 372t6 351q0 125 -7.5 235.5t-22.5 209.5l219 75l29 -118q31 44 71 68t84 24q98 0 164 -128t66 -329q0 -227 -76.5 -372.5t-190.5 -145.5q-34 0 -59.5 15
t-40.5 44v-253q-75 -7 -140 -19t-120 -29z" />
    <glyph glyph-name="q" unicode="q" horiz-adv-x="702" 
d="M410 645q-15 15 -30 22t-32 7q-41 0 -65.5 -49t-24.5 -131q0 -69 24 -107.5t66 -38.5q12 0 27 5.5t35 17.5v274zM398 -225q2 61 6.5 137.5t11.5 171.5q-31 -40 -67 -60t-77 -20q-102 0 -167.5 117.5t-65.5 308.5q0 247 76 396t198 149q40 0 69 -17.5t52 -56.5l33 84h16
q41 0 79.5 7.5t76.5 22.5q-2 -136 -3 -235.5t-1 -191.5q0 -214 2.5 -406.5t7.5 -379.5q-76 -4 -137.5 -10.5t-109.5 -16.5z" />
    <glyph glyph-name="r" unicode="r" horiz-adv-x="545" 
d="M70 -2q2 81 3 135t1 103q0 150 -4.5 329.5t-14.5 388.5q60 6 118.5 18.5t117.5 31.5l4 -123q29 36 60 53.5t67 17.5q38 0 70.5 -9.5t66.5 -31.5q-10 -73 -30.5 -136t-53.5 -122q-26 15 -51 22t-51 7q-12 0 -27 -2.5t-34 -7.5q2 -85 3.5 -160.5t1.5 -138.5
q0 -98 -2 -199.5t-6 -206.5q-59 14 -119.5 21.5t-119.5 9.5z" />
    <glyph glyph-name="s" unicode="s" horiz-adv-x="457" 
d="M416 735l-20.5 3.5t-22.5 2.5q-33 0 -50.5 -18.5t-17.5 -52.5q0 -39 56.5 -172t56.5 -230q0 -145 -93.5 -234.5t-256.5 -98.5q-10 78 -25 144t-37 120q66 0 98.5 27.5t32.5 82.5q0 52 -49 184.5t-49 211.5q0 129 97 207.5t257 78.5q8 0 16.5 -0.5t26.5 -3.5
q3 -33 3.5 -48.5t0.5 -29.5q0 -48 -6 -92t-18 -82z" />
    <glyph glyph-name="t" unicode="t" horiz-adv-x="526" 
d="M385 1270q-7 -85 -10.5 -184t-3.5 -216q0 -6 1 -43.5t1 -66.5q24 1 53.5 6t60.5 12q2 -94 6 -152t10 -94q-18 -9 -47 -16t-79 -15q0 -163 2.5 -282.5t7.5 -215.5q-16 -1 -49 0t-49 1q-43 0 -128 -4h-5l-15 498q-25 1 -55 7t-61 15l12 225l86 3q-7 109 -10.5 210.5
t-3.5 192.5v61z" />
    <glyph glyph-name="u" unicode="u" horiz-adv-x="702" 
d="M436 -16l-14 127q-41 -67 -86 -100.5t-94 -33.5q-96 0 -140.5 121.5t-44.5 382.5q0 100 8.5 219.5t26.5 265.5q14 0 27.5 -0.5t30.5 -0.5q36 0 77.5 6t89.5 18q-15 -147 -22.5 -272.5t-7.5 -214.5q0 -88 16.5 -124t54.5 -36q13 0 25.5 5t25.5 15l1 598q44 6 78 8.5
t61 2.5q23 0 73 -4h11v-910z" />
    <glyph glyph-name="v" unicode="v" horiz-adv-x="592" 
d="M213 979l86 -524l104 536q48 -14 87 -21t65 -7q11 0 25 1.5t30 3.5l-166 -679q-14 -59 -28 -131t-29 -162l-227 4q-29 239 -70 478t-94 478q63 5 115 10.5t102 12.5z" />
    <glyph glyph-name="w" unicode="w" horiz-adv-x="920" 
d="M57 968q25 -3 53 -5t60 -2q26 0 51 1.5t49 3.5q-13 -131 -18.5 -216t-5.5 -150q0 -125 18.5 -186.5t57.5 -61.5q10 0 20 5t23 16q-7 41 -10 87.5t-3 98.5q0 9 1 52q5 181 5 350q32 -5 67.5 -7t76.5 -2q29 0 43.5 0.5t27.5 1.5q-10 -73 -15 -172t-5 -215q0 -115 13 -166
t42 -51q31 0 47.5 65.5t16.5 192.5q0 60 -6.5 145t-18.5 185q55 11 106 26t97 35q14 -75 21.5 -168t7.5 -208q0 -289 -83.5 -468.5t-209.5 -179.5q-53 0 -93 37.5t-63 108.5q-46 -63 -80.5 -89t-70.5 -26q-116 0 -178 163.5t-62 469.5q0 85 4.5 167.5t13.5 161.5z" />
    <glyph glyph-name="x" unicode="x" horiz-adv-x="702" 
d="M10 0q52 95 107.5 224t115.5 294l-202 440q61 2 118.5 8.5t112.5 18.5l74 -221l67 227q36 -6 71.5 -9t72.5 -3t56.5 1t35.5 3l-170 -473l242 -510q-65 -6 -124 -19t-114 -32l-113 295l-116 -297z" />
    <glyph glyph-name="y" unicode="y" horiz-adv-x="702" 
d="M346 340q46 189 77 339.5t46 260.5q58 2 120 6.5t128 11.5l-132 -552q-138 -571 -153 -691q-56 18 -113.5 28t-113.5 12l84 329l-49 -66q-66 33 -103 96t-57 178q-9 57 -24 270t-38 368q46 0 103 10t135 33q11 -340 31 -476t59 -157z" />
    <glyph glyph-name="z" unicode="z" horiz-adv-x="598" 
d="M19 1l202 687l-178 -4l33 258q47 -4 99.5 -6t115.5 -2q50 0 109 1.5t124 4.5q-40 -124 -84.5 -296.5t-95.5 -401.5q5 -1 14 -2q29 -2 39 -2q69 0 115 12t66 35l-74 -270q-50 -14 -103.5 -20.5t-109.5 -6.5q-36 0 -126.5 5.5t-145.5 7.5z" />
    <glyph glyph-name="braceleft" unicode="{" 
d="M883 1477v-209q-9 0 -25 1t-22 1q-101 0 -136.5 -38.5t-35.5 -162.5v-240q0 -148 -45 -210t-162 -89q117 -27 162 -88t45 -209v-241q0 -123 35 -161t137 -38q6 0 22 1t25 1v-209q-14 0 -39 -1t-37 -1q-100 0 -167 12t-114 37q-57 34 -80.5 91.5t-23.5 199.5v252
q0 137 -51 194.5t-172 57.5q-6 0 -20 -1t-21 -1v209q7 0 21 -1t20 -1q120 0 171.5 58t51.5 196v250q0 143 23.5 201t80.5 92q47 25 114 37t167 12q12 0 37 -1t39 -1z" />
    <glyph glyph-name="bar" unicode="|" 
d="M410 1565h206v-2048h-206v2048z" />
    <glyph glyph-name="braceright" unicode="}" 
d="M143 1477h68q110 0 177 -12t112 -38q57 -32 80.5 -91.5t23.5 -198.5v-252q0 -137 51 -194.5t172 -57.5q6 0 20 1t21 1v-209h-37q-125 0 -176 -56t-51 -194v-252q0 -143 -23.5 -201t-80.5 -90q-47 -25 -114 -37t-167 -12q-12 0 -37 1t-39 1v209q9 0 25 -1t22 -1
q101 0 136.5 38.5t35.5 160.5v239q0 150 45 211.5t162 87.5q-117 27 -162 89t-45 210v242q0 122 -35.5 160.5t-136.5 38.5q-6 0 -22 -1t-25 -1v209z" />
    <glyph glyph-name="asciitilde" unicode="~" horiz-adv-x="1706" 
d="M1530 803v-221q-104 -71 -196.5 -104.5t-182.5 -33.5q-46 0 -92 8t-92 23q-24 8 -71 25q-219 75 -333 75q-85 0 -177.5 -37.5t-207.5 -119.5v221q107 72 204 107.5t183 35.5q117 0 291 -58q3 -1 4 -1l55 -19q155 -55 240 -55t175 37t200 117z" />
    <glyph glyph-name="Adieresis" unicode="&#xc4;" horiz-adv-x="692" 
d="M281 301h133q-21 135 -39 297t-33 348q-14 -178 -29.5 -339.5t-31.5 -305.5zM-25 8q97 438 155.5 803t82.5 674l287 -4q29 -370 77 -734.5t115 -723.5l-235 -33l-17 112l-184 -2l-18 -131zM404 1823q25 -3 48 -4.5t48 -1.5t49.5 1.5t46.5 4.5q-3 -51 -4.5 -100.5
t-1.5 -98.5v-65q-14 -1 -33 -1.5t-55 -0.5t-55 0.5t-35 1.5q-5 49 -7.5 96.5t-2.5 93.5q0 31 0.5 46.5t1.5 27.5zM154 1817q37 1 82.5 2.5l103.5 3.5l4 -254q-28 -7 -59.5 -10.5t-67.5 -3.5q-13 0 -28.5 1t-40.5 3z" />
    <glyph glyph-name="Aring" unicode="&#xc5;" horiz-adv-x="692" 
d="M356 1841q-37 0 -63.5 -26.5t-26.5 -63.5t26 -62.5t64 -25.5t65.5 26t27.5 62q0 37 -27.5 63.5t-65.5 26.5zM356 1972q82 0 140.5 -64.5t58.5 -156.5q0 -93 -57.5 -156t-141.5 -63t-141 62.5t-57 156.5q0 93 58 157t140 64zM281 301h133q-21 135 -39 297t-33 348
q-14 -178 -29.5 -339.5t-31.5 -305.5zM-25 8q100 452 159 820t79 657l287 -4q29 -370 77 -734.5t115 -723.5l-235 -33l-17 112l-184 -2l-18 -131z" />
    <glyph glyph-name="Ccedilla" unicode="&#xc7;" horiz-adv-x="711" 
d="M647 403q-2 -63 -5 -133.5t-3 -79.5q0 -26 1.5 -55t6.5 -77q-39 -40 -92 -60.5t-117 -20.5q-171 0 -283 186.5t-112 483.5q0 176 40 338.5t114 288.5q64 108 142 164.5t165 56.5q42 0 81.5 -14.5t73.5 -42.5q-19 -70 -32.5 -142t-22.5 -149q-20 15 -36 21.5t-33 7.5
q-89 0 -155.5 -136.5t-66.5 -339.5q0 -162 61 -260t158 -98q38 0 66.5 15.5t48.5 45.5zM364 -227q15 54 23.5 111t11.5 116h86l-14 -82q5 1 12 1.5t20 0.5q87 0 136 -51.5t49 -142.5q0 -93 -56.5 -149t-148.5 -56q-74 0 -133 23t-107 71q40 11 72 25t59 32q28 -14 51 -21
t44 -7q37 0 61.5 19t24.5 48q0 25 -18.5 41.5t-47.5 16.5q-14 0 -26.5 -5.5t-22.5 -15.5z" />
    <glyph glyph-name="Eacute" unicode="&#xc9;" horiz-adv-x="659" 
d="M51 2q22 138 34 313.5t15 388.5l-82 9q29 55 49 110.5t33 112.5q0 118 -8 247.5t-24 274.5q76 12 147 18.5t135 6.5q44 0 93 -2t102 -7q7 -32 10.5 -63.5t3.5 -60.5q0 -30 -5.5 -63t-16.5 -70q-54 3 -101.5 4.5t-91.5 0.5q5 -68 6.5 -114t1.5 -88v-47l236 6
q10 -52 14 -84t4 -59q0 -28 -2 -56t-6 -57q-72 -9 -131.5 -13.5t-108.5 -5.5q-3 -94 -7.5 -197.5t-10.5 -215.5q16 -1 35 -1.5t57 -0.5q52 0 99 2t92 6q0 -70 -13 -138.5t-39 -140.5q-95 -16 -183.5 -24t-156.5 -8q-25 0 -34.5 0.5t-14.5 1.5zM196 1600l97.5 188.5
l89.5 173.5l211 -69l-133.5 -174.5l-116.5 -147.5z" />
    <glyph glyph-name="Ntilde" unicode="&#xd1;" horiz-adv-x="797" 
d="M18 18q36 227 54 477.5t18 522.5q0 111 -6.5 212.5t-20.5 196.5q64 11 125 29t119 43q41 -191 86.5 -379.5t98.5 -386.5q0 202 -4 385.5t-11 349.5q29 -3 55 -4.5t52 -1.5q42 0 85.5 5t84.5 13q-24 -168 -35.5 -359.5t-11.5 -411.5q0 -171 5.5 -339t16.5 -333
q-58 -2 -114.5 -16.5t-110.5 -43.5q-9 89 -60.5 295.5t-138.5 501.5q-4 -74 -6 -138.5t-2 -111.5q0 -211 2.5 -347t7.5 -179q-68 5 -165 11.5t-124 8.5zM213 1577q8 119 40.5 174.5t94.5 55.5q30 0 67.5 -28t53.5 -28q24 0 37.5 22.5t21.5 78.5q27 -8 54 -14.5t57 -12.5
q-3 -124 -37 -192t-92 -68q-31 0 -72.5 29.5t-56.5 29.5q-25 0 -38 -19t-21 -73z" />
    <glyph glyph-name="Odieresis" unicode="&#xd6;" horiz-adv-x="782" 
d="M397 1075q-51 0 -77.5 -101t-26.5 -298q0 -181 21 -262.5t67 -81.5q49 0 78.5 106.5t29.5 288.5q0 185 -21.5 266.5t-70.5 81.5zM375 -23q-156 0 -244 189t-88 528q0 368 100.5 584.5t266.5 216.5q148 0 237.5 -209t89.5 -565q0 -338 -100 -541t-262 -203zM449 1823
q25 -3 48 -4.5t48 -1.5t49.5 1.5t46.5 4.5q-3 -51 -4.5 -100.5t-1.5 -98.5v-65q-14 -1 -33 -1.5t-55 -0.5t-55 0.5t-35 1.5q-5 49 -7.5 96.5t-2.5 93.5q0 31 0.5 46.5t1.5 27.5zM199 1817q37 1 82.5 2.5l103.5 3.5l4 -254q-28 -7 -59.5 -10.5t-67.5 -3.5q-13 0 -28.5 1
t-40.5 3z" />
    <glyph glyph-name="Udieresis" unicode="&#xdc;" horiz-adv-x="768" 
d="M723 1474q-19 -323 -29 -578.5t-10 -428.5q0 -118 8.5 -232t26.5 -225q-59 0 -117 -3t-117 -9l-14 123q-27 -50 -72 -78.5t-96 -28.5q-124 0 -182 125.5t-58 395.5q0 147 12.5 394t12.5 347q0 50 -7 167q-1 9 -1 13q71 3 142.5 12.5t139.5 24.5q-25 -267 -39 -494.5
t-14 -388.5q0 -116 26 -172.5t79 -56.5q6 0 21 3q4 1 5 1q-2 36 -3 82.5t-1 148.5q0 186 10.5 441t10.5 323q0 44 -0.5 63.5t-1.5 34.5q60 -4 95 -6t64 -2q18 0 40.5 1zM486 1823q25 -3 48 -4.5t48 -1.5t49.5 1.5t46.5 4.5q-3 -51 -4.5 -100.5t-1.5 -98.5v-65
q-14 -1 -33 -1.5t-55 -0.5t-55 0.5t-35 1.5q-5 49 -7.5 96.5t-2.5 93.5q0 31 0.5 46.5t1.5 27.5zM236 1817q37 1 82.5 2.5l103.5 3.5l4 -254q-28 -7 -59.5 -10.5t-67.5 -3.5q-13 0 -28.5 1t-40.5 3z" />
    <glyph glyph-name="aacute" unicode="&#xe1;" horiz-adv-x="707" 
d="M413 239q1 59 -5 120t-17 124h-2q-39 0 -65.5 -41t-26.5 -104q0 -50 21 -81.5t55 -31.5q9 0 19.5 3.5t20.5 10.5zM418 109q-68 -72 -115.5 -99.5t-97.5 -27.5q-84 0 -137.5 71.5t-53.5 188.5q0 164 91.5 265t250.5 114q-15 49 -50.5 76.5t-84.5 27.5q-20 0 -35.5 -4.5
t-27.5 -13.5q12 44 18 99t6 120v28q23 18 48 26.5t57 8.5q168 0 266.5 -187t110.5 -532l8 -225q-64 -6 -126.5 -24t-123.5 -48zM194 1102l97.5 188.5l89.5 173.5l211 -69l-133.5 -174.5l-116.5 -147.5z" />
    <glyph glyph-name="agrave" unicode="&#xe0;" horiz-adv-x="707" 
d="M413 239q1 59 -5 120t-17 124h-2q-39 0 -65.5 -41t-26.5 -104q0 -50 21 -81.5t55 -31.5q9 0 19.5 3.5t20.5 10.5zM418 109q-68 -72 -115.5 -99.5t-97.5 -27.5q-84 0 -137.5 71.5t-53.5 188.5q0 164 91.5 265t250.5 114q-15 49 -50.5 76.5t-84.5 27.5q-20 0 -35.5 -4.5
t-27.5 -13.5q12 44 18 99t6 120v28q23 18 48 26.5t57 8.5q168 0 266.5 -187t110.5 -532l8 -225q-64 -6 -126.5 -24t-123.5 -48zM358 1442q22 -101 42 -183t42 -157l-133 -29q-59 77 -103 163.5t-73 182.5z" />
    <glyph glyph-name="acircumflex" unicode="&#xe2;" horiz-adv-x="707" 
d="M413 239q1 59 -5 120t-17 124h-2q-39 0 -65.5 -41t-26.5 -104q0 -50 21 -81.5t55 -31.5q9 0 19.5 3.5t20.5 10.5zM418 109q-68 -72 -115.5 -99.5t-97.5 -27.5q-84 0 -137.5 71.5t-53.5 188.5q0 164 91.5 265t250.5 114q-15 49 -50.5 76.5t-84.5 27.5q-20 0 -35.5 -4.5
t-27.5 -13.5q12 44 18 99t6 120v28q23 18 48 26.5t57 8.5q168 0 266.5 -187t110.5 -532l8 -225q-64 -6 -126.5 -24t-123.5 -48zM456 1075q-28 45 -55 95.5t-55 113.5q-25 -45 -45.5 -97t-38.5 -114h-17q-36 0 -66.5 12t-51.5 35q22 84 61 170t96 178h29q31 0 61.5 -2.5
t65.5 -7.5q24 -73 59.5 -159.5t79.5 -182.5z" />
    <glyph glyph-name="adieresis" unicode="&#xe4;" horiz-adv-x="707" 
d="M413 239q1 59 -5 120t-17 124h-2q-39 0 -65.5 -41t-26.5 -104q0 -50 21 -81.5t55 -31.5q9 0 19.5 3.5t20.5 10.5zM418 109q-68 -72 -115.5 -99.5t-97.5 -27.5q-84 0 -137.5 71.5t-53.5 188.5q0 164 91.5 265t250.5 114q-15 49 -50.5 76.5t-84.5 27.5q-20 0 -35.5 -4.5
t-27.5 -13.5q12 44 18 99t6 120v28q23 18 48 26.5t57 8.5q168 0 266.5 -187t110.5 -532l8 -225q-64 -6 -126.5 -24t-123.5 -48zM387 1325q25 -3 48 -4.5t48 -1.5t49.5 1.5t46.5 4.5q-3 -51 -4.5 -100.5t-1.5 -98.5v-65q-14 -1 -33 -1.5t-55 -0.5t-55 0.5t-35 1.5
q-5 49 -7.5 96.5t-2.5 93.5q0 31 0.5 46.5t1.5 27.5zM137 1319q37 1 82.5 2.5l103.5 3.5l4 -254q-28 -7 -59.5 -10.5t-67.5 -3.5q-13 0 -28.5 1t-40.5 3z" />
    <glyph glyph-name="atilde" unicode="&#xe3;" horiz-adv-x="707" 
d="M413 239q1 59 -5 120t-17 124h-2q-39 0 -65.5 -41t-26.5 -104q0 -50 21 -81.5t55 -31.5q9 0 19.5 3.5t20.5 10.5zM418 109q-68 -72 -115.5 -99.5t-97.5 -27.5q-84 0 -137.5 71.5t-53.5 188.5q0 164 91.5 265t250.5 114q-15 49 -50.5 76.5t-84.5 27.5q-20 0 -35.5 -4.5
t-27.5 -13.5q12 44 18 99t6 120v28q23 18 48 26.5t57 8.5q168 0 266.5 -187t110.5 -532l8 -225q-64 -6 -126.5 -24t-123.5 -48zM143 1079q8 119 40.5 174.5t94.5 55.5q30 0 67.5 -28t53.5 -28q24 0 37.5 22.5t21.5 78.5q27 -8 54 -14.5t57 -12.5q-3 -124 -37 -192t-92 -68
q-31 0 -72.5 29.5t-56.5 29.5q-25 0 -38 -19t-21 -73z" />
    <glyph glyph-name="aring" unicode="&#xe5;" horiz-adv-x="707" 
d="M344 1346q-38 0 -65 -26.5t-27 -64.5q0 -37 27 -63.5t65 -26.5t65 27t27 63q0 37 -27.5 64t-64.5 27zM344 1477q82 0 140.5 -65t58.5 -157t-57.5 -155.5t-141.5 -63.5t-141.5 63t-57.5 156t58.5 157.5t140.5 64.5zM418 109q-68 -72 -115.5 -99.5t-97.5 -27.5
q-84 0 -137.5 71.5t-53.5 188.5q0 164 91.5 265t250.5 114q-15 49 -50.5 76.5t-84.5 27.5q-20 0 -35.5 -4.5t-27.5 -13.5q12 44 18 99t6 120v28q23 18 48 26.5t57 8.5q168 0 266.5 -187t110.5 -532l8 -225q-64 -6 -126.5 -24t-123.5 -48zM413 239q1 59 -5 120t-17 124h-2
q-39 0 -65.5 -41t-26.5 -104q0 -50 21 -81.5t55 -31.5q9 0 19.5 3.5t20.5 10.5z" />
    <glyph glyph-name="ccedilla" unicode="&#xe7;" horiz-adv-x="551" 
d="M491 229q-4 -42 -6 -67t-2 -45q0 -14 1 -30t3 -41q-27 -39 -68 -59t-91 -20q-124 0 -206.5 132.5t-82.5 338.5q0 234 97 387.5t241 153.5q43 0 75.5 -14.5t53.5 -42.5q-17 -61 -28 -121.5t-15 -120.5q-20 19 -31.5 25t-28.5 6q-58 0 -93.5 -67t-35.5 -181
q0 -108 50.5 -182t119.5 -74q15 0 26.5 5.5t20.5 16.5zM221 -227q15 54 23.5 111t11.5 116h86l-14 -82q5 1 12 1.5t20 0.5q87 0 136 -51.5t49 -142.5q0 -93 -56.5 -149t-148.5 -56q-74 0 -133 23t-107 71q40 11 72 25t59 32q28 -14 51 -21t44 -7q37 0 61.5 19t24.5 48
q0 25 -18.5 41.5t-47.5 16.5q-14 0 -26.5 -5.5t-22.5 -15.5z" />
    <glyph glyph-name="eacute" unicode="&#xe9;" horiz-adv-x="668" 
d="M291 537q30 5 58.5 12.5t55.5 17.5q-1 89 -15 132.5t-42 43.5q-26 0 -43.5 -35t-17.5 -92q0 -6 1.5 -33zM582 299q0 -12 3 -45.5t3 -48.5q0 -33 -3 -67.5t-10 -76.5q-45 -39 -98.5 -58t-116.5 -19q-149 0 -235 125t-86 346q0 232 100.5 391.5t233.5 159.5
q113 0 178.5 -140.5t77.5 -408.5q-72 -27 -149 -50t-161 -42q11 -58 42.5 -87.5t82.5 -29.5q42 0 76 12.5t62 38.5zM174 1102l97.5 188.5l89.5 173.5l211 -69l-133.5 -174.5l-116.5 -147.5z" />
    <glyph glyph-name="egrave" unicode="&#xe8;" horiz-adv-x="668" 
d="M291 537q30 5 58.5 12.5t55.5 17.5q-1 89 -15 132.5t-42 43.5q-26 0 -43.5 -35t-17.5 -92q0 -6 1.5 -33zM582 299q0 -12 3 -45.5t3 -48.5q0 -33 -3 -67.5t-10 -76.5q-45 -39 -98.5 -58t-116.5 -19q-149 0 -235 125t-86 346q0 232 100.5 391.5t233.5 159.5
q113 0 178.5 -140.5t77.5 -408.5q-72 -27 -149 -50t-161 -42q11 -58 42.5 -87.5t82.5 -29.5q42 0 76 12.5t62 38.5zM338 1442q22 -101 42 -183t42 -157l-133 -29q-59 77 -103 163.5t-73 182.5z" />
    <glyph glyph-name="ecircumflex" unicode="&#xea;" horiz-adv-x="668" 
d="M291 537q30 5 58.5 12.5t55.5 17.5q-1 89 -15 132.5t-42 43.5q-26 0 -43.5 -35t-17.5 -92q0 -6 1.5 -33zM582 299q0 -12 3 -45.5t3 -48.5q0 -33 -3 -67.5t-10 -76.5q-45 -39 -98.5 -58t-116.5 -19q-149 0 -235 125t-86 346q0 232 100.5 391.5t233.5 159.5
q113 0 178.5 -140.5t77.5 -408.5q-72 -27 -149 -50t-161 -42q11 -58 42.5 -87.5t82.5 -29.5q42 0 76 12.5t62 38.5zM436 1075q-28 45 -55 95.5t-55 113.5q-25 -45 -45.5 -97t-38.5 -114h-17q-36 0 -66.5 12t-51.5 35q22 84 61 170t96 178h29q31 0 61.5 -2.5t65.5 -7.5
q24 -73 59.5 -159.5t79.5 -182.5z" />
    <glyph glyph-name="edieresis" unicode="&#xeb;" horiz-adv-x="668" 
d="M291 537q30 5 58.5 12.5t55.5 17.5q-1 89 -15 132.5t-42 43.5q-26 0 -43.5 -35t-17.5 -92q0 -6 1.5 -33zM582 299q0 -12 3 -45.5t3 -48.5q0 -33 -3 -67.5t-10 -76.5q-45 -39 -98.5 -58t-116.5 -19q-149 0 -235 125t-86 346q0 232 100.5 391.5t233.5 159.5
q113 0 178.5 -140.5t77.5 -408.5q-72 -27 -149 -50t-161 -42q11 -58 42.5 -87.5t82.5 -29.5q42 0 76 12.5t62 38.5zM367 1325q25 -3 48 -4.5t48 -1.5t49.5 1.5t46.5 4.5q-3 -51 -4.5 -100.5t-1.5 -98.5v-65q-14 -1 -33 -1.5t-55 -0.5t-55 0.5t-35 1.5q-5 49 -7.5 96.5
t-2.5 93.5q0 31 0.5 46.5t1.5 27.5zM117 1319q37 1 82.5 2.5l103.5 3.5l4 -254q-28 -7 -59.5 -10.5t-67.5 -3.5q-13 0 -28.5 1t-40.5 3z" />
    <glyph glyph-name="iacute" unicode="&#xed;" horiz-adv-x="379" 
d="M64 6v19q4 235 4 342q0 176 -5 328t-13 278l243 26q6 -201 9 -408.5t3 -422.5v-172q-43 6 -85 9t-85 3q-29 0 -44 -0.5t-27 -1.5zM30 1102l97.5 188.5l89.5 173.5l211 -69l-133.5 -174.5l-116.5 -147.5z" />
    <glyph glyph-name="igrave" unicode="&#xec;" horiz-adv-x="379" 
d="M64 6v19q4 235 4 342q0 176 -5 328t-13 278l243 26q6 -201 9 -408.5t3 -422.5v-172q-43 6 -85 9t-85 3q-29 0 -44 -0.5t-27 -1.5zM194 1442q22 -101 42 -183t42 -157l-133 -29q-59 77 -103 163.5t-73 182.5z" />
    <glyph glyph-name="icircumflex" unicode="&#xee;" horiz-adv-x="379" 
d="M64 6v19q4 235 4 342q0 176 -5 328t-13 278l243 26q6 -201 9 -408.5t3 -422.5v-172q-43 6 -85 9t-85 3q-29 0 -44 -0.5t-27 -1.5zM292 1075q-28 45 -55 95.5t-55 113.5q-25 -45 -45.5 -97t-38.5 -114h-17q-36 0 -66.5 12t-51.5 35q22 84 61 170t96 178h29q31 0 61.5 -2.5
t65.5 -7.5q24 -73 59.5 -159.5t79.5 -182.5z" />
    <glyph glyph-name="idieresis" unicode="&#xef;" horiz-adv-x="379" 
d="M64 6v19q4 235 4 342q0 176 -5 328t-13 278l243 26q6 -201 9 -408.5t3 -422.5v-172q-43 6 -85 9t-85 3q-29 0 -44 -0.5t-27 -1.5zM223 1325q25 -3 48 -4.5t48 -1.5t49.5 1.5t46.5 4.5q-3 -51 -4.5 -100.5t-1.5 -98.5v-65q-14 -1 -33 -1.5t-55 -0.5t-55 0.5t-35 1.5
q-5 49 -7.5 96.5t-2.5 93.5q0 31 0.5 46.5t1.5 27.5zM-27 1319q37 1 82.5 2.5l103.5 3.5l4 -254q-28 -7 -59.5 -10.5t-67.5 -3.5q-13 0 -28.5 1t-40.5 3z" />
    <glyph glyph-name="ntilde" unicode="&#xf1;" horiz-adv-x="717" 
d="M52 -4q10 278 14 407.5t4 221.5q0 73 -1.5 157.5t-4.5 178.5q45 7 101.5 24t129.5 45l-10 -174q36 73 69.5 107t69.5 34q94 0 168 -222t74 -550q0 -54 -3.5 -107.5t-9.5 -105.5q-54 -16 -111 -27t-118 -18v62v98q0 285 -20 398.5t-68 113.5q-9 0 -16.5 -2t-14.5 -7
q-6 -154 -9 -309.5t-4 -310.5q-50 -7 -100.5 -10.5t-103.5 -3.5h-36zM147 1079q8 119 40.5 174.5t94.5 55.5q30 0 67.5 -28t53.5 -28q24 0 37.5 22.5t21.5 78.5q27 -8 54 -14.5t57 -12.5q-3 -124 -37 -192t-92 -68q-31 0 -72.5 29.5t-56.5 29.5q-25 0 -38 -19t-21 -73z" />
    <glyph glyph-name="oacute" unicode="&#xf3;" horiz-adv-x="651" 
d="M401 477q0 71 -21 109.5t-61 38.5q-35 0 -54 -38.5t-19 -111.5q0 -72 18.5 -106.5t57.5 -34.5q38 0 58.5 36.5t20.5 106.5zM346 997q116 0 191 -141.5t75 -368.5q0 -217 -80 -356t-202 -139q-131 0 -211 135.5t-80 361.5q0 221 89 364.5t218 143.5zM166 1102l97.5 188.5
l89.5 173.5l211 -69l-133.5 -174.5l-116.5 -147.5z" />
    <glyph glyph-name="ograve" unicode="&#xf2;" horiz-adv-x="651" 
d="M401 477q0 71 -21 109.5t-61 38.5q-35 0 -54 -38.5t-19 -111.5q0 -72 18.5 -106.5t57.5 -34.5q38 0 58.5 36.5t20.5 106.5zM346 997q116 0 191 -141.5t75 -368.5q0 -217 -80 -356t-202 -139q-131 0 -211 135.5t-80 361.5q0 221 89 364.5t218 143.5zM330 1442
q22 -101 42 -183t42 -157l-133 -29q-59 77 -103 163.5t-73 182.5z" />
    <glyph glyph-name="ocircumflex" unicode="&#xf4;" horiz-adv-x="651" 
d="M401 477q0 71 -21 109.5t-61 38.5q-35 0 -54 -38.5t-19 -111.5q0 -72 18.5 -106.5t57.5 -34.5q38 0 58.5 36.5t20.5 106.5zM346 997q116 0 191 -141.5t75 -368.5q0 -217 -80 -356t-202 -139q-131 0 -211 135.5t-80 361.5q0 221 89 364.5t218 143.5zM428 1075
q-28 45 -55 95.5t-55 113.5q-25 -45 -45.5 -97t-38.5 -114h-17q-36 0 -66.5 12t-51.5 35q22 84 61 170t96 178h29q31 0 61.5 -2.5t65.5 -7.5q24 -73 59.5 -159.5t79.5 -182.5z" />
    <glyph glyph-name="odieresis" unicode="&#xf6;" horiz-adv-x="651" 
d="M401 477q0 71 -21 109.5t-61 38.5q-35 0 -54 -38.5t-19 -111.5q0 -72 18.5 -106.5t57.5 -34.5q38 0 58.5 36.5t20.5 106.5zM346 997q116 0 191 -141.5t75 -368.5q0 -217 -80 -356t-202 -139q-131 0 -211 135.5t-80 361.5q0 221 89 364.5t218 143.5zM359 1325
q25 -3 48 -4.5t48 -1.5t49.5 1.5t46.5 4.5q-3 -51 -4.5 -100.5t-1.5 -98.5v-65q-14 -1 -33 -1.5t-55 -0.5t-55 0.5t-35 1.5q-5 49 -7.5 96.5t-2.5 93.5q0 31 0.5 46.5t1.5 27.5zM109 1319q37 1 82.5 2.5l103.5 3.5l4 -254q-28 -7 -59.5 -10.5t-67.5 -3.5q-13 0 -28.5 1
t-40.5 3z" />
    <glyph glyph-name="otilde" unicode="&#xf5;" horiz-adv-x="651" 
d="M401 477q0 71 -21 109.5t-61 38.5q-35 0 -54 -38.5t-19 -111.5q0 -72 18.5 -106.5t57.5 -34.5q38 0 58.5 36.5t20.5 106.5zM346 997q116 0 191 -141.5t75 -368.5q0 -217 -80 -356t-202 -139q-131 0 -211 135.5t-80 361.5q0 221 89 364.5t218 143.5zM115 1079
q8 119 40.5 174.5t94.5 55.5q30 0 67.5 -28t53.5 -28q24 0 37.5 22.5t21.5 78.5q27 -8 54 -14.5t57 -12.5q-3 -124 -37 -192t-92 -68q-31 0 -72.5 29.5t-56.5 29.5q-25 0 -38 -19t-21 -73z" />
    <glyph glyph-name="uacute" unicode="&#xfa;" horiz-adv-x="702" 
d="M436 -16l-14 127q-41 -67 -86 -100.5t-94 -33.5q-96 0 -140.5 121.5t-44.5 382.5q0 100 8.5 219.5t26.5 265.5q14 0 27.5 -0.5t30.5 -0.5q36 0 77.5 6t89.5 18q-15 -147 -22.5 -272.5t-7.5 -214.5q0 -88 16.5 -124t54.5 -36q13 0 25.5 5t25.5 15l1 598q44 6 78 8.5
t61 2.5q23 0 73 -4h11v-910zM192 1102l97.5 188.5l89.5 173.5l211 -69l-133.5 -174.5l-116.5 -147.5z" />
    <glyph glyph-name="ugrave" unicode="&#xf9;" horiz-adv-x="702" 
d="M436 -16l-14 127q-41 -67 -86 -100.5t-94 -33.5q-96 0 -140.5 121.5t-44.5 382.5q0 100 8.5 219.5t26.5 265.5q14 0 27.5 -0.5t30.5 -0.5q36 0 77.5 6t89.5 18q-15 -147 -22.5 -272.5t-7.5 -214.5q0 -88 16.5 -124t54.5 -36q13 0 25.5 5t25.5 15l1 598q44 6 78 8.5
t61 2.5q23 0 73 -4h11v-910zM356 1442q22 -101 42 -183t42 -157l-133 -29q-59 77 -103 163.5t-73 182.5z" />
    <glyph glyph-name="ucircumflex" unicode="&#xfb;" horiz-adv-x="702" 
d="M436 -16l-14 127q-41 -67 -86 -100.5t-94 -33.5q-96 0 -140.5 121.5t-44.5 382.5q0 100 8.5 219.5t26.5 265.5q14 0 27.5 -0.5t30.5 -0.5q36 0 77.5 6t89.5 18q-15 -147 -22.5 -272.5t-7.5 -214.5q0 -88 16.5 -124t54.5 -36q13 0 25.5 5t25.5 15l1 598q44 6 78 8.5
t61 2.5q23 0 73 -4h11v-910zM454 1075q-28 45 -55 95.5t-55 113.5q-25 -45 -45.5 -97t-38.5 -114h-17q-36 0 -66.5 12t-51.5 35q22 84 61 170t96 178h29q31 0 61.5 -2.5t65.5 -7.5q24 -73 59.5 -159.5t79.5 -182.5z" />
    <glyph glyph-name="udieresis" unicode="&#xfc;" horiz-adv-x="702" 
d="M436 -16l-14 127q-41 -67 -86 -100.5t-94 -33.5q-96 0 -140.5 121.5t-44.5 382.5q0 100 8.5 219.5t26.5 265.5q14 0 27.5 -0.5t30.5 -0.5q36 0 77.5 6t89.5 18q-15 -147 -22.5 -272.5t-7.5 -214.5q0 -88 16.5 -124t54.5 -36q13 0 25.5 5t25.5 15l1 598q44 6 78 8.5
t61 2.5q23 0 73 -4h11v-910zM385 1325q25 -3 48 -4.5t48 -1.5t49.5 1.5t46.5 4.5q-3 -51 -4.5 -100.5t-1.5 -98.5v-65q-14 -1 -33 -1.5t-55 -0.5t-55 0.5t-35 1.5q-5 49 -7.5 96.5t-2.5 93.5q0 31 0.5 46.5t1.5 27.5zM135 1319q37 1 82.5 2.5l103.5 3.5l4 -254
q-28 -7 -59.5 -10.5t-67.5 -3.5q-13 0 -28.5 1t-40.5 3z" />
    <glyph glyph-name="dagger" unicode="&#x2020;" horiz-adv-x="729" 
d="M230 0q11 152 16.5 318t5.5 352q0 112 -0.5 169.5t-1.5 108.5q-73 -2 -114.5 -4t-75.5 -4q-1 54 -5.5 103.5t-13.5 95.5q46 7 96 12t108 8q-1 74 -5.5 153.5t-12.5 166.5l252 14v-82q0 -93 0.5 -145.5t1.5 -101.5q75 2 119 2.5t84 0.5q2 -14 3 -31t1 -51q0 -31 -3 -61
t-9 -59q-58 0 -186 -4l-7 -1q1 -35 1.5 -77t0.5 -125q0 -149 -3.5 -342.5t-10.5 -419.5h-6q-117 4 -172 4h-63z" />
    <glyph glyph-name="degree" unicode="&#xb0;" horiz-adv-x="674" 
d="M338 1335q-73 0 -124.5 -51t-51.5 -123q0 -74 51 -125t125 -51q72 0 123 52t51 124t-51 123t-123 51zM338 1464q126 0 214.5 -89.5t88.5 -215.5q0 -125 -89 -214t-216 -89q-126 0 -213.5 88t-87.5 215t88.5 216t214.5 89z" />
    <glyph glyph-name="cent" unicode="&#xa2;" horiz-adv-x="782" 
d="M667 399q-36 -47 -77 -80.5t-90 -56.5l12 -211l-147 -8l-9 203q-116 18 -176.5 126.5t-60.5 299.5q0 199 58 337.5t167 197.5q-3 31 -4.5 66t-1.5 73q0 32 0.5 49.5t1.5 31.5l129 -12q0 -46 1 -90.5t3 -87.5q5 0 14 1t13 1q47 0 89.5 -13.5t80.5 -39.5
q-20 -51 -34.5 -110t-25.5 -124q-18 17 -37.5 24t-46.5 7q-67 0 -109 -68.5t-42 -183.5q0 -98 35.5 -150.5t101.5 -52.5q36 0 69 21.5t72 71.5q0 -55 3.5 -109.5t10.5 -112.5z" />
    <glyph glyph-name="sterling" unicode="&#xa3;" horiz-adv-x="782" 
d="M662 -23q-70 42 -143.5 62t-156.5 20q-65 0 -127.5 -11t-119.5 -34q-29 43 -45 90.5t-19 99.5q22 17 42.5 27t41.5 15q16 27 23.5 53.5t7.5 56.5q0 20 -4 47t-13 64q-18 -7 -42.5 -18.5l-59.5 -28.5q-4 11 -6 21.5t-2 21.5q0 2 3 24t3 41q0 20 -2.5 38t-7.5 36l80 23
q-14 82 -19.5 137.5t-5.5 101.5q0 273 100 451t244 178q113 0 192 -102.5t107 -286.5q-31 -9 -128 -62l-107 -57q-3 54 -22.5 87.5t-47.5 33.5q-39 0 -68.5 -75.5t-29.5 -188.5q0 -40 7 -88t21 -101q8 0 22 1t21 1q51 0 97 -6.5t90 -19.5q-16 -62 -26.5 -97.5l-18.5 -60.5
q-36 15 -76.5 23.5t-85.5 11.5q2 -12 3 -24.5t1 -35.5q0 -40 -10 -78.5t-31 -78.5q46 7 80.5 10.5t64.5 3.5q74 0 144 -22.5t133 -67.5q-33 -55 -59 -113.5t-45 -122.5z" />
    <glyph glyph-name="section" unicode="&#xa7;" horiz-adv-x="707" 
d="M371 612q52 16 77 40t25 57q0 25 -24.5 56t-98.5 93q-50 -14 -76 -38t-26 -58q0 -27 28 -62t95 -88zM541 457l-92 80l-7 -11q75 -83 110.5 -160.5t35.5 -158.5q0 -121 -63.5 -193.5t-168.5 -72.5q-69 0 -131 34.5t-119 104.5q42 31 72 67.5t49 79.5q22 -29 36.5 -39
t31.5 -10q26 0 40.5 19.5t14.5 54.5q0 46 -23 89t-89 112l-24 24q-159 164 -159 297q0 79 32 137t91 88l103 -71l12 8q-74 66 -108.5 133.5t-34.5 144.5q0 130 98.5 204.5t273.5 74.5q14 0 42 -3q4 -1 5 -1q1 -10 1.5 -23t0.5 -39q0 -55 -6.5 -103t-19.5 -89
q-30 15 -58.5 23t-52.5 8q-30 0 -48.5 -15.5t-18.5 -40.5t24 -65.5t72 -95.5q10 -13 31 -36q178 -204 178 -329q0 -74 -33.5 -131.5t-97.5 -95.5z" />
    <glyph glyph-name="bullet" unicode="&#x2022;" horiz-adv-x="1208" 
d="M307 762q0 123 87 209t210 86q122 0 208.5 -86.5t86.5 -208.5t-87.5 -209.5t-209.5 -87.5q-123 0 -209 87t-86 210z" />
    <glyph glyph-name="paragraph" unicode="&#xb6;" 
d="M983 1479v-111h-113v-1368h-151v1368h-158v-1368h-153v784q-167 6 -267 101t-100 245q0 158 107 253.5t284 95.5h551z" />
    <glyph glyph-name="germandbls" unicode="&#xdf;" horiz-adv-x="793" 
d="M70 0v49q0 72 -4.5 296.5t-4.5 377.5q0 269 24 407.5t79 225.5q47 74 120 114.5t160 40.5q97 0 154 -74.5t57 -201.5q0 -89 -25.5 -180t-76.5 -178q100 -100 149.5 -225t49.5 -277q0 -186 -79 -305.5t-208 -130.5q-18 47 -46 98.5t-67 107.5q80 39 117 100t37 154
q0 115 -46 230.5t-122 191.5q61 106 91 192.5t30 160.5q0 37 -15.5 61.5t-37.5 24.5q-66 0 -90.5 -140.5t-24.5 -613.5q0 -141 7 -266.5t21 -233.5q-18 2 -39.5 3t-62.5 1q-47 0 -82.5 -2.5t-64.5 -7.5z" />
    <glyph glyph-name="registered" unicode="&#xae;" horiz-adv-x="1706" 
d="M745 1034v-239h99q88 0 129 28t41 88q0 63 -44 93t-136 30h-89zM545 1161h323q176 0 264.5 -59.5t88.5 -177.5q0 -82 -48 -140t-133 -79l185 -369h-224l-157 338h-99v-338h-200v825zM854 1356q-127 0 -236 -44.5t-196 -131.5q-91 -91 -140 -206.5t-49 -238.5
q0 -124 46 -235.5t133 -198.5q89 -91 203 -139.5t237 -48.5q120 0 233.5 47t206.5 135q87 84 135 196t48 232q0 133 -44.5 245t-132.5 201q-90 93 -202.5 140t-241.5 47zM852 1479q154 0 290.5 -57.5t243.5 -166.5q103 -104 157 -238t54 -284q0 -152 -56 -287.5t-163 -238.5
q-107 -105 -243.5 -161t-282.5 -56q-149 0 -285 58t-243 167q-104 105 -158.5 238.5t-54.5 279.5q0 102 27 198.5t81 188.5q101 170 267 264.5t366 94.5z" />
    <glyph glyph-name="copyright" unicode="&#xa9;" horiz-adv-x="1706" 
d="M1212 897h-188q-8 70 -53 108.5t-119 38.5q-91 0 -143 -81.5t-52 -227.5q0 -147 52 -224t151 -77q73 0 117 42t53 119l193 1q-8 -139 -109 -223t-260 -84q-186 0 -293.5 118t-107.5 322q0 206 109.5 328.5t293.5 122.5q152 0 250.5 -78t105.5 -205zM854 1356
q-128 0 -239.5 -46t-198.5 -134q-89 -90 -136 -203.5t-47 -237.5q0 -125 47 -237t136 -201q88 -88 201 -135t237 -47t237.5 47t204.5 137q88 86 133.5 197t45.5 239q0 126 -46.5 238.5t-134.5 200.5q-89 89 -201 135.5t-239 46.5zM852 1479q152 0 287.5 -56t242.5 -163
q105 -105 160 -240.5t55 -286.5q0 -152 -54.5 -284t-160.5 -236q-111 -108 -248 -165.5t-282 -57.5q-147 0 -280.5 56.5t-241.5 164.5q-107 106 -163 240.5t-56 281.5q0 149 56 284.5t163 244.5q105 106 238 161.5t284 55.5z" />
    <glyph glyph-name="trademark" unicode="&#x2122;" horiz-adv-x="1706" 
d="M803 1462h196l127 -332l123 332h197v-547h-135v410l-154 -410h-61l-158 410v-410h-135v547zM207 1462h485v-112h-168v-435h-149v435h-168v112z" />
    <glyph glyph-name="acute" unicode="&#xb4;" 
d="M352 1102l97.5 188.5l89.5 173.5l211 -69l-133.5 -174.5l-116.5 -147.5z" />
    <glyph glyph-name="dieresis" unicode="&#xa8;" 
d="M545 1325q25 -3 48 -4.5t48 -1.5t49.5 1.5t46.5 4.5q-3 -51 -4.5 -100.5t-1.5 -98.5v-65q-14 -1 -33 -1.5t-55 -0.5t-55 0.5t-35 1.5q-5 49 -7.5 96.5t-2.5 93.5q0 31 0.5 46.5t1.5 27.5zM295 1319q37 1 82.5 2.5l103.5 3.5l4 -254q-28 -7 -59.5 -10.5t-67.5 -3.5
q-13 0 -28.5 1t-40.5 3z" />
    <glyph glyph-name="notequal" unicode="&#x2260;" horiz-adv-x="1706" 
d="M1198 1233l148 -119l-154 -192h260v-191h-389l-191 -239h580v-193h-707l-245 -309l-148 119l154 190h-252v193h377l190 239h-567v191h696z" />
    <glyph glyph-name="AE" unicode="&#xc6;" horiz-adv-x="995" 
d="M485 512v66q0 183 -8 346.5t-24 310.5l-138 -737zM485 -30q2 74 3.5 148.5t2.5 149.5h-38q-55 0 -102.5 -7.5t-88.5 -22.5l-22 -104l-11 -60.5l-20 -112.5l-254 90q114 394 191 747t114 654l320 49l4 -98q75 9 133 13.5t96 4.5q35 0 67.5 -3t61.5 -9l-29 -242
q-5 1 -11.5 1.5t-20.5 0.5q-28 0 -66 -7t-90 -22q-1 -50 -4 -149t-4 -145l209 20l-15 -258q-24 4 -51 6t-57 2q-33 0 -48 -0.5t-30 -3.5l4 -315q31 3 55 4.5t43 1.5q33 0 64.5 -4.5t62.5 -13.5q0 -9 -1 -25t-1 -24q0 -44 5 -87t16 -88q-143 -14 -263 -37t-225 -54z" />
    <glyph glyph-name="Oslash" unicode="&#xd8;" horiz-adv-x="782" 
d="M604 1368q12 32 23 70t20 81q12 3 19 4t12 1q26 0 44.5 -14t31.5 -42q-19 -52 -39 -115t-41 -136q32 -93 47.5 -216.5t15.5 -279.5q0 -338 -100 -541t-262 -203q-53 0 -94.5 20t-75.5 62l-34 -90.5t-19 -56.5q-35 0 -65.5 7.5t-53.5 21.5q6 16 39.5 98t54.5 141
q-40 86 -62 218.5t-22 293.5q0 369 100.5 585t266.5 216q58 0 104.5 -30t89.5 -95zM397 1075q-51 0 -77.5 -101t-26.5 -298q0 -181 21 -262.5t67 -81.5q49 0 78.5 106.5t29.5 288.5q0 185 -21.5 266.5t-70.5 81.5z" />
    <glyph glyph-name="infinity" unicode="&#x221e;" horiz-adv-x="1706" 
d="M942 561q45 -75 106.5 -113t139.5 -38q94 0 152.5 55.5t58.5 144.5q0 86 -54 142.5t-135 56.5q-74 0 -136 -57t-132 -191zM766 659q-46 76 -107 113t-139 37q-93 0 -152 -56.5t-59 -144.5q0 -85 54 -141.5t135 -56.5q75 0 138 58t130 191zM858 457q-69 -133 -147 -195.5
t-174 -62.5q-139 0 -235.5 117.5t-96.5 293.5q0 184 85.5 297t223.5 113q93 0 169.5 -58.5t164.5 -199.5q68 132 148 196t175 64q139 0 235.5 -118t96.5 -294q0 -183 -86 -296t-223 -113q-93 0 -168.5 56.5t-167.5 199.5z" />
    <glyph glyph-name="plusminus" unicode="&#xb1;" horiz-adv-x="1706" 
d="M254 197h1198v-199h-1198v199zM752 1223h202v-326h498v-199h-498v-325h-202v325h-498v199h498v326z" />
    <glyph glyph-name="lessequal" unicode="&#x2264;" horiz-adv-x="1706" 
d="M258 195h1192v-197h-1192v197zM1448 1241v-209l-834 -264l834 -262v-209l-1190 385v174z" />
    <glyph glyph-name="greaterequal" unicode="&#x2265;" horiz-adv-x="1706" 
d="M258 195h1192v-197h-1192v197zM260 1241l1188 -385v-174l-1188 -385v209l832 262l-832 264v209z" />
    <glyph glyph-name="yen" unicode="&#xa5;" horiz-adv-x="782" 
d="M258 -10q8 121 12 248.5t4 261.5q-46 -4 -89.5 -9t-86.5 -11l-30 149q53 3 93 8.5t72 13.5q-31 114 -103 307t-175 437l295 26l81.5 -347.5l82.5 -319.5l84 377t61 303l266 -2q-18 -44 -116 -343l-142 -434h11q59 -4 86 -4q22 0 33.5 0.5t21.5 1.5l-13 -161
q-27 7 -59 10.5t-69 3.5q-24 0 -37 -0.5t-25 -2.5l-2 -503q-11 1 -26 1.5t-44 0.5q-48 0 -94.5 -3t-91.5 -9z" />
    <glyph glyph-name="mu" unicode="&#xb5;" horiz-adv-x="1249" 
d="M205 1092h289l-76 -435q-15 -80 -23 -151.5t-8 -116.5q0 -93 42 -138.5t128 -45.5q100 0 155.5 82t92.5 291l90 514h289l-193 -1092h-268l18 117q-42 -78 -93.5 -114t-121.5 -36q-67 0 -119 29.5t-94 91.5l-90 -526h-286z" />
    <glyph glyph-name="partialdiff" unicode="&#x2202;" horiz-adv-x="1094" 
d="M762 662q19 99 29 188.5t10 155.5q0 100 -26 157.5t-70 57.5t-146 -73t-160 -73q-42 0 -71 30t-29 73q0 64 86.5 118t210.5 54q192 0 309 -161.5t117 -432.5q0 -339 -156.5 -560t-396.5 -221q-171 0 -282 114.5t-111 291.5q0 198 116 329.5t287 131.5q102 0 170 -43.5
t113 -136.5zM700 518q0 116 -38.5 178t-110.5 62q-101 0 -167.5 -134t-66.5 -341q0 -117 38.5 -177.5t111.5 -60.5q101 0 167 133.5t66 339.5z" />
    <glyph glyph-name="summation" unicode="&#x2211;" horiz-adv-x="1470" 
d="M66 1473h1308v-265h-878l620 -645l-622 -690h933v-266h-1386v172l698 772l-673 690v232z" />
    <glyph glyph-name="product" unicode="&#x220f;" horiz-adv-x="1612" 
d="M150 1473h1308v-1866h-344v1577h-620v-1577h-344v1866z" />
    <glyph glyph-name="pi" unicode="&#x3c0;" horiz-adv-x="1319" 
d="M1354 1092l-39 -224h-176l-154 -868h-287l152 868h-238l-151 -868h-287l152 868h-25q-55 0 -84 -31t-39 -99l-213 -1q30 200 123 277.5t311 77.5h955z" />
    <glyph glyph-name="integral" unicode="&#x222b;" horiz-adv-x="1186" 
d="M342 -252q102 0 121 639q3 136 6 211q16 508 123 732t328 224q98 0 157.5 -49t59.5 -129q0 -60 -38 -96.5t-100 -36.5q-46 0 -77 24t-41 68q-5 20 -7 54q-3 46 -30 47q-99 0 -119 -633l-6 -178q-11 -296 -31 -444.5t-59 -250.5q-56 -148 -148.5 -225.5t-214.5 -77.5
q-96 0 -156.5 49t-60.5 127q0 62 39 99t105 37q50 0 85 -31.5t35 -71.5q0 -58 6 -73t23 -15z" />
    <glyph glyph-name="ordfeminine" unicode="&#xaa;" horiz-adv-x="530" 
d="M311 958q0 38 -4.5 80.5t-13.5 89.5v0q-30 0 -50 -28t-20 -72q0 -36 16 -58t42 -22q7 0 14.5 2.5t15.5 7.5zM313 866q-48 -48 -84.5 -68t-74.5 -20q-64 0 -104 50.5t-40 132.5q0 114 69 185t189 79q-12 34 -39 53.5t-63 19.5q-13 0 -24.5 -2.5t-22.5 -8.5q9 30 13.5 67.5
t4.5 83.5l1 21q15 12 33.5 18t43.5 6q127 0 200.5 -131.5t82.5 -373.5l5 -157q-44 -3 -91 -15t-95 -34z" />
    <glyph glyph-name="ordmasculine" unicode="&#xba;" horiz-adv-x="489" 
d="M301 1124q0 51 -16 78t-45 27q-27 0 -41.5 -27.5t-14.5 -79.5q0 -49 14.5 -73.5t43.5 -24.5t44 25.5t15 74.5zM260 1489q87 0 143 -99t56 -257q0 -154 -59.5 -251.5t-151.5 -97.5q-99 0 -159 95t-60 254q0 154 67 255t164 101z" />
    <glyph glyph-name="Omega" unicode="&#x3a9;" horiz-adv-x="1575" 
d="M1227 256h291v-256h-609v291q126 86 192 217.5t66 296.5q0 203 -101.5 319.5t-279.5 116.5q-177 0 -278.5 -116.5t-101.5 -319.5q0 -164 66 -296.5t192 -217.5v-291h-609v256h291q-126 121 -187 260t-61 303q0 313 188 501.5t500 188.5q313 0 501 -188.5t188 -501.5
q0 -164 -61 -303t-187 -260z" />
    <glyph glyph-name="ae" unicode="&#xe6;" horiz-adv-x="930" 
d="M862 233l-55 -213q-34 -18 -68.5 -27t-70.5 -9q-73 0 -130.5 30.5t-109.5 96.5q-50 -73 -99 -105.5t-108 -32.5q-92 0 -142 78.5t-50 222.5q0 169 66.5 277t164.5 108q14 0 29.5 -3t32.5 -9q-8 61 -32.5 91t-66.5 30q-29 0 -64 -9.5t-73 -26.5q1 14 4 45q9 99 11 139
q77 52 134 77t99 25q55 0 87.5 -43t51.5 -146q27 89 77.5 136t117.5 47q101 0 158 -113.5t57 -316.5q0 -44 -4 -95t-13 -110l-295 -17q13 -73 56 -111t114 -38q27 0 57 5.5t64 16.5zM340 475l-6 2q-22 6 -31 6q-36 0 -57 -31t-21 -85q0 -60 19.5 -100t46.5 -40t39 33.5
t12 112.5q0 39 -0.5 60.5t-1.5 41.5zM563 570l142 12q-7 68 -22.5 101.5t-41.5 33.5q-30 0 -50 -38t-28 -109z" />
    <glyph glyph-name="oslash" unicode="&#xf8;" horiz-adv-x="651" 
d="M170 61l-51 -129h-10q-26 0 -48 7t-42 23l2 6q46 116 83 190q-31 52 -48 138.5t-17 192.5q0 222 89 365t218 143q45 0 80 -18t61 -55q17 49 40 105q6 15 7 19l17 1q23 0 41 -7t35 -22q-5 -18 -23 -69.5l-47 -131.5q28 -75 41.5 -158t13.5 -174q0 -217 -80 -356t-202 -139
q-45 0 -84 17t-76 52zM317 625q-35 0 -53 -38.5t-18 -113.5q0 -71 18.5 -105t57.5 -34q38 0 58.5 36.5t20.5 106.5t-22 109t-62 39z" />
    <glyph glyph-name="questiondown" unicode="&#xbf;" horiz-adv-x="678" 
d="M463 1103q3 -49 4.5 -91t1.5 -78q0 -47 -4.5 -98t-14.5 -105q-86 -14 -126.5 -68t-40.5 -155q0 -98 22 -148.5t66 -50.5q47 0 76.5 62.5t35.5 177.5l176 -98v-13q0 -204 -85 -326t-224 -122q-137 0 -222 134.5t-85 356.5q0 161 52.5 261.5t160.5 146.5q1 29 1.5 69
t0.5 136zM491 1262q-40 -3 -83.5 -5t-88.5 -2h-61q-8 66 -11 102.5t-3 63.5q0 22 1.5 40.5t4.5 33.5l231 -2q6 -76 8 -121t3 -80z" />
    <glyph glyph-name="exclamdown" unicode="&#xa1;" horiz-adv-x="408" 
d="M51 2q18 63 27.5 343.5t9.5 741.5q46 -3 91 -4.5t93 -1.5h45q5 -244 7 -470t2 -427v-194zM311 1239h-57q-43 0 -87 1.5t-89 4.5q-3 32 -4.5 72.5t-1.5 89.5v72l241 2q1 -21 1.5 -46t0.5 -71q0 -54 -1 -79t-3 -46z" />
    <glyph glyph-name="logicalnot" unicode="&#xac;" horiz-adv-x="1706" 
d="M254 864h1198v-502h-199v306h-999v196z" />
    <glyph glyph-name="radical" unicode="&#x221a;" horiz-adv-x="1346" 
d="M1141 1694h207v-129h-103l-592 -1606h-100l-311 858l-140 -51l-30 113l331 116l236 -661z" />
    <glyph glyph-name="florin" unicode="&#x192;" horiz-adv-x="782" 
d="M780 1409q-1 -82 -15 -154.5t-40 -134.5q-21 34 -42 50t-44 16q-43 0 -69 -55t-66 -281h26q26 0 47.5 -2t43.5 -6q-11 -58 -18 -109.5t-11 -101.5h-5q-49 4 -71 4q-9 0 -26 -1t-25 -1q-96 -559 -175 -707.5t-220 -148.5q-35 0 -83 11.5t-106 33.5q17 49 31.5 103
t26.5 114q48 -22 68 -29.5t30 -7.5q72 0 142 418l36 213l-88 2l20 190q28 5 53.5 8t49.5 5q47 330 133 471t235 141q47 0 87 -10t75 -31z" />
    <glyph glyph-name="approxequal" unicode="&#x2248;" horiz-adv-x="1706" 
d="M1530 596v-219q-106 -72 -198 -105.5t-181 -33.5q-95 0 -286.5 66.5t-301.5 66.5q-84 0 -174.5 -37t-210.5 -121v219q111 73 206.5 108t180.5 35q124 0 315.5 -65.5t274.5 -65.5q86 0 174 35.5t201 116.5zM1530 1008v-220q-106 -71 -196.5 -104t-180.5 -33
q-94 0 -286 65.5t-304 65.5q-82 0 -170 -35t-215 -122v219q107 71 204 107t183 36q125 0 316.5 -65.5t273.5 -65.5q84 0 171 35t204 117z" />
    <glyph glyph-name="Delta" unicode="&#x2206;" horiz-adv-x="1427" 
d="M713 1110l-326 -854h653zM563 1473h301l563 -1473h-1427z" />
    <glyph glyph-name="guillemotleft" unicode="&#xab;" horiz-adv-x="825" 
d="M621 895q43 -21 83.5 -36t79.5 -25l-122.5 -220l-59.5 -106q52 -60 97 -141.5t85 -186.5q-32 -24 -71.5 -40.5t-87.5 -26.5q-53 115 -114.5 212.5t-135.5 182.5l125.5 190.5zM291 903q38 -12 77.5 -29.5t80.5 -39.5l-123.5 -220l-59.5 -106q52 -60 97 -141.5t86 -186.5
q-35 -16 -115 -49l-45 -18q-53 115 -114.5 212.5t-135.5 182.5l120.5 182z" />
    <glyph glyph-name="guillemotright" unicode="&#xbb;" horiz-adv-x="825" 
d="M205 121q-48 21 -88 35.5t-78 23.5l125.5 222.5t58.5 105.5q-53 62 -98 142t-86 184q39 26 79.5 43.5t82.5 25.5q53 -118 115 -215.5t135 -179.5q-56 -78 -117.5 -175zM535 111q-37 12 -76 29t-84 40l125.5 223t58.5 105q-54 63 -99 142.5t-85 183.5l69 30.5l93 38.5
q53 -118 114.5 -215.5t134.5 -179.5q-47 -68 -106 -161.5z" />
    <glyph glyph-name="ellipsis" unicode="&#x2026;" horiz-adv-x="2048" 
d="M217 243q74 -5 222 -9q2 0 3 -1q10 -27 15 -56.5t5 -59.5q0 -18 -2.5 -44t-11.5 -79l-229 16v11q4 67 4 98q0 33 -1.5 64t-4.5 60zM899 243q74 -5 222 -9q2 0 3 -1q10 -27 15 -56.5t5 -59.5q0 -18 -2.5 -44t-11.5 -79l-229 16v11q4 67 4 98q0 33 -1.5 64t-4.5 60z
M1583 243q74 -5 222 -9q2 0 3 -1q10 -27 15 -56.5t5 -59.5q0 -18 -2.5 -44t-11.5 -79l-229 16v11q4 67 4 98q0 33 -1.5 64t-4.5 60z" />
    <glyph glyph-name="nonbreakingspace" unicode="&#xa0;" horiz-adv-x="782" 
 />
    <glyph glyph-name="Agrave" unicode="&#xc0;" horiz-adv-x="692" 
d="M281 301h133q-21 135 -39 297t-33 348q-14 -178 -29.5 -339.5t-31.5 -305.5zM-25 8q97 438 155.5 803t82.5 674l287 -4q29 -370 77 -734.5t115 -723.5l-235 -33l-17 112l-184 -2l-18 -131zM375 1940q22 -101 42 -183t42 -157l-133 -29q-59 77 -103 163.5t-73 182.5z" />
    <glyph glyph-name="Atilde" unicode="&#xc3;" horiz-adv-x="692" 
d="M281 301h133q-21 135 -39 297t-33 348q-14 -178 -29.5 -339.5t-31.5 -305.5zM-25 8q97 438 155.5 803t82.5 674l287 -4q29 -370 77 -734.5t115 -723.5l-235 -33l-17 112l-184 -2l-18 -131zM160 1577q8 119 40.5 174.5t94.5 55.5q30 0 67.5 -28t53.5 -28q24 0 37.5 22.5
t21.5 78.5q27 -8 54 -14.5t57 -12.5q-3 -124 -37 -192t-92 -68q-31 0 -72.5 29.5t-56.5 29.5q-25 0 -38 -19t-21 -73z" />
    <glyph glyph-name="Otilde" unicode="&#xd5;" horiz-adv-x="782" 
d="M397 1075q-51 0 -77.5 -101t-26.5 -298q0 -181 21 -262.5t67 -81.5q49 0 78.5 106.5t29.5 288.5q0 185 -21.5 266.5t-70.5 81.5zM375 -23q-156 0 -244 189t-88 528q0 368 100.5 584.5t266.5 216.5q148 0 237.5 -209t89.5 -565q0 -338 -100 -541t-262 -203zM205 1577
q8 119 40.5 174.5t94.5 55.5q30 0 67.5 -28t53.5 -28q24 0 37.5 22.5t21.5 78.5q27 -8 54 -14.5t57 -12.5q-3 -124 -37 -192t-92 -68q-31 0 -72.5 29.5t-56.5 29.5q-25 0 -38 -19t-21 -73z" />
    <glyph glyph-name="OE" unicode="&#x152;" horiz-adv-x="1053" 
d="M573 1278q0 47 -1.5 91.5t-3.5 86.5q73 19 135 28t112 9q42 0 88 -8.5t98 -26.5l-12 -276q-58 0 -114 -7t-107 -20l10 -244q18 4 38.5 6.5t43.5 2.5q30 0 59 -4t56 -11l-17 -231q-32 -6 -76.5 -20t-99.5 -36l4 -247q22 6 41.5 9t36.5 3q55 0 101 -15t73 -40
q-24 -57 -42 -131t-30 -168q-38 6 -71.5 9t-63.5 3q-80 0 -149.5 -16t-128.5 -48l-6 175q-33 -89 -78 -129.5t-111 -40.5q-141 0 -228 185.5t-87 496.5q0 364 94 591.5t236 227.5q68 0 116 -48.5t84 -156.5zM430 332q57 0 77.5 68.5t20.5 338.5q0 230 -21.5 307.5
t-76.5 77.5q-64 0 -104.5 -114.5t-40.5 -304.5q0 -179 38 -276t107 -97z" />
    <glyph glyph-name="oe" unicode="&#x153;" horiz-adv-x="938" 
d="M467 119q-27 -70 -77 -108t-116 -38q-105 0 -170 124.5t-65 332.5q0 243 82 396t205 153q56 0 93 -36t54 -107q31 73 83 115t112 42q101 0 161 -113t60 -307q0 -47 -1 -72t-3 -46l-281 -64q8 -68 28.5 -96.5t59.5 -28.5q17 0 42.5 9.5t66.5 31.5l22.5 -101l19.5 -90
q-46 -64 -104 -99t-116 -35q-49 0 -87 33.5t-69 103.5zM322 291q38 0 56.5 45.5t18.5 136.5q0 77 -16 117.5t-47 40.5q-36 0 -62 -56t-26 -137q0 -74 18.5 -110.5t57.5 -36.5zM588 561l143 48q-5 54 -19 76t-42 22q-36 0 -59 -38t-23 -100v-8z" />
    <glyph glyph-name="endash" unicode="&#x2013;" 
d="M13 428l16 158q105 -2 235.5 -3t413.5 -1h346q-6 -23 -9 -49t-3 -54q0 -20 0.5 -31t0.5 -20q-76 -1 -172.5 -1.5t-305.5 -0.5q-225 0 -331 0.5t-191 1.5z" />
    <glyph glyph-name="emdash" unicode="&#x2014;" horiz-adv-x="2048" 
d="M-14 428l8 157q199 -2 399 -3.5t402 -1.5q175 0 530.5 1t534.5 1l202 -1q-5 -45 -12 -133q-1 -15 -2 -22h-264q-123 0 -462.5 -1t-555.5 -1q-219 0 -713 4h-67z" />
    <glyph glyph-name="quotedblleft" unicode="&#x201c;" horiz-adv-x="682" 
d="M188 1049q-59 104 -94.5 213t-45.5 223q24 4 50.5 6t57.5 2q22 0 45 -1.5t46 -4.5q9 -84 34 -181t65 -204q-38 -20 -78 -33.5t-80 -19.5zM483 1049q-61 106 -96.5 215t-46.5 221q25 4 51.5 6t57.5 2q22 0 45 -1.5t46 -4.5q9 -80 34 -177t67 -208q-38 -20 -78 -33.5
t-80 -19.5z" />
    <glyph glyph-name="quotedblright" unicode="&#x201d;" horiz-adv-x="682" 
d="M498 1049q-40 6 -80 19.5t-78 33.5q42 111 67 208t34 177q23 3 46 4.5t45 1.5q31 0 57.5 -2t51.5 -6q-11 -112 -46.5 -221t-96.5 -215zM205 1049q-40 6 -80 19.5t-78 33.5q41 107 65.5 204t33.5 181q23 3 46 4.5t46 1.5q30 0 56.5 -2t51.5 -7q-11 -113 -46.5 -222
t-94.5 -213z" />
    <glyph glyph-name="quoteleft" unicode="&#x2018;" horiz-adv-x="389" 
d="M188 1049q-59 104 -94.5 213t-45.5 223q24 4 50.5 6t57.5 2q22 0 45 -1.5t46 -4.5q9 -84 34 -181t65 -204q-38 -20 -78 -33.5t-80 -19.5z" />
    <glyph glyph-name="quoteright" unicode="&#x2019;" horiz-adv-x="389" 
d="M205 1049q-40 6 -80 19.5t-78 33.5q41 107 65.5 204t33.5 181q23 3 46 4.5t46 1.5q30 0 56.5 -2t51.5 -7q-11 -113 -46.5 -222t-94.5 -213z" />
    <glyph glyph-name="divide" unicode="&#xf7;" horiz-adv-x="1706" 
d="M854 369q62 0 107 -45t45 -107q0 -61 -45 -105t-107 -44q-63 0 -107.5 43t-44.5 106t44.5 107.5t107.5 44.5zM254 711h1198v-199h-1198v199zM854 1155q62 0 107 -44.5t45 -106.5q0 -63 -44.5 -107.5t-107.5 -44.5t-107.5 44.5t-44.5 107.5t44.5 107t107.5 44z" />
    <glyph glyph-name="lozenge" unicode="&#x25ca;" horiz-adv-x="1012" 
d="M506 1409l-385 -817l385 -825l385 825zM506 1653l500 -1061l-500 -1069l-500 1069z" />
    <glyph glyph-name="ydieresis" unicode="&#xff;" horiz-adv-x="702" 
d="M346 340q46 189 77 339.5t46 260.5q58 2 120 6.5t128 11.5l-132 -552q-138 -571 -153 -691q-56 18 -113.5 28t-113.5 12l84 329l-49 -66q-66 33 -103 96t-57 178q-9 57 -24 270t-38 368q46 0 103 10t135 33q11 -340 31 -476t59 -157zM385 1325q25 -3 48 -4.5t48 -1.5
t49.5 1.5t46.5 4.5q-3 -51 -4.5 -100.5t-1.5 -98.5v-65q-14 -1 -33 -1.5t-55 -0.5t-55 0.5t-35 1.5q-5 49 -7.5 96.5t-2.5 93.5q0 31 0.5 46.5t1.5 27.5zM135 1319q37 1 82.5 2.5l103.5 3.5l4 -254q-28 -7 -59.5 -10.5t-67.5 -3.5q-13 0 -28.5 1t-40.5 3z" />
    <glyph glyph-name="Ydieresis" unicode="&#x178;" horiz-adv-x="895" 
d="M311 -22q7 99 11 227t6 311q-51 203 -133.5 440.5t-194.5 501.5q12 -1 26 -1.5t42 -0.5q60 0 119 7.5t116 21.5l89 -326.5l81 -320.5q44 174 82 340t68 319q44 -7 79.5 -10.5t67.5 -3.5t63 3t64 9q-50 -140 -130 -395l-187 -615l-5 -483q-82 -9 -148 -15t-116 -9z
M506 1823q25 -3 48 -4.5t48 -1.5t49.5 1.5t46.5 4.5q-3 -51 -4.5 -100.5t-1.5 -98.5v-65q-14 -1 -33 -1.5t-55 -0.5t-55 0.5t-35 1.5q-5 49 -7.5 96.5t-2.5 93.5q0 31 0.5 46.5t1.5 27.5zM256 1817q37 1 82.5 2.5l103.5 3.5l4 -254q-28 -7 -59.5 -10.5t-67.5 -3.5
q-13 0 -28.5 1t-40.5 3z" />
    <glyph glyph-name="fraction" unicode="&#x2215;" horiz-adv-x="342" 
d="M-342 25l459 752.5l413 709.5q57 -9 91 -15t61 -12l-354 -600l-527 -895z" />
    <glyph glyph-name="currency" unicode="&#xa4;" horiz-adv-x="1241" 
d="M623 1161q-113 0 -195 -82t-82 -194q0 -114 81 -194.5t196 -80.5q113 0 194.5 80.5t81.5 194.5q0 112 -81.5 194t-194.5 82zM172 1438l205 -203q54 39 114 58.5t130 19.5t131.5 -19.5t115.5 -58.5l203 203l105 -107l-203 -205q38 -53 57 -113.5t19 -127.5t-19 -127
t-57 -115l203 -205l-105 -104l-203 203q-54 -40 -115 -59t-130 -19q-72 0 -132.5 19t-113.5 59l-205 -203l-104 104l202 205q-38 54 -56.5 113.5t-18.5 128.5q0 67 18.5 127.5t56.5 113.5l-202 205z" />
    <glyph glyph-name="guilsinglleft" unicode="&#x2039;" horiz-adv-x="487" 
d="M291 903q38 -12 77.5 -29.5t80.5 -39.5l-123.5 -220l-59.5 -106q52 -60 97 -141.5t86 -186.5q-33 -24 -72.5 -40.5t-87.5 -26.5q-53 115 -114.5 212.5t-135.5 182.5l120.5 182z" />
    <glyph glyph-name="guilsinglright" unicode="&#x203a;" horiz-adv-x="487" 
d="M195 113q-43 14 -82.5 31t-75.5 36l130 234t52 94q-51 60 -95.5 139.5t-86.5 186.5q41 27 80 44t80 25q53 -118 115 -215.5t134 -179.5l-112.5 -171z" />
    <glyph glyph-name="fi" unicode="&#xf001;" horiz-adv-x="768" 
d="M58 0q2 113 3.5 238.5t1.5 261.5q0 125 -1 267q-1 40 -1 50q0 335 90 489t285 154q56 0 113 -16.5t104 -46.5q0 -51 -10 -116t-31 -140q-37 26 -71.5 38.5t-69.5 12.5q-83 0 -119.5 -58t-38.5 -193q24 -4 35.5 -4.5t24.5 -0.5q50 0 189 12q75 7 118 10q6 -164 9 -358
t3 -420v-184q-43 6 -85 9t-83 3q-28 0 -43.5 -0.5t-27.5 -1.5l3 164.5t1 103.5q0 136 -8 422v13l-138 -13v-436q0 -95 3.5 -153.5t10.5 -104.5q-31 3 -63 4.5t-63 1.5q-40 0 -75 -2t-66 -6z" />
    <glyph glyph-name="fl" unicode="&#xf002;" horiz-adv-x="768" 
d="M463 948v241q-9 4 -18.5 5.5t-18.5 1.5q-55 0 -84 -63t-29 -183v-10q11 -2 23.5 -3t38.5 -1q23 0 44.5 3t43.5 9zM58 0q2 113 3.5 238t1.5 262q0 125 -1 266q-1 39 -1 49q0 171 15.5 269t50.5 176q42 92 113 146t149 54q28 0 60 -12.5t63 -36.5q46 18 97.5 33t109.5 29
q-17 -258 -25 -489.5t-8 -436.5q0 -81 1.5 -219.5t4.5 -331.5q-43 6 -85 9t-83 3q-28 0 -43.5 -0.5t-27.5 -1.5l3 164.5t1 103.5q0 136 -8 422v13l-138 -13v-436q0 -95 3.5 -153.5t10.5 -104.5q-31 3 -63 4.5t-63 1.5q-40 0 -75 -2t-66 -6z" />
    <glyph glyph-name="daggerdbl" unicode="&#x2021;" horiz-adv-x="729" 
d="M229 0q11 149 16 263t6 206q-39 -1 -84.5 -3.5t-107.5 -6.5q0 54 -4.5 104.5t-13.5 95.5q49 7 102 12t113 9q0 109 -1 164.5t-3 103.5q-79 -2 -120 -4t-72 -4q-1 54 -5.5 103.5t-13.5 95.5q46 7 96 12t108 8q-1 74 -5.5 153.5t-12.5 166.5l254 14q0 -20 -1 -69t-1 -78
q0 -27 1 -87t1 -95q75 2 119 2.5t84 0.5q2 -14 3 -31t1 -51q0 -31 -3 -61t-9 -59q-55 0 -178 -4h-13v-78v-199q59 2 106.5 3t92.5 1q2 -14 3 -31t1 -51q0 -31 -3 -61.5t-9 -59.5q-38 0 -105 -2.5t-87 -3.5q-5 -97 -8 -218t-5 -265h-6q-117 4 -172 4h-64z" />
    <glyph glyph-name="periodcentered" unicode="&#xb7;" horiz-adv-x="391" 
d="M195 879q54 0 93.5 -39.5t39.5 -94.5t-39 -94t-94 -39q-57 0 -94.5 38t-37.5 95q0 56 38.5 95t93.5 39z" />
    <glyph glyph-name="quotesinglbase" unicode="&#x201a;" horiz-adv-x="389" 
d="M205 -207q-38 6 -77.5 20t-80.5 35q42 108 66.5 203.5t31.5 179.5q23 3 46.5 5t46.5 2q30 0 56.5 -2t51.5 -7q-11 -112 -46 -220.5t-95 -215.5z" />
    <glyph glyph-name="quotedblbase" unicode="&#x201e;" horiz-adv-x="682" 
d="M498 -207q-38 6 -77.5 20t-80.5 35q43 113 68 208t32 175q23 3 46.5 5t45.5 2q31 0 57.5 -2t51.5 -7q-10 -110 -46 -218.5t-97 -217.5zM205 -207q-38 6 -77.5 20t-80.5 35q42 108 66.5 203.5t31.5 179.5q23 3 46.5 5t46.5 2q30 0 56.5 -2t51.5 -7q-11 -112 -46 -220.5
t-95 -215.5z" />
    <glyph glyph-name="perthousand" unicode="&#x2030;" horiz-adv-x="1640" 
d="M315 -96q71 423 167.5 819.5t219.5 767.5l193 -33q-131 -313 -239.5 -689.5t-192.5 -807.5zM1382 557q-28 0 -42.5 -43.5t-14.5 -126.5q0 -86 14 -128t43 -42q31 0 46.5 42.5t15.5 127.5q0 81 -16.5 125.5t-45.5 44.5zM1171 397q0 181 68.5 301.5t163.5 120.5
q86 0 143.5 -119t57.5 -305q0 -182 -61 -297.5t-154 -115.5q-96 0 -157 114.5t-61 300.5zM885 557q-28 0 -43 -43.5t-15 -126.5q0 -86 14.5 -128t43.5 -42q31 0 47 43.5t16 126.5q0 80 -17 125t-46 45zM674 397q0 181 69 301.5t164 120.5q86 0 142.5 -118.5t56.5 -305.5
q0 -182 -61 -297.5t-154 -115.5q-96 0 -156.5 114.5t-60.5 300.5zM244 1227q-29 0 -43.5 -42.5t-14.5 -125.5q0 -86 14.5 -128t43.5 -42q31 0 46 42t15 126q0 81 -16 125.5t-45 44.5zM33 1067q0 182 68.5 303t162.5 121q86 0 143.5 -119t57.5 -305q0 -181 -61 -298.5
t-152 -117.5q-98 0 -158.5 114t-60.5 302z" />
    <glyph glyph-name="Acircumflex" unicode="&#xc2;" horiz-adv-x="692" 
d="M281 301h133q-21 135 -39 297t-33 348q-14 -178 -29.5 -339.5t-31.5 -305.5zM-25 8q97 438 155.5 803t82.5 674l287 -4q29 -370 77 -734.5t115 -723.5l-235 -33l-17 112l-184 -2l-18 -131zM473 1573q-28 45 -55 95.5t-55 113.5q-25 -45 -45.5 -97t-38.5 -114h-17
q-36 0 -66.5 12t-51.5 35q22 84 61 170t96 178h29q31 0 61.5 -2.5t65.5 -7.5q24 -73 59.5 -159.5t79.5 -182.5z" />
    <glyph glyph-name="Ecircumflex" unicode="&#xca;" horiz-adv-x="659" 
d="M51 2q22 138 34 313.5t15 388.5l-82 9q29 55 49 110.5t33 112.5q0 118 -8 247.5t-24 274.5q76 12 147 18.5t135 6.5q44 0 93 -2t102 -7q7 -32 10.5 -63.5t3.5 -60.5q0 -30 -5.5 -63t-16.5 -70q-54 3 -101.5 4.5t-91.5 0.5q5 -68 6.5 -114t1.5 -88v-47l236 6
q10 -52 14 -84t4 -59q0 -28 -2 -56t-6 -57q-72 -9 -131.5 -13.5t-108.5 -5.5q-3 -94 -7.5 -197.5t-10.5 -215.5q16 -1 35 -1.5t57 -0.5q52 0 99 2t92 6q0 -70 -13 -138.5t-39 -140.5q-95 -16 -183.5 -24t-156.5 -8q-25 0 -34.5 0.5t-14.5 1.5zM458 1573q-28 45 -55 95.5
t-55 113.5q-25 -45 -45.5 -97t-38.5 -114h-17q-36 0 -66.5 12t-51.5 35q22 84 61 170t96 178h29q31 0 61.5 -2.5t65.5 -7.5q24 -73 59.5 -159.5t79.5 -182.5z" />
    <glyph glyph-name="Aacute" unicode="&#xc1;" horiz-adv-x="692" 
d="M281 301h133q-21 135 -39 297t-33 348q-14 -178 -29.5 -339.5t-31.5 -305.5zM-25 8q97 438 155.5 803t82.5 674l287 -4q29 -370 77 -734.5t115 -723.5l-235 -33l-17 112l-184 -2l-18 -131zM211 1600l97.5 188.5l89.5 173.5l211 -69l-133.5 -174.5l-116.5 -147.5z" />
    <glyph glyph-name="Edieresis" unicode="&#xcb;" horiz-adv-x="659" 
d="M51 2q22 138 34 313.5t15 388.5l-82 9q29 55 49 110.5t33 112.5q0 118 -8 247.5t-24 274.5q76 12 147 18.5t135 6.5q44 0 93 -2t102 -7q7 -32 10.5 -63.5t3.5 -60.5q0 -30 -5.5 -63t-16.5 -70q-54 3 -101.5 4.5t-91.5 0.5q5 -68 6.5 -114t1.5 -88v-47l236 6
q10 -52 14 -84t4 -59q0 -28 -2 -56t-6 -57q-72 -9 -131.5 -13.5t-108.5 -5.5q-3 -94 -7.5 -197.5t-10.5 -215.5q16 -1 35 -1.5t57 -0.5q52 0 99 2t92 6q0 -70 -13 -138.5t-39 -140.5q-95 -16 -183.5 -24t-156.5 -8q-25 0 -34.5 0.5t-14.5 1.5zM389 1823q25 -3 48 -4.5
t48 -1.5t49.5 1.5t46.5 4.5q-3 -51 -4.5 -100.5t-1.5 -98.5v-65q-14 -1 -33 -1.5t-55 -0.5t-55 0.5t-35 1.5q-5 49 -7.5 96.5t-2.5 93.5q0 31 0.5 46.5t1.5 27.5zM139 1817q37 1 82.5 2.5l103.5 3.5l4 -254q-28 -7 -59.5 -10.5t-67.5 -3.5q-13 0 -28.5 1t-40.5 3z" />
    <glyph glyph-name="Egrave" unicode="&#xc8;" horiz-adv-x="659" 
d="M51 2q22 138 34 313.5t15 388.5l-82 9q29 55 49 110.5t33 112.5q0 118 -8 247.5t-24 274.5q76 12 147 18.5t135 6.5q44 0 93 -2t102 -7q7 -32 10.5 -63.5t3.5 -60.5q0 -30 -5.5 -63t-16.5 -70q-54 3 -101.5 4.5t-91.5 0.5q5 -68 6.5 -114t1.5 -88v-47l236 6
q10 -52 14 -84t4 -59q0 -28 -2 -56t-6 -57q-72 -9 -131.5 -13.5t-108.5 -5.5q-3 -94 -7.5 -197.5t-10.5 -215.5q16 -1 35 -1.5t57 -0.5q52 0 99 2t92 6q0 -70 -13 -138.5t-39 -140.5q-95 -16 -183.5 -24t-156.5 -8q-25 0 -34.5 0.5t-14.5 1.5zM360 1940q22 -101 42 -183
t42 -157l-133 -29q-59 77 -103 163.5t-73 182.5z" />
    <glyph glyph-name="Iacute" unicode="&#xcd;" horiz-adv-x="432" 
d="M72 -10q6 144 9 291t3 297q0 274 -10 492.5t-31 389.5l279 27q16 -245 24 -507t8 -542q0 -123 -7 -392q-1 -24 -1 -36q-78 -10 -145.5 -15t-128.5 -5zM82 1600l97.5 188.5l89.5 173.5l211 -69l-133.5 -174.5l-116.5 -147.5z" />
    <glyph glyph-name="Icircumflex" unicode="&#xce;" horiz-adv-x="432" 
d="M72 -10q6 144 9 291t3 297q0 274 -10 492.5t-31 389.5l279 27q16 -245 24 -507t8 -542q0 -123 -7 -392q-1 -24 -1 -36q-78 -10 -145.5 -15t-128.5 -5zM344 1573q-28 45 -55 95.5t-55 113.5q-25 -45 -45.5 -97t-38.5 -114h-17q-36 0 -66.5 12t-51.5 35q22 84 61 170
t96 178h29q31 0 61.5 -2.5t65.5 -7.5q24 -73 59.5 -159.5t79.5 -182.5z" />
    <glyph glyph-name="Idieresis" unicode="&#xcf;" horiz-adv-x="432" 
d="M72 -10q6 144 9 291t3 297q0 274 -10 492.5t-31 389.5l279 27q16 -245 24 -507t8 -542q0 -123 -7 -392q-1 -24 -1 -36q-78 -10 -145.5 -15t-128.5 -5zM275 1823q25 -3 48 -4.5t48 -1.5t49.5 1.5t46.5 4.5q-3 -51 -4.5 -100.5t-1.5 -98.5v-65q-14 -1 -33 -1.5t-55 -0.5
t-55 0.5t-35 1.5q-5 49 -7.5 96.5t-2.5 93.5q0 31 0.5 46.5t1.5 27.5zM25 1817q37 1 82.5 2.5l103.5 3.5l4 -254q-28 -7 -59.5 -10.5t-67.5 -3.5q-13 0 -28.5 1t-40.5 3z" />
    <glyph glyph-name="Igrave" unicode="&#xcc;" horiz-adv-x="432" 
d="M72 -10q6 144 9 291t3 297q0 274 -10 492.5t-31 389.5l279 27q16 -245 24 -507t8 -542q0 -123 -7 -392q-1 -24 -1 -36q-78 -10 -145.5 -15t-128.5 -5zM246 1940q22 -101 42 -183t42 -157l-133 -29q-59 77 -103 163.5t-73 182.5z" />
    <glyph glyph-name="Oacute" unicode="&#xd3;" horiz-adv-x="782" 
d="M397 1075q-51 0 -77.5 -101t-26.5 -298q0 -181 21 -262.5t67 -81.5q49 0 78.5 106.5t29.5 288.5q0 185 -21.5 266.5t-70.5 81.5zM375 -23q-156 0 -244 189t-88 528q0 368 100.5 584.5t266.5 216.5q148 0 237.5 -209t89.5 -565q0 -338 -100 -541t-262 -203zM256 1600
l97.5 188.5l89.5 173.5l211 -69l-133.5 -174.5l-116.5 -147.5z" />
    <glyph glyph-name="Ocircumflex" unicode="&#xd4;" horiz-adv-x="782" 
d="M397 1075q-51 0 -77.5 -101t-26.5 -298q0 -181 21 -262.5t67 -81.5q49 0 78.5 106.5t29.5 288.5q0 185 -21.5 266.5t-70.5 81.5zM375 -23q-156 0 -244 189t-88 528q0 368 100.5 584.5t266.5 216.5q148 0 237.5 -209t89.5 -565q0 -338 -100 -541t-262 -203zM518 1573
q-28 45 -55 95.5t-55 113.5q-25 -45 -45.5 -97t-38.5 -114h-17q-36 0 -66.5 12t-51.5 35q22 84 61 170t96 178h29q31 0 61.5 -2.5t65.5 -7.5q24 -73 59.5 -159.5t79.5 -182.5z" />
    <glyph glyph-name="apple" unicode="&#xf000;" horiz-adv-x="1618" 
d="M836 1216q-1 6 -1.5 14t-0.5 23q0 124 95 229.5t236 131.5q1 -10 1.5 -23t0.5 -39q0 -131 -103.5 -234.5t-203.5 -103.5h-8q-3 0 -7.5 1t-8.5 1zM1505 403q-114 -247 -205 -342.5t-204 -95.5q-50 0 -131.5 33t-122.5 33q-45 0 -131 -33t-127 -33q-64 0 -128.5 44
t-129.5 132q-102 140 -157.5 295.5t-55.5 300.5q0 219 125 356.5t323 137.5q68 0 155 -34t124 -34q34 0 121.5 35t152.5 35q110 0 198 -40t161 -124q-102 -65 -151.5 -145.5t-49.5 -182.5q0 -113 60 -200t173 -138z" />
    <glyph glyph-name="Ograve" unicode="&#xd2;" horiz-adv-x="782" 
d="M397 1075q-51 0 -77.5 -101t-26.5 -298q0 -181 21 -262.5t67 -81.5q49 0 78.5 106.5t29.5 288.5q0 185 -21.5 266.5t-70.5 81.5zM375 -23q-156 0 -244 189t-88 528q0 368 100.5 584.5t266.5 216.5q148 0 237.5 -209t89.5 -565q0 -338 -100 -541t-262 -203zM420 1940
q22 -101 42 -183t42 -157l-133 -29q-59 77 -103 163.5t-73 182.5z" />
    <glyph glyph-name="Uacute" unicode="&#xda;" horiz-adv-x="768" 
d="M723 1474q-19 -323 -29 -578.5t-10 -428.5q0 -118 8.5 -232t26.5 -225q-59 0 -117 -3t-117 -9l-14 123q-27 -50 -72 -78.5t-96 -28.5q-124 0 -182 125.5t-58 395.5q0 147 12.5 394t12.5 347q0 50 -7 167q-1 9 -1 13q71 3 142.5 12.5t139.5 24.5q-25 -267 -39 -494.5
t-14 -388.5q0 -116 26 -172.5t79 -56.5q6 0 21 3q4 1 5 1q-2 36 -3 82.5t-1 148.5q0 186 10.5 441t10.5 323q0 44 -0.5 63.5t-1.5 34.5q60 -4 95 -6t64 -2q18 0 40.5 1zM293 1600l97.5 188.5l89.5 173.5l211 -69l-133.5 -174.5l-116.5 -147.5z" />
    <glyph glyph-name="Ucircumflex" unicode="&#xdb;" horiz-adv-x="768" 
d="M723 1474q-19 -323 -29 -578.5t-10 -428.5q0 -118 8.5 -232t26.5 -225q-59 0 -117 -3t-117 -9l-14 123q-27 -50 -72 -78.5t-96 -28.5q-124 0 -182 125.5t-58 395.5q0 147 12.5 394t12.5 347q0 50 -7 167q-1 9 -1 13q71 3 142.5 12.5t139.5 24.5q-25 -267 -39 -494.5
t-14 -388.5q0 -116 26 -172.5t79 -56.5q6 0 21 3q4 1 5 1q-2 36 -3 82.5t-1 148.5q0 186 10.5 441t10.5 323q0 44 -0.5 63.5t-1.5 34.5q60 -4 95 -6t64 -2q18 0 40.5 1zM555 1573q-28 45 -55 95.5t-55 113.5q-25 -45 -45.5 -97t-38.5 -114h-17q-36 0 -66.5 12t-51.5 35
q22 84 61 170t96 178h29q31 0 61.5 -2.5t65.5 -7.5q24 -73 59.5 -159.5t79.5 -182.5z" />
    <glyph glyph-name="Ugrave" unicode="&#xd9;" horiz-adv-x="768" 
d="M723 1474q-19 -323 -29 -578.5t-10 -428.5q0 -118 8.5 -232t26.5 -225q-59 0 -117 -3t-117 -9l-14 123q-27 -50 -72 -78.5t-96 -28.5q-124 0 -182 125.5t-58 395.5q0 147 12.5 394t12.5 347q0 50 -7 167q-1 9 -1 13q71 3 142.5 12.5t139.5 24.5q-25 -267 -39 -494.5
t-14 -388.5q0 -116 26 -172.5t79 -56.5q6 0 21 3q4 1 5 1q-2 36 -3 82.5t-1 148.5q0 186 10.5 441t10.5 323q0 44 -0.5 63.5t-1.5 34.5q60 -4 95 -6t64 -2q18 0 40.5 1zM457 1940q22 -101 42 -183t42 -157l-133 -29q-59 77 -103 163.5t-73 182.5z" />
    <glyph glyph-name="dotlessi" unicode="&#x131;" horiz-adv-x="379" 
d="M64 6v19q4 235 4 342q0 176 -5 328t-13 278l243 26q6 -201 9 -408.5t3 -422.5v-172q-43 6 -85 9t-85 3q-29 0 -44 -0.5t-27 -1.5z" />
    <glyph glyph-name="circumflex" unicode="&#x2c6;" 
d="M614 1075q-28 45 -55 95.5t-55 113.5q-25 -45 -45.5 -97t-38.5 -114h-17q-36 0 -66.5 12t-51.5 35q22 84 61 170t96 178h29q31 0 61.5 -2.5t65.5 -7.5q24 -73 59.5 -159.5t79.5 -182.5z" />
    <glyph glyph-name="tilde" unicode="&#x2dc;" 
d="M301 1079q8 119 40.5 174.5t94.5 55.5q30 0 67.5 -28t53.5 -28q24 0 37.5 22.5t21.5 78.5q27 -8 54 -14.5t57 -12.5q-3 -124 -37 -192t-92 -68q-31 0 -72.5 29.5t-56.5 29.5q-25 0 -38 -19t-21 -73z" />
    <glyph glyph-name="macron" unicode="&#xaf;" 
d="M310 1276q73 -2 121 -3t91 -1q42 0 92 2t105 6v-169q-45 -8 -88.5 -11.5t-83.5 -3.5q-73 0 -222 7q-12 1 -18 1q0 11 -1 33.5t-1 33.5q0 31 4 95q0 6 1 10z" />
    <glyph glyph-name="breve" unicode="&#x2d8;" 
d="M289 1310q40 2 75.5 11t67.5 24q3 -63 24.5 -93.5t63.5 -30.5q43 0 63.5 30t22.5 94l129 -20q-11 -144 -65.5 -213.5t-157.5 -69.5q-101 0 -155 65.5t-68 202.5z" />
    <glyph glyph-name="dotaccent" unicode="&#x2d9;" 
d="M402 1313q28 -3 57 -4.5t57 -1.5t55.5 1.5t52.5 4.5q1 -2 1 -7q4 -87 4 -126q0 -22 -1 -47t-4 -62q-42 -2 -65 -3t-43 -1q-33 0 -104 4h-11q3 20 4 43.5t1 71.5q0 51 -1 77.5t-3 49.5z" />
    <glyph glyph-name="ring" unicode="&#x2da;" 
d="M514 1362q-38 0 -65 -26.5t-27 -63.5t27 -62.5t65 -25.5t65 26t27 62t-27.5 63t-64.5 27zM512 1493q82 0 140.5 -64.5t58.5 -156.5q0 -93 -57.5 -156t-141.5 -63t-140.5 62.5t-56.5 156.5q0 93 57.5 157t139.5 64z" />
    <glyph glyph-name="cedilla" unicode="&#xb8;" 
d="M432 -227q15 54 23.5 111t11.5 116h86l-14 -82q5 1 12 1.5t20 0.5q87 0 136 -51.5t49 -142.5q0 -93 -56.5 -149t-148.5 -56q-74 0 -133 23t-107 71q40 11 72 25t59 32q28 -14 51 -21t44 -7q37 0 61.5 19t24.5 48q0 25 -18.5 41.5t-47.5 16.5q-14 0 -26.5 -5.5
t-22.5 -15.5z" />
    <glyph glyph-name="hungarumlaut" unicode="&#x2dd;" 
d="M559 1442q-15 -68 -41 -161l-61 -208l-131 21q33 121 52.5 203.5t31.5 144.5q18 1 37.5 1.5t54.5 0.5q25 0 36.5 -0.5t20.5 -1.5zM764 1430q-14 -88 -43 -176.5t-74 -180.5l-117 25q30 108 49 193.5t27 154.5z" />
    <glyph glyph-name="ogonek" unicode="&#x2db;" 
d="M526 0h82q-52 -50 -79 -102.5t-27 -102.5q0 -39 17 -61.5t48 -22.5q13 0 26.5 8t26.5 22q1 -39 7.5 -79t19.5 -80q-24 -21 -49 -31t-53 -10q-81 0 -128.5 49t-47.5 131q0 72 39 141.5t118 137.5z" />
    <glyph glyph-name="caron" unicode="&#x2c7;" 
d="M585 1075q-8 -1 -18.5 -1.5t-31.5 -0.5q-24 0 -51 2.5t-58 8.5q-46 83 -81.5 167.5t-59.5 167.5q27 20 61 32.5t74 16.5q18 -57 38.5 -107t43.5 -93q33 53 61 102.5t51 95.5q29 -13 58.5 -23.5t64.5 -19.5q-34 -91 -72 -178.5t-80 -169.5z" />
    <glyph glyph-name="Lslash" unicode="&#x141;" horiz-adv-x="631" 
d="M84 0q8 124 13 252t9 278l-81 -63q-3 22 -5 47t-2 49q0 15 1 33.5t4 57.5q21 17 41 31.5t40 24.5q2 29 2 60.5v91.5q0 120 -6.5 275t-19.5 342l276 14q0 -41 -1 -127.5t-1 -130.5q0 -88 1 -180t3 -205q36 24 73 52.5t74 61.5q14 -32 20.5 -68t6.5 -75v-26
q-29 -26 -152 -112l-21 -15l-4.5 -264t-3.5 -150q30 -2 64 -3t93 -1q27 0 85 3q12 1 17 1q3 -34 3.5 -53.5t0.5 -36.5q0 -41 -3 -84.5t-9 -89.5q-8 0 -26 -1t-27 -1q-44 0 -186.5 6t-241.5 6h-37z" />
    <glyph glyph-name="lslash" unicode="&#x142;" horiz-adv-x="408" 
d="M344 -25l-243 15q-4 105 -5.5 219.5t-1.5 239.5v172q-22 -11 -42 -24.5t-35 -28.5q-6 24 -8.5 45t-2.5 40q0 15 2 33t7 46q17 15 36 29t39 26q1 91 6 247t17 447l241 44q-3 -86 -13.5 -296.5t-14.5 -302.5q14 13 31 25.5t53 35.5q12 -22 18 -48t6 -58q0 -18 -0.5 -27
t-1.5 -16q-9 -6 -36.5 -26l-65.5 -48q-3 -61 -4.5 -116t-1.5 -103q0 -71 4 -193.5t16 -376.5z" />
    <glyph glyph-name="Scaron" unicode="&#x160;" horiz-adv-x="653" 
d="M115 -20q-3 73 -16 150t-36 159h17q104 0 166.5 54.5t62.5 143.5q0 48 -20.5 98.5t-87.5 149.5q-86 127 -116 209t-30 170q0 177 113 281t303 104h35q24 -61 44 -130t38 -148q-20 6 -38.5 9t-35.5 3q-80 0 -132 -40.5t-52 -102.5q0 -36 20 -79.5t86 -140.5
q103 -148 133.5 -234.5t30.5 -184.5q0 -218 -127 -344.5t-344 -126.5h-14zM425 1573q-8 -1 -18.5 -1.5t-31.5 -0.5q-24 0 -51 2.5t-58 8.5q-46 83 -81.5 167.5t-59.5 167.5q27 20 61 32.5t74 16.5q18 -57 38.5 -107t43.5 -93q33 53 61 102.5t51 95.5q29 -13 58.5 -23.5
t64.5 -19.5q-34 -91 -72 -178.5t-80 -169.5z" />
    <glyph glyph-name="scaron" unicode="&#x161;" horiz-adv-x="457" 
d="M416 735l-20.5 3.5t-22.5 2.5q-33 0 -50.5 -18.5t-17.5 -52.5q0 -39 56.5 -172t56.5 -230q0 -145 -93.5 -234.5t-256.5 -98.5q-10 78 -25 144t-37 120q66 0 98.5 27.5t32.5 82.5q0 52 -49 184.5t-49 211.5q0 129 97 207.5t257 78.5q8 0 16.5 -0.5t26.5 -3.5
q3 -33 3.5 -48.5t0.5 -29.5q0 -48 -6 -92t-18 -82zM302 1075q-8 -1 -18.5 -1.5t-31.5 -0.5q-24 0 -51 2.5t-58 8.5q-46 83 -81.5 167.5t-59.5 167.5q27 20 61 32.5t74 16.5q18 -57 38.5 -107t43.5 -93q33 53 61 102.5t51 95.5q29 -13 58.5 -23.5t64.5 -19.5
q-34 -91 -72 -178.5t-80 -169.5z" />
    <glyph glyph-name="Zcaron" unicode="&#x17d;" horiz-adv-x="664" 
d="M-8 -6q73 195 151.5 502t157.5 704h-51q-54 0 -99.5 2.5t-88.5 7.5q17 65 27 134t12 143q70 -15 151 -22t176 -7q49 0 98 4t99 13q-93 -357 -162.5 -662.5t-109.5 -538.5q24 -3 43 -4.5t36 -1.5q34 0 77 7.5t99 23.5q-15 -73 -27.5 -147.5t-21.5 -149.5
q-33 -7 -62.5 -10.5t-58.5 -3.5q-42 0 -138 6t-150 6q-29 0 -69 -1.5t-89 -4.5zM429 1573q-8 -1 -18.5 -1.5t-31.5 -0.5q-24 0 -51 2.5t-58 8.5q-46 83 -81.5 167.5t-59.5 167.5q27 20 61 32.5t74 16.5q18 -57 38.5 -107t43.5 -93q33 53 61 102.5t51 95.5q29 -13 58.5 -23.5
t64.5 -19.5q-34 -91 -72 -178.5t-80 -169.5z" />
    <glyph glyph-name="zcaron" unicode="&#x17e;" horiz-adv-x="598" 
d="M19 1l202 687l-178 -4l33 258q47 -4 99.5 -6t115.5 -2q50 0 109 1.5t124 4.5q-40 -124 -84.5 -296.5t-95.5 -401.5q5 -1 14 -2q29 -2 39 -2q69 0 115 12t66 35l-74 -270q-50 -14 -103.5 -20.5t-109.5 -6.5q-36 0 -126.5 5.5t-145.5 7.5zM372 1075q-8 -1 -18.5 -1.5
t-31.5 -0.5q-24 0 -51 2.5t-58 8.5q-46 83 -81.5 167.5t-59.5 167.5q27 20 61 32.5t74 16.5q18 -57 38.5 -107t43.5 -93q33 53 61 102.5t51 95.5q29 -13 58.5 -23.5t64.5 -19.5q-34 -91 -72 -178.5t-80 -169.5z" />
    <glyph glyph-name="brokenbar" unicode="&#xa6;" 
d="M410 408h206v-758h-206v758zM410 1432h206v-758h-206v758z" />
    <glyph glyph-name="Eth" unicode="&#xd0;" horiz-adv-x="809" 
d="M338 659l4.5 -150t8.5 -247h28q57 97 87 234t30 309q0 173 -27 254.5t-84 81.5q-9 0 -19.5 -3.5t-22.5 -10.5q-5 -73 -7 -133.5t-2 -98.5v-61v-25l98 -6l-10 -144h-84zM84 2q4 165 6 329.5t2 327.5h-88l-2 156l88 -4q-3 199 -12 361t-25 288q73 32 144 48t141 16h14
l-10 -92q24 20 51 30.5t60 10.5q147 0 228 -160t81 -453q0 -228 -43.5 -417.5t-122.5 -309.5q-50 -76 -106 -107.5t-144 -31.5q-68 0 -132.5 2t-129.5 6z" />
    <glyph glyph-name="eth" unicode="&#xf0;" horiz-adv-x="651" 
d="M383 901q-21 59 -42.5 108t-45.5 91q-26 -14 -55.5 -32.5t-61.5 -41.5l-53 88q17 23 42 47.5t60 53.5q-15 29 -42.5 64t-69.5 79l82 65l116 41q2 -3 5 -8q68 -117 94 -172q24 11 47 17t45 6q4 0 10.5 -1t9.5 -1q16 -25 23.5 -50.5t7.5 -52.5v-18q-25 -5 -45 -11t-35 -14
q75 -199 110.5 -356t35.5 -287q0 -235 -82 -379.5t-211 -144.5q-127 0 -205 132.5t-78 354.5q0 200 75 330.5t181 130.5q23 0 42.5 -9t39.5 -30zM324 621q-36 0 -55 -38t-19 -110q0 -68 19 -101.5t57 -33.5q39 0 60.5 36t21.5 103q0 69 -22 106.5t-62 37.5z" />
    <glyph glyph-name="Yacute" unicode="&#xdd;" horiz-adv-x="895" 
d="M311 -22q7 99 11 227t6 311q-51 203 -133.5 440.5t-194.5 501.5q12 -1 26 -1.5t42 -0.5q60 0 119 7.5t116 21.5l89 -326.5l81 -320.5q44 174 82 340t68 319q44 -7 79.5 -10.5t67.5 -3.5t63 3t64 9q-50 -140 -130 -395l-187 -615l-5 -483q-82 -9 -148 -15t-116 -9z
M313 1600l97.5 188.5l89.5 173.5l211 -69l-133.5 -174.5l-116.5 -147.5z" />
    <glyph glyph-name="yacute" unicode="&#xfd;" horiz-adv-x="702" 
d="M346 340q46 189 77 339.5t46 260.5q58 2 120 6.5t128 11.5l-132 -552q-138 -571 -153 -691q-56 18 -113.5 28t-113.5 12l84 329l-49 -66q-66 33 -103 96t-57 178q-9 57 -24 270t-38 368q46 0 103 10t135 33q11 -340 31 -476t59 -157zM192 1102l97.5 188.5l89.5 173.5
l211 -69l-133.5 -174.5l-116.5 -147.5z" />
    <glyph glyph-name="Thorn" unicode="&#xde;" horiz-adv-x="758" 
d="M332 508q7 -3 13 -4.5t11 -1.5q47 0 75 80.5t28 218.5q0 97 -24 157t-60 60q-10 0 -21 -4t-20 -11q-3 -105 -3.5 -168.5t-0.5 -121.5q0 -82 0.5 -125t1.5 -80zM342 1251q21 16 45.5 23.5t50.5 7.5q127 0 202 -140t75 -382q0 -249 -84.5 -380.5t-243.5 -131.5
q-19 0 -29.5 1t-21.5 3v-51q0 -63 3 -121.5t9 -112.5q-2 0 -7 1q-49 3 -71 3q-40 0 -89 -4.5t-115 -15.5q10 109 15 261.5t5 440.5q0 293 -5 500t-15 342q30 -3 57 -4.5t49 -1.5q31 0 129 8q34 3 51 4z" />
    <glyph glyph-name="thorn" unicode="&#xfe;" horiz-adv-x="702" 
d="M297 317h18q60 0 90.5 50.5t30.5 148.5q0 59 -22.5 94t-59.5 35q-13 0 -28 -5t-29 -15v-308zM37 -244q12 194 18 398.5t6 420.5q0 179 -7 383.5t-21 438.5l262 59q-8 -81 -12 -193.5t-4 -271.5v-110q31 44 71 68t84 24q98 0 164 -128t66 -329q0 -227 -76.5 -372.5
t-190.5 -145.5q-34 0 -59.5 15t-40.5 44v-253q-75 -7 -140 -19t-120 -29z" />
    <glyph glyph-name="minus" unicode="&#x2212;" horiz-adv-x="1706" 
d="M254 713h1198v-203h-1198v203z" />
    <glyph glyph-name="multiply" unicode="&#xd7;" horiz-adv-x="1706" 
d="M416 1202l450 -450l451 450l141 -139l-450 -453l450 -450l-141 -140l-451 451l-450 -451l-140 140l451 450l-451 453z" />
    <glyph glyph-name="onesuperior" unicode="&#xb9;" horiz-adv-x="358" 
d="M98 580q12 76 17.5 185t5.5 261q0 52 -2 107t-6 122l-102 -2q3 11 11 34q28 83 50 138q58 8 86.5 17.5t44.5 25.5h10q17 0 35.5 3t40.5 9q-6 -66 -8 -150.5t-2 -209.5q0 -130 3 -262t9 -266z" />
    <glyph glyph-name="twosuperior" unicode="&#xb2;" horiz-adv-x="516" 
d="M56 606q-5 22 -12.5 46t-20.5 55q119 119 184 236.5t65 211.5q0 50 -12.5 74t-38.5 24q-25 0 -38 -20t-13 -59v-6q-38 -4 -70.5 -11t-62.5 -18v12q0 153 55 237.5t156 84.5q89 0 138.5 -72.5t49.5 -202.5q0 -121 -53 -227t-168 -215q25 -9 54.5 -14t60.5 -5
q26 0 55.5 3.5t73.5 11.5q-30 -44 -48 -81t-26 -69q-37 -9 -79 -13.5t-91 -4.5q-44 0 -83.5 5.5t-75.5 16.5z" />
    <glyph glyph-name="threesuperior" unicode="&#xb3;" horiz-adv-x="485" 
d="M16 817l119 68q6 -73 24.5 -106.5t51.5 -33.5t54.5 35.5t21.5 91.5q0 54 -25 84.5t-69 30.5q-8 0 -21 -2t-41 -8l2 125h8q60 0 93.5 32.5t33.5 90.5q0 30 -17.5 49.5t-43.5 19.5q-20 0 -45 -14t-60 -45q-8 30 -21.5 61t-33.5 68q43 55 95 84t108 29q78 0 125 -53.5
t47 -143.5q0 -61 -27 -116t-79 -101q62 -9 96 -56t34 -126q0 -126 -66 -211.5t-161 -85.5q-83 0 -140.5 65t-62.5 168z" />
    <glyph glyph-name="onequarter" unicode="&#xbc;" horiz-adv-x="1159" 
d="M854 330q7 -1 16 -1.5t27 -0.5q14 0 21.5 0.5t13.5 1.5q3 82 11.5 165t23.5 169h-4q-44 -86 -71 -169.5t-38 -164.5zM1116 706q-22 -98 -35.5 -189.5t-17.5 -180.5l72 4l10 -37l-2 -59l-86 -23q0 -8 -1 -25t-1 -26q0 -40 3 -81.5t9 -84.5l-135 -12q-4 33 -6 69.5t-2 79.5
q0 27 0.5 40.5t0.5 25.5q-27 -2 -49.5 -3t-41.5 -1q-66 0 -102 8.5t-36 24.5q0 46 21.5 142t58.5 197q30 85 65 151.5t74 113.5q44 -22 73.5 -45.5t47.5 -51.5l-28 -34q9 1 19.5 1.5t31.5 0.5q23 0 35 -1t22 -4zM0 25l459 752.5l413 709.5q57 -9 91 -15t61 -12l-354 -600
l-527 -895zM94 639q11 67 16 164.5t5 253.5q0 61 -1.5 114.5t-5.5 100.5l-98 -2l28 79l29 78q56 8 84.5 17.5t43.5 25.5h8q21 1 38 3.5t33 6.5q-4 -64 -6 -146t-2 -191t2.5 -229.5t7.5 -262.5z" />
    <glyph glyph-name="onehalf" unicode="&#xbd;" horiz-adv-x="1178" 
d="M737 17q-4 23 -11.5 46t-18.5 48q114 114 175.5 223t61.5 194q0 47 -12.5 71t-36.5 24t-36.5 -19.5t-12.5 -56.5v-6q-36 -4 -67 -10.5t-60 -16.5v10q0 144 53 222.5t150 78.5q84 0 131 -67t47 -189q0 -114 -50.5 -212t-160.5 -199q27 -10 54 -14.5t56 -4.5q25 0 54 3.5
t69 11.5q-26 -39 -43.5 -74.5t-25.5 -67.5q-40 -8 -80.5 -12t-83.5 -4q-40 0 -77.5 5t-74.5 16zM0 25l459 752.5l413 709.5q57 -9 91 -15t61 -12l-354 -600l-527 -895zM94 639q11 67 16 164.5t5 253.5q0 61 -1.5 114.5t-5.5 100.5l-98 -2l28 79l29 78q56 8 84.5 17.5
t43.5 25.5h8q21 1 38 3.5t33 6.5q-4 -64 -6 -146t-2 -191t2.5 -229.5t7.5 -262.5z" />
    <glyph glyph-name="threequarters" unicode="&#xbe;" horiz-adv-x="1280" 
d="M975 330q7 -1 16 -1.5t27 -0.5q14 0 21.5 0.5t13.5 1.5q3 82 11.5 165t22.5 169h-4q-43 -86 -70 -169.5t-38 -164.5zM1237 706q-23 -98 -36 -189.5t-17 -180.5l71 4l11 -37l-2 -59l-86 -23q0 -8 -1 -25t-1 -26q0 -40 3 -81.5t9 -84.5l-135 -12q-5 33 -7 69.5t-2 79.5
q0 27 0.5 40t1.5 26q-27 -2 -49.5 -3t-42.5 -1q-65 0 -101 8.5t-36 24.5q0 46 21.5 142t58.5 197q30 85 65 151.5t74 113.5q44 -22 73.5 -45.5t47.5 -51.5l-28 -34q9 1 19.5 1.5t31.5 0.5q23 0 35 -1t22 -4zM121 25l459 752.5l413 709.5q57 -9 90.5 -15t61.5 -12l-354 -600
l-527 -895zM16 862l113 62q6 -68 23 -98.5t49 -30.5t52.5 32.5t20.5 83.5q0 52 -23.5 80.5t-66.5 28.5q-8 0 -39 -5q-12 -2 -20 -3l2 116h8q57 0 89 30.5t32 84.5q0 28 -17 46t-42 18q-20 0 -43.5 -13.5t-55.5 -42.5q-8 27 -21 56t-32 63q41 53 90.5 80t104.5 27
q74 0 118.5 -50t44.5 -135q0 -57 -25.5 -108.5t-76.5 -93.5q61 -8 94 -52t33 -116q0 -118 -64 -198.5t-155 -80.5q-80 0 -135 62t-58 157z" />
    <glyph glyph-name="franc" unicode="&#x20a3;" horiz-adv-x="1161" 
d="M43 23q22 261 32.5 491.5t10.5 431.5q0 143 -6 270.5t-18 237.5q149 2 255.5 10.5t167.5 24.5q12 -65 17.5 -104.5t5.5 -63.5q0 -17 -2.5 -40.5t-7.5 -57.5q-38 -13 -78 -21.5t-80 -12.5q0 -21 1 -74.5t1 -84.5q0 -95 -1 -180t-3 -176l246 16v-18q0 -47 -6.5 -107
t-20.5 -141q-53 0 -107.5 -3t-111.5 -9q-6 -81 -9 -168t-3 -178v-72q-82 11 -153 18.5t-130 10.5zM686 -2q2 81 3 135t1 103q0 150 -4.5 329.5t-14.5 388.5q60 6 118.5 18.5t117.5 31.5l4 -123q29 36 60 53.5t67 17.5q38 0 70.5 -9.5t66.5 -31.5q-10 -73 -30.5 -136
t-53.5 -122q-26 15 -51 22t-51 7q-12 0 -27 -2.5t-34 -7.5q2 -85 3.5 -160.5t1.5 -138.5q0 -98 -2 -199.5t-6 -206.5q-59 14 -119.5 21.5t-119.5 9.5z" />
    <glyph glyph-name="Gbreve" unicode="&#x11e;" horiz-adv-x="758" 
d="M706 51l-85 25q-38 -50 -84.5 -74.5t-104.5 -24.5q-173 0 -282 193.5t-109 509.5q0 177 33.5 322t101.5 266q62 110 136 168.5t151 58.5q42 0 83.5 -15.5t84.5 -47.5q-10 -151 -19 -229t-22 -124q-31 37 -60 55.5t-55 18.5q-81 0 -133.5 -126t-52.5 -329
q0 -172 40 -286.5t95 -114.5q9 0 20 3t25 9q5 46 7.5 84.5t2.5 71.5q0 109 -12 209q-2 14 -2 16l-88 21q6 69 9 137.5t3 136.5q68 -21 147 -33.5t168 -15.5q-4 -177 -6 -273t-2 -178q0 -105 2.5 -213.5t7.5 -220.5zM180 1808q40 2 75.5 11t67.5 24q3 -63 24.5 -93.5
t63.5 -30.5q43 0 63.5 30t22.5 94l129 -20q-11 -144 -65.5 -213.5t-157.5 -69.5q-101 0 -155 65.5t-68 202.5z" />
    <glyph glyph-name="gbreve" unicode="&#x11f;" horiz-adv-x="668" 
d="M254 571q0 -51 20 -78.5t56 -27.5q38 0 60 28.5t22 77.5q0 47 -23.5 78t-58.5 31q-33 0 -54.5 -30.5t-21.5 -78.5zM518 870q25 27 53.5 42t59.5 17q6 -53 19 -98t34 -86q-23 -19 -45.5 -35t-48.5 -30q8 -39 12 -69t4 -54q0 -167 -78 -273t-198 -106q-13 0 -19 0.5
t-11 1.5q97 -87 164.5 -194t104.5 -234l-207 -94q-47 141 -135.5 252.5t-214.5 187.5l107 197q-38 56 -57 126.5t-19 153.5q0 188 81 306t206 118q61 0 109 -33t79 -96zM111 1310q40 2 75.5 11t67.5 24q3 -63 24.5 -93.5t63.5 -30.5q43 0 63.5 30t22.5 94l129 -20
q-11 -144 -65.5 -213.5t-157.5 -69.5q-101 0 -155 65.5t-68 202.5z" />
    <glyph glyph-name="Idotaccent" unicode="&#x130;" horiz-adv-x="432" 
d="M72 -10q6 144 9 291t3 297q0 274 -10 492.5t-31 389.5l279 27q16 -245 24 -507t8 -542q0 -123 -7 -392q-1 -24 -1 -36q-78 -10 -145.5 -15t-128.5 -5zM132 1811q28 -3 57 -4.5t57 -1.5t55.5 1.5t52.5 4.5q1 -2 1 -7q4 -87 4 -126q0 -22 -1 -47t-4 -62q-42 -2 -65 -3
t-43 -1q-33 0 -104 4h-11q3 20 4 43.5t1 71.5q0 51 -1 77.5t-3 49.5z" />
    <glyph glyph-name="Scedilla" unicode="&#x15e;" horiz-adv-x="653" 
d="M115 -20q-3 73 -16 150t-36 159h17q104 0 166.5 54.5t62.5 143.5q0 48 -20.5 98.5t-87.5 149.5q-86 127 -116 209t-30 170q0 177 113 281t303 104h35q24 -61 44 -130t38 -148q-20 6 -38.5 9t-35.5 3q-80 0 -132 -40.5t-52 -102.5q0 -36 20 -79.5t86 -140.5
q103 -148 133.5 -234.5t30.5 -184.5q0 -218 -127 -344.5t-344 -126.5h-14zM270 -227q15 54 23.5 111t11.5 116h86l-14 -82q5 1 12 1.5t20 0.5q87 0 136 -51.5t49 -142.5q0 -93 -56.5 -149t-148.5 -56q-74 0 -133 23t-107 71q40 11 72 25t59 32q28 -14 51 -21t44 -7
q37 0 61.5 19t24.5 48q0 25 -18.5 41.5t-47.5 16.5q-14 0 -26.5 -5.5t-22.5 -15.5z" />
    <glyph glyph-name="scedilla" unicode="&#x15f;" horiz-adv-x="457" 
d="M416 735l-20.5 3.5t-22.5 2.5q-33 0 -50.5 -18.5t-17.5 -52.5q0 -39 56.5 -172t56.5 -230q0 -145 -93.5 -234.5t-256.5 -98.5q-10 78 -25 144t-37 120q66 0 98.5 27.5t32.5 82.5q0 52 -49 184.5t-49 211.5q0 129 97 207.5t257 78.5q8 0 16.5 -0.5t26.5 -3.5
q3 -33 3.5 -48.5t0.5 -29.5q0 -48 -6 -92t-18 -82zM149 -227q15 54 23.5 111t11.5 116h86l-14 -82q5 1 12 1.5t20 0.5q87 0 136 -51.5t49 -142.5q0 -93 -56.5 -149t-148.5 -56q-74 0 -133 23t-107 71q40 11 72 25t59 32q28 -14 51 -21t44 -7q37 0 61.5 19t24.5 48
q0 25 -18.5 41.5t-47.5 16.5q-14 0 -26.5 -5.5t-22.5 -15.5z" />
    <glyph glyph-name="Cacute" unicode="&#x106;" horiz-adv-x="711" 
d="M647 403q-2 -63 -5 -133.5t-3 -79.5q0 -26 1.5 -55t6.5 -77q-39 -40 -92 -60.5t-117 -20.5q-171 0 -283 186.5t-112 483.5q0 176 40 338.5t114 288.5q64 108 142 164.5t165 56.5q42 0 81.5 -14.5t73.5 -42.5q-19 -70 -32.5 -142t-22.5 -149q-20 15 -36 21.5t-33 7.5
q-89 0 -155.5 -136.5t-66.5 -339.5q0 -162 61 -260t158 -98q38 0 66.5 15.5t48.5 45.5zM327 1600l97.5 188.5l89.5 173.5l211 -69l-133.5 -174.5l-116.5 -147.5z" />
    <glyph glyph-name="cacute" unicode="&#x107;" horiz-adv-x="551" 
d="M491 229q-4 -42 -6 -67t-2 -45q0 -14 1 -30t3 -41q-27 -39 -68 -59t-91 -20q-124 0 -206.5 132.5t-82.5 338.5q0 234 97 387.5t241 153.5q43 0 75.5 -14.5t53.5 -42.5q-17 -61 -28 -121.5t-15 -120.5q-20 19 -31.5 25t-28.5 6q-58 0 -93.5 -67t-35.5 -181
q0 -108 50.5 -182t119.5 -74q15 0 26.5 5.5t20.5 16.5zM184 1102l97.5 188.5l89.5 173.5l211 -69l-133.5 -174.5l-116.5 -147.5z" />
    <glyph glyph-name="Ccaron" unicode="&#x10c;" horiz-adv-x="711" 
d="M647 403q-2 -63 -5 -133.5t-3 -79.5q0 -26 1.5 -55t6.5 -77q-39 -40 -92 -60.5t-117 -20.5q-171 0 -283 186.5t-112 483.5q0 176 40 338.5t114 288.5q64 108 142 164.5t165 56.5q42 0 81.5 -14.5t73.5 -42.5q-19 -70 -32.5 -142t-22.5 -149q-20 15 -36 21.5t-33 7.5
q-89 0 -155.5 -136.5t-66.5 -339.5q0 -162 61 -260t158 -98q38 0 66.5 15.5t48.5 45.5zM560 1573q-8 -1 -18.5 -1.5t-31.5 -0.5q-24 0 -51 2.5t-58 8.5q-46 83 -81.5 167.5t-59.5 167.5q27 20 61 32.5t74 16.5q18 -57 38.5 -107t43.5 -93q33 53 61 102.5t51 95.5
q29 -13 58.5 -23.5t64.5 -19.5q-34 -91 -72 -178.5t-80 -169.5z" />
    <glyph glyph-name="ccaron" unicode="&#x10d;" horiz-adv-x="551" 
d="M491 229q-4 -42 -6 -67t-2 -45q0 -14 1 -30t3 -41q-27 -39 -68 -59t-91 -20q-124 0 -206.5 132.5t-82.5 338.5q0 234 97 387.5t241 153.5q43 0 75.5 -14.5t53.5 -42.5q-17 -61 -28 -121.5t-15 -120.5q-20 19 -31.5 25t-28.5 6q-58 0 -93.5 -67t-35.5 -181
q0 -108 50.5 -182t119.5 -74q15 0 26.5 5.5t20.5 16.5zM417 1075q-8 -1 -18.5 -1.5t-31.5 -0.5q-24 0 -51 2.5t-58 8.5q-46 83 -81.5 167.5t-59.5 167.5q27 20 61 32.5t74 16.5q18 -57 38.5 -107t43.5 -93q33 53 61 102.5t51 95.5q29 -13 58.5 -23.5t64.5 -19.5
q-34 -91 -72 -178.5t-80 -169.5z" />
    <glyph glyph-name="dcroat" unicode="&#x111;" horiz-adv-x="721" 
d="M401 643q-12 9 -23 13.5t-22 5.5q-45 0 -72.5 -39t-27.5 -105q0 -82 34.5 -137t84.5 -55q9 0 18 2t17 6q-2 26 -6 214q-2 61 -3 95zM711 1409l-16 -162q25 2 53 6.5t59 12.5q-12 -36 -21 -76.5t-14 -87.5l-94 6q-22 -207 -32.5 -388t-10.5 -335q0 -108 6.5 -201.5
t20.5 -173.5q-51 -12 -105 -23t-110 -20l-19 152q-28 -58 -73.5 -91.5t-96.5 -33.5q-96 0 -159.5 138.5t-63.5 359.5q0 214 73.5 351.5t182.5 137.5q36 0 66 -24.5t55 -75.5l8 221l-90 -15l-27 154q4 -1 10 -2q26 -6 37 -6q15 0 35.5 1.5t46.5 4.5l4 121q65 6 134 18.5
t141 30.5z" />
    <glyph glyph-name="sfthyphen" unicode="&#xad;" horiz-adv-x="541" 
d="M41 398q-3 17 -4.5 37t-1.5 42q0 28 3.5 61.5t10.5 77.5q67 -3 144 -4.5t165 -1.5h154q-4 -25 -6 -54t-2 -64q0 -38 1 -58t3 -36q-42 -2 -88 -2.5t-135 -0.5q-97 0 -147.5 0.5t-96.5 2.5z" />
    <glyph glyph-name="periodcentered" unicode="&#x2219;" horiz-adv-x="391" 
d="M195 879q54 0 93.5 -39.5t39.5 -94.5t-39 -94t-94 -39q-57 0 -94.5 38t-37.5 95q0 56 38.5 95t93.5 39z" />
    </font>
</defs>
</svg>
