<?xml version="1.0" standalone="no"?>
<!DOCTYPE svg PUBLIC "-//W3C//DTD SVG 1.1//EN" "http://www.w3.org/Graphics/SVG/1.1/DTD/svg11.dtd" >
<svg>
<metadata>
Created by FontForge 20090622 at Fri May 11 08:47:23 2018
 By deploy user
Copyright (c) 2011 by Omnibus-Type (www.omnibus-type.com) with Reserved Font Name "Asap".
</metadata>
<defs>
<font id="mmAsap-Regular" horiz-adv-x="320" >
  <font-face 
    font-family="mmAsap"
    font-weight="400"
    font-stretch="normal"
    units-per-em="1000"
    panose-1="0 0 0 0 0 0 0 0 0 0"
    ascent="788"
    descent="-212"
    x-height="523"
    cap-height="702"
    bbox="-76 -212 1000 932"
    underline-thickness="70"
    underline-position="-23"
    unicode-range="U+0020-U+FB02"
  />
<missing-glyph horiz-adv-x="1000" 
 />
    <glyph glyph-name=".notdef" horiz-adv-x="1000" 
 />
    <glyph glyph-name=".null" horiz-adv-x="0" 
 />
    <glyph glyph-name="nonmarkingreturn" horiz-adv-x="333" 
 />
    <glyph glyph-name="space" unicode=" " horiz-adv-x="240" 
 />
    <glyph glyph-name="exclam" unicode="!" horiz-adv-x="294" 
d="M197 86v-66q0 -22 -40 -22h-17q-40 0 -40 22v66q0 22 40 22h17q40 0 40 -22zM211 680l-27 -456q-2 -22 -31 -22h-11q-30 0 -30 22v456q0 22 40 22h20q41 0 39 -22z" />
    <glyph glyph-name="quotedbl" unicode="&#x22;" horiz-adv-x="319" 
d="M140 680v-14l-23 -182q-3 -12 -22 -12q-20 0 -23 12l-22 184v12q0 22 40 22h10q40 0 40 -22zM268 680v-14l-23 -182q-3 -12 -22 -12q-20 0 -23 12l-22 184v12q0 22 40 22h10q40 0 40 -22z" />
    <glyph glyph-name="numbersign" unicode="#" horiz-adv-x="534" 
d="M317 273l26 147h-118l-26 -147h118zM520 467v-17q0 -30 -20 -30h-83l-25 -147h76q20 0 20 -30v-17q0 -30 -20 -30h-92l-31 -176q-3 -22 -43 -22h-4q-28 0 -28 17l32 181h-118l-32 -176q-2 -8 -4.5 -12t-12 -7t-26.5 -3h-4q-28 0 -28 17l32 181h-76q-20 0 -20 30v17
q0 30 20 30h91l26 147h-81q-20 0 -20 30v17q0 30 20 30h94l31 167q2 8 4.5 12t12 7t27.5 3h4q28 0 28 -15l-33 -174h119l30 167q2 8 4.5 12t12 7t27.5 3h5q28 0 28 -15l-31 -174h68q20 0 20 -30z" />
    <glyph glyph-name="dollar" unicode="$" horiz-adv-x="496" 
d="M373 191q0 43 -26 69.5t-74 47.5v-239q45 8 72.5 41t27.5 81zM233 412v215q-44 -8 -69 -35.5t-25 -73.5q0 -39 24 -63t70 -43zM464 191q0 -85 -51 -136.5t-140 -59.5v-50q0 -16 -20 -16t-20 16v49q-79 2 -138.5 26.5t-59.5 46.5q0 12 13.5 33t21.5 21q3 0 24 -13
t58.5 -27t80.5 -15v258q-38 15 -54.5 22t-47 25t-45 36t-26.5 48t-12 67q0 73 50 121t135 57v42q0 16 20 16t20 -16v-40q50 -1 104 -17.5t54 -39.5q0 -11 -12.5 -32t-19.5 -21q-5 0 -21 9t-44 18.5t-61 10.5v-233q46 -16 69.5 -27t57 -35t49 -59.5t15.5 -84.5z" />
    <glyph glyph-name="percent" unicode="%" horiz-adv-x="765" 
d="M641 156q0 22 -2 38t-8.5 34t-22.5 28t-40 10q-23 0 -38.5 -10t-22 -28t-8.5 -34t-2 -38q0 -29 3.5 -49.5t20.5 -38.5t47 -18q73 0 73 106zM270 542q0 22 -2 38t-8.5 34t-22.5 28t-40 10q-23 0 -38.5 -10t-22 -28t-8.5 -34t-2 -38q0 -29 3.5 -49.5t20.5 -38.5t47 -18
q73 0 73 106zM705 156q0 -90 -40 -125.5t-97 -35.5q-137 0 -137 161q0 164 137 164q57 0 97 -36.5t40 -127.5zM607 697q0 -2 -4 -10l-373 -675q-10 -19 -40 -19h-5q-24 0 -24 9q0 5 4 10l373 675q10 19 40 19h5q24 0 24 -9zM334 542q0 -90 -40 -125.5t-97 -35.5
q-137 0 -137 161q0 164 137 164q57 0 97 -36.5t40 -127.5z" />
    <glyph glyph-name="ampersand" unicode="&#x26;" horiz-adv-x="624" 
d="M411 103q-2 18 -2 29v204h-122q-73 0 -111.5 -30t-38.5 -102q0 -51 24.5 -83.5t55 -43.5t64.5 -11q63 0 130 37zM611 24q0 -30 -73 -30q-68 0 -102 43q-71 -43 -163 -43q-39 0 -77 11.5t-71.5 35t-54 65.5t-20.5 97q0 73 38 122t88 62v4q-45 18 -74 56t-29 91
q0 82 55.5 125t146.5 43q85 0 85 -32q0 -9 -6 -29t-16 -20q-1 0 -21.5 4.5t-39.5 4.5q-37 0 -62.5 -10.5t-37 -28.5t-16 -33.5t-4.5 -32.5q0 -45 34 -83t100 -38h118l12 105q3 22 32 22h10q30 0 30 -22v-105h84q20 0 20 -30v-12q0 -30 -20 -30h-84v-196q0 -74 54 -74
q17 0 29 2.5t14 2.5q9 0 15 -18.5t6 -28.5z" />
    <glyph glyph-name="quotesingle" unicode="'" horiz-adv-x="183" 
d="M140 680v-14l-23 -182q-3 -12 -22 -12q-20 0 -23 12l-22 184v12q0 22 40 22h10q40 0 40 -22z" />
    <glyph glyph-name="parenleft" unicode="(" horiz-adv-x="301" 
d="M290 758q0 -10 -9 -22q-68 -80 -106.5 -197.5t-38.5 -252.5q0 -134 38.5 -251.5t105.5 -198.5q9 -10 9 -20q0 -8 -9 -18t-19 -10q-11 0 -22 11q-85 78 -134.5 207t-49.5 280t49.5 280t134.5 207q10 10 21 10q10 0 20 -7.5t10 -17.5z" />
    <glyph glyph-name="parenright" unicode=")" horiz-adv-x="301" 
d="M246 286q0 -151 -49.5 -280t-134.5 -207q-10 -10 -21 -10t-21.5 8.5t-10.5 17.5q0 6 7 15q69 80 109 199.5t40 256.5q0 134 -38.5 251.5t-105.5 198.5q-9 11 -9 20q0 8 9 18t19 10q11 0 22 -11q85 -78 134.5 -207t49.5 -280z" />
    <glyph glyph-name="asterisk" unicode="*" horiz-adv-x="373" 
d="M327 594q0 -12 -14 -16l-99 -32l72 -99q5 -8 5 -13q0 -7 -7.5 -13.5t-14.5 -6.5q-9 0 -15 9l-73 101l-73 -101q-8 -9 -15 -9t-13 5q-9 6 -9 15q0 7 5 13l71 99l-98 32q-14 4 -14 15t5.5 17.5t12.5 6.5q6 0 9 -1l99 -32v105q0 20 20 20t20 -20v-105l99 32q3 1 9 1
q7 0 12.5 -6.5t5.5 -16.5z" />
    <glyph glyph-name="plus" unicode="+" horiz-adv-x="560" 
d="M512 234v-7q0 -30 -20 -30h-178v-179q0 -20 -30 -20h-7q-30 0 -30 20v179h-179q-11 0 -15.5 5.5t-4.5 20.5v7q0 34 20 34h179v179q0 20 30 20h7q30 0 30 -20v-179h178q20 0 20 -30z" />
    <glyph glyph-name="comma" unicode="," horiz-adv-x="198" 
d="M144 80q0 -81 -36.5 -138.5t-66.5 -57.5q-29 0 -29 15q0 6 9 24q34 68 34 153q0 32 40 32h9q40 0 40 -28z" />
    <glyph glyph-name="hyphen" unicode="-" 
d="M273 270v-10q0 -30 -20 -30h-189q-20 0 -20 30v10q0 30 20 30h189q20 0 20 -30z" />
    <glyph glyph-name="period" unicode="." horiz-adv-x="198" 
d="M148 86v-66q0 -22 -40 -22h-17q-40 0 -40 22v66q0 22 40 22h17q40 0 40 -22z" />
    <glyph glyph-name="slash" unicode="/" horiz-adv-x="370" 
d="M366 683q0 -7 -3 -15l-310 -721q-10 -23 -33 -23h-4q-26 0 -26 20q0 8 3 15l310 721q10 23 35 23h4q24 0 24 -20z" />
    <glyph glyph-name="zero" unicode="0" horiz-adv-x="535" 
d="M410 350q0 146 -41.5 215t-102.5 69q-60 0 -101 -69t-41 -215t41 -215t101 -69q61 0 102.5 69t41.5 215zM495 350q0 -176 -65.5 -266t-163.5 -90q-97 0 -162 90t-65 266t65 266t162 90q98 0 163.5 -90t65.5 -266z" />
    <glyph glyph-name="one" unicode="1" horiz-adv-x="441" 
d="M321 681v-661q0 -22 -40 -22h-6q-38 0 -38 22v591l-177 -30q-9 0 -14.5 17t-5.5 34q0 14 18 19l232 51q12 0 21.5 -6t9.5 -15z" />
    <glyph glyph-name="two" unicode="2" horiz-adv-x="535" 
d="M473 41v-11q0 -30 -20 -30h-382q-8 0 -14 14t-6 30q0 13 4 17l112 140q155 193 184.5 238t29.5 91q0 48 -33.5 76t-91.5 28q-40 0 -73.5 -13t-52.5 -25.5t-24 -12.5q-7 0 -19.5 19.5t-12.5 30.5q0 29 63.5 51t116.5 22q98 0 155.5 -45.5t57.5 -124.5q0 -50 -18.5 -91.5
t-57 -92.5t-153.5 -192l-73 -89h288q20 0 20 -30z" />
    <glyph glyph-name="three" unicode="3" horiz-adv-x="535" 
d="M469 203q0 -55 -20.5 -97t-54 -65.5t-71.5 -35t-77 -11.5q-83 0 -142 18.5t-59 38.5q0 14 13 32t22 18q1 0 53 -17.5t105 -17.5q34 0 64.5 11t55 43.5t24.5 83.5q0 72 -38.5 102t-111.5 30h-33q-20 0 -20 30v11q0 30 20 30h29q69 0 101 42t32 89q0 37 -27 66.5t-92 29.5
q-40 0 -72 -8t-49.5 -16.5t-22.5 -8.5q-8 0 -20.5 20t-12.5 32q0 21 63 37t116 16q92 0 147 -45t55 -132q0 -49 -29.5 -85t-73.5 -53v-4q50 -13 88 -62t38 -122z" />
    <glyph glyph-name="four" unicode="4" horiz-adv-x="535" 
d="M117 239h229v318l-4 2zM516 209v-12q0 -30 -20 -30h-67v-147q0 -22 -30 -22h-23q-30 0 -30 22v147h-304q-8 0 -16 18t-8 33q0 9 2 11l329 459q11 14 34 14h16q30 0 30 -22v-441h67q20 0 20 -30z" />
    <glyph glyph-name="five" unicode="5" horiz-adv-x="535" 
d="M474 213q0 -62 -21 -107t-57.5 -68.5t-76 -33.5t-85.5 -10q-78 0 -132.5 19.5t-54.5 40.5q0 14 13 32t22 18q1 0 50 -19t101 -19q65 0 110 38.5t45 108.5q0 67 -46 102t-134 35h-85q-16 0 -22.5 7t-5.5 23l17 290q1 30 32 30h266q20 0 20 -30v-12q0 -30 -20 -30h-217
l-13 -206h52q44 0 84 -10.5t77 -33t59 -65t22 -100.5z" />
    <glyph glyph-name="six" unicode="6" horiz-adv-x="535" 
d="M395 199q0 68 -38 101t-93 33q-66 0 -125 -34q-4 -40 -4 -60q0 -95 38.5 -133.5t95.5 -38.5q47 0 86.5 34.5t39.5 97.5zM480 203q0 -93 -61.5 -150.5t-154.5 -57.5q-105 0 -159 65.5t-54 186.5q0 82 27.5 157.5t68 128t86.5 92t83.5 58.5t59.5 19q14 0 23.5 -20t9.5 -33
q0 -8 -8 -11q-194 -80 -247 -266q57 33 135 33q81 0 136 -56t55 -146z" />
    <glyph glyph-name="seven" unicode="7" horiz-adv-x="535" 
d="M490 649q0 -5 -2 -11l-296 -624q-8 -16 -40 -16h-12q-43 0 -43 18q0 2 4 12l289 600h-315q-20 0 -20 30v12q0 30 20 30h395q6 0 13 -18t7 -33z" />
    <glyph glyph-name="eight" unicode="8" horiz-adv-x="535" 
d="M398 202q0 21 -4.5 38t-15.5 30.5t-20.5 22.5t-28.5 18t-30.5 13.5t-35.5 13t-34 12.5q-92 -54 -92 -148q0 -65 37 -100.5t93 -35.5t93.5 35.5t37.5 100.5zM377 533q0 51 -30 76t-78 25q-47 0 -76.5 -25t-29.5 -76q0 -29 9.5 -49.5t30.5 -35t38.5 -22t49.5 -18.5
q86 50 86 125zM484 202q0 -102 -60.5 -155t-156.5 -53q-95 0 -155.5 53t-60.5 155q0 73 29 113t82 65q-83 49 -83 153q0 82 53.5 127.5t136.5 45.5t137.5 -45.5t54.5 -127.5q0 -107 -97 -152q57 -26 88.5 -65t31.5 -114z" />
    <glyph glyph-name="nine" unicode="9" horiz-adv-x="535" 
d="M400 461q0 95 -38.5 133.5t-95.5 38.5q-47 0 -86.5 -34.5t-39.5 -97.5q0 -68 38 -101t93 -33q65 0 125 34q4 40 4 60zM484 453q0 -82 -27.5 -157.5t-68 -128t-86.5 -92t-83.5 -58.5t-59.5 -19q-14 0 -23.5 20t-9.5 33q0 8 8 11q194 80 247 266q-57 -33 -135 -33
q-81 0 -136 56t-55 146q0 93 61.5 150.5t154.5 57.5q105 0 159 -65.5t54 -186.5z" />
    <glyph glyph-name="colon" unicode=":" horiz-adv-x="198" 
d="M148 86v-66q0 -22 -40 -22h-17q-40 0 -40 22v66q0 22 40 22h17q40 0 40 -22zM148 503v-66q0 -22 -40 -22h-17q-40 0 -40 22v66q0 22 40 22h17q40 0 40 -22z" />
    <glyph glyph-name="semicolon" unicode=";" horiz-adv-x="198" 
d="M144 80q0 -81 -36.5 -138.5t-66.5 -57.5q-29 0 -29 15q0 6 9 24q34 68 34 153q0 32 40 32h9q40 0 40 -28zM148 503v-66q0 -22 -40 -22h-17q-40 0 -40 22v66q0 22 40 22h17q40 0 40 -22z" />
    <glyph glyph-name="less" unicode="&#x3c;" horiz-adv-x="560" 
d="M513 47v-14q0 -26 -21 -26q-8 0 -15 3l-411 174q-25 11 -25 35v17q0 24 25 35l411 174q7 3 15 3q21 0 21 -26v-14q0 -26 -24 -35l-356 -145l356 -146q24 -10 24 -35z" />
    <glyph glyph-name="equal" unicode="=" horiz-adv-x="560" 
d="M512 145v-8q0 -30 -30 -30h-404q-30 0 -30 30v8q0 30 30 30h404q30 0 30 -30zM512 308v-7q0 -30 -30 -30h-404q-30 0 -30 30v7q0 30 30 30h404q30 0 30 -30z" />
    <glyph glyph-name="greater" unicode="&#x3e;" horiz-adv-x="560" 
d="M518 235v-17q0 -24 -25 -35l-411 -174q-8 -3 -15 -3q-21 0 -21 26v14q0 24 24 35l356 146l-356 145q-24 9 -24 35v14q0 26 21 26q7 0 15 -3l411 -174q25 -11 25 -35z" />
    <glyph glyph-name="question" unicode="?" horiz-adv-x="445" 
d="M233 86v-66q0 -22 -40 -22h-17q-40 0 -40 22v66q0 22 40 22h17q40 0 40 -22zM425 538q0 -37 -19 -72.5t-46.5 -64l-56 -56t-50.5 -59.5t-26 -64q-3 -20 -33 -20h-15q-30 0 -30 23q0 73 86 159q34 34 49 50.5t30.5 43.5t15.5 50q0 104 -126 104q-37 0 -79.5 -17t-44.5 -17
q-7 0 -19.5 20t-12.5 31q0 24 56 40.5t116 16.5q96 0 150.5 -48.5t54.5 -119.5z" />
    <glyph glyph-name="at" unicode="@" horiz-adv-x="974" 
d="M587 409q-41 34 -92 34q-144 0 -144 -202q0 -126 88 -126q34 0 69 33t60 108q13 134 19 153zM867 380q0 -138 -59 -232t-151 -94q-45 0 -72 24t-27 59v7q-49 -90 -135 -90q-24 0 -47 8.5t-46.5 27t-37.5 56.5t-14 90q0 119 58 194t153 75q64 0 111 -47q2 6 5.5 15.5t5 13
t4.5 8t8 6t12 1.5h6q22 0 22 -21q-33 -308 -33 -332q0 -42 40 -42q56 0 99.5 82.5t43.5 190.5q0 127 -77 204t-202 77q-167 0 -281.5 -123t-114.5 -301q0 -142 75 -230.5t197 -88.5q58 0 104.5 14.5t49.5 14.5q14 0 14 -23q0 -26 -56.5 -38t-111.5 -12q-145 0 -235.5 100.5
t-90.5 262.5q0 197 130 332.5t320 135.5q151 0 242 -89t91 -236z" />
    <glyph glyph-name="A" unicode="A" horiz-adv-x="613" 
d="M185 254h239l-105 298l-13 58l-16 -58zM601 15q0 -17 -43 -17h-8q-35 0 -40 16l-59 164h-294l-57 -164q-5 -16 -40 -16h-5q-43 0 -43 17q0 5 3 14l237 657q5 16 40 16h29q35 0 40 -16l237 -658q3 -7 3 -13z" />
    <glyph glyph-name="B" unicode="B" horiz-adv-x="593" 
d="M469 205q0 56 -39.5 86.5t-115.5 30.5h-129v-246h146q66 0 102 34.5t36 94.5zM439 515q0 56 -34 82.5t-108 26.5h-112v-226h116q60 0 99 34t39 83zM560 201q0 -201 -261 -201h-172q-30 0 -30 30v640q0 30 30 30h179q109 0 166.5 -48t57.5 -129q0 -50 -33 -95t-77 -57v-4
q6 -1 15.5 -4.5t33.5 -16.5t42.5 -29.5t33.5 -47.5t15 -68z" />
    <glyph glyph-name="C" unicode="C" horiz-adv-x="619" 
d="M586 66q0 -23 -62.5 -47.5t-144.5 -24.5q-165 0 -243.5 86.5t-78.5 269.5q0 356 324 356q72 0 131.5 -20.5t59.5 -41.5q0 -14 -12.5 -36t-21.5 -22q-2 0 -21.5 11t-55.5 22t-78 11q-121 0 -178 -67t-57 -214q0 -144 56.5 -211.5t174.5 -67.5q45 0 85 12.5t62 25t25 12.5
q9 0 22 -22t13 -32z" />
    <glyph glyph-name="D" unicode="D" horiz-adv-x="695" 
d="M547 350q0 141 -62 207.5t-163 66.5h-137v-548h137q101 0 163 66t62 208zM638 350q0 -184 -84.5 -267t-224.5 -83h-202q-30 0 -30 30v640q0 30 30 30h202q140 0 224.5 -83.5t84.5 -266.5z" />
    <glyph glyph-name="E" unicode="E" horiz-adv-x="546" 
d="M497 46v-16q0 -30 -20 -30h-350q-30 0 -30 30v640q0 30 30 30h349q20 0 20 -30v-16q0 -30 -20 -30h-291v-228h261q20 0 20 -30v-16q0 -30 -20 -30h-261v-244h292q20 0 20 -30z" />
    <glyph glyph-name="F" unicode="F" horiz-adv-x="503" 
d="M462 670v-16q0 -30 -20 -30h-257v-228h239q20 0 20 -30v-16q0 -30 -20 -30h-239v-300q0 -22 -40 -22h-8q-40 0 -40 22v650q0 30 30 30h315q20 0 20 -30z" />
    <glyph glyph-name="G" unicode="G" horiz-adv-x="672" 
d="M589 331v-265q0 -72 -223 -72q-309 0 -309 350q0 362 324 362q72 0 131.5 -20.5t59.5 -41.5q0 -14 -12.5 -36t-21.5 -22q-2 0 -21.5 11t-55.5 22t-78 11q-127 0 -181 -70t-54 -207q0 -283 224 -283q79 0 129 13v202h-117q-20 0 -20 30v16q0 30 20 30h175q30 0 30 -30z
" />
    <glyph glyph-name="H" unicode="H" horiz-adv-x="733" 
d="M635 680v-660q0 -22 -40 -22h-8q-40 0 -40 22v301h-362v-301q0 -22 -40 -22h-8q-40 0 -40 22v660q0 22 40 22h8q40 0 40 -22v-283h362v283q0 22 40 22h8q40 0 40 -22z" />
    <glyph glyph-name="I" unicode="I" horiz-adv-x="282" 
d="M185 680v-660q0 -22 -40 -22h-8q-40 0 -40 22v660q0 22 40 22h8q40 0 40 -22z" />
    <glyph glyph-name="J" unicode="J" horiz-adv-x="402" 
d="M319 680v-475q0 -211 -212 -211q-101 0 -101 32q0 10 6 32.5t16 22.5q1 0 22.5 -4.5t40.5 -4.5q74 0 107 29t33 94v485q0 22 40 22h8q40 0 40 -22z" />
    <glyph glyph-name="K" unicode="K" horiz-adv-x="576" 
d="M586 12q0 -14 -44 -14h-12q-43 0 -55 13l-286 322h-4v-313q0 -22 -40 -22h-8q-40 0 -40 22v660q0 22 40 22h8q40 0 40 -22v-306h4l246 314q11 14 54 14h10q35 0 35 -13q0 -9 -10 -20l-250 -312l303 -329q9 -10 9 -16z" />
    <glyph glyph-name="L" unicode="L" horiz-adv-x="484" 
d="M480 46v-16q0 -30 -20 -30h-333q-30 0 -30 30v650q0 22 40 22h8q40 0 40 -22v-604h275q20 0 20 -30z" />
    <glyph glyph-name="M" unicode="M" horiz-adv-x="843" 
d="M753 680v-660q0 -22 -40 -22h-7q-40 0 -40 22v541l-201 -544q-5 -13 -22 -13h-40q-17 0 -22 13l-204 550v-547q0 -22 -40 -22h-7q-40 0 -40 22v660q0 22 40 22h47q36 0 42 -18l189 -502l15 -55l15 55l189 502q6 18 42 18h44q40 0 40 -22z" />
    <glyph glyph-name="N" unicode="N" horiz-adv-x="719" 
d="M629 680v-660q0 -22 -40 -22h-20q-26 0 -35 14l-330 498l-27 51v-541q0 -22 -40 -22h-7q-40 0 -40 22v660q0 22 40 22h21q30 0 42 -19l319 -482l30 -56v535q0 22 40 22h7q40 0 40 -22z" />
    <glyph glyph-name="O" unicode="O" horiz-adv-x="731" 
d="M583 352q0 137 -56 207.5t-162 70.5t-161.5 -70.5t-55.5 -207.5q0 -138 55.5 -210t161.5 -72t162 72t56 210zM674 352q0 -175 -79 -266.5t-230 -91.5q-150 0 -229 91.5t-79 266.5t78.5 264.5t229.5 89.5t230 -89.5t79 -264.5z" />
    <glyph glyph-name="P" unicode="P" horiz-adv-x="570" 
d="M450 504q0 67 -40 93.5t-95 26.5h-142v-250h156q18 0 36.5 5.5t38.5 18.5t33 40.5t13 65.5zM541 504q0 -52 -17.5 -91.5t-42 -60.5t-56.5 -34t-54.5 -16.5t-42.5 -3.5h-155v-278q0 -22 -40 -22h-8q-40 0 -40 22v650q0 30 30 30h203q38 0 72 -7.5t70.5 -26.5t58.5 -60.5
t22 -101.5z" />
    <glyph glyph-name="Q" unicode="Q" horiz-adv-x="731" 
d="M583 347q0 136 -57 209.5t-161 73.5t-160.5 -73t-56.5 -210q0 -136 56.5 -208t160.5 -72q105 0 161.5 72.5t56.5 207.5zM684 -76q0 -14 -13.5 -43t-28.5 -29q-8 0 -178 67l-218 87q-189 75 -189 341q0 176 79 267.5t229 91.5q151 0 230 -92t79 -267q0 -142 -51.5 -229
t-149.5 -113v-4l197 -62q14 -5 14 -15z" />
    <glyph glyph-name="R" unicode="R" horiz-adv-x="610" 
d="M445 507q0 59 -36 88t-99 29h-125v-240h132q53 0 90.5 36.5t37.5 86.5zM592 14q0 -16 -42 -16h-10q-34 0 -40 16l-76 196q-22 57 -55 77.5t-94 20.5h-90v-288q0 -22 -40 -22h-8q-40 0 -40 22v650q0 30 30 30h168q120 0 180.5 -42.5t60.5 -134.5q0 -123 -115 -169v-4
q29 -10 48.5 -39t41.5 -86l78 -197q3 -9 3 -14z" />
    <glyph glyph-name="S" unicode="S" horiz-adv-x="500" 
d="M466 191q0 -92 -60 -144.5t-162 -52.5q-82 0 -144.5 25t-62.5 48q0 12 13.5 33t21.5 21q3 0 25 -12.5t62 -25.5t85 -13q58 0 94.5 33t36.5 88q0 47 -33.5 77t-81.5 47.5t-95.5 37.5t-81 62t-33.5 107q0 83 61 133.5t161 50.5q49 0 105 -18t56 -43q0 -11 -12.5 -32
t-19.5 -21q-4 0 -21 9.5t-46 19t-64 9.5q-59 0 -94 -28.5t-35 -83.5q0 -29 18 -50.5t46.5 -35t63.5 -26t69.5 -29t63 -38.5t46.5 -60t18 -88z" />
    <glyph glyph-name="T" unicode="T" horiz-adv-x="549" 
d="M529 670v-16q0 -30 -20 -30h-189v-604q0 -22 -40 -22h-8q-40 0 -40 22v604h-192q-20 0 -20 30v16q0 30 20 30h469q20 0 20 -30z" />
    <glyph glyph-name="U" unicode="U" horiz-adv-x="712" 
d="M629 680v-456q0 -109 -71 -169.5t-202 -60.5q-132 0 -202.5 60.5t-70.5 169.5v456q0 22 40 22h8q40 0 40 -22v-459q0 -66 52.5 -108.5t132.5 -42.5t132.5 42.5t52.5 108.5v459q0 22 40 22h8q40 0 40 -22z" />
    <glyph glyph-name="V" unicode="V" horiz-adv-x="617" 
d="M596 685q0 -5 -3 -14l-229 -657q-5 -16 -40 -16h-31q-35 0 -40 16l-229 658q-3 8 -3 13q0 17 43 17h9q35 0 40 -16l185 -534l11 -52l13 53l185 533q5 16 40 16h6q43 0 43 -17z" />
    <glyph glyph-name="W" unicode="W" horiz-adv-x="882" 
d="M867 685q0 -2 -3 -14l-173 -657q-4 -16 -40 -16h-41q-36 0 -40 16l-109 407l-21 130l-21 -130l-109 -407q-4 -16 -40 -16h-41q-36 0 -40 16l-171 657q-3 12 -3 14q0 17 43 17h10q36 0 40 -16l127 -492q3 -12 7.5 -34.5t7.5 -40t3 -18.5l145 584q4 17 39 17h16
q35 0 39 -17l124 -492l17 -92l145 585q4 16 40 16h6q43 0 43 -17z" />
    <glyph glyph-name="X" unicode="X" horiz-adv-x="611" 
d="M592 15q0 -17 -46 -17h-16q-33 0 -43 15l-184 275l-186 -276q-9 -14 -43 -14h-8q-46 0 -46 17q0 7 8 18l224 332l-200 302q-8 11 -8 18q0 17 46 17h14q33 0 43 -15l160 -241l165 242q9 14 43 14h6q46 0 46 -17q0 -7 -8 -18l-200 -297l225 -337q8 -11 8 -18z" />
    <glyph glyph-name="Y" unicode="Y" horiz-adv-x="559" 
d="M541 685q0 -7 -8 -18l-210 -311v-336q0 -22 -40 -22h-8q-40 0 -40 22v339l-209 308q-8 11 -8 18q0 17 46 17h11q33 0 43 -15l164 -246l168 247q9 14 45 14q46 0 46 -17z" />
    <glyph glyph-name="Z" unicode="Z" horiz-adv-x="616" 
d="M571 647q0 -7 -3 -12l-410 -559h391q20 0 20 -34v-8q0 -34 -20 -34h-487q-7 0 -15.5 19t-8.5 34q0 7 3 12l410 559h-360q-20 0 -20 34v8q0 34 20 34h458q6 0 14 -19t8 -34z" />
    <glyph glyph-name="bracketleft" unicode="[" horiz-adv-x="291" 
d="M261 -105v-4q0 -29 -20 -29h-121q-30 0 -30 30v846q0 30 30 30h121q20 0 20 -29v-5q0 -29 -20 -29h-77v-781h77q20 0 20 -29z" />
    <glyph glyph-name="backslash" unicode="\" horiz-adv-x="361" 
d="M357 0q0 -20 -26 -20h-4q-23 0 -33 23l-286 664q-3 7 -3 15q0 20 24 20h4q25 0 35 -23l286 -664q3 -7 3 -15z" />
    <glyph glyph-name="bracketright" unicode="]" horiz-adv-x="291" 
d="M201 738v-846q0 -30 -30 -30h-121q-20 0 -20 29v4q0 29 20 29h77v781h-77q-20 0 -20 29v5q0 29 20 29h121q30 0 30 -30z" />
    <glyph glyph-name="asciicircum" unicode="^" horiz-adv-x="450" 
d="M397 341q0 -21 -27 -21h-4q-26 0 -35 23l-106 261l-107 -261q-10 -23 -34 -23h-4q-27 0 -27 21q0 7 3 14l125 309q7 20 34 20h20q25 0 34 -20l125 -309q3 -7 3 -14z" />
    <glyph glyph-name="underscore" unicode="_" horiz-adv-x="534" 
d="M555 -110v-8q0 -20 -20 -20h-536q-20 0 -20 20v8q0 20 20 20h536q20 0 20 -20z" />
    <glyph glyph-name="grave" unicode="`" 
d="M242 615q0 -10 -23 -10q-35 0 -51 18q-88 101 -92 108q-2 4 -2 8q0 13 48 13q47 0 62 -26q58 -101 58 -111z" />
    <glyph glyph-name="a" unicode="a" horiz-adv-x="545" 
d="M389 136v274q-54 45 -121 45h-6q-64 0 -97.5 -48t-33.5 -138q0 -97 32 -149.5t91 -52.5q72 0 135 69zM485 22q0 -12 -19 -17.5t-35 -5.5q-5 0 -9 2t-7.5 7t-5.5 9.5t-4 12.5t-3.5 12.5t-3 14t-2.5 12.5q-72 -75 -159 -75q-89 0 -141.5 74t-52.5 190v9q0 123 56 192.5
t147 69.5q77 0 143 -51v29q0 22 40 22h4q40 0 40 -22v-359q0 -23 1 -44t3 -34.5t4 -24t3 -16.5t1 -7z" />
    <glyph glyph-name="b" unicode="b" horiz-adv-x="569" 
d="M427 269q0 90 -33.5 138t-97.5 48h-6q-67 0 -121 -45v-274q63 -69 135 -69q59 0 91 52.5t32 149.5zM515 267v-9q0 -116 -52.5 -190t-141.5 -74q-87 0 -159 75l-16 -59q-5 -12 -27 -12h-4q-30 0 -30 22v710q0 22 40 22h4q40 0 40 -22v-252q66 51 143 51q91 0 147 -69.5
t56 -192.5z" />
    <glyph glyph-name="c" unicode="c" horiz-adv-x="485" 
d="M455 45q0 -18 -47 -34.5t-110 -16.5q-124 0 -185 64t-61 206q0 75 20.5 129t55.5 82.5t74.5 41t86.5 12.5q58 0 104 -14t46 -32q0 -13 -11.5 -33.5t-20.5 -20.5q-1 0 -4.5 1.5t-6.5 2.5q-54 24 -109 24q-145 0 -145 -191q0 -106 35.5 -153t119.5 -47q61 0 113 26q3 1 7 3
q3 1 4 1q10 0 22 -19.5t12 -31.5z" />
    <glyph glyph-name="d" unicode="d" horiz-adv-x="565" 
d="M398 136v274q-54 45 -121 45h-6q-64 0 -97.5 -48t-33.5 -138q0 -97 32 -149.5t91 -52.5q72 0 135 69zM494 22q0 -12 -19 -17.5t-35 -5.5q-5 0 -9 2t-7.5 7t-5.5 9.5t-4 12.5t-3.5 12.5t-3 14t-2.5 12.5q-72 -75 -159 -75q-89 0 -141.5 74t-52.5 190v9q0 123 56 192.5
t147 69.5q77 0 143 -51v252q0 22 40 22h4q40 0 40 -22v-582q0 -23 1 -44t3 -34.5t4 -24t3 -16.5t1 -7z" />
    <glyph glyph-name="e" unicode="e" horiz-adv-x="539" 
d="M145 299h260q0 158 -120 158q-129 0 -140 -158zM494 268q0 -9 -12 -25t-21 -16h-316q6 -83 43 -122t111 -39q38 0 72 10.5t53 21t21 10.5q10 0 22.5 -20t12.5 -30q0 -20 -54.5 -42t-125.5 -22q-125 0 -185 65t-60 199q0 133 59 202t174 69q102 0 154 -66.5t52 -194.5z
" />
    <glyph glyph-name="f" unicode="f" horiz-adv-x="325" 
d="M310 726q0 -10 -6 -28.5t-15 -18.5q-2 0 -14 2.5t-29 2.5q-26 0 -40 -14.5t-14 -59.5v-87h87q20 0 20 -30v-12q0 -30 -20 -30h-87v-431q0 -22 -40 -22h-4q-40 0 -40 22v431h-40q-20 0 -20 30v12q0 30 20 30h40v95q0 42 12.5 71.5t33.5 42.5t41 18.5t42 5.5q73 0 73 -30z
" />
    <glyph glyph-name="g" unicode="g" horiz-adv-x="546" 
d="M404 119v278q-54 59 -135 59q-59 0 -91 -52.5t-32 -149.5q0 -85 33.5 -132.5t97.5 -47.5h6q67 0 121 45zM488 -21q0 -77 -60 -134t-166 -57q-62 0 -113 18.5t-51 36.5q0 12 12 31.5t22 19.5q3 0 11 -4q1 0 12.5 -6t19.5 -9t22.5 -7.5t32 -6.5t37.5 -2q65 0 101 35.5
t36 87.5v69q-66 -51 -143 -51q-91 0 -147 68.5t-56 187.5v9q0 116 52.5 190t141.5 74q97 0 159 -65q3 16 7 28t6 16l3 5q5 12 27 12h4q30 0 30 -22v-524z" />
    <glyph glyph-name="h" unicode="h" horiz-adv-x="565" 
d="M488 367v-347q0 -22 -40 -22h-4q-40 0 -40 22v339q0 45 -26 71t-76 26q-33 0 -64.5 -17.5t-46.5 -34.5l-15 -18v-366q0 -22 -40 -22h-4q-40 0 -40 22v710q0 22 40 22h4q40 0 40 -22v-270q69 69 153 69q28 0 52.5 -6.5t50 -23t41 -50.5t15.5 -82z" />
    <glyph glyph-name="i" unicode="i" horiz-adv-x="265" 
d="M175 503v-483q0 -22 -40 -22h-4q-40 0 -40 22v483q0 22 40 22h4q40 0 40 -22zM179 730v-59q0 -22 -40 -22h-12q-40 0 -40 22v59q0 22 40 22h12q40 0 40 -22z" />
    <glyph glyph-name="j" unicode="j" horiz-adv-x="276" 
d="M185 503v-577q0 -77 -39.5 -107.5t-89.5 -30.5q-73 0 -73 30q0 10 6 28.5t15 18.5q2 0 14 -2.5t29 -2.5q54 0 54 74v569q0 22 40 22h4q40 0 40 -22zM189 730v-59q0 -22 -40 -22h-12q-40 0 -40 22v59q0 22 40 22h12q40 0 40 -22z" />
    <glyph glyph-name="k" unicode="k" horiz-adv-x="521" 
d="M484 12q0 -14 -44 -14h-4q-43 0 -54 13l-200 237h-4v-228q0 -22 -40 -22h-4q-40 0 -40 22v710q0 22 40 22h4q40 0 40 -22v-447h4l191 228q11 14 53 14h4q35 0 35 -13q0 -9 -10 -20l-186 -220l206 -244q9 -10 9 -16z" />
    <glyph glyph-name="l" unicode="l" horiz-adv-x="297" 
d="M284 24q0 -30 -73 -30q-50 0 -89.5 30.5t-39.5 107.5v598q0 22 40 22h4q40 0 40 -22v-590q0 -74 54 -74q17 0 29 2.5t14 2.5q9 0 15 -18.5t6 -28.5z" />
    <glyph glyph-name="m" unicode="m" horiz-adv-x="848" 
d="M773 367v-347q0 -22 -40 -22h-4q-40 0 -40 22v339q0 45 -24.5 71t-71.5 26q-62 0 -123 -69q1 -7 1 -21v-346q0 -22 -40 -22h-4q-40 0 -40 22v339q0 45 -24.5 71t-71.5 26q-32 0 -62.5 -17t-44.5 -35l-15 -17v-367q0 -22 -40 -22h-4q-40 0 -40 22v351q0 23 -1 44t-3 34.5
t-4 24t-3 16.5t-1 7q0 12 19 17.5t35 5.5q5 0 9 -2t7.5 -6.5t5.5 -9t4 -12t3.5 -12t3 -13t2.5 -11.5q65 75 152 75q109 0 143 -83q70 83 159 83q28 0 52.5 -6.5t49.5 -23t40 -50.5t15 -82z" />
    <glyph glyph-name="n" unicode="n" horiz-adv-x="557" 
d="M482 367v-347q0 -22 -40 -22h-4q-40 0 -40 22v339q0 46 -26.5 71.5t-75.5 25.5q-72 0 -126 -70v-366q0 -22 -40 -22h-4q-40 0 -40 22v351q0 23 -1 44t-3 34.5t-4 24t-3 16.5t-1 7q0 12 19 17.5t35 5.5q5 0 9 -2t7.5 -6.5t5.5 -9t4 -12t3.5 -12t3 -13t2.5 -11.5
q67 75 156 75q76 0 119.5 -43t43.5 -119z" />
    <glyph glyph-name="o" unicode="o" horiz-adv-x="569" 
d="M427 261q0 100 -35 148t-108 48t-107 -47.5t-34 -148.5q0 -100 34 -147.5t107 -47.5t108 47.5t35 147.5zM514 259q0 -130 -57.5 -197.5t-169.5 -67.5q-113 0 -172.5 68t-59.5 197q0 130 60 200t172 70q110 0 168.5 -69.5t58.5 -200.5z" />
    <glyph glyph-name="p" unicode="p" horiz-adv-x="573" 
d="M428 254q0 97 -32 149.5t-91 52.5q-72 0 -135 -69v-274q54 -45 121 -45h6q64 0 97.5 48t33.5 138zM516 265v-9q0 -123 -56 -192.5t-147 -69.5q-77 0 -143 51v-231q0 -22 -40 -22h-4q-40 0 -40 22v557q0 23 -1 44t-3 34.5t-4 24t-3 16.5t-1 7q0 12 19 17.5t35 5.5
q5 0 9 -2t7.5 -6.5t5.5 -9t4 -12t3.5 -12t3 -13t2.5 -11.5q72 75 159 75q89 0 141.5 -74t52.5 -190z" />
    <glyph glyph-name="q" unicode="q" horiz-adv-x="566" 
d="M398 113v274q-63 69 -135 69q-59 0 -91 -52.5t-32 -149.5q0 -90 33.5 -138t97.5 -48h6q67 0 121 45zM482 503v-689q0 -22 -40 -22h-4q-40 0 -40 22v231q-66 -51 -143 -51q-91 0 -147 69.5t-56 192.5v9q0 116 52.5 190t141.5 74q87 0 159 -75l16 59q5 12 27 12h4
q30 0 30 -22z" />
    <glyph glyph-name="r" unicode="r" horiz-adv-x="366" 
d="M341 490q0 -17 -6 -35.5t-14 -18.5q-4 0 -19.5 5.5t-35.5 5.5q-23 0 -46 -15.5t-34 -30.5l-12 -15v-366q0 -22 -40 -22h-4q-40 0 -40 22v351q0 23 -1 44t-3 34.5t-4 24t-3 16.5t-1 7q0 12 19 17.5t35 5.5q5 0 9 -2t7.5 -6.5t5.5 -9t4 -12t3.5 -12t3 -13t2.5 -11.5
q53 75 116 75q28 0 43 -11t15 -28z" />
    <glyph glyph-name="s" unicode="s" horiz-adv-x="413" 
d="M372 152q0 -68 -49.5 -113t-123.5 -45q-64 0 -114 20.5t-50 39.5q0 10 12.5 30t22.5 20q1 0 16 -9.5t43 -19t59 -9.5q48 0 73.5 22.5t25.5 63.5q0 36 -22.5 57.5t-78.5 37.5q-78 22 -108 51.5t-30 82.5q0 67 46 107.5t120 40.5q51 0 91 -13t40 -29q0 -13 -11.5 -33.5
t-20.5 -20.5q-1 0 -12.5 6t-33 12t-45.5 6q-41 0 -64.5 -17.5t-23.5 -47.5q0 -26 17.5 -42t59.5 -29q94 -29 127.5 -63.5t33.5 -105.5z" />
    <glyph glyph-name="t" unicode="t" horiz-adv-x="342" 
d="M309 24q0 -30 -73 -30q-50 0 -89.5 30.5t-39.5 107.5v319h-50q-20 0 -20 30v12q0 30 20 30h50l12 105q3 22 32 22h10q30 0 30 -22v-105h84q20 0 20 -30v-12q0 -30 -20 -30h-84v-311q0 -74 54 -74q17 0 29 2.5t14 2.5q9 0 15 -18.5t6 -28.5z" />
    <glyph glyph-name="u" unicode="u" horiz-adv-x="557" 
d="M483 22q0 -12 -19 -17.5t-35 -5.5q-5 0 -9 2t-7.5 7t-5.5 9.5t-4 12.5t-3.5 12.5t-3 14t-2.5 12.5q-67 -75 -156 -75q-76 0 -119.5 43t-43.5 119v347q0 22 40 22h4q40 0 40 -22v-339q0 -46 26.5 -71.5t75.5 -25.5q72 0 126 70v366q0 22 40 22h4q40 0 40 -22v-355
q0 -23 1 -44t3 -34.5t4 -24t3 -16.5t1 -7z" />
    <glyph glyph-name="v" unicode="v" horiz-adv-x="485" 
d="M464 508q0 -5 -3 -14l-161 -480q-5 -16 -40 -16h-35q-35 0 -40 16l-161 481q-3 9 -3 13q0 17 43 17h8q35 0 40 -16l134 -405l134 405q5 16 41 16q43 0 43 -17z" />
    <glyph glyph-name="w" unicode="w" horiz-adv-x="747" 
d="M715 508q0 -5 -3 -14l-134 -480q-4 -16 -40 -16h-33q-35 0 -39 16l-92 364l-94 -364q-4 -16 -40 -16h-33q-36 0 -40 16l-134 481q-3 9 -3 13q0 17 43 17h9q36 0 40 -16l105 -399l104 398q4 17 39 17h11q35 0 39 -17l105 -398l104 399q4 16 42 16q44 0 44 -17z" />
    <glyph glyph-name="x" unicode="x" horiz-adv-x="485" 
d="M465 15q0 -17 -46 -17h-11q-33 0 -43 15l-125 183l-127 -184q-10 -14 -43 -14h-4q-46 0 -46 17q0 7 8 18l162 235l-150 222q-8 11 -8 18q0 17 46 17h11q33 0 43 -15l114 -166l115 167q9 14 43 14h4q46 0 46 -17q0 -7 -8 -18l-151 -220l162 -237q8 -11 8 -18z" />
    <glyph glyph-name="y" unicode="y" horiz-adv-x="481" 
d="M447 -21q0 -77 -60 -134t-166 -57q-62 0 -113 18.5t-51 36.5q0 12 12 31.5t22 19.5q3 0 11 -4q1 0 12.5 -6t19.5 -9t22.5 -7.5t32 -6.5t37.5 -2q66 0 102.5 36t36.5 87v86q-66 -74 -151 -74q-76 0 -119.5 43t-43.5 119v347q0 22 40 22h4q40 0 40 -22v-339
q0 -46 26.5 -71.5t75.5 -25.5q72 0 126 70v366q0 22 40 22h4q40 0 40 -22v-355v-169z" />
    <glyph glyph-name="z" unicode="z" horiz-adv-x="489" 
d="M449 42v-12q0 -30 -20 -30h-370q-6 0 -14 18t-8 33q0 7 3 11l293 389h-256q-20 0 -20 30v12q0 30 20 30h351q7 0 13.5 -18.5t6.5 -33.5q0 -6 -2 -10l-292 -389h275q20 0 20 -30z" />
    <glyph glyph-name="braceleft" unicode="{" horiz-adv-x="274" 
d="M244 -105v-4q0 -29 -20 -29h-50q-28 0 -53 26t-25 90v167q0 55 -10 85t-41 44q-25 11 -25 34v14q0 23 25 34q31 14 41 43.5t10 85.5v167q0 63 25 89.5t53 26.5h50q20 0 20 -29v-4q0 -29 -20 -29h-22q-20 0 -27 -14.5t-7 -46.5v-176q0 -100 -78 -155q12 -6 27.5 -20
t33 -50.5t17.5 -82.5v-175q0 -32 7 -47t27 -15h22q20 0 20 -29z" />
    <glyph glyph-name="bar" unicode="|" horiz-adv-x="250" 
d="M154 748v-866q0 -22 -24 -22h-10q-24 0 -24 22v866q0 22 24 22h10q24 0 24 -22z" />
    <glyph glyph-name="braceright" unicode="}" horiz-adv-x="274" 
d="M254 322v-14q0 -23 -25 -34q-31 -14 -41 -44t-10 -85v-167q0 -64 -25 -90t-53 -26h-50q-20 0 -20 29v4q0 29 20 29h22q20 0 27 15t7 47v175q0 46 17.5 82.5t33 50.5t27.5 20q-78 55 -78 155v176q0 32 -7 46.5t-27 14.5h-22q-20 0 -20 29v4q0 29 20 29h50q28 0 53 -26.5
t25 -89.5v-167q0 -56 10 -85.5t41 -43.5q25 -11 25 -34z" />
    <glyph glyph-name="asciitilde" unicode="~" horiz-adv-x="547" 
d="M468 268q0 -18 -40 -35.5t-87 -17.5q-41 0 -94.5 13t-76.5 13q-15 0 -36 -5.5t-26 -5.5q-15 0 -24 16q-5 10 -5 17q0 17 40 34.5t87 17.5q40 0 94 -13t77 -13q15 0 36 5.5t26 5.5q11 0 20 -9t9 -23z" />
    <glyph glyph-name="nbspace" unicode="&#xa0;" horiz-adv-x="480" 
 />
    <glyph glyph-name="exclamdown" unicode="&#xa1;" horiz-adv-x="294" 
d="M181 299v-456q0 -22 -40 -22h-20q-41 0 -39 22l27 456q2 22 31 22h11q30 0 30 -22zM193 503v-66q0 -22 -40 -22h-17q-40 0 -40 22v66q0 22 40 22h17q40 0 40 -22z" />
    <glyph glyph-name="cent" unicode="&#xa2;" horiz-adv-x="486" 
d="M269 67v389q-125 -12 -125 -190q0 -98 29 -145t96 -54zM450 45q0 -17 -42 -33t-99 -18v-53q0 -16 -20 -16t-20 16v54q-108 6 -161 70.5t-53 198.5q0 71 18 123.5t49 81t67.5 43t79.5 16.5v39q0 16 20 16t20 -16v-39q50 -2 87.5 -15.5t37.5 -29.5q0 -13 -11.5 -33.5
t-20.5 -20.5q-1 0 -13 5.5t-34 12.5t-46 9v-390q27 2 52 9.5t39 14t16 6.5q10 0 22 -19.5t12 -31.5z" />
    <glyph glyph-name="sterling" unicode="&#xa3;" horiz-adv-x="491" 
d="M446 42v-12q0 -30 -20 -30h-373q-20 0 -20 30v16q0 14 13.5 24t29.5 16.5t29.5 25t13.5 47.5v180h-55q-20 0 -20 30v12q0 30 20 30h55v87q0 208 205 208q101 0 101 -32q0 -9 -6 -29t-16 -20q-1 0 -22.5 4.5t-40.5 4.5q-72 0 -104.5 -31.5t-32.5 -99.5v-92h147
q20 0 20 -30v-12q0 -30 -20 -30h-147v-90q0 -49 -5.5 -83.5t-15.5 -53t-17.5 -26t-18.5 -14.5h280q20 0 20 -30z" />
    <glyph glyph-name="currency" unicode="&#xa4;" horiz-adv-x="534" 
d="M380 322q0 48 -34.5 82.5t-82.5 34.5t-82 -34.5t-34 -82.5t34 -82t82 -34t82.5 34t34.5 82zM441 172q0 -9 -9.5 -19t-19.5 -10t-21 11l-24 24q-47 -33 -104 -33q-58 0 -104 33l-25 -25q-10 -10 -21 -10q-10 0 -19 9t-9 19q0 11 11 22l24 24q-34 45 -34 105q0 59 34 105
l-24 23q-10 10 -10 22q0 9 8 19t18 10t22 -12l24 -24q48 35 105 35t104 -34l24 24q10 10 20 10q9 0 19.5 -9.5t10.5 -18.5q0 -11 -11 -22l-24 -24q35 -46 35 -104q0 -59 -35 -105l24 -24q11 -11 11 -21z" />
    <glyph glyph-name="yen" unicode="&#xa5;" horiz-adv-x="559" 
d="M541 685q0 -7 -8 -18l-165 -244h124q20 0 20 -30v-8q0 -30 -20 -30h-169v-96h169q20 0 20 -30v-8q0 -30 -20 -30h-169v-171q0 -22 -40 -22h-8q-40 0 -40 22v171h-167q-20 0 -20 30v8q0 30 20 30h167v96h-167q-20 0 -20 30v8q0 30 20 30h123l-165 244q-8 11 -8 18
q0 17 46 17h11q33 0 43 -15l164 -246l168 247q9 14 45 14q46 0 46 -17z" />
    <glyph glyph-name="brokenbar" unicode="&#xa6;" horiz-adv-x="250" 
d="M154 204v-322q0 -22 -24 -22h-10q-24 0 -24 22v322q0 22 24 22h10q24 0 24 -22zM154 748v-323q0 -22 -24 -22h-10q-24 0 -24 22v323q0 22 24 22h10q24 0 24 -22z" />
    <glyph glyph-name="section" unicode="&#xa7;" horiz-adv-x="429" 
d="M294 343q0 28 -16.5 47t-34.5 27t-52 18q-56 -16 -56 -76q0 -22 7.5 -37.5t24.5 -26t31 -16t40 -13.5q56 13 56 77zM379 343q0 -73 -55 -116q40 -33 40 -89q0 -72 -46.5 -108t-112.5 -36q-51 0 -91 13t-40 29q0 13 11.5 33.5t20.5 20.5q1 0 12.5 -6t32.5 -12t45 -6
q41 0 62 17t21 43q0 24 -17 39.5t-42.5 22.5t-55 19t-55 26.5t-42.5 46.5t-17 79q0 69 53 115q-38 35 -38 90q0 71 47 106.5t113 35.5q51 0 91 -13t40 -29q0 -13 -11.5 -33.5t-20.5 -20.5q-1 0 -12.5 6t-33 12t-45.5 6q-41 0 -61.5 -16.5t-20.5 -43.5q0 -28 23.5 -44t57 -26
t67 -23.5t57 -48t23.5 -89.5z" />
    <glyph glyph-name="dieresis" unicode="&#xa8;" 
d="M131 680v-51q0 -22 -40 -22h-4q-40 0 -40 22v51q0 22 40 22h4q40 0 40 -22zM275 680v-51q0 -22 -40 -22h-4q-40 0 -40 22v51q0 22 40 22h4q40 0 40 -22z" />
    <glyph glyph-name="copyright" unicode="&#xa9;" horiz-adv-x="739" 
d="M509 180q0 -13 -37.5 -28t-86.5 -15q-98 0 -145 52t-47 160q0 213 194 213q43 0 78.5 -12t35.5 -25q0 -8 -7.5 -21.5t-13.5 -13.5q-1 0 -12.5 7t-33 13.5t-46.5 6.5q-72 0 -106.5 -40.5t-34.5 -127.5q0 -86 34 -126.5t104 -40.5q27 0 51 7.5t37 15t15 7.5q6 0 13.5 -13
t7.5 -19zM681 354q0 129 -91.5 218.5t-220.5 89.5t-220 -89.5t-91 -218.5q0 -128 91.5 -219.5t219.5 -91.5q129 0 220.5 91.5t91.5 219.5zM729 354q0 -149 -105.5 -254t-254.5 -105t-254 105t-105 254t104.5 252.5t254.5 103.5t255 -103.5t105 -252.5z" />
    <glyph glyph-name="ordfeminine" unicode="&#xaa;" horiz-adv-x="319" 
d="M210 511v59q-27 0 -42 -1t-36.5 -5.5t-31.5 -16t-10 -29.5q0 -40 41 -40q42 0 79 33zM257 455q0 -11 -27 -11q-12 0 -17 35q-34 -38 -84 -38q-37 0 -60.5 19t-23.5 55q0 24 10.5 41.5t25 26.5t39 14t43 6.5t47.5 1.5v24q0 41 -55 41q-20 0 -38 -5t-28 -10t-11 -5
q-5 0 -11.5 9.5t-6.5 14.5q0 10 29 21t64 11q46 0 72 -20.5t26 -57.5v-111q0 -18 1.5 -32.5t3.5 -22.5z" />
    <glyph glyph-name="guillemotleft" unicode="&#xab;" horiz-adv-x="471" 
d="M244 94q0 -10 -12 -21.5t-23 -11.5t-22 13l-130 156q-13 16 -13 28t13 28l130 156q11 12 22 12q10 0 22.5 -10t12.5 -22q0 -9 -8 -20l-111 -144l111 -145q8 -11 8 -19zM416 94q0 -10 -12 -21.5t-23 -11.5t-22 13l-130 156q-13 16 -13 28t13 28l130 156q11 12 22 12
q10 0 22.5 -10t12.5 -22q0 -9 -8 -20l-111 -144l111 -145q8 -11 8 -19z" />
    <glyph glyph-name="logicalnot" unicode="&#xac;" horiz-adv-x="560" 
d="M522 308v-209q0 -22 -30 -22h-13q-30 0 -30 22v166h-391q-20 0 -20 30v13q0 30 20 30h434q30 0 30 -30z" />
    <glyph glyph-name="uni00AD" unicode="&#xad;" 
d="M273 270v-10q0 -30 -20 -30h-189q-20 0 -20 30v10q0 30 20 30h189q20 0 20 -30z" />
    <glyph glyph-name="registered" unicode="&#xae;" horiz-adv-x="739" 
d="M454 445q0 69 -79 69h-74v-141h78q31 0 53 21.5t22 50.5zM541 154q0 -9 -25 -9h-6q-19 0 -23 9l-45 116q-13 34 -32.5 46t-55.5 12h-53v-170q0 -13 -24 -13h-4q-24 0 -24 13v383q0 18 18 18h99q142 0 142 -104q0 -73 -68 -100v-2q17 -6 28 -23t25 -51l46 -116q2 -8 2 -9z
M681 354q0 129 -91.5 218.5t-220.5 89.5t-220 -89.5t-91 -218.5q0 -128 91.5 -219.5t219.5 -91.5q129 0 220.5 91.5t91.5 219.5zM729 354q0 -149 -105.5 -254t-254.5 -105t-254 105t-105 254t104.5 252.5t254.5 103.5t255 -103.5t105 -252.5z" />
    <glyph glyph-name="macron" unicode="&#xaf;" 
d="M290 652v-10q0 -30 -20 -30h-223q-20 0 -20 30v10q0 30 20 30h223q20 0 20 -30z" />
    <glyph glyph-name="degree" unicode="&#xb0;" horiz-adv-x="345" 
d="M254 573q0 36 -25 62t-59 26t-58.5 -26t-24.5 -62t24.5 -61.5t58.5 -25.5q35 0 59.5 25.5t24.5 61.5zM303 573q0 -55 -39 -93.5t-94 -38.5t-93.5 38.5t-38.5 93.5t38.5 94t93.5 39t94 -39t39 -94z" />
    <glyph glyph-name="plusminus" unicode="&#xb1;" horiz-adv-x="560" 
d="M522 43v-13q0 -30 -30 -30h-424q-30 0 -30 30v13q0 30 30 30h424q30 0 30 -30zM512 364v-7q0 -30 -30 -30h-168v-168q0 -30 -30 -30h-7q-30 0 -30 30v168h-169q-30 0 -30 30v7q0 30 30 30h169v169q0 30 30 30h7q30 0 30 -30v-169h168q30 0 30 -30z" />
    <glyph glyph-name="twosuperior" unicode="&#xb2;" 
d="M278 322v-7q0 -17 -11 -17h-220q-12 0 -12 25q0 6 2 10q156 195 172 219q16 26 16 52q0 27 -19 43t-53 16q-23 0 -42 -7.5t-30 -14.5t-14 -7q-4 0 -11.5 11t-7.5 18q0 17 36.5 29.5t67.5 12.5q57 0 90 -26t33 -72q0 -40 -21 -74t-111 -143l-42 -51h166q11 0 11 -17z" />
    <glyph glyph-name="threesuperior" unicode="&#xb3;" 
d="M289 414q0 -61 -39.5 -91t-90.5 -30q-47 0 -81.5 11t-34.5 22q0 8 7.5 18.5t12.5 10.5q1 0 31 -10t60 -10q33 0 58.5 18.5t25.5 60.5q0 43 -22.5 60t-64.5 17h-18q-12 0 -12 18v6q0 18 12 18h16q40 0 58.5 24t18.5 51q0 21 -15.5 38.5t-53.5 17.5q-23 0 -41.5 -5
t-28.5 -9.5t-13 -4.5q-5 0 -12 11.5t-7 18.5q0 12 36 21.5t67 9.5q54 0 86 -26.5t32 -76.5q0 -54 -60 -79v-4q29 -8 51 -35.5t22 -70.5z" />
    <glyph glyph-name="acute" unicode="&#xb4;" 
d="M242 739q0 -7 -9.5 -19t-46.5 -54l-38 -43q-17 -18 -51 -18q-23 0 -23 10t58 111q15 26 62 26q48 0 48 -13z" />
    <glyph glyph-name="mu" unicode="&#xb5;" horiz-adv-x="566" 
d="M493 22q0 -12 -19 -17.5t-35 -5.5q-5 0 -9 2t-7.5 7t-5.5 9.5t-4 12.5t-3.5 12.5t-3 14t-2.5 12.5q-67 -75 -156 -75q-42 0 -79 15v-195q0 -22 -40 -22h-4q-40 0 -40 22v689q0 22 40 22h4q40 0 40 -22v-339q0 -46 26.5 -71.5t75.5 -25.5q72 0 126 70v366q0 22 40 22h4
q40 0 40 -22v-355q0 -23 1 -44t3 -34.5t4 -24t3 -16.5t1 -7z" />
    <glyph glyph-name="paragraph" unicode="&#xb6;" horiz-adv-x="515" 
d="M501 676v-14q0 -24 -20 -24h-36v-789q0 -22 -24 -22h-14q-24 0 -24 22v789h-78v-789q0 -22 -24 -22h-14q-24 0 -24 22v398q-85 10 -143.5 74.5t-58.5 151.5q0 94 66.5 160.5t160.5 66.5h213q20 0 20 -24z" />
    <glyph glyph-name="periodcentered" unicode="&#xb7;" horiz-adv-x="267" 
d="M193 360q0 -22 -15 -36.5t-37 -14.5t-36.5 14.5t-14.5 36.5t14.5 37t36.5 15t37 -15t15 -37z" />
    <glyph glyph-name="cedilla" unicode="&#xb8;" 
d="M275 -121q0 -89 -115 -89q-39 0 -77 12t-38 31q0 26 19 26q5 0 33 -10t50 -10q57 0 57 35q0 19 -16.5 28t-33 14t-16.5 16q0 2 2 12l17 56h43l-14 -49h4q16 0 32.5 -3.5t34.5 -21t18 -47.5z" />
    <glyph glyph-name="onesuperior" unicode="&#xb9;" horiz-adv-x="217" 
d="M175 690v-379q0 -14 -22 -14h-5q-21 0 -21 14v338l-74 -16q-12 0 -12 30q0 8 10 11l106 28q18 0 18 -12z" />
    <glyph glyph-name="ordmasculine" unicode="&#xba;" horiz-adv-x="337" 
d="M239 573q0 97 -71 97q-70 0 -70 -97q0 -96 70 -96q71 0 71 96zM282 572q0 -64 -28.5 -97.5t-83.5 -33.5q-56 0 -85.5 33.5t-29.5 97.5q0 65 30 99.5t85 34.5q54 0 83 -34.5t29 -99.5z" />
    <glyph glyph-name="guillemotright" unicode="&#xbb;" horiz-adv-x="471" 
d="M254 258q0 -12 -13 -28l-130 -156q-11 -13 -22 -13t-23 11.5t-12 21.5q0 8 8 19l111 145l-111 144q-8 11 -8 20q0 12 12.5 22t22.5 10q11 0 22 -12l130 -156q13 -16 13 -28zM426 258q0 -12 -13 -28l-130 -156q-11 -13 -22 -13t-23 11.5t-12 21.5q0 8 8 19l111 145
l-111 144q-8 11 -8 20q0 12 12.5 22t22.5 10q11 0 22 -12l130 -156q13 -16 13 -28z" />
    <glyph glyph-name="onequarter" unicode="&#xbc;" horiz-adv-x="671" 
d="M532 322l-3 2l-131 -195h132v131zM175 690v-379q0 -14 -22 -14h-5q-21 0 -21 14v338l-74 -16q-12 0 -12 30q0 8 10 11l106 28q18 0 18 -12zM557 696q0 -2 -4 -10l-406 -671q-10 -17 -30 -17h-13q-14 0 -14 7q0 5 4 10l406 671q10 17 30 17h13q14 0 14 -7zM628 112v-7
q0 -18 -11 -18h-39v-76q0 -13 -17 -13h-13q-18 0 -18 13v76h-175q-4 0 -9 10.5t-5 19.5q0 5 1 7l190 272q6 8 20 8h9q17 0 17 -13v-262h39q11 0 11 -17z" />
    <glyph glyph-name="onehalf" unicode="&#xbd;" horiz-adv-x="746" 
d="M175 690v-379q0 -14 -22 -14h-5q-21 0 -21 14v338l-74 -16q-12 0 -12 30q0 8 10 11l106 28q18 0 18 -12zM557 696q0 -2 -4 -10l-406 -671q-10 -17 -30 -17h-13q-14 0 -14 7q0 5 4 10l406 671q10 17 30 17h13q14 0 14 -7zM689 24v-7q0 -17 -11 -17h-220q-12 0 -12 25
q0 6 2 10q156 195 172 219q16 26 16 52q0 27 -19 43t-53 16q-23 0 -42 -7.5t-30 -14.5t-14 -7q-4 0 -11.5 11t-7.5 18q0 17 36.5 29.5t67.5 12.5q57 0 90 -26t33 -72q0 -40 -21 -74t-111 -143l-42 -51h166q11 0 11 -17z" />
    <glyph glyph-name="threequarters" unicode="&#xbe;" horiz-adv-x="738" 
d="M601 322l-3 2l-131 -195h132v131zM285 414q0 -61 -39.5 -91t-90.5 -30q-47 0 -81.5 11t-34.5 22q0 8 7.5 18.5t12.5 10.5q1 0 31 -10t60 -10q33 0 58.5 18.5t25.5 60.5q0 43 -22.5 60t-64.5 17h-18q-12 0 -12 18v6q0 18 12 18h16q40 0 58.5 24t18.5 51q0 21 -15.5 38.5
t-53.5 17.5q-23 0 -41.5 -5t-28.5 -9.5t-13 -4.5q-5 0 -12 11.5t-7 18.5q0 12 36 21.5t67 9.5q54 0 86 -26.5t32 -76.5q0 -54 -60 -79v-4q29 -8 51 -35.5t22 -70.5zM622 696q0 -2 -4 -10l-406 -671q-10 -17 -30 -17h-13q-14 0 -14 7q0 5 4 10l406 671q10 17 30 17h13
q14 0 14 -7zM697 112v-7q0 -18 -11 -18h-39v-76q0 -13 -17 -13h-13q-18 0 -18 13v76h-175q-4 0 -9 10.5t-5 19.5q0 5 1 7l190 272q6 8 20 8h9q17 0 17 -13v-262h39q11 0 11 -17z" />
    <glyph glyph-name="questiondown" unicode="&#xbf;" horiz-adv-x="425" 
d="M396 -126q0 -24 -56 -40.5t-116 -16.5q-96 0 -150.5 48.5t-54.5 119.5q0 37 19 72.5t46.5 64l56 56t50.5 59.5t26 64q3 20 33 20h15q30 0 30 -23q0 -73 -86 -159q-34 -34 -49 -50.5t-30.5 -43.5t-15.5 -50q0 -104 126 -104q38 0 80 17t44 17q7 0 19.5 -20t12.5 -31z
M310 503v-66q0 -22 -40 -22h-17q-40 0 -40 22v66q0 22 40 22h17q40 0 40 -22z" />
    <glyph glyph-name="Agrave" unicode="&#xc0;" horiz-adv-x="613" 
d="M185 254h239l-105 298l-13 58l-16 -58zM601 15q0 -17 -43 -17h-8q-35 0 -40 16l-59 164h-294l-57 -164q-5 -16 -40 -16h-5q-43 0 -43 17q0 5 3 14l237 657q5 16 40 16h29q35 0 40 -16l237 -658q3 -7 3 -13zM374 795q0 -10 -23 -10q-35 0 -51 18q-88 101 -92 108
q-2 4 -2 8q0 13 48 13q47 0 62 -26q58 -101 58 -111z" />
    <glyph glyph-name="Aacute" unicode="&#xc1;" horiz-adv-x="613" 
d="M185 254h239l-105 298l-13 58l-16 -58zM601 15q0 -17 -43 -17h-8q-35 0 -40 16l-59 164h-294l-57 -164q-5 -16 -40 -16h-5q-43 0 -43 17q0 5 3 14l237 657q5 16 40 16h29q35 0 40 -16l237 -658q3 -7 3 -13zM419 919q0 -7 -9.5 -19t-46.5 -54l-38 -43q-17 -18 -51 -18
q-23 0 -23 10t58 111q15 26 62 26q48 0 48 -13z" />
    <glyph glyph-name="Acircumflex" unicode="&#xc2;" horiz-adv-x="613" 
d="M185 254h239l-105 298l-13 58l-16 -58zM601 15q0 -17 -43 -17h-8q-35 0 -40 16l-59 164h-294l-57 -164q-5 -16 -40 -16h-5q-43 0 -43 17q0 5 3 14l237 657q5 16 40 16h29q35 0 40 -16l237 -658q3 -7 3 -13zM428 779q0 -15 -26 -15q-19 0 -33 13l-63 74l-61 -74
q-14 -13 -36 -13q-23 0 -23 14q0 8 6 18l56 88q15 22 46 22h25q31 0 46 -22l57 -88q6 -9 6 -17z" />
    <glyph glyph-name="Atilde" unicode="&#xc3;" horiz-adv-x="613" 
d="M185 254h239l-105 298l-13 58l-16 -58zM601 15q0 -17 -43 -17h-8q-35 0 -40 16l-59 164h-294l-57 -164q-5 -16 -40 -16h-5q-43 0 -43 17q0 5 3 14l237 657q5 16 40 16h29q35 0 40 -16l237 -658q3 -7 3 -13zM466 851q0 -19 -34 -37.5t-73 -18.5q-29 0 -70 10t-58 10
q-9 0 -26 -6.5t-28 -6.5t-20 10.5t-9 19.5q0 19 34 37.5t73 18.5q29 0 69.5 -10t58.5 -10q14 0 29.5 6.5t24.5 6.5q10 0 19.5 -11t9.5 -19z" />
    <glyph glyph-name="Adieresis" unicode="&#xc4;" horiz-adv-x="613" 
d="M185 254h239l-105 298l-13 58l-16 -58zM601 15q0 -17 -43 -17h-8q-35 0 -40 16l-59 164h-294l-57 -164q-5 -16 -40 -16h-5q-43 0 -43 17q0 5 3 14l237 657q5 16 40 16h29q35 0 40 -16l237 -658q3 -7 3 -13zM277 860v-51q0 -22 -40 -22h-4q-40 0 -40 22v51q0 22 40 22h4
q40 0 40 -22zM421 860v-51q0 -22 -40 -22h-4q-40 0 -40 22v51q0 22 40 22h4q40 0 40 -22z" />
    <glyph glyph-name="Aring" unicode="&#xc5;" horiz-adv-x="613" 
d="M185 254h239l-105 298l-13 58l-16 -58zM357 828q0 21 -14.5 35.5t-35.5 14.5t-35 -14.5t-14 -35.5t14 -35t35 -14t35.5 14t14.5 35zM601 15q0 -17 -43 -17h-8q-35 0 -40 16l-59 164h-294l-57 -164q-5 -16 -40 -16h-5q-43 0 -43 17q0 5 3 14l237 657q5 16 40 16h29
q35 0 40 -16l237 -658q3 -7 3 -13zM392 828q0 -35 -25 -59.5t-60 -24.5t-59.5 24.5t-24.5 59.5t24.5 60t59.5 25t60 -25t25 -60z" />
    <glyph glyph-name="AE" unicode="&#xc6;" horiz-adv-x="915" 
d="M192 253h239l-64 299l-4 58l-23 -58zM823 46v-16q0 -30 -20 -30h-287q-30 0 -36 29l-32 149h-295l-80 -164q-7 -16 -40 -16h-5q-39 0 -39 17q0 8 4 16l321 642q13 27 43 27h445q20 0 20 -30v-16q0 -30 -20 -30h-362l50 -228h282q20 0 20 -30v-16q0 -30 -20 -30h-266
l53 -244h244q20 0 20 -30z" />
    <glyph glyph-name="Ccedilla" unicode="&#xc7;" horiz-adv-x="619" 
d="M586 66q0 -23 -62.5 -47.5t-144.5 -24.5h-10l-12 -43h4q16 0 32.5 -3.5t34.5 -21t18 -47.5q0 -89 -115 -89q-39 0 -77 12t-38 31q0 26 19 26q5 0 33 -10t50 -10q57 0 57 35q0 19 -16.5 28t-33 14t-16.5 16q0 2 2 12l16 53q-138 12 -204 98.5t-66 254.5q0 356 324 356
q72 0 131.5 -20.5t59.5 -41.5q0 -14 -12.5 -36t-21.5 -22q-2 0 -21.5 11t-55.5 22t-78 11q-121 0 -178 -67t-57 -214q0 -144 56.5 -211.5t174.5 -67.5q45 0 85 12.5t62 25t25 12.5q9 0 22 -22t13 -32z" />
    <glyph glyph-name="Egrave" unicode="&#xc8;" horiz-adv-x="546" 
d="M497 46v-16q0 -30 -20 -30h-350q-30 0 -30 30v640q0 30 30 30h349q20 0 20 -30v-16q0 -30 -20 -30h-291v-228h261q20 0 20 -30v-16q0 -30 -20 -30h-261v-244h292q20 0 20 -30zM365 795q0 -10 -23 -10q-34 0 -51 18q-88 101 -92 108q-2 4 -2 8q0 13 48 13q47 0 62 -26
q58 -101 58 -111z" />
    <glyph glyph-name="Eacute" unicode="&#xc9;" horiz-adv-x="546" 
d="M497 46v-16q0 -30 -20 -30h-350q-30 0 -30 30v640q0 30 30 30h349q20 0 20 -30v-16q0 -30 -20 -30h-291v-228h261q20 0 20 -30v-16q0 -30 -20 -30h-261v-244h292q20 0 20 -30zM410 919q0 -7 -9.5 -19t-46.5 -54l-38 -43q-16 -18 -51 -18q-23 0 -23 10t58 111q15 26 62 26
q48 0 48 -13z" />
    <glyph glyph-name="Ecircumflex" unicode="&#xca;" horiz-adv-x="546" 
d="M497 46v-16q0 -30 -20 -30h-350q-30 0 -30 30v640q0 30 30 30h349q20 0 20 -30v-16q0 -30 -20 -30h-291v-228h261q20 0 20 -30v-16q0 -30 -20 -30h-261v-244h292q20 0 20 -30zM419 779q0 -15 -26 -15q-19 0 -33 13l-63 74l-61 -74q-14 -13 -36 -13q-23 0 -23 14q0 8 6 18
l56 88q15 22 46 22h25q31 0 46 -22l57 -88q6 -9 6 -17z" />
    <glyph glyph-name="Edieresis" unicode="&#xcb;" horiz-adv-x="546" 
d="M497 46v-16q0 -30 -20 -30h-350q-30 0 -30 30v640q0 30 30 30h349q20 0 20 -30v-16q0 -30 -20 -30h-291v-228h261q20 0 20 -30v-16q0 -30 -20 -30h-261v-244h292q20 0 20 -30zM268 860v-51q0 -22 -40 -22h-4q-40 0 -40 22v51q0 22 40 22h4q40 0 40 -22zM412 860v-51
q0 -22 -40 -22h-4q-40 0 -40 22v51q0 22 40 22h4q40 0 40 -22z" />
    <glyph glyph-name="Igrave" unicode="&#xcc;" horiz-adv-x="282" 
d="M185 680v-660q0 -22 -40 -22h-8q-40 0 -40 22v660q0 22 40 22h8q40 0 40 -22zM208 795q0 -10 -23 -10q-35 0 -51 18q-88 101 -92 108q-2 4 -2 8q0 13 48 13q47 0 62 -26q58 -101 58 -111z" />
    <glyph glyph-name="Iacute" unicode="&#xcd;" horiz-adv-x="282" 
d="M185 680v-660q0 -22 -40 -22h-8q-40 0 -40 22v660q0 22 40 22h8q40 0 40 -22zM253 919q0 -7 -9.5 -19t-46.5 -54l-38 -43q-17 -18 -51 -18q-23 0 -23 10t58 111q15 26 62 26q48 0 48 -13z" />
    <glyph glyph-name="Icircumflex" unicode="&#xce;" horiz-adv-x="282" 
d="M185 680v-660q0 -22 -40 -22h-8q-40 0 -40 22v660q0 22 40 22h8q40 0 40 -22zM262 779q0 -15 -26 -15q-19 0 -33 13l-63 74l-61 -74q-14 -13 -36 -13q-23 0 -23 14q0 8 6 18l56 88q15 22 46 22h25q31 0 46 -22l57 -88q6 -9 6 -17z" />
    <glyph glyph-name="Idieresis" unicode="&#xcf;" horiz-adv-x="282" 
d="M185 680v-660q0 -22 -40 -22h-8q-40 0 -40 22v660q0 22 40 22h8q40 0 40 -22zM111 860v-51q0 -22 -40 -22h-4q-40 0 -40 22v51q0 22 40 22h4q40 0 40 -22zM255 860v-51q0 -22 -40 -22h-4q-40 0 -40 22v51q0 22 40 22h4q40 0 40 -22z" />
    <glyph glyph-name="Eth" unicode="&#xd0;" horiz-adv-x="696" 
d="M550 350q0 141 -62.5 207.5t-164.5 66.5h-150v-228h110q20 0 20 -30v-16q0 -30 -20 -30h-110v-244h150q102 0 164.5 66t62.5 208zM641 350q0 -95 -24 -164t-67.5 -109t-98 -58.5t-121.5 -18.5h-215q-30 0 -30 30v290h-65q-20 0 -20 30v16q0 30 20 30h65v274q0 30 30 30
h215q67 0 121.5 -19t98 -58.5t67.5 -109t24 -163.5z" />
    <glyph glyph-name="Ntilde" unicode="&#xd1;" horiz-adv-x="719" 
d="M629 680v-660q0 -22 -40 -22h-20q-26 0 -35 14l-330 498l-27 51v-541q0 -22 -40 -22h-7q-40 0 -40 22v660q0 22 40 22h21q30 0 42 -19l319 -482l30 -56v535q0 22 40 22h7q40 0 40 -22zM518 851q0 -19 -34 -37.5t-73 -18.5q-29 0 -70 10t-58 10q-9 0 -26 -6.5t-28 -6.5
t-20 10.5t-9 19.5q0 19 34 37.5t73 18.5q29 0 69.5 -10t58.5 -10q14 0 29.5 6.5t24.5 6.5q10 0 19.5 -11t9.5 -19z" />
    <glyph glyph-name="Ograve" unicode="&#xd2;" horiz-adv-x="731" 
d="M583 352q0 137 -56 207.5t-162 70.5t-161.5 -70.5t-55.5 -207.5q0 -138 55.5 -210t161.5 -72t162 72t56 210zM674 352q0 -175 -79 -266.5t-230 -91.5q-150 0 -229 91.5t-79 266.5t78.5 264.5t229.5 89.5t230 -89.5t79 -264.5zM432 795q0 -10 -23 -10q-35 0 -51 18
q-88 101 -92 108q-2 4 -2 8q0 13 48 13q47 0 62 -26q58 -101 58 -111z" />
    <glyph glyph-name="Oacute" unicode="&#xd3;" horiz-adv-x="731" 
d="M583 352q0 137 -56 207.5t-162 70.5t-161.5 -70.5t-55.5 -207.5q0 -138 55.5 -210t161.5 -72t162 72t56 210zM674 352q0 -175 -79 -266.5t-230 -91.5q-150 0 -229 91.5t-79 266.5t78.5 264.5t229.5 89.5t230 -89.5t79 -264.5zM477 919q0 -7 -9.5 -19t-46.5 -54l-38 -43
q-17 -18 -51 -18q-23 0 -23 10t58 111q15 26 62 26q48 0 48 -13z" />
    <glyph glyph-name="Ocircumflex" unicode="&#xd4;" horiz-adv-x="731" 
d="M583 352q0 137 -56 207.5t-162 70.5t-161.5 -70.5t-55.5 -207.5q0 -138 55.5 -210t161.5 -72t162 72t56 210zM674 352q0 -175 -79 -266.5t-230 -91.5q-150 0 -229 91.5t-79 266.5t78.5 264.5t229.5 89.5t230 -89.5t79 -264.5zM486 779q0 -15 -26 -15q-19 0 -33 13l-63 74
l-61 -74q-14 -13 -36 -13q-23 0 -23 14q0 8 6 18l56 88q15 22 46 22h25q31 0 46 -22l57 -88q6 -9 6 -17z" />
    <glyph glyph-name="Otilde" unicode="&#xd5;" horiz-adv-x="731" 
d="M583 352q0 137 -56 207.5t-162 70.5t-161.5 -70.5t-55.5 -207.5q0 -138 55.5 -210t161.5 -72t162 72t56 210zM674 352q0 -175 -79 -266.5t-230 -91.5q-150 0 -229 91.5t-79 266.5t78.5 264.5t229.5 89.5t230 -89.5t79 -264.5zM524 851q0 -19 -34 -37.5t-73 -18.5
q-29 0 -70 10t-58 10q-9 0 -26 -6.5t-28 -6.5t-20 10.5t-9 19.5q0 19 34 37.5t73 18.5q29 0 69.5 -10t58.5 -10q14 0 29.5 6.5t24.5 6.5q10 0 19.5 -11t9.5 -19z" />
    <glyph glyph-name="Odieresis" unicode="&#xd6;" horiz-adv-x="731" 
d="M583 352q0 137 -56 207.5t-162 70.5t-161.5 -70.5t-55.5 -207.5q0 -138 55.5 -210t161.5 -72t162 72t56 210zM674 352q0 -175 -79 -266.5t-230 -91.5q-150 0 -229 91.5t-79 266.5t78.5 264.5t229.5 89.5t230 -89.5t79 -264.5zM335 860v-51q0 -22 -40 -22h-4q-40 0 -40 22
v51q0 22 40 22h4q40 0 40 -22zM479 860v-51q0 -22 -40 -22h-4q-40 0 -40 22v51q0 22 40 22h4q40 0 40 -22z" />
    <glyph glyph-name="multiply" unicode="&#xd7;" horiz-adv-x="560" 
d="M505 42q0 -7 -7 -14l-19 -20q-8 -8 -14 -8t-14 8l-171 173l-171 -173q-8 -8 -14 -8t-14 8l-19 20q-8 8 -8 14t8 14l171 172l-171 171q-8 8 -8 14t8 14l19 20q7 7 14 7t14 -7l171 -172l171 172q7 7 14 7t14 -7l19 -20q7 -7 7 -14t-7 -14l-171 -171l171 -172q7 -7 7 -14z
" />
    <glyph glyph-name="Oslash" unicode="&#xd8;" horiz-adv-x="731" 
d="M583 352q0 115 -40 184l-346 -385q54 -81 168 -81q106 0 162 72t56 210zM177 187l342 381q-54 62 -154 62q-106 0 -161.5 -70.5t-55.5 -207.5q0 -98 29 -165zM674 352q0 -175 -79 -266.5t-230 -91.5q-150 0 -228 90l-67 -74q-8 -9 -14 -9q-7 0 -14.5 7t-7.5 14t6 14
l73 80q-56 89 -56 236q0 175 78.5 264.5t229.5 89.5q134 0 213 -73l55 61q7 8 14 8t14.5 -7t7.5 -13t-6 -14l-58 -64q69 -90 69 -252z" />
    <glyph glyph-name="Ugrave" unicode="&#xd9;" horiz-adv-x="712" 
d="M629 680v-456q0 -109 -71 -169.5t-202 -60.5q-132 0 -202.5 60.5t-70.5 169.5v456q0 22 40 22h8q40 0 40 -22v-459q0 -66 52.5 -108.5t132.5 -42.5t132.5 42.5t52.5 108.5v459q0 22 40 22h8q40 0 40 -22zM423 795q0 -10 -23 -10q-34 0 -51 18q-88 101 -92 108q-2 4 -2 8
q0 13 48 13q47 0 62 -26q58 -101 58 -111z" />
    <glyph glyph-name="Uacute" unicode="&#xda;" horiz-adv-x="712" 
d="M629 680v-456q0 -109 -71 -169.5t-202 -60.5q-132 0 -202.5 60.5t-70.5 169.5v456q0 22 40 22h8q40 0 40 -22v-459q0 -66 52.5 -108.5t132.5 -42.5t132.5 42.5t52.5 108.5v459q0 22 40 22h8q40 0 40 -22zM468 919q0 -7 -9.5 -19t-46.5 -54l-38 -43q-16 -18 -51 -18
q-23 0 -23 10t58 111q15 26 62 26q48 0 48 -13z" />
    <glyph glyph-name="Ucircumflex" unicode="&#xdb;" horiz-adv-x="712" 
d="M629 680v-456q0 -109 -71 -169.5t-202 -60.5q-132 0 -202.5 60.5t-70.5 169.5v456q0 22 40 22h8q40 0 40 -22v-459q0 -66 52.5 -108.5t132.5 -42.5t132.5 42.5t52.5 108.5v459q0 22 40 22h8q40 0 40 -22zM477 779q0 -15 -26 -15q-19 0 -33 13l-63 74l-61 -74
q-14 -13 -36 -13q-23 0 -23 14q0 8 6 18l56 88q15 22 46 22h25q31 0 46 -22l57 -88q6 -9 6 -17z" />
    <glyph glyph-name="Udieresis" unicode="&#xdc;" horiz-adv-x="712" 
d="M629 680v-456q0 -109 -71 -169.5t-202 -60.5q-132 0 -202.5 60.5t-70.5 169.5v456q0 22 40 22h8q40 0 40 -22v-459q0 -66 52.5 -108.5t132.5 -42.5t132.5 42.5t52.5 108.5v459q0 22 40 22h8q40 0 40 -22zM326 860v-51q0 -22 -40 -22h-4q-40 0 -40 22v51q0 22 40 22h4
q40 0 40 -22zM470 860v-51q0 -22 -40 -22h-4q-40 0 -40 22v51q0 22 40 22h4q40 0 40 -22z" />
    <glyph glyph-name="Yacute" unicode="&#xdd;" horiz-adv-x="559" 
d="M541 685q0 -7 -8 -18l-210 -311v-336q0 -22 -40 -22h-8q-40 0 -40 22v339l-209 308q-8 11 -8 18q0 17 46 17h11q33 0 43 -15l164 -246l168 247q9 14 45 14q46 0 46 -17zM391 919q0 -7 -9.5 -19t-46.5 -54l-38 -43q-17 -18 -51 -18q-23 0 -23 10t58 111q15 26 62 26
q48 0 48 -13z" />
    <glyph glyph-name="Thorn" unicode="&#xde;" horiz-adv-x="567" 
d="M450 382q0 67 -40 93.5t-95 26.5h-142v-250h156q18 0 36.5 5.5t38.5 18.5t33 40.5t13 65.5zM541 382q0 -52 -17.5 -91.5t-42 -60.5t-56.5 -34t-54.5 -16.5t-42.5 -3.5h-155v-156q0 -22 -40 -22h-8q-40 0 -40 22v660q0 22 40 22h8q40 0 40 -22v-102h145q38 0 72 -7.5
t70.5 -26.5t58.5 -60.5t22 -101.5z" />
    <glyph glyph-name="germandbls" unicode="&#xdf;" horiz-adv-x="554" 
d="M514 206q0 -97 -61 -151.5t-154 -54.5h-32q-20 0 -20 30v12q0 30 20 30h33q54 0 90 36t36 98q0 61 -36 97.5t-90 36.5h-33q-20 0 -20 30v12q0 30 20 30h10q47 0 83 34t36 82q0 106 -111 106q-51 0 -81 -30.5t-30 -82.5v-501q0 -22 -40 -22h-4q-40 0 -40 22v501
q0 82 54 133.5t143 51.5q90 0 144 -40.5t54 -129.5q0 -45 -28.5 -88.5t-73.5 -62.5q62 -14 96.5 -63t34.5 -116z" />
    <glyph glyph-name="agrave" unicode="&#xe0;" horiz-adv-x="545" 
d="M389 136v274q-54 45 -121 45h-6q-64 0 -97.5 -48t-33.5 -138q0 -97 32 -149.5t91 -52.5q72 0 135 69zM485 22q0 -12 -19 -17.5t-35 -5.5q-5 0 -9 2t-7.5 7t-5.5 9.5t-4 12.5t-3.5 12.5t-3 14t-2.5 12.5q-72 -75 -159 -75q-89 0 -141.5 74t-52.5 190v9q0 123 56 192.5
t147 69.5q77 0 143 -51v29q0 22 40 22h4q40 0 40 -22v-359q0 -23 1 -44t3 -34.5t4 -24t3 -16.5t1 -7zM335 615q0 -10 -23 -10q-34 0 -51 18q-88 101 -92 108q-2 4 -2 8q0 13 48 13q47 0 62 -26q58 -101 58 -111z" />
    <glyph glyph-name="aacute" unicode="&#xe1;" horiz-adv-x="545" 
d="M389 136v274q-54 45 -121 45h-6q-64 0 -97.5 -48t-33.5 -138q0 -97 32 -149.5t91 -52.5q72 0 135 69zM485 22q0 -12 -19 -17.5t-35 -5.5q-5 0 -9 2t-7.5 7t-5.5 9.5t-4 12.5t-3.5 12.5t-3 14t-2.5 12.5q-72 -75 -159 -75q-89 0 -141.5 74t-52.5 190v9q0 123 56 192.5
t147 69.5q77 0 143 -51v29q0 22 40 22h4q40 0 40 -22v-359q0 -23 1 -44t3 -34.5t4 -24t3 -16.5t1 -7zM380 739q0 -7 -9.5 -19t-46.5 -54l-38 -43q-16 -18 -51 -18q-23 0 -23 10t58 111q15 26 62 26q48 0 48 -13z" />
    <glyph glyph-name="acircumflex" unicode="&#xe2;" horiz-adv-x="545" 
d="M389 136v274q-54 45 -121 45h-6q-64 0 -97.5 -48t-33.5 -138q0 -97 32 -149.5t91 -52.5q72 0 135 69zM485 22q0 -12 -19 -17.5t-35 -5.5q-5 0 -9 2t-7.5 7t-5.5 9.5t-4 12.5t-3.5 12.5t-3 14t-2.5 12.5q-72 -75 -159 -75q-89 0 -141.5 74t-52.5 190v9q0 123 56 192.5
t147 69.5q77 0 143 -51v29q0 22 40 22h4q40 0 40 -22v-359q0 -23 1 -44t3 -34.5t4 -24t3 -16.5t1 -7zM392 599q0 -15 -26 -15q-19 0 -33 13l-63 74l-61 -74q-14 -13 -36 -13q-23 0 -23 14q0 8 6 18l56 88q15 22 46 22h25q31 0 46 -22l57 -88q6 -9 6 -17z" />
    <glyph glyph-name="atilde" unicode="&#xe3;" horiz-adv-x="545" 
d="M389 136v274q-54 45 -121 45h-6q-64 0 -97.5 -48t-33.5 -138q0 -97 32 -149.5t91 -52.5q72 0 135 69zM485 22q0 -12 -19 -17.5t-35 -5.5q-5 0 -9 2t-7.5 7t-5.5 9.5t-4 12.5t-3.5 12.5t-3 14t-2.5 12.5q-72 -75 -159 -75q-89 0 -141.5 74t-52.5 190v9q0 123 56 192.5
t147 69.5q77 0 143 -51v29q0 22 40 22h4q40 0 40 -22v-359q0 -23 1 -44t3 -34.5t4 -24t3 -16.5t1 -7zM427 671q0 -19 -34 -37.5t-73 -18.5q-29 0 -70 10t-58 10q-9 0 -26 -6.5t-28 -6.5t-20 10.5t-9 19.5q0 19 34 37.5t73 18.5q29 0 69.5 -10t58.5 -10q14 0 29.5 6.5
t24.5 6.5q10 0 19.5 -11t9.5 -19z" />
    <glyph glyph-name="adieresis" unicode="&#xe4;" horiz-adv-x="545" 
d="M389 136v274q-54 45 -121 45h-6q-64 0 -97.5 -48t-33.5 -138q0 -97 32 -149.5t91 -52.5q72 0 135 69zM485 22q0 -12 -19 -17.5t-35 -5.5q-5 0 -9 2t-7.5 7t-5.5 9.5t-4 12.5t-3.5 12.5t-3 14t-2.5 12.5q-72 -75 -159 -75q-89 0 -141.5 74t-52.5 190v9q0 123 56 192.5
t147 69.5q77 0 143 -51v29q0 22 40 22h4q40 0 40 -22v-359q0 -23 1 -44t3 -34.5t4 -24t3 -16.5t1 -7zM238 680v-51q0 -22 -40 -22h-4q-40 0 -40 22v51q0 22 40 22h4q40 0 40 -22zM382 680v-51q0 -22 -40 -22h-4q-40 0 -40 22v51q0 22 40 22h4q40 0 40 -22z" />
    <glyph glyph-name="aring" unicode="&#xe5;" horiz-adv-x="545" 
d="M389 136v274q-54 45 -121 45h-6q-64 0 -97.5 -48t-33.5 -138q0 -97 32 -149.5t91 -52.5q72 0 135 69zM318 648q0 21 -14.5 35.5t-35.5 14.5t-35 -14.5t-14 -35.5t14 -35t35 -14t35.5 14t14.5 35zM485 22q0 -12 -19 -17.5t-35 -5.5q-5 0 -9 2t-7.5 7t-5.5 9.5t-4 12.5
t-3.5 12.5t-3 14t-2.5 12.5q-72 -75 -159 -75q-89 0 -141.5 74t-52.5 190v9q0 123 56 192.5t147 69.5q77 0 143 -51v29q0 22 40 22h4q40 0 40 -22v-359q0 -23 1 -44t3 -34.5t4 -24t3 -16.5t1 -7zM353 648q0 -35 -25 -59.5t-60 -24.5t-59.5 24.5t-24.5 59.5t24.5 60t59.5 25
t60 -25t25 -60z" />
    <glyph glyph-name="ae" unicode="&#xe6;" horiz-adv-x="829" 
d="M358 119q-22 51 -23 121q-42 -1 -72.5 -4.5t-62.5 -12.5t-48.5 -27.5t-16.5 -46.5q0 -82 85 -82q73 0 138 52zM425 313h260q0 144 -120 144q-129 0 -140 -144zM774 282q0 -9 -12 -25t-21 -16h-316q6 -91 43 -133t111 -42q38 0 72 10.5t53 21t21 10.5q10 0 22.5 -20
t12.5 -30q0 -20 -54.5 -42t-125.5 -22q-123 0 -183 63q-76 -63 -181 -63q-77 0 -124 38t-47 112q0 41 17.5 71.5t44 48t67.5 28.5t78 15t86 5q6 62 28 104q-26 41 -99 41q-40 0 -76.5 -10.5t-57 -21t-22.5 -10.5q-10 0 -22.5 20t-12.5 30q0 21 58.5 42.5t129.5 21.5
q99 0 152 -48q57 48 152 48q102 0 154 -63t52 -184z" />
    <glyph glyph-name="ccedilla" unicode="&#xe7;" horiz-adv-x="485" 
d="M455 45q0 -18 -47 -34.5t-110 -16.5h-4l-12 -43h4q16 0 32.5 -3.5t34.5 -21t18 -47.5q0 -89 -115 -89q-39 0 -77 12t-38 31q0 26 19 26q5 0 33 -10t50 -10q57 0 57 35q0 19 -16.5 28t-33 14t-16.5 16q0 2 2 12l16 53q-101 10 -150.5 74.5t-49.5 192.5q0 75 20.5 129
t55.5 82.5t74.5 41t86.5 12.5q58 0 104 -14t46 -32q0 -13 -11.5 -33.5t-20.5 -20.5q-1 0 -4.5 1.5t-6.5 2.5q-54 24 -109 24q-145 0 -145 -191q0 -106 35.5 -153t119.5 -47q61 0 113 26q3 1 7 3q3 1 4 1q10 0 22 -19.5t12 -31.5z" />
    <glyph glyph-name="egrave" unicode="&#xe8;" horiz-adv-x="539" 
d="M145 299h260q0 158 -120 158q-129 0 -140 -158zM494 268q0 -9 -12 -25t-21 -16h-316q6 -83 43 -122t111 -39q38 0 72 10.5t53 21t21 10.5q10 0 22.5 -20t12.5 -30q0 -20 -54.5 -42t-125.5 -22q-125 0 -185 65t-60 199q0 133 59 202t174 69q102 0 154 -66.5t52 -194.5z
M352 615q0 -10 -23 -10q-35 0 -51 18q-88 101 -92 108q-2 4 -2 8q0 13 48 13q47 0 62 -26q58 -101 58 -111z" />
    <glyph glyph-name="eacute" unicode="&#xe9;" horiz-adv-x="539" 
d="M145 299h260q0 158 -120 158q-129 0 -140 -158zM494 268q0 -9 -12 -25t-21 -16h-316q6 -83 43 -122t111 -39q38 0 72 10.5t53 21t21 10.5q10 0 22.5 -20t12.5 -30q0 -20 -54.5 -42t-125.5 -22q-125 0 -185 65t-60 199q0 133 59 202t174 69q102 0 154 -66.5t52 -194.5z
M397 739q0 -7 -9.5 -19t-46.5 -54l-38 -43q-17 -18 -51 -18q-23 0 -23 10t58 111q15 26 62 26q48 0 48 -13z" />
    <glyph glyph-name="ecircumflex" unicode="&#xea;" horiz-adv-x="539" 
d="M145 299h260q0 158 -120 158q-129 0 -140 -158zM494 268q0 -9 -12 -25t-21 -16h-316q6 -83 43 -122t111 -39q38 0 72 10.5t53 21t21 10.5q10 0 22.5 -20t12.5 -30q0 -20 -54.5 -42t-125.5 -22q-125 0 -185 65t-60 199q0 133 59 202t174 69q102 0 154 -66.5t52 -194.5z
M406 599q0 -15 -26 -15q-19 0 -33 13l-63 74l-61 -74q-14 -13 -36 -13q-23 0 -23 14q0 8 6 18l56 88q15 22 46 22h25q31 0 46 -22l57 -88q6 -9 6 -17z" />
    <glyph glyph-name="edieresis" unicode="&#xeb;" horiz-adv-x="539" 
d="M145 299h260q0 158 -120 158q-129 0 -140 -158zM494 268q0 -9 -12 -25t-21 -16h-316q6 -83 43 -122t111 -39q38 0 72 10.5t53 21t21 10.5q10 0 22.5 -20t12.5 -30q0 -20 -54.5 -42t-125.5 -22q-125 0 -185 65t-60 199q0 133 59 202t174 69q102 0 154 -66.5t52 -194.5z
M255 680v-51q0 -22 -40 -22h-4q-40 0 -40 22v51q0 22 40 22h4q40 0 40 -22zM399 680v-51q0 -22 -40 -22h-4q-40 0 -40 22v51q0 22 40 22h4q40 0 40 -22z" />
    <glyph glyph-name="igrave" unicode="&#xec;" horiz-adv-x="265" 
d="M175 503v-483q0 -22 -40 -22h-4q-40 0 -40 22v483q0 22 40 22h4q40 0 40 -22zM201 615q0 -10 -23 -10q-34 0 -51 18q-88 101 -92 108q-2 4 -2 8q0 13 48 13q47 0 62 -26q58 -101 58 -111z" />
    <glyph glyph-name="iacute" unicode="&#xed;" horiz-adv-x="265" 
d="M175 503v-483q0 -22 -40 -22h-4q-40 0 -40 22v483q0 22 40 22h4q40 0 40 -22zM246 739q0 -7 -9.5 -19t-46.5 -54l-38 -43q-17 -18 -51 -18q-23 0 -23 10t58 111q15 26 62 26q48 0 48 -13z" />
    <glyph glyph-name="icircumflex" unicode="&#xee;" horiz-adv-x="265" 
d="M175 503v-483q0 -22 -40 -22h-4q-40 0 -40 22v483q0 22 40 22h4q40 0 40 -22zM255 599q0 -15 -26 -15q-19 0 -33 13l-63 74l-61 -74q-14 -13 -36 -13q-23 0 -23 14q0 8 6 18l56 88q15 22 46 22h25q31 0 46 -22l57 -88q6 -9 6 -17z" />
    <glyph glyph-name="idieresis" unicode="&#xef;" horiz-adv-x="265" 
d="M175 503v-483q0 -22 -40 -22h-4q-40 0 -40 22v483q0 22 40 22h4q40 0 40 -22zM104 680v-51q0 -22 -40 -22h-4q-40 0 -40 22v51q0 22 40 22h4q40 0 40 -22zM248 680v-51q0 -22 -40 -22h-4q-40 0 -40 22v51q0 22 40 22h4q40 0 40 -22z" />
    <glyph glyph-name="eth" unicode="&#xf0;" horiz-adv-x="569" 
d="M427 261q0 100 -35 148t-108 48t-108 -48t-35 -148t35 -147.5t108 -47.5t108 47.5t35 147.5zM514 259q0 -130 -57.5 -197.5t-169.5 -67.5q-113 0 -172.5 68t-59.5 197q0 130 60 200t172 70q44 0 80 -12q-22 48 -46 90q-57 -8 -82 -11q-3 -1 -4 -1q-10 0 -18 10.5t-8 21.5
t15 13l72 10q-26 38 -26 48q0 16 43 16q16 0 26 -12q15 -17 33 -42q76 11 78 11q12 0 18.5 -12t6.5 -20q0 -11 -15 -13l-60 -8q114 -179 114 -359z" />
    <glyph glyph-name="ntilde" unicode="&#xf1;" horiz-adv-x="557" 
d="M482 367v-347q0 -22 -40 -22h-4q-40 0 -40 22v339q0 46 -26.5 71.5t-75.5 25.5q-72 0 -126 -70v-366q0 -22 -40 -22h-4q-40 0 -40 22v351q0 23 -1 44t-3 34.5t-4 24t-3 16.5t-1 7q0 12 19 17.5t35 5.5q5 0 9 -2t7.5 -6.5t5.5 -9t4 -12t3.5 -12t3 -13t2.5 -11.5
q67 75 156 75q76 0 119.5 -43t43.5 -119zM447 671q0 -19 -34 -37.5t-73 -18.5q-29 0 -70 10t-58 10q-9 0 -26 -6.5t-28 -6.5t-20 10.5t-9 19.5q0 19 34 37.5t73 18.5q29 0 69.5 -10t58.5 -10q14 0 29.5 6.5t24.5 6.5q10 0 19.5 -11t9.5 -19z" />
    <glyph glyph-name="ograve" unicode="&#xf2;" horiz-adv-x="569" 
d="M427 261q0 100 -35 148t-108 48t-107 -47.5t-34 -148.5q0 -100 34 -147.5t107 -47.5t108 47.5t35 147.5zM514 259q0 -130 -57.5 -197.5t-169.5 -67.5q-113 0 -172.5 68t-59.5 197q0 130 60 200t172 70q110 0 168.5 -69.5t58.5 -200.5zM351 615q0 -10 -23 -10
q-34 0 -51 18q-88 101 -92 108q-2 4 -2 8q0 13 48 13q47 0 62 -26q58 -101 58 -111z" />
    <glyph glyph-name="oacute" unicode="&#xf3;" horiz-adv-x="569" 
d="M427 261q0 100 -35 148t-108 48t-107 -47.5t-34 -148.5q0 -100 34 -147.5t107 -47.5t108 47.5t35 147.5zM514 259q0 -130 -57.5 -197.5t-169.5 -67.5q-113 0 -172.5 68t-59.5 197q0 130 60 200t172 70q110 0 168.5 -69.5t58.5 -200.5zM396 739q0 -7 -9.5 -19t-46.5 -54
l-38 -43q-16 -18 -51 -18q-23 0 -23 10t58 111q15 26 62 26q48 0 48 -13z" />
    <glyph glyph-name="ocircumflex" unicode="&#xf4;" horiz-adv-x="569" 
d="M427 261q0 100 -35 148t-108 48t-107 -47.5t-34 -148.5q0 -100 34 -147.5t107 -47.5t108 47.5t35 147.5zM514 259q0 -130 -57.5 -197.5t-169.5 -67.5q-113 0 -172.5 68t-59.5 197q0 130 60 200t172 70q110 0 168.5 -69.5t58.5 -200.5zM405 599q0 -15 -26 -15
q-19 0 -33 13l-63 74l-61 -74q-14 -13 -36 -13q-23 0 -23 14q0 8 6 18l56 88q15 22 46 22h25q31 0 46 -22l57 -88q6 -9 6 -17z" />
    <glyph glyph-name="otilde" unicode="&#xf5;" horiz-adv-x="569" 
d="M427 261q0 100 -35 148t-108 48t-107 -47.5t-34 -148.5q0 -100 34 -147.5t107 -47.5t108 47.5t35 147.5zM514 259q0 -130 -57.5 -197.5t-169.5 -67.5q-113 0 -172.5 68t-59.5 197q0 130 60 200t172 70q110 0 168.5 -69.5t58.5 -200.5zM443 671q0 -19 -34 -37.5t-73 -18.5
q-29 0 -70 10t-58 10q-9 0 -26 -6.5t-28 -6.5t-20 10.5t-9 19.5q0 19 34 37.5t73 18.5q29 0 69.5 -10t58.5 -10q14 0 29.5 6.5t24.5 6.5q10 0 19.5 -11t9.5 -19z" />
    <glyph glyph-name="odieresis" unicode="&#xf6;" horiz-adv-x="569" 
d="M427 261q0 100 -35 148t-108 48t-107 -47.5t-34 -148.5q0 -100 34 -147.5t107 -47.5t108 47.5t35 147.5zM514 259q0 -130 -57.5 -197.5t-169.5 -67.5q-113 0 -172.5 68t-59.5 197q0 130 60 200t172 70q110 0 168.5 -69.5t58.5 -200.5zM254 680v-51q0 -22 -40 -22h-4
q-40 0 -40 22v51q0 22 40 22h4q40 0 40 -22zM398 680v-51q0 -22 -40 -22h-4q-40 0 -40 22v51q0 22 40 22h4q40 0 40 -22z" />
    <glyph glyph-name="divide" unicode="&#xf7;" horiz-adv-x="560" 
d="M322 71v-51q0 -22 -40 -22h-4q-40 0 -40 22v51q0 22 40 22h4q40 0 40 -22zM512 234v-7q0 -30 -30 -30h-404q-30 0 -30 30v7q0 30 30 30h404q30 0 30 -30zM322 441v-51q0 -22 -40 -22h-4q-40 0 -40 22v51q0 22 40 22h4q40 0 40 -22z" />
    <glyph glyph-name="oslash" unicode="&#xf8;" horiz-adv-x="569" 
d="M427 261q0 69 -16 111l-228 -267q34 -38 101 -38q70 0 106.5 45t36.5 149zM160 142l231 268q-35 46 -107 46q-70 0 -106 -45t-36 -150q0 -75 18 -119zM515 500q0 -6 -6 -14l-39 -45q44 -67 44 -182q0 -264 -227 -264q-100 0 -157 49l-29 -34q-8 -8 -14 -8q-7 0 -15 7.5
t-8 13.5q0 5 7 14l31 37q-47 65 -47 185q0 80 21 136t57 83.5t73 38.5t81 11q100 0 158 -55l34 40q8 8 14 8t14 -7.5t8 -13.5z" />
    <glyph glyph-name="ugrave" unicode="&#xf9;" horiz-adv-x="557" 
d="M483 22q0 -12 -19 -17.5t-35 -5.5q-5 0 -9 2t-7.5 7t-5.5 9.5t-4 12.5t-3.5 12.5t-3 14t-2.5 12.5q-67 -75 -156 -75q-76 0 -119.5 43t-43.5 119v347q0 22 40 22h4q40 0 40 -22v-339q0 -46 26.5 -71.5t75.5 -25.5q72 0 126 70v366q0 22 40 22h4q40 0 40 -22v-355
q0 -23 1 -44t3 -34.5t4 -24t3 -16.5t1 -7zM342 615q0 -10 -23 -10q-35 0 -51 18q-88 101 -92 108q-2 4 -2 8q0 13 48 13q47 0 62 -26q58 -101 58 -111z" />
    <glyph glyph-name="uacute" unicode="&#xfa;" horiz-adv-x="557" 
d="M483 22q0 -12 -19 -17.5t-35 -5.5q-5 0 -9 2t-7.5 7t-5.5 9.5t-4 12.5t-3.5 12.5t-3 14t-2.5 12.5q-67 -75 -156 -75q-76 0 -119.5 43t-43.5 119v347q0 22 40 22h4q40 0 40 -22v-339q0 -46 26.5 -71.5t75.5 -25.5q72 0 126 70v366q0 22 40 22h4q40 0 40 -22v-355
q0 -23 1 -44t3 -34.5t4 -24t3 -16.5t1 -7zM387 739q0 -7 -9.5 -19t-46.5 -54l-38 -43q-17 -18 -51 -18q-23 0 -23 10t58 111q15 26 62 26q48 0 48 -13z" />
    <glyph glyph-name="ucircumflex" unicode="&#xfb;" horiz-adv-x="557" 
d="M483 22q0 -12 -19 -17.5t-35 -5.5q-5 0 -9 2t-7.5 7t-5.5 9.5t-4 12.5t-3.5 12.5t-3 14t-2.5 12.5q-67 -75 -156 -75q-76 0 -119.5 43t-43.5 119v347q0 22 40 22h4q40 0 40 -22v-339q0 -46 26.5 -71.5t75.5 -25.5q72 0 126 70v366q0 22 40 22h4q40 0 40 -22v-355
q0 -23 1 -44t3 -34.5t4 -24t3 -16.5t1 -7zM396 599q0 -15 -26 -15q-19 0 -33 13l-63 74l-61 -74q-14 -13 -36 -13q-23 0 -23 14q0 8 6 18l56 88q15 22 46 22h25q31 0 46 -22l57 -88q6 -9 6 -17z" />
    <glyph glyph-name="udieresis" unicode="&#xfc;" horiz-adv-x="557" 
d="M483 22q0 -12 -19 -17.5t-35 -5.5q-5 0 -9 2t-7.5 7t-5.5 9.5t-4 12.5t-3.5 12.5t-3 14t-2.5 12.5q-67 -75 -156 -75q-76 0 -119.5 43t-43.5 119v347q0 22 40 22h4q40 0 40 -22v-339q0 -46 26.5 -71.5t75.5 -25.5q72 0 126 70v366q0 22 40 22h4q40 0 40 -22v-355
q0 -23 1 -44t3 -34.5t4 -24t3 -16.5t1 -7zM245 680v-51q0 -22 -40 -22h-4q-40 0 -40 22v51q0 22 40 22h4q40 0 40 -22zM389 680v-51q0 -22 -40 -22h-4q-40 0 -40 22v51q0 22 40 22h4q40 0 40 -22z" />
    <glyph glyph-name="yacute" unicode="&#xfd;" horiz-adv-x="481" 
d="M447 -21q0 -77 -60 -134t-166 -57q-62 0 -113 18.5t-51 36.5q0 12 12 31.5t22 19.5q3 0 11 -4q1 0 12.5 -6t19.5 -9t22.5 -7.5t32 -6.5t37.5 -2q66 0 102.5 36t36.5 87v86q-66 -74 -151 -74q-76 0 -119.5 43t-43.5 119v347q0 22 40 22h4q40 0 40 -22v-339
q0 -46 26.5 -71.5t75.5 -25.5q72 0 126 70v366q0 22 40 22h4q40 0 40 -22v-355v-169zM352 739q0 -7 -9.5 -19t-46.5 -54l-38 -43q-16 -18 -51 -18q-23 0 -23 10t58 111q15 26 62 26q48 0 48 -13z" />
    <glyph glyph-name="thorn" unicode="&#xfe;" horiz-adv-x="570" 
d="M427 254q0 97 -32 149.5t-91 52.5q-72 0 -135 -69v-274q54 -45 121 -45h6q64 0 97.5 48t33.5 138zM515 265v-9q0 -123 -56 -192.5t-147 -69.5q-77 0 -143 51v-231q0 -22 -40 -22h-4q-40 0 -40 22v916q0 22 40 22h4q40 0 40 -22v-269q69 68 152 68q89 0 141.5 -74
t52.5 -190z" />
    <glyph glyph-name="ydieresis" unicode="&#xff;" horiz-adv-x="481" 
d="M447 -21q0 -77 -60 -134t-166 -57q-62 0 -113 18.5t-51 36.5q0 12 12 31.5t22 19.5q3 0 11 -4q1 0 12.5 -6t19.5 -9t22.5 -7.5t32 -6.5t37.5 -2q66 0 102.5 36t36.5 87v86q-66 -74 -151 -74q-76 0 -119.5 43t-43.5 119v347q0 22 40 22h4q40 0 40 -22v-339
q0 -46 26.5 -71.5t75.5 -25.5q72 0 126 70v366q0 22 40 22h4q40 0 40 -22v-355v-169zM210 680v-51q0 -22 -40 -22h-4q-40 0 -40 22v51q0 22 40 22h4q40 0 40 -22zM354 680v-51q0 -22 -40 -22h-4q-40 0 -40 22v51q0 22 40 22h4q40 0 40 -22z" />
    <glyph glyph-name="dotlessi" unicode="&#x131;" horiz-adv-x="265" 
d="M175 503v-483q0 -22 -40 -22h-4q-40 0 -40 22v483q0 22 40 22h4q40 0 40 -22z" />
    <glyph glyph-name="Lslash" unicode="&#x141;" horiz-adv-x="486" 
d="M484 46v-16q0 -30 -20 -30h-349q-30 0 -30 30v318l-68 -40q-5 -4 -10 -4q-9 0 -9 14v6q0 19 19 30l68 40v286q0 22 40 22h8q40 0 40 -22v-233l108 64q8 4 10 4q9 0 9 -14v-6q0 -19 -19 -30l-108 -64v-325h291q20 0 20 -30z" />
    <glyph glyph-name="lslash" unicode="&#x142;" horiz-adv-x="293" 
d="M282 24q0 -30 -73 -30q-50 0 -89.5 30.5t-39.5 107.5v221l-42 -25q-5 -4 -10 -4q-9 0 -9 14v6q0 19 19 30l42 24v332q0 22 40 22h4q40 0 40 -22v-282l42 25q8 4 10 4q9 0 9 -14v-6q0 -19 -19 -30l-42 -25v-262q0 -74 54 -74q17 0 29 2.5t14 2.5q9 0 15 -18.5t6 -28.5z
" />
    <glyph glyph-name="OE" unicode="&#x152;" horiz-adv-x="1021" 
d="M583 352q0 137 -56 207.5t-162 70.5t-161.5 -70.5t-55.5 -207.5q0 -138 55.5 -210t161.5 -72t162 72t56 210zM988 46v-16q0 -30 -20 -30h-353q-30 0 -30 30v48q-77 -84 -220 -84q-150 0 -229 91.5t-79 266.5t78.5 264.5t229.5 89.5q143 0 220 -82v46q0 30 30 30h352
q20 0 20 -30v-16q0 -30 -20 -30h-294v-228h264q20 0 20 -30v-16q0 -30 -20 -30h-264v-244h295q20 0 20 -30z" />
    <glyph glyph-name="oe" unicode="&#x153;" horiz-adv-x="871" 
d="M399 397q-34 60 -115 60q-73 0 -107 -47.5t-34 -148.5q0 -100 34 -147.5t107 -47.5q80 0 114 56q-21 56 -21 136q0 82 22 139zM467 299h260q0 158 -120 158q-129 0 -140 -158zM816 268q0 -9 -12 -25t-21 -16h-316q6 -83 43 -122t111 -39q38 0 72 10.5t53 21t21 10.5
q10 0 22.5 -20t12.5 -30q0 -20 -54.5 -42t-125.5 -22q-117 0 -176 56q-58 -56 -159 -56q-113 0 -172.5 68t-59.5 197q0 130 60 200t172 70q102 0 159 -59q59 59 164 59q102 0 154 -66.5t52 -194.5z" />
    <glyph glyph-name="Scaron" unicode="&#x160;" horiz-adv-x="500" 
d="M466 191q0 -92 -60 -144.5t-162 -52.5q-82 0 -144.5 25t-62.5 48q0 12 13.5 33t21.5 21q3 0 25 -12.5t62 -25.5t85 -13q58 0 94.5 33t36.5 88q0 47 -33.5 77t-81.5 47.5t-95.5 37.5t-81 62t-33.5 107q0 83 61 133.5t161 50.5q49 0 105 -18t56 -43q0 -11 -12.5 -32
t-19.5 -21q-4 0 -21 9.5t-46 19t-64 9.5q-59 0 -94 -28.5t-35 -83.5q0 -29 18 -50.5t46.5 -35t63.5 -26t69.5 -29t63 -38.5t46.5 -60t18 -88zM379 889q0 -8 -6 -17l-57 -88q-15 -22 -46 -22h-25q-31 0 -46 22l-56 88q-6 10 -6 18q0 14 23 14q22 0 36 -13l61 -74l63 74
q14 13 33 13q26 0 26 -15z" />
    <glyph glyph-name="scaron" unicode="&#x161;" horiz-adv-x="413" 
d="M372 152q0 -68 -49.5 -113t-123.5 -45q-64 0 -114 20.5t-50 39.5q0 10 12.5 30t22.5 20q1 0 16 -9.5t43 -19t59 -9.5q48 0 73.5 22.5t25.5 63.5q0 36 -22.5 57.5t-78.5 37.5q-78 22 -108 51.5t-30 82.5q0 67 46 107.5t120 40.5q51 0 91 -13t40 -29q0 -13 -11.5 -33.5
t-20.5 -20.5q-1 0 -12.5 6t-33 12t-45.5 6q-41 0 -64.5 -17.5t-23.5 -47.5q0 -26 17.5 -42t59.5 -29q94 -29 127.5 -63.5t33.5 -105.5zM332 709q0 -8 -6 -17l-57 -88q-15 -22 -46 -22h-25q-31 0 -46 22l-56 88q-6 10 -6 18q0 14 23 14q22 0 36 -13l61 -74l63 74q14 13 33 13
q26 0 26 -15z" />
    <glyph glyph-name="Ydieresis" unicode="&#x178;" horiz-adv-x="559" 
d="M541 685q0 -7 -8 -18l-210 -311v-336q0 -22 -40 -22h-8q-40 0 -40 22v339l-209 308q-8 11 -8 18q0 17 46 17h11q33 0 43 -15l164 -246l168 247q9 14 45 14q46 0 46 -17zM249 860v-51q0 -22 -40 -22h-4q-40 0 -40 22v51q0 22 40 22h4q40 0 40 -22zM393 860v-51
q0 -22 -40 -22h-4q-40 0 -40 22v51q0 22 40 22h4q40 0 40 -22z" />
    <glyph glyph-name="Zcaron" unicode="&#x17d;" horiz-adv-x="616" 
d="M571 647q0 -7 -3 -12l-410 -559h391q20 0 20 -34v-8q0 -34 -20 -34h-487q-7 0 -15.5 19t-8.5 34q0 7 3 12l410 559h-360q-20 0 -20 34v8q0 34 20 34h458q6 0 14 -19t8 -34zM429 890q0 -8 -6 -17l-57 -88q-15 -22 -46 -22h-25q-31 0 -46 22l-56 88q-6 11 -6 18q0 14 23 14
q22 0 36 -13l61 -74l63 74q14 13 33 13q26 0 26 -15z" />
    <glyph glyph-name="zcaron" unicode="&#x17e;" horiz-adv-x="489" 
d="M449 42v-12q0 -30 -20 -30h-370q-6 0 -14 18t-8 33q0 7 3 11l293 389h-256q-20 0 -20 30v12q0 30 20 30h351q7 0 13.5 -18.5t6.5 -33.5q0 -6 -2 -10l-292 -389h275q20 0 20 -30zM375 709q0 -8 -6 -17l-57 -88q-15 -22 -46 -22h-25q-31 0 -46 22l-56 88q-6 10 -6 18
q0 14 23 14q22 0 36 -13l61 -74l63 74q14 13 33 13q26 0 26 -15z" />
    <glyph glyph-name="florin" unicode="&#x192;" horiz-adv-x="332" 
d="M345 726q-12 -47 -28 -47q-2 0 -13.5 2.5t-28.5 2.5q-26 0 -42.5 -14.5t-22.5 -59.5l-13 -97h87q17 0 17 -20q0 -10 -1.5 -20.5t-8.5 -21t-17 -10.5h-87l-88 -626q-3 -22 -43 -22h-4q-37 0 -37 22l88 626h-40q-17 0 -17 19q0 7 3 23q4 30 24 30h40l14 105
q11 79 54.5 108.5t94.5 29.5q69 0 69 -30z" />
    <glyph glyph-name="circumflex" unicode="&#x2c6;" 
d="M278 599q0 -15 -26 -15q-19 0 -33 13l-63 74l-61 -74q-14 -13 -36 -13q-23 0 -23 14q0 8 6 18l56 88q15 22 46 22h25q31 0 46 -22l57 -88q6 -9 6 -17z" />
    <glyph glyph-name="caron" unicode="&#x2c7;" 
d="M277 709q0 -8 -6 -17l-57 -88q-15 -22 -46 -22h-25q-31 0 -46 22l-56 88q-6 10 -6 18q0 14 23 14q22 0 36 -13l61 -74l63 74q14 13 33 13q26 0 26 -15z" />
    <glyph glyph-name="breve" unicode="&#x2d8;" 
d="M302 700q0 -54 -43 -84.5t-101 -30.5q-59 0 -102 30.5t-43 84.5q0 15 15 15q6 0 9.5 -2t4.5 -4.5l3.5 -8.5t4.5 -10q21 -39 108 -39q86 0 107 39q2 4 3.5 8.5t2.5 7t3 5t5 3.5t8 1q15 0 15 -15z" />
    <glyph glyph-name="dotaccent" unicode="&#x2d9;" 
d="M204 680v-51q0 -22 -40 -22h-4q-40 0 -40 22v51q0 22 40 22h4q40 0 40 -22z" />
    <glyph glyph-name="ring" unicode="&#x2da;" 
d="M210 648q0 21 -14.5 35.5t-35.5 14.5t-35 -14.5t-14 -35.5t14 -35t35 -14t35.5 14t14.5 35zM245 648q0 -35 -25 -59.5t-60 -24.5t-59.5 24.5t-24.5 59.5t24.5 60t59.5 25t60 -25t25 -60z" />
    <glyph glyph-name="ogonek" unicode="&#x2db;" 
d="M254 -128v-9q0 -46 -82 -46q-37 0 -63 11.5t-36.5 29.5t-14.5 32.5t-4 28.5q0 12 2 26t7 30.5t16.5 27.5t26.5 11h9q18 0 18 -15q0 -6 -6 -27t-6 -34q0 -51 62 -51q7 0 25.5 5t26.5 5q19 0 19 -25z" />
    <glyph glyph-name="tilde" unicode="&#x2dc;" horiz-adv-x="365" 
d="M342 671q0 -19 -34 -37.5t-73 -18.5q-29 0 -70 10t-58 10q-9 0 -26 -6.5t-28 -6.5t-20 10.5t-9 19.5q0 19 34 37.5t73 18.5q29 0 69.5 -10t58.5 -10q14 0 29.5 6.5t24.5 6.5q10 0 19.5 -11t9.5 -19z" />
    <glyph glyph-name="hungarumlaut" unicode="&#x2dd;" horiz-adv-x="384" 
d="M227 739q0 -7 -9.5 -19t-46.5 -54l-38 -43q-17 -18 -51 -18q-23 0 -23 10t58 111q15 26 62 26q48 0 48 -13zM374 739q0 -7 -9.5 -19t-46.5 -54l-38 -43q-16 -18 -51 -18q-23 0 -23 10t58 111q15 26 62 26q48 0 48 -13z" />
    <glyph glyph-name="pi" unicode="&#x3c0;" horiz-adv-x="616" 
d="M592 504q0 -5 -3 -31q-2 -22 -31 -22h-55v-297q0 -39 4.5 -81.5t4.5 -49.5q0 -25 -26 -25h-24q-28 0 -35.5 30.5t-7.5 117.5v305h-195q-5 -99 -26 -226t-47 -202q-9 -25 -34 -25h-23q-28 0 -28 21q0 3 2 9q27 82 47 202t25 221q-46 0 -75 -4.5t-31 -4.5q-20 0 -20 37
q0 44 148 44h406q24 0 24 -19z" />
    <glyph glyph-name="endash" unicode="&#x2013;" horiz-adv-x="500" 
d="M500 270v-10q0 -30 -20 -30h-460q-20 0 -20 30v10q0 30 20 30h460q20 0 20 -30z" />
    <glyph glyph-name="emdash" unicode="&#x2014;" horiz-adv-x="1000" 
d="M1000 270v-10q0 -30 -20 -30h-960q-20 0 -20 30v10q0 30 20 30h960q20 0 20 -30z" />
    <glyph glyph-name="quoteleft" unicode="&#x2018;" horiz-adv-x="212" 
d="M190 724q0 -6 -9 -24q-34 -65 -34 -153q0 -32 -40 -32h-9q-40 0 -40 28q0 81 36.5 138.5t66.5 57.5q29 0 29 -15z" />
    <glyph glyph-name="quoteright" unicode="&#x2019;" horiz-adv-x="212" 
d="M164 726q0 -81 -36.5 -138.5t-66.5 -57.5q-29 0 -29 15q0 6 9 24q34 68 34 153q0 32 40 32h9q40 0 40 -28z" />
    <glyph glyph-name="quotesinglbase" unicode="&#x201a;" horiz-adv-x="198" 
d="M144 80q0 -81 -36.5 -138.5t-66.5 -57.5q-29 0 -29 15q0 6 9 24q34 68 34 153q0 32 40 32h9q40 0 40 -28z" />
    <glyph glyph-name="quotedblleft" unicode="&#x201c;" horiz-adv-x="350" 
d="M172 724q0 -6 -9 -24q-34 -65 -34 -153q0 -32 -40 -32h-9q-40 0 -40 28q0 81 36.5 138.5t66.5 57.5q29 0 29 -15zM311 724q0 -6 -9 -24q-34 -65 -34 -153q0 -32 -40 -32h-9q-40 0 -40 28q0 81 36.5 138.5t66.5 57.5q29 0 29 -15z" />
    <glyph glyph-name="quotedblright" unicode="&#x201d;" horiz-adv-x="350" 
d="M166 726q0 -81 -36.5 -138.5t-66.5 -57.5q-29 0 -29 15q0 6 9 24q34 68 34 153q0 32 40 32h9q40 0 40 -28zM305 726q0 -81 -36.5 -138.5t-66.5 -57.5q-29 0 -29 15q0 6 9 24q34 68 34 153q0 32 40 32h9q40 0 40 -28z" />
    <glyph glyph-name="quotedblbase" unicode="&#x201e;" horiz-adv-x="336" 
d="M144 80q0 -81 -36.5 -138.5t-66.5 -57.5q-29 0 -29 15q0 6 9 24q34 68 34 153q0 32 40 32h9q40 0 40 -28zM283 80q0 -81 -36.5 -138.5t-66.5 -57.5q-29 0 -29 15q0 6 9 24q34 68 34 153q0 32 40 32h9q40 0 40 -28z" />
    <glyph glyph-name="dagger" unicode="&#x2020;" horiz-adv-x="535" 
d="M486 472v-20q0 -30 -20 -30h-157v-540q0 -22 -40 -22q-42 0 -42 22v540h-158q-20 0 -20 30v20q0 30 20 30h158v178q0 22 42 22q40 0 40 -22v-178h157q20 0 20 -30z" />
    <glyph glyph-name="daggerdbl" unicode="&#x2021;" horiz-adv-x="535" 
d="M486 110v-20q0 -30 -20 -30h-157v-178q0 -22 -40 -22q-42 0 -42 22v178h-158q-20 0 -20 30v20q0 30 20 30h158v282h-158q-20 0 -20 30v20q0 30 20 30h158v178q0 22 42 22q40 0 40 -22v-178h157q20 0 20 -30v-20q0 -30 -20 -30h-157v-282h157q20 0 20 -30z" />
    <glyph glyph-name="bullet" unicode="&#x2022;" horiz-adv-x="336" 
d="M293 326q0 -52 -36.5 -88.5t-89.5 -36.5t-89 36.5t-36 88.5q0 53 36.5 89.5t88.5 36.5q53 0 89.5 -37t36.5 -89z" />
    <glyph glyph-name="ellipsis" unicode="&#x2026;" horiz-adv-x="617" 
d="M148 86v-66q0 -22 -40 -22h-17q-40 0 -40 22v66q0 22 40 22h17q40 0 40 -22zM357 86v-66q0 -22 -40 -22h-17q-40 0 -40 22v66q0 22 40 22h17q40 0 40 -22zM565 86v-66q0 -22 -40 -22h-17q-40 0 -40 22v66q0 22 40 22h17q40 0 40 -22z" />
    <glyph glyph-name="perthousand" unicode="&#x2030;" horiz-adv-x="1038" 
d="M602 156q0 22 -2 38t-8.5 34t-22.5 28t-40 10q-23 0 -38.5 -10t-22 -28t-8.5 -34t-2 -38q0 -29 3.5 -49.5t20.5 -38.5t47 -18q73 0 73 106zM274 542q0 22 -2 38t-8.5 34t-22.5 28t-40 10q-23 0 -38.5 -10t-22 -28t-8.5 -34t-2 -38q0 -29 3.5 -49.5t20.5 -38.5t47 -18
q73 0 73 106zM914 156q0 22 -2 38t-8.5 34t-22.5 28t-40 10q-23 0 -38.5 -10t-22 -28t-8.5 -34t-2 -38q0 -29 3.5 -49.5t20.5 -38.5t47 -18q73 0 73 106zM666 156q0 -90 -40 -125.5t-97 -35.5q-137 0 -137 161q0 164 137 164q57 0 97 -36.5t40 -127.5zM587 697q0 -2 -4 -10
l-373 -675q-10 -19 -40 -19h-5q-24 0 -24 9q0 5 4 10l373 675q10 19 40 19h5q24 0 24 -9zM338 542q0 -90 -40 -125.5t-97 -35.5q-137 0 -137 161q0 164 137 164q57 0 97 -36.5t40 -127.5zM978 156q0 -90 -40 -125.5t-97 -35.5q-137 0 -137 161q0 164 137 164q57 0 97 -36.5
t40 -127.5z" />
    <glyph glyph-name="guilsinglleft" unicode="&#x2039;" horiz-adv-x="300" 
d="M246 94q0 -10 -12 -21.5t-23 -11.5t-22 13l-130 156q-13 16 -13 28t13 28l130 156q11 12 22 12q10 0 22.5 -10t12.5 -22q0 -9 -8 -20l-111 -144l111 -145q8 -11 8 -19z" />
    <glyph glyph-name="guilsinglright" unicode="&#x203a;" horiz-adv-x="300" 
d="M254 258q0 -12 -13 -28l-130 -156q-11 -13 -22 -13t-23 11.5t-12 21.5q0 8 8 19l111 145l-111 144q-8 11 -8 20q0 12 12.5 22t22.5 10q11 0 22 -12l130 -156q13 -16 13 -28z" />
    <glyph glyph-name="fraction" unicode="&#x2044;" horiz-adv-x="264" 
d="M351 683q0 -7 -3 -15l-361 -648q-12 -23 -33 -23h-4q-26 0 -26 20q0 7 3 15l361 648q12 23 35 23h4q24 0 24 -20z" />
    <glyph glyph-name="Euro" unicode="&#x20ac;" horiz-adv-x="600" 
d="M550 66q0 -23 -57 -47.5t-130 -24.5q-251 0 -288 242h-55q-20 0 -20 30v7q0 30 20 30h49q-1 15 -1 47q0 31 1 46h-49q-20 0 -20 30v7q0 30 20 30h57q20 120 95.5 181.5t192.5 61.5q64 0 117.5 -20.5t53.5 -41.5q0 -13 -12.5 -33.5t-21.5 -20.5q-2 0 -19 11t-49.5 22
t-70.5 11q-82 0 -131 -40.5t-66 -130.5h278q20 0 20 -30v-7q0 -30 -20 -30h-286q-1 -15 -1 -47t1 -46h286q20 0 20 -30v-7q0 -30 -20 -30h-278q17 -87 67 -128.5t122 -41.5q42 0 79 12.5t58 25t23 12.5q9 0 22 -20.5t13 -29.5z" />
    <glyph glyph-name="trademark" unicode="&#x2122;" horiz-adv-x="772" 
d="M316 683v-9q0 -17 -11 -17h-106v-340q0 -12 -23 -12h-4q-23 0 -23 12v340h-108q-11 0 -11 17v9q0 17 11 17h264q11 0 11 -17zM725 689v-372q0 -12 -22 -12h-4q-23 0 -23 12v303l-113 -197q-4 -7 -12 -7h-23q-8 0 -12 7l-115 200v-306q0 -12 -23 -12h-4q-22 0 -22 12v372
q0 12 22 12h21q18 0 23 -10l107 -185l14 -35l15 32l106 188q7 10 24 10h19q22 0 22 -12z" />
    <glyph glyph-name="Omega" unicode="&#x2126;" horiz-adv-x="731" 
d="M689 38v-8q0 -30 -20 -30h-237q-20 0 -20 30v4q0 16 7 18q164 42 164 300q0 137 -56 207.5t-162 70.5t-161.5 -70.5t-55.5 -207.5q0 -259 163 -300q7 -2 7 -18v-4q0 -30 -20 -30h-237q-20 0 -20 30v8q0 30 20 30h38l59 -4q-101 93 -101 288q0 175 78.5 264.5t229.5 89.5
t230 -89.5t79 -264.5q0 -195 -102 -288l59 4h38q20 0 20 -30z" />
    <glyph glyph-name="arrowleft" unicode="&#x2190;" horiz-adv-x="750" 
d="M751 271v-10q0 -30 -22 -30h-603l213 -209q10 -10 10 -14q0 -7 -19 -7h-55q-20 0 -34 14l-234 233q-7 7 -7 16v4q0 9 7 16l233 232q14 14 34 14h55q19 0 19 -7q0 -4 -10 -14l-212 -208h603q22 0 22 -30z" />
    <glyph glyph-name="arrowup" unicode="&#x2191;" horiz-adv-x="529" 
d="M528 325v-55q0 -20 -14 -34l-232 -233q-7 -7 -16 -7h-4q-9 0 -16 7l-233 234q-14 14 -14 34v55q0 19 7 19q4 0 14 -10l209 -213v564q0 22 30 22h10q30 0 30 -22v-564l208 212q10 10 14 10q7 0 7 -19z" />
    <glyph glyph-name="arrowright" unicode="&#x2192;" horiz-adv-x="750" 
d="M750 267v-4q0 -9 -7 -16l-233 -232q-14 -14 -34 -14h-55q-19 0 -19 7q0 4 10 14l212 208h-602q-22 0 -22 30v10q0 30 22 30h602l-213 209q-10 10 -10 14q0 7 19 7h55q20 0 34 -14l234 -233q7 -7 7 -16z" />
    <glyph glyph-name="arrowdown" unicode="&#x2193;" horiz-adv-x="529" 
d="M529 435v-55q0 -19 -7 -19q-4 0 -14 10l-209 213v-564q0 -22 -30 -22h-10q-30 0 -30 22v564l-208 -212q-10 -10 -14 -10q-7 0 -7 19v55q0 20 14 34l232 233q7 7 16 7h4q9 0 16 -7l233 -234q14 -14 14 -34z" />
    <glyph glyph-name="partialdiff" unicode="&#x2202;" horiz-adv-x="514" 
d="M379 294q-50 50 -120 50q-56 0 -91.5 -47t-35.5 -107q0 -50 26.5 -89.5t80.5 -39.5q61 0 97.5 67t42.5 166zM480 337q0 -98 -24 -169t-63 -107t-77.5 -51.5t-77.5 -15.5q-32 0 -63.5 10t-63.5 31.5t-51.5 64t-19.5 99.5q0 55 21 98t53 67.5t66 37t65 12.5q85 0 136 -55
q0 137 -53 221.5t-129 84.5q-26 0 -48 -7.5t-34 -15t-15 -7.5q-8 0 -20 17t-12 27q0 22 46.5 40.5t95.5 18.5q118 0 193 -106t75 -295z" />
    <glyph glyph-name="Delta" unicode="&#x2206;" horiz-adv-x="708" 
d="M116 68h471l-232 551h-5zM673 30q0 -30 -30 -30h-579q-30 0 -30 30q0 18 8 37l264 620q10 23 35 23h26q25 0 35 -23l263 -620q8 -21 8 -37z" />
    <glyph glyph-name="product" unicode="&#x220f;" horiz-adv-x="750" 
d="M725 670v-12q0 -30 -20 -30h-103v-710q0 -22 -40 -22h-6q-40 0 -40 22v710h-283v-710q0 -22 -40 -22h-6q-40 0 -40 22v710h-103q-20 0 -20 30v12q0 30 20 30h661q20 0 20 -30z" />
    <glyph glyph-name="summation" unicode="&#x2211;" horiz-adv-x="593" 
d="M572 -47v-25q0 -30 -30 -30h-489q-30 0 -30 30q0 19 13 36l263 336l-252 338q-12 16 -12 38q0 24 30 24h459q30 0 30 -30v-12q0 -30 -30 -30h-358v-4l215 -292q8 -11 8 -21q0 -12 -8 -21l-236 -303l1 -4h396q30 0 30 -30z" />
    <glyph glyph-name="minus" unicode="&#x2212;" horiz-adv-x="560" 
d="M522 229v-13q0 -30 -20 -30h-444q-20 0 -20 30v13q0 30 20 30h444q20 0 20 -30z" />
    <glyph glyph-name="radical" unicode="&#x221a;" horiz-adv-x="618" 
d="M625 800q0 -5 -1 -8l-232 -921q-5 -21 -35 -21h-30q-29 0 -37 21l-162 425q-63 -24 -68 -24q-12 0 -16 13q-8 22 -8 28q0 12 14 18q14 5 49 19l56.5 22t25.5 8q14 0 22 -21l117 -325q10 -28 21 -72l203 830q5 21 39 21h12q30 0 30 -13z" />
    <glyph glyph-name="infinity" unicode="&#x221e;" horiz-adv-x="788" 
d="M361 276q-73 111 -154 111q-43 0 -69.5 -31t-26.5 -78q0 -43 28.5 -73t72.5 -30q66 0 149 101zM675 278q0 50 -27 79.5t-70 29.5q-25 0 -53 -17t-45 -34t-51 -54q51 -59 83 -83t69 -24q42 0 68 31.5t26 71.5zM738 284q0 -75 -48 -122t-112 -47q-88 0 -185 118
q-48 -57 -90.5 -87.5t-98.5 -30.5q-63 0 -109 47t-46 116q0 72 46.5 119t116.5 47q92 0 186 -116l30 31t34.5 34t31.5 24t43 21.5t46 5.5q68 0 111.5 -44.5t43.5 -115.5z" />
    <glyph glyph-name="integral" unicode="&#x222b;" horiz-adv-x="372" 
d="M361 838q0 -31 -16 -31l-5 1q-5 2 -12.5 3.5t-15.5 1.5q-49 0 -71 -47.5t-22 -153.5q0 -78 7 -257.5t7 -261.5q0 -252 -150 -252q-69 0 -69 33q0 31 16 31l5 -1q5 -2 13 -3.5t15 -1.5q49 0 71 47.5t22 153.5q0 83 -7 261.5t-7 257.5q0 252 150 252q69 0 69 -33z" />
    <glyph glyph-name="approxequal" unicode="&#x2248;" horiz-adv-x="547" 
d="M468 152q0 -18 -40 -35.5t-87 -17.5q-41 0 -94.5 13t-76.5 13q-15 0 -36 -5.5t-26 -5.5q-15 0 -24 16q-5 10 -5 17q0 17 40 34.5t87 17.5q40 0 94 -13t77 -13q15 0 36 5.5t26 5.5q11 0 20 -9t9 -23zM468 316q0 -18 -40 -35.5t-87 -17.5q-41 0 -94.5 13t-76.5 13
q-15 0 -36 -5.5t-26 -5.5q-15 0 -24 16q-5 10 -5 17q0 17 40 34.5t87 17.5q40 0 94 -13t77 -13q15 0 36 5.5t26 5.5q11 0 20 -9t9 -23z" />
    <glyph glyph-name="notequal" unicode="&#x2260;" horiz-adv-x="560" 
d="M512 145v-8q0 -30 -30 -30h-250l-64 -79q-14 -18 -37 -18h-11q-26 0 -26 17q0 9 9 20l48 60h-73q-30 0 -30 30v8q0 30 30 30h127l77 96h-204q-30 0 -30 30v7q0 30 30 30h258l61 75q14 18 37 18h11q25 0 25 -18q0 -10 -8 -19l-45 -56h65q30 0 30 -30v-7q0 -30 -30 -30
h-119l-77 -96h196q30 0 30 -30z" />
    <glyph glyph-name="lessequal" unicode="&#x2264;" horiz-adv-x="566" 
d="M518 43v-13q0 -30 -30 -30h-410q-30 0 -30 30v13q0 30 30 30h410q30 0 30 -30zM518 151v-14q0 -26 -20 -26q-8 0 -15 3l-411 174q-23 10 -23 35v17q0 25 23 35l411 174q7 3 15 3q20 0 20 -26v-14q0 -26 -23 -35l-356 -145l356 -146q23 -10 23 -35z" />
    <glyph glyph-name="greaterequal" unicode="&#x2265;" horiz-adv-x="566" 
d="M518 43v-13q0 -30 -30 -30h-410q-30 0 -30 30v13q0 30 30 30h410q30 0 30 -30zM517 340v-17q0 -25 -23 -35l-411 -174q-7 -3 -15 -3q-20 0 -20 26v14q0 25 23 35l356 146l-356 145q-23 9 -23 35v14q0 26 20 26q8 0 15 -3l411 -174q23 -10 23 -35z" />
    <glyph glyph-name="lozenge" unicode="&#x25ca;" horiz-adv-x="558" 
d="M281 49l155 298l-155 297l-154 -297zM508 347q0 -9 -6 -21l-176 -330q-12 -21 -35 -21h-19q-24 0 -35 21l-176 331q-6 11 -6 20t6 20l176 331q11 21 35 21h19q23 0 35 -21l176 -331q6 -11 6 -20z" />
    <glyph glyph-name="fi" unicode="&#xfb01;" horiz-adv-x="563" 
d="M310 726q0 -10 -6 -28.5t-15 -18.5q-2 0 -14 2.5t-29 2.5q-26 0 -40 -14.5t-14 -59.5v-87h87q20 0 20 -30v-12q0 -30 -20 -30h-87v-431q0 -22 -40 -22h-4q-40 0 -40 22v431h-40q-20 0 -20 30v12q0 30 20 30h40v95q0 42 12.5 71.5t33.5 42.5t41 18.5t42 5.5q73 0 73 -30z
M473 503v-483q0 -22 -40 -22h-4q-40 0 -40 22v483q0 22 40 22h4q40 0 40 -22zM477 730v-59q0 -22 -40 -22h-12q-40 0 -40 22v59q0 22 40 22h12q40 0 40 -22z" />
    <glyph glyph-name="fl" unicode="&#xfb02;" horiz-adv-x="591" 
d="M310 726q0 -10 -6 -28.5t-15 -18.5q-2 0 -14 2.5t-29 2.5q-26 0 -40 -14.5t-14 -59.5v-87h87q20 0 20 -30v-12q0 -30 -20 -30h-87v-431q0 -22 -40 -22h-4q-40 0 -40 22v431h-40q-20 0 -20 30v12q0 30 20 30h40v95q0 42 12.5 71.5t33.5 42.5t41 18.5t42 5.5q73 0 73 -30z
M582 24q0 -30 -73 -30q-50 0 -89.5 30.5t-39.5 107.5v598q0 22 40 22h4q40 0 40 -22v-590q0 -74 54 -74q17 0 29 2.5t14 2.5q9 0 15 -18.5t6 -28.5z" />
  </font>
</defs>
</svg>
