<?xml version="1.0" standalone="no"?>
<!DOCTYPE svg PUBLIC "-//W3C//DTD SVG 1.1//EN" "http://www.w3.org/Graphics/SVG/1.1/DTD/svg11.dtd" >
<svg>
<metadata>
Created by FontForge 20090622 at Thu May 17 06:39:46 2018
 By deploy user
Copyright (c) 2011 by Omnibus-Type (www.omnibus-type.com) with Reserved Font Name "Asap".
</metadata>
<defs>
<font id="mmAsap-Bold" horiz-adv-x="320" >
  <font-face 
    font-family="mmAsap"
    font-weight="700"
    font-stretch="normal"
    units-per-em="1000"
    panose-1="0 0 0 0 0 0 0 0 0 0"
    ascent="788"
    descent="-212"
    x-height="523"
    cap-height="703"
    bbox="-89 -212 1016 934"
    underline-thickness="70"
    underline-position="-23"
    unicode-range="U+0020-U+FB02"
  />
<missing-glyph horiz-adv-x="1000" 
 />
    <glyph glyph-name=".notdef" horiz-adv-x="1000" 
 />
    <glyph glyph-name=".null" horiz-adv-x="0" 
 />
    <glyph glyph-name="nonmarkingreturn" horiz-adv-x="333" 
 />
    <glyph glyph-name="space" unicode=" " horiz-adv-x="240" 
 />
    <glyph glyph-name="exclam" unicode="!" horiz-adv-x="294" 
d="M226 122v-92q0 -32 -60 -32h-32q-60 0 -60 32v92q0 32 60 32h32q60 0 60 -32zM257 674q0 -7 -50 -420q-2 -17 -12 -24.5t-39 -7.5h-11q-29 0 -40 7.5t-11 24.5v416q0 32 60 32h43q60 0 60 -28z" />
    <glyph glyph-name="quotedbl" unicode="&#x22;" horiz-adv-x="319" 
d="M149 670l-22 -176q-4 -30 -34 -30h-18q-30 0 -34 30l-22 171v5q0 32 60 32h10q60 0 60 -32zM300 670l-22 -176q-4 -30 -34 -30h-18q-30 0 -34 30l-22 171v5q0 32 60 32h10q60 0 60 -32z" />
    <glyph glyph-name="numbersign" unicode="#" horiz-adv-x="534" 
d="M308 293l21 110h-94l-21 -110h94zM525 463v-10q0 -50 -30 -50h-53l-21 -110h42q30 0 30 -50v-10q0 -50 -30 -50h-62l-29 -154q-6 -31 -55 -31h-13q-46 0 -46 23q0 5 1 8l29 154h-94l-29 -154q-6 -31 -55 -31h-13q-46 0 -46 23q0 5 1 8l29 154h-43q-30 0 -30 50v10
q0 50 30 50h63l21 110h-48q-30 0 -30 50v10q0 50 30 50h68l26 142q6 31 56 31h13q45 0 45 -22q0 -6 -1 -9l-26 -142h94l26 142q6 31 56 31h13q45 0 45 -22q0 -6 -1 -9l-26 -142h33q30 0 30 -50z" />
    <glyph glyph-name="dollar" unicode="$" horiz-adv-x="496" 
d="M333 196q0 40 -43 65v-127q43 18 43 62zM233 450v120q-52 -13 -52 -53q0 -38 52 -67zM480 214q0 -103 -54 -157t-136 -63v-45q0 -30 -27 -30q-30 0 -30 30v44q-96 3 -155 31t-59 56q0 23 23 56t39 33q6 0 26.5 -11.5t53 -23t67.5 -11.5h5v165q-38 14 -56.5 21.5t-51 27
t-49 39t-30 53t-13.5 74.5q0 92 57 143t143 60v32q0 30 27 30q30 0 30 -30v-31q69 -3 114.5 -24t45.5 -45q0 -22 -19 -54.5t-36 -32.5q-1 0 -34 12t-71 13v-152l54 -24t48 -27.5t47 -39t28 -50t13 -69.5z" />
    <glyph glyph-name="percent" unicode="%" horiz-adv-x="765" 
d="M242 540q0 82 -47 82q-48 0 -48 -82q0 -86 48 -86q47 0 47 86zM629 160q0 82 -47 82q-48 0 -48 -82q0 -86 48 -86q47 0 47 86zM345 540q0 -168 -150 -168t-150 168t150 168t150 -168zM624 688q0 -4 -5 -14l-357 -648q-16 -28 -44 -28h-44q-21 0 -21 13q0 5 5 15l357 648
q16 28 44 28h44q21 0 21 -14zM732 160q0 -168 -150 -168t-150 168t150 168t150 -168z" />
    <glyph glyph-name="ampersand" unicode="&#x26;" horiz-adv-x="624" 
d="M393 136v173h-103q-117 0 -117 -103q0 -46 27 -71.5t72 -25.5q59 0 121 27zM635 41q0 -49 -96 -49q-72 0 -109 40q-80 -40 -181 -40t-163.5 57t-62.5 155q0 135 116 179v4q-43 18 -68 56.5t-25 89.5q0 80 55.5 127.5t149.5 47.5q110 0 110 -42q0 -35 -11 -58.5t-24 -23.5
l-18 4q-17 3 -31 3q-40 0 -60.5 -22t-20.5 -60t27.5 -60.5t75.5 -22.5h94l13 95q5 32 54 32h31q50 0 50 -32v-95h49q30 0 30 -50v-17q0 -50 -30 -50h-49v-157q0 -43 36 -43q5 0 14.5 2t12.5 2q13 0 22 -29.5t9 -42.5z" />
    <glyph glyph-name="quotesingle" unicode="'" horiz-adv-x="183" 
d="M160 670l-22 -176q-4 -30 -34 -30h-18q-30 0 -34 30l-22 171v5q0 32 60 32h10q60 0 60 -32z" />
    <glyph glyph-name="parenleft" unicode="(" horiz-adv-x="301" 
d="M285 -162q0 -16 -20.5 -31t-36.5 -15q-15 0 -27 16q-150 215 -150 479q0 265 150 480q12 16 27 16q16 0 36.5 -15t20.5 -31q0 -11 -5 -20q-60 -112 -86 -214t-26 -216t26 -215.5t86 -213.5q5 -9 5 -20z" />
    <glyph glyph-name="parenright" unicode=")" horiz-adv-x="301" 
d="M247 287q0 -264 -150 -479q-12 -16 -27 -16q-16 0 -36.5 15t-20.5 31q0 11 5 20q60 112 86 213.5t26 215.5t-26 216t-86 214q-5 9 -5 20q0 16 20.5 31t36.5 15q15 0 27 -16q150 -215 150 -480z" />
    <glyph glyph-name="asterisk" unicode="*" horiz-adv-x="373" 
d="M329 586q0 -16 -22 -23l-76 -24l57 -79q8 -11 8 -20t-11.5 -19t-21.5 -10q-13 0 -23 15l-59 83l-59 -83q-11 -15 -23 -15q-11 0 -22.5 10t-11.5 19q0 10 9 20l56 79l-75 24q-22 7 -22 23q0 9 3 16q6 21 25 21q4 0 14 -2l77 -25v82q0 30 30 30t30 -30v-82l75 25q10 2 13 2
q11 0 20 -10t9 -27z" />
    <glyph glyph-name="plus" unicode="+" horiz-adv-x="560" 
d="M519 239v-7q0 -50 -30 -50h-153v-152q0 -30 -50 -30h-14q-50 0 -50 30v152h-151q-30 0 -30 50v7q0 50 30 50h151v154q0 30 50 30h14q50 0 50 -30v-154h153q30 0 30 -50z" />
    <glyph glyph-name="comma" unicode="," horiz-adv-x="198" 
d="M174 110q0 -53 -25.5 -109.5t-58 -91t-54.5 -34.5q-16 0 -30.5 5.5t-14.5 16.5q0 10 11 35.5t22 71.5t11 106q0 44 60 44h19q60 0 60 -44z" />
    <glyph glyph-name="hyphen" unicode="-" 
d="M292 269v-7q0 -50 -30 -50h-204q-30 0 -30 50v7q0 50 30 50h204q30 0 30 -50z" />
    <glyph glyph-name="period" unicode="." horiz-adv-x="198" 
d="M174 122v-92q0 -32 -60 -32h-32q-60 0 -60 32v92q0 32 60 32h32q60 0 60 -32z" />
    <glyph glyph-name="slash" unicode="/" horiz-adv-x="370" 
d="M392 686q0 -5 -3 -14l-291 -721q-12 -30 -61 -30h-24q-43 0 -43 16q0 2 4 14l291 721q12 30 61 30h24q42 0 42 -16z" />
    <glyph glyph-name="zero" unicode="0" horiz-adv-x="535" 
d="M354 350q0 241 -87 241t-87 -241t87 -241t87 241zM504 350q0 -168 -63 -263t-174 -95t-174 95t-63 263t63 263t174 95t174 -95t63 -263z" />
    <glyph glyph-name="one" unicode="1" horiz-adv-x="443" 
d="M353 680v-650q0 -33 -60 -33h-28q-60 0 -60 33v536l-136 -20q-17 0 -24.5 27.5t-7.5 56.5q0 23 26 28l249 46q12 2 26.5 -6.5t14.5 -17.5z" />
    <glyph glyph-name="two" unicode="2" horiz-adv-x="535" 
d="M489 67v-17q0 -50 -30 -50h-398q-10 0 -19 31.5t-9 56.5q0 10 3 15l253 310q38 47 38 96q0 39 -26 60t-67 21q-28 0 -53 -11t-41.5 -21.5t-22.5 -10.5q-22 0 -39.5 24t-17.5 45q0 42 61 67t138 25q103 0 160.5 -54t57.5 -142t-61 -163l-188 -232h231q30 0 30 -50z" />
    <glyph glyph-name="three" unicode="3" horiz-adv-x="535" 
d="M479 204q0 -98 -62.5 -155t-163.5 -57q-74 0 -145.5 20.5t-71.5 61.5q0 17 16.5 46.5t32.5 29.5q6 0 25.5 -10t52 -20.5t67.5 -10.5q45 0 72 25.5t27 71.5q0 51 -28 76.5t-89 25.5h-28q-30 0 -30 50v18q0 50 30 50h19q48 0 75.5 22.5t27.5 60.5t-20.5 59.5t-60.5 21.5
q-45 0 -80.5 -15.5t-37.5 -15.5q-15 0 -32.5 27.5t-17.5 48.5q0 35 56.5 54t137.5 19q94 0 149.5 -47.5t55.5 -127.5q0 -51 -25 -89.5t-68 -56.5v-4q116 -44 116 -179z" />
    <glyph glyph-name="four" unicode="4" horiz-adv-x="535" 
d="M160 259h150v229l-4 1zM526 209v-17q0 -50 -30 -50h-38v-112q0 -32 -60 -32h-28q-60 0 -60 32v112h-262q-12 0 -24.5 35t-12.5 58q0 7 2 11l297 437q13 19 61 19h27q60 0 60 -32v-411h38q30 0 30 -50z" />
    <glyph glyph-name="five" unicode="5" horiz-adv-x="535" 
d="M490 216q0 -61 -22.5 -106t-60.5 -70t-81.5 -36.5t-91.5 -11.5q-84 0 -140 21t-56 51q0 16 19 47.5t35 31.5q3 0 22 -8.5t51.5 -17t67.5 -8.5q49 0 78 27.5t29 75.5q0 55 -29 83t-96 28h-109q-22 0 -30.5 9.5t-6.5 30.5l19 297q2 21 11.5 30.5t30.5 9.5h295q30 0 30 -50
v-27q0 -40 -30 -40h-202l-10 -143h26q122 0 186.5 -51t64.5 -173z" />
    <glyph glyph-name="six" unicode="6" horiz-adv-x="535" 
d="M355 212q0 46 -24 72.5t-67 26.5q-36 0 -79 -24q-1 -15 -1 -46q0 -132 86 -132q36 0 60.5 29t24.5 74zM504 216q0 -58 -20.5 -103t-55 -70.5t-75 -38t-84.5 -12.5q-45 0 -85 14t-75 43.5t-55.5 82t-20.5 121.5q0 108 36 193.5t84.5 132t103.5 77t87.5 39.5t42.5 9
q22 0 36 -30.5t14 -52.5q0 -11 -2.5 -15t-10.5 -6q-118 -35 -182 -127q-22 -32 -35 -70q46 25 100 25q31 0 62.5 -11t63 -34t51.5 -66.5t20 -100.5z" />
    <glyph glyph-name="seven" unicode="7" horiz-adv-x="535" 
d="M494 610q0 -7 -2 -13l-263 -579q-9 -20 -58 -20h-37q-59 0 -59 19q0 7 6 19l248 547h-261q-30 0 -30 50v17q0 50 30 50h396q8 0 19 -33t11 -57z" />
    <glyph glyph-name="eight" unicode="8" horiz-adv-x="535" 
d="M356 200q0 28 -9 49t-29.5 35.5t-37 22.5t-47.5 19q-55 -40 -55 -116q0 -46 24 -73.5t67 -27.5q41 0 64 28t23 63zM339 524q0 30 -20 48.5t-48 18.5q-29 0 -49 -18t-20 -49q0 -35 21 -55t62 -37q54 36 54 92zM506 192q0 -36 -13 -70t-40 -64t-74 -48t-108 -18
q-121 0 -181.5 59.5t-60.5 149.5q0 67 28.5 112t72.5 62q-74 50 -74 144q0 79 57 134t163 55q94 0 150.5 -50.5t56.5 -123.5q0 -59 -22.5 -92.5t-64.5 -56.5q110 -50 110 -193z" />
    <glyph glyph-name="nine" unicode="9" horiz-adv-x="535" 
d="M349 458q0 132 -86 132q-36 0 -60.5 -29t-24.5 -74q0 -46 24 -72.5t67 -26.5q36 0 79 24q1 15 1 46zM500 446q0 -108 -36 -193.5t-84.5 -132t-103.5 -77t-87.5 -39.5t-42.5 -9q-22 0 -36 30.5t-14 52.5q0 11 2.5 15t10.5 6q118 35 182 127q22 32 35 70q-46 -25 -100 -25
q-31 0 -62.5 11t-63 34t-51.5 66.5t-20 100.5q0 58 20.5 103t55 70.5t75 38t84.5 12.5q45 0 85 -14t75 -43.5t55.5 -82t20.5 -121.5z" />
    <glyph glyph-name="colon" unicode=":" horiz-adv-x="198" 
d="M174 122v-92q0 -32 -60 -32h-32q-60 0 -60 32v92q0 32 60 32h32q60 0 60 -32zM174 493v-92q0 -32 -60 -32h-32q-60 0 -60 32v92q0 32 60 32h32q60 0 60 -32z" />
    <glyph glyph-name="semicolon" unicode=";" horiz-adv-x="198" 
d="M173 110q0 -53 -25.5 -109.5t-58 -91t-54.5 -34.5q-16 0 -30.5 5.5t-14.5 16.5q0 10 11 35.5t22 71.5t11 106q0 44 60 44h19q60 0 60 -44zM174 493v-92q0 -32 -60 -32h-32q-60 0 -60 32v92q0 32 60 32h32q60 0 60 -32z" />
    <glyph glyph-name="less" unicode="&#x3c;" horiz-adv-x="560" 
d="M516 68v-16q0 -42 -15 -42q-7 0 -15 4l-420 180q-28 11 -28 42v19q0 29 28 42l419 179q9 3 15 3q15 0 15 -41v-16q0 -49 -30 -61l-292 -116l293 -116q30 -12 30 -61z" />
    <glyph glyph-name="equal" unicode="=" horiz-adv-x="560" 
d="M519 143v-7q0 -50 -30 -50h-418q-30 0 -30 50v7q0 50 30 50h418q30 0 30 -50zM519 324v-7q0 -50 -30 -50h-418q-30 0 -30 50v7q0 50 30 50h418q30 0 30 -50z" />
    <glyph glyph-name="greater" unicode="&#x3e;" horiz-adv-x="560" 
d="M516 255v-19q0 -31 -28 -42l-420 -180q-8 -4 -15 -4q-15 0 -15 42v16q0 49 30 61l293 116l-292 116q-30 12 -30 61v16q0 41 15 41q6 0 15 -3l419 -179q28 -13 28 -42z" />
    <glyph glyph-name="question" unicode="?" horiz-adv-x="445" 
d="M262 122v-92q0 -32 -60 -32h-32q-60 0 -60 32v92q0 32 60 32h32q60 0 60 -32zM437 530q0 -43 -17.5 -78.5t-43 -60t-52 -45.5t-47.5 -46t-26 -51q-4 -15 -16 -21t-37 -6h-23q-49 0 -49 29q0 35 16 70t39 62l45.5 51.5t38.5 46.5t16 39q0 56 -74 56q-34 0 -72 -15.5
t-40 -15.5q-19 0 -41 32t-22 50q0 40 59 60.5t129 20.5q101 0 159 -48t58 -130z" />
    <glyph glyph-name="at" unicode="@" horiz-adv-x="974" 
d="M540 387q-25 23 -54 23q-42 0 -65.5 -42t-23.5 -121q0 -88 57 -88q34 0 65 48l13 131zM867 383q0 -136 -67.5 -230.5t-165.5 -94.5q-89 0 -114 64q-38 -64 -113 -64q-62 0 -98.5 47t-36.5 134q0 120 51.5 194.5t133.5 74.5q57 0 102 -45q6 23 16 31.5t36 8.5h12
q47 0 47 -26q0 -1 -15.5 -145t-15.5 -155q0 -36 35 -36q52 0 90.5 72t38.5 170q0 122 -74 196.5t-195 74.5q-162 0 -274 -120t-112 -294q0 -138 72.5 -223.5t189.5 -85.5q58 0 104.5 14.5t49.5 14.5q14 0 14 -33q0 -26 -56.5 -38t-111.5 -12q-145 0 -235.5 100.5
t-90.5 262.5q0 197 130 332.5t320 135.5q151 0 242 -89t91 -236z" />
    <glyph glyph-name="A" unicode="A" horiz-adv-x="613" 
d="M230 273h150l-57 178l-15 64h-4q-9 -47 -15 -64zM613 20q0 -22 -50 -22h-44q-49 0 -56 21l-40 122h-236l-40 -122q-7 -21 -46 -21h-40q-61 0 -61 22q0 4 4 18l220 643q8 21 57 21h52q49 0 57 -21l220 -643q3 -10 3 -18z" />
    <glyph glyph-name="B" unicode="B" horiz-adv-x="593" 
d="M413 212q0 78 -108 78h-82v-159h98q44 0 68 21t24 60zM385 496q0 74 -91 74h-71v-149h69q44 0 68.5 21t24.5 54zM571 203q0 -98 -62.5 -150.5t-187.5 -52.5h-212q-40 0 -40 40v620q0 40 40 40h198q122 0 179 -47t57 -130q0 -50 -30.5 -91.5t-77.5 -60.5l1 -4
q59 -12 97 -59t38 -105z" />
    <glyph glyph-name="C" unicode="C" horiz-adv-x="619" 
d="M597 76q0 -40 -74 -62t-149 -22q-168 0 -248.5 87.5t-80.5 272.5q0 356 334 356q73 0 141 -20t68 -50q0 -22 -23.5 -58t-41.5 -36q-3 0 -20.5 8t-51 16t-75.5 8q-173 0 -173 -225q0 -228 171 -228q42 0 79 10t59 20t26 10q21 0 40 -34.5t19 -52.5z" />
    <glyph glyph-name="D" unicode="D" horiz-adv-x="695" 
d="M495 350q0 107 -41 163t-121 56h-109v-438h109q80 0 121 56t41 163zM653 350q0 -169 -82.5 -259.5t-237.5 -90.5h-224q-40 0 -40 40v620q0 40 40 40h224q155 0 237.5 -90.5t82.5 -259.5z" />
    <glyph glyph-name="E" unicode="E" horiz-adv-x="546" 
d="M506 81v-31q0 -50 -30 -50h-367q-40 0 -40 40v620q0 40 40 40h366q30 0 30 -50v-31q0 -50 -30 -50h-252v-145h225q30 0 30 -50v-31q0 -50 -30 -50h-225v-162h253q30 0 30 -50z" />
    <glyph glyph-name="F" unicode="F" horiz-adv-x="503" 
d="M473 650v-31q0 -50 -30 -50h-220v-146h213q30 0 30 -50v-31q0 -50 -30 -50h-213v-262q0 -32 -60 -32h-34q-60 0 -60 32v630q0 40 40 40h334q30 0 30 -50z" />
    <glyph glyph-name="G" unicode="G" horiz-adv-x="672" 
d="M607 349v-278q0 -24 -25.5 -41t-65.5 -24.5t-74.5 -10.5t-67.5 -3q-168 0 -248.5 87.5t-80.5 272.5q0 356 334 356q73 0 143.5 -20.5t70.5 -49.5q0 -22 -23.5 -58t-41.5 -36q-3 0 -21.5 8t-53.5 16t-77 8q-173 0 -173 -225q0 -228 171 -228q40 0 78 7v127h-88
q-30 0 -30 50v32q0 50 30 50h203q40 0 40 -40z" />
    <glyph glyph-name="H" unicode="H" horiz-adv-x="733" 
d="M664 670v-640q0 -32 -60 -32h-35q-60 0 -60 32v261h-270v-261q0 -32 -60 -32h-35q-60 0 -60 32v640q0 32 60 32h35q60 0 60 -32v-247h270v247q0 32 60 32h35q60 0 60 -32z" />
    <glyph glyph-name="I" unicode="I" horiz-adv-x="282" 
d="M218 670v-640q0 -33 -60 -33h-35q-60 0 -60 33v640q0 33 60 33h35q60 0 60 -33z" />
    <glyph glyph-name="J" unicode="J" horiz-adv-x="402" 
d="M336 670v-468q0 -99 -52 -154.5t-160 -55.5q-14 0 -30.5 1.5t-40 5.5t-38.5 14t-15 25q0 23 10.5 57t30.5 36q2 0 19.5 -4t36.5 -4q45 0 64.5 24.5t19.5 79.5v443q0 33 60 33h35q60 0 60 -33z" />
    <glyph glyph-name="K" unicode="K" horiz-adv-x="576" 
d="M591 13q0 -15 -56 -15h-58q-50 0 -61 19l-188 304l-4 -1v-290q0 -32 -60 -32h-35q-60 0 -60 32v640q0 32 60 32h35q60 0 60 -32v-268l4 -1l174 282q11 19 60 19h47q56 0 56 -15q0 -9 -8 -21l-193 -296l219 -336q8 -12 8 -21z" />
    <glyph glyph-name="L" unicode="L" horiz-adv-x="484" 
d="M476 81v-31q0 -50 -30 -50h-337q-40 0 -40 40v630q0 32 60 32h34q60 0 60 -32v-539h223q30 0 30 -50z" />
    <glyph glyph-name="M" unicode="M" horiz-adv-x="863" 
d="M794 670v-640q0 -32 -60 -32h-29q-60 0 -60 32v436l-4 1l-153 -431q-14 -19 -40 -19h-33q-26 0 -40 19l-153 431l-4 -1v-436q0 -32 -60 -32h-29q-60 0 -60 32v640q0 32 60 32h86q53 0 63 -27l153 -435l148 435q9 27 73 27h82q60 0 60 -32z" />
    <glyph glyph-name="N" unicode="N" horiz-adv-x="719" 
d="M650 670v-640q0 -32 -60 -32h-38q-48 0 -66 27l-268 410v-405q0 -32 -60 -32h-29q-60 0 -60 32v640q0 32 60 32h43q48 0 66 -27l263 -405v400q0 32 60 32h29q60 0 60 -32z" />
    <glyph glyph-name="O" unicode="O" horiz-adv-x="731" 
d="M528 350q0 111 -41 168.5t-121 57.5t-121.5 -57.5t-41.5 -168.5t41.5 -169t121.5 -58t121 58t41 169zM686 350q0 -173 -82.5 -265.5t-237.5 -92.5t-238 92.5t-83 265.5t83 265.5t238 92.5t237.5 -92.5t82.5 -265.5z" />
    <glyph glyph-name="P" unicode="P" horiz-adv-x="570" 
d="M399 481q0 49 -25.5 68.5t-61.5 19.5h-89v-175h89q36 0 61.5 19t25.5 68zM557 481q0 -55 -19 -96.5t-45.5 -64t-60.5 -36.5t-58 -18t-45 -4h-106v-232q0 -32 -60 -32h-34q-60 0 -60 32v630q0 40 40 40h210q31 0 59.5 -4t62.5 -18t58.5 -36.5t41 -64t16.5 -96.5z" />
    <glyph glyph-name="Q" unicode="Q" horiz-adv-x="731" 
d="M528 350q0 111 -41 168.5t-121 57.5t-121.5 -57.5t-41.5 -168.5q0 -113 41.5 -172t121.5 -59t121 59t41 172zM696 -44q0 -20 -17 -61t-38 -41q-6 0 -117 44l-297 118q-89 35 -135.5 120t-46.5 214q0 173 83 265.5t238 92.5t237.5 -92.5t82.5 -265.5q0 -238 -157 -319v-4
l153 -55q14 -5 14 -16z" />
    <glyph glyph-name="R" unicode="R" horiz-adv-x="610" 
d="M395 493q0 35 -22.5 55.5t-61.5 20.5h-88v-162h95q31 0 54 25t23 61zM601 18q0 -20 -60 -20h-41q-50 0 -58 21l-79 195q-14 33 -34.5 46.5t-66.5 13.5h-39v-244q0 -32 -60 -32h-34q-60 0 -60 32v630q0 40 40 40h195q249 0 249 -188q0 -56 -31.5 -97.5t-85.5 -61.5v-4
q19 -7 39 -33.5t33 -58.5l88 -220q5 -13 5 -19z" />
    <glyph glyph-name="S" unicode="S" horiz-adv-x="500" 
d="M483 214q0 -60 -19.5 -104.5t-53 -69t-72 -36.5t-81.5 -12q-105 0 -170 29t-65 59q0 23 23 56t39 33q6 0 26.5 -11.5t53 -23t67.5 -11.5q94 0 94 73q0 32 -30 54t-72.5 38.5t-84.5 38t-72 66.5t-30 110q0 70 36 118t87.5 67.5t113.5 19.5q76 0 128 -22t52 -48
q0 -22 -19 -54.5t-36 -32.5q-4 0 -18 6.5t-39 12.5t-54 6q-52 0 -72.5 -18t-20.5 -41q0 -31 30 -52t72 -37t84.5 -37.5t72.5 -66.5t30 -110z" />
    <glyph glyph-name="T" unicode="T" horiz-adv-x="549" 
d="M541 650v-31q0 -50 -30 -50h-159v-539q0 -32 -60 -32h-35q-60 0 -60 32v539h-159q-30 0 -30 50v31q0 50 30 50h473q30 0 30 -50z" />
    <glyph glyph-name="U" unicode="U" horiz-adv-x="712" 
d="M646 670v-436q0 -115 -76 -178.5t-214 -63.5t-214 63.5t-76 178.5v436q0 32 60 32h34q60 0 60 -32v-426q0 -53 38 -87t98 -34t98.5 34t38.5 87v426q0 32 60 32h33q60 0 60 -32z" />
    <glyph glyph-name="V" unicode="V" horiz-adv-x="617" 
d="M608 680q0 -8 -3 -18l-216 -643q-7 -21 -56 -21h-52q-49 0 -56 21l-216 643q-4 14 -4 18q0 22 61 22h33q50 0 59 -29l146 -468h4l150 468q10 29 59 29h31q60 0 60 -22z" />
    <glyph glyph-name="W" unicode="W" horiz-adv-x="882" 
d="M886 676q0 -3 -2 -15l-163 -642q-6 -21 -55 -21h-73q-51 0 -55 21l-98 414l-102 -414q-4 -21 -55 -21h-72q-51 0 -55 21l-158 642q-2 6 -2 15q0 26 62 26h26q60 0 67 -31l75 -322q2 -7 31 -144q4 25 10.5 52t14 54.5t9.5 37.5l82 332q5 21 55 21h38q50 0 55 -21l79 -332
l34 -151l34 151l78 322q7 31 67 31h11q62 0 62 -26z" />
    <glyph glyph-name="X" unicode="X" horiz-adv-x="611" 
d="M603 17q0 -19 -63 -19h-39q-49 0 -60 19l-133 215l-138 -215q-13 -19 -61 -19h-38q-63 0 -63 19q0 9 10 25l206 323l-183 293q-10 17 -10 25q0 19 64 19h41q49 0 60 -19l114 -186l120 186q12 19 61 19h39q63 0 63 -19q0 -11 -10 -25l-189 -295l200 -321q9 -15 9 -25z" />
    <glyph glyph-name="Y" unicode="Y" horiz-adv-x="559" 
d="M565 682q0 -10 -9 -25l-199 -324v-303q0 -32 -60 -32h-34q-60 0 -60 32v306l-199 321q-10 17 -10 25q0 20 64 20h43q49 0 60 -19l122 -214l123 214q11 19 60 19h36q63 0 63 -20z" />
    <glyph glyph-name="Z" unicode="Z" horiz-adv-x="616" 
d="M580 81v-31q0 -50 -30 -50h-484q-12 0 -25.5 33.5t-13.5 55.5q0 6 2 10l335 470h-278q-30 0 -30 50v31q0 50 30 50h457q11 0 24 -35t13 -57q0 -6 -1 -8l-334 -469h305q30 0 30 -50z" />
    <glyph glyph-name="bracketleft" unicode="[" horiz-adv-x="291" 
d="M261 -83v-15q0 -40 -30 -40h-126q-40 0 -40 40v826q0 40 40 40h126q30 0 30 -40v-15q0 -40 -30 -40h-51v-716h51q30 0 30 -40z" />
    <glyph glyph-name="backslash" unicode="\" horiz-adv-x="361" 
d="M362 -6q0 -16 -43 -16h-24q-50 0 -60 30l-230 664q-3 8 -3 13q0 17 43 17h23q49 0 60 -30l231 -664q3 -7 3 -14z" />
    <glyph glyph-name="bracketright" unicode="]" horiz-adv-x="291" 
d="M227 728v-826q0 -40 -40 -40h-126q-30 0 -30 40v15q0 40 30 40h51v716h-51q-30 0 -30 40v15q0 40 30 40h126q40 0 40 -40z" />
    <glyph glyph-name="asciicircum" unicode="^" horiz-adv-x="450" 
d="M416 333q0 -15 -32 -15h-21q-39 0 -52 30l-86 207l-86 -207q-13 -30 -51 -30h-21q-32 0 -32 15q0 7 4 15l129 308q12 30 42 30h31q30 0 42 -30l129 -308q4 -8 4 -15z" />
    <glyph glyph-name="underscore" unicode="_" horiz-adv-x="534" 
d="M555 -86v-7q0 -50 -30 -50h-515q-30 0 -30 50v7q0 50 30 50h515q30 0 30 -50z" />
    <glyph glyph-name="grave" unicode="`" 
d="M264 610q0 -15 -31 -15q-52 0 -75 25l-67 72q-26 28 -31.5 35t-5.5 13q0 14 60 14q70 0 85 -27l24 -42t19 -31.5t12.5 -20.5t7.5 -15t2 -8z" />
    <glyph glyph-name="a" unicode="a" horiz-adv-x="565" 
d="M357 172v178q-9 26 -29.5 43.5t-43.5 17.5q-92 0 -92 -149t81 -149q50 0 84 59zM515 31q0 -16 -40.5 -24t-71.5 -8q-9 0 -15.5 4t-10.5 13t-6 15t-4.5 19.5t-3.5 16.5q-18 -33 -53.5 -54t-80.5 -21q-83 0 -135 71.5t-52 198.5q0 124 51.5 196.5t146.5 72.5q42 0 77 -22
t51 -47l3 22q0 1 0.5 6t1 6.5t1.5 5.5t2 5.5t2.5 4.5t3.5 4.5t5.5 3.5t7 3t9 1.5t11.5 0.5h28q60 0 60 -32v-317q0 -62 6 -104z" />
    <glyph glyph-name="b" unicode="b" horiz-adv-x="569" 
d="M377 262q0 152 -93 152q-36 0 -70 -19v-223q34 -59 82 -59q81 0 81 149zM527 262q0 -127 -52 -198.5t-135 -71.5q-45 0 -80.5 21t-53.5 54l-10 -43q-6 -26 -58 -26h-12q-60 0 -60 32v692q0 32 60 32h28q60 0 60 -32v-222q43 31 102 31q100 0 155.5 -72.5t55.5 -196.5z
" />
    <glyph glyph-name="c" unicode="c" horiz-adv-x="485" 
d="M469 62q0 -19 -22 -34t-53.5 -22t-57.5 -10.5t-42 -3.5q-128 0 -190 65.5t-62 200.5q0 136 62.5 204.5t194.5 68.5q61 0 113.5 -18.5t52.5 -50.5q0 -15 -20.5 -46t-32.5 -31q-4 0 -18 7q-44 22 -87 22q-59 0 -86 -37t-27 -115t25.5 -115.5t81.5 -37.5q49 0 98 23
q16 6 18 6q15 0 33.5 -29.5t18.5 -46.5z" />
    <glyph glyph-name="d" unicode="d" horiz-adv-x="565" 
d="M355 172v223q-34 19 -70 19q-93 0 -93 -152q0 -149 81 -149q48 0 82 59zM515 31q0 -16 -40.5 -24t-71.5 -8q-9 0 -15.5 4t-10.5 13t-6 15t-4.5 19.5t-3.5 16.5q-18 -33 -53.5 -54t-80.5 -21q-83 0 -135 71.5t-52 198.5q0 124 55.5 196.5t155.5 72.5q59 0 102 -31v222
q0 32 60 32h28q60 0 60 -32v-546q0 -62 6 -104z" />
    <glyph glyph-name="e" unicode="e" horiz-adv-x="539" 
d="M195 313h162q0 46 -18 73.5t-54 27.5q-74 0 -90 -101zM501 273q0 -12 -20.5 -35.5t-30.5 -23.5h-255q5 -57 34 -81t81 -24q38 0 79 15.5t42 15.5q15 0 33.5 -29.5t18.5 -46.5q0 -33 -62.5 -52.5t-117.5 -19.5q-132 0 -196.5 70.5t-64.5 195.5q0 141 64.5 207t178.5 66
q111 0 163.5 -72t52.5 -186z" />
    <glyph glyph-name="f" unicode="f" horiz-adv-x="325" 
d="M325 711q0 -13 -9 -42.5t-22 -29.5q-3 0 -14.5 2t-16.5 2q-36 0 -36 -43v-77h50q30 0 30 -50v-17q0 -50 -30 -50h-50v-376q0 -32 -60 -32h-28q-60 0 -60 32v376h-18q-30 0 -30 50v17q0 50 30 50h18v75q0 162 146 162q100 0 100 -49z" />
    <glyph glyph-name="g" unicode="g" horiz-adv-x="566" 
d="M360 149v202q-34 59 -82 59q-86 0 -86 -149q0 -74 24 -108t74 -34q14 0 26 4.5t28 14.5zM508 493v-524q0 -78 -72.5 -129.5t-187.5 -51.5q-20 0 -46.5 3.5t-57 11t-51 22t-20.5 34.5q0 17 18.5 46.5t33.5 29.5q2 0 18 -6q51 -24 116 -24q48 0 74.5 19.5t26.5 44.5v75
q-59 -42 -102 -42q-103 0 -159.5 68t-56.5 191q0 127 53 198.5t139 71.5q45 0 80.5 -21t53.5 -54l10 43q6 26 58 26h12q60 0 60 -32z" />
    <glyph glyph-name="h" unicode="h" horiz-adv-x="565" 
d="M506 369v-339q0 -32 -60 -32h-28q-60 0 -60 32v317q0 62 -64 62q-50 0 -80 -58v-321q0 -32 -60 -32h-28q-60 0 -60 32v692q0 32 60 32h28q60 0 60 -32v-259q57 68 141 68q151 0 151 -162z" />
    <glyph glyph-name="i" unicode="i" horiz-adv-x="265" 
d="M207 493v-463q0 -32 -60 -32h-28q-60 0 -60 32v463q0 32 60 32h28q60 0 60 -32zM207 722v-81q0 -32 -60 -32h-28q-60 0 -60 32v81q0 32 60 32h28q60 0 60 -32z" />
    <glyph glyph-name="j" unicode="j" horiz-adv-x="276" 
d="M218 493v-543q0 -79 -40.5 -120.5t-105.5 -41.5q-59 0 -81.5 11.5t-22.5 40.5q0 20 11 44.5t25 24.5q2 0 13 -2t17 -2q36 0 36 43v545q0 32 60 32h28q60 0 60 -32zM218 722v-81q0 -32 -60 -32h-28q-60 0 -60 32v81q0 32 60 32h28q60 0 60 -32z" />
    <glyph glyph-name="k" unicode="k" horiz-adv-x="521" 
d="M516 13q0 -15 -57 -15h-42q-49 0 -60 19l-139 230l-4 -1v-216q0 -32 -60 -32h-28q-60 0 -60 32v692q0 32 60 32h28q60 0 60 -32v-396l4 -1l121 181q13 19 61 19h37q56 0 56 -15q0 -8 -9 -20l-139 -198l163 -258q8 -14 8 -21z" />
    <glyph glyph-name="l" unicode="l" horiz-adv-x="297" 
d="M305 41q0 -49 -96 -49q-146 0 -146 162v568q0 32 60 32h28q60 0 60 -32v-570q0 -43 36 -43q5 0 14.5 2t12.5 2q13 0 22 -29.5t9 -42.5z" />
    <glyph glyph-name="m" unicode="m" horiz-adv-x="848" 
d="M782 369v-339q0 -32 -60 -32h-28q-60 0 -60 32v317q0 62 -59 62q-49 0 -79 -58v-321q0 -32 -60 -32h-28q-60 0 -60 32v317q0 62 -59 62q-49 0 -79 -58v-321q0 -32 -60 -32h-28q-60 0 -60 32v317q0 44 -3 74.5t-6 45.5t-3 21q0 16 40.5 24t71.5 8q9 0 15.5 -4t10.5 -12.5
t6 -14t4.5 -18.5t3.5 -16q24 32 63.5 54t84.5 22q103 0 132 -76q25 32 66 54t88 22q75 0 110.5 -39.5t35.5 -122.5z" />
    <glyph glyph-name="n" unicode="n" horiz-adv-x="557" 
d="M498 369v-339q0 -32 -60 -32h-28q-60 0 -60 32v317q0 62 -60 62q-50 0 -80 -58v-321q0 -32 -60 -32h-28q-60 0 -60 32v317q0 44 -3 74.5t-6 45.5t-3 21q0 16 40.5 24t71.5 8q9 0 15.5 -4t10.5 -12.5t6 -14t4.5 -18.5t3.5 -16q24 32 64 54t85 22q75 0 111 -39.5t36 -122.5
z" />
    <glyph glyph-name="o" unicode="o" horiz-adv-x="569" 
d="M377 262q0 152 -92 152q-93 0 -93 -152q0 -153 93 -153q92 0 92 153zM527 262q0 -131 -61.5 -200.5t-180.5 -69.5t-181 69.5t-62 200.5t62 200t181 69t180.5 -69t61.5 -200z" />
    <glyph glyph-name="p" unicode="p" horiz-adv-x="573" 
d="M381 261q0 149 -81 149q-48 0 -82 -59v-223q34 -19 70 -19q93 0 93 152zM531 261q0 -124 -55.5 -196.5t-155.5 -72.5q-59 0 -102 31v-197q0 -32 -60 -32h-28q-60 0 -60 32v521q0 44 -3 74.5t-6 45.5t-3 21q0 16 40.5 24t71.5 8q9 0 15.5 -4t10.5 -12.5t6 -14.5t4.5 -18
t3.5 -15q18 33 53.5 54t80.5 21q83 0 135 -71.5t52 -198.5z" />
    <glyph glyph-name="q" unicode="q" horiz-adv-x="566" 
d="M360 128v223q-34 59 -82 59q-86 0 -86 -149q0 -152 98 -152q36 0 70 19zM508 493v-667q0 -32 -60 -32h-28q-60 0 -60 32v197q-43 -31 -102 -31q-102 0 -159 72.5t-57 196.5q0 127 53 198.5t139 71.5q45 0 80.5 -21t53.5 -54l10 43q6 26 58 26h12q60 0 60 -32z" />
    <glyph glyph-name="r" unicode="r" horiz-adv-x="366" 
d="M368 477q0 -21 -9 -52.5t-22 -31.5q-6 0 -21 4t-26 4q-50 0 -80 -50v-321q0 -32 -60 -32h-28q-60 0 -60 32v317q0 44 -3 74.5t-6 45.5t-3 21q0 16 40.5 24t71.5 8q9 0 15.5 -4t10.5 -12.5t6 -14t4.5 -18.5t3.5 -16q42 76 109 76q32 0 44.5 -16.5t12.5 -37.5z" />
    <glyph glyph-name="s" unicode="s" horiz-adv-x="413" 
d="M393 166q0 -79 -51.5 -126.5t-135.5 -47.5q-71 0 -123 18.5t-52 52.5q0 16 19 45t34 29q2 0 36 -14t62 -14q61 0 61 45q0 24 -20.5 38.5t-50 24.5t-59 24t-50 46t-20.5 82q0 75 49.5 118.5t134.5 43.5q17 0 37.5 -2t48 -8t45 -19.5t17.5 -33.5q0 -13 -15 -43.5t-28 -30.5
q-1 0 -29.5 10.5t-55.5 10.5q-54 0 -54 -36q0 -20 20.5 -32.5t50 -23t59 -26t50 -49t20.5 -82.5z" />
    <glyph glyph-name="t" unicode="t" horiz-adv-x="342" 
d="M319 41q0 -49 -96 -49q-146 0 -146 162v252h-16q-30 0 -30 50v17q0 50 30 50h16l13 95q5 32 54 32h31q50 0 50 -32v-95h49q30 0 30 -50v-17q0 -50 -30 -50h-49v-254q0 -43 36 -43q5 0 14.5 2t12.5 2q13 0 22 -29.5t9 -42.5z" />
    <glyph glyph-name="u" unicode="u" horiz-adv-x="557" 
d="M507 31q0 -16 -40.5 -24t-71.5 -8q-9 0 -15.5 4t-10.5 13.5t-6 15t-4.5 19.5t-3.5 17q-24 -32 -63.5 -54t-85.5 -22q-75 0 -111 39.5t-36 122.5v339q0 32 60 32h28q60 0 60 -32v-317q0 -62 60 -62q50 0 80 58v321q0 32 60 32h28q60 0 60 -32v-317q0 -62 6 -104z" />
    <glyph glyph-name="v" unicode="v" horiz-adv-x="485" 
d="M476 503q0 -7 -3 -18l-159 -466q-7 -21 -56 -21h-32q-49 0 -56 21l-159 466q-4 14 -4 18q0 22 61 22h33q49 0 56 -21l59 -185q2 -5 28 -121h4q18 88 28 121l59 185q7 21 56 21h25q60 0 60 -22z" />
    <glyph glyph-name="w" unicode="w" horiz-adv-x="747" 
d="M724 499q0 -3 -2 -15l-118 -465q-6 -21 -55 -21h-49q-49 0 -55 21l-72 281l-68 -281q-5 -21 -55 -21h-49q-49 0 -55 21l-126 465q-2 6 -2 15q0 26 62 26h24q49 0 55 -21l79 -308l76 308q4 21 55 21h24q50 0 55 -21l74 -308l81 308q6 21 55 21h4q62 0 62 -26z" />
    <glyph glyph-name="x" unicode="x" horiz-adv-x="485" 
d="M480 16q0 -18 -63 -18h-32q-49 0 -61 19l-82 131l-83 -131q-12 -19 -61 -19h-30q-63 0 -63 18q0 8 11 25l151 224l-142 216q-11 17 -11 26q0 18 63 18h32q49 0 61 -19l76 -123l79 123q12 19 61 19h29q63 0 63 -18q0 -8 -11 -25l-146 -216l148 -224q11 -17 11 -26z" />
    <glyph glyph-name="y" unicode="y" horiz-adv-x="557" 
d="M495 493l1 -524q0 -78 -72.5 -129.5t-187.5 -51.5q-20 0 -46.5 3.5t-57 11t-51 22t-20.5 34.5q0 17 18.5 46.5t33.5 29.5q2 0 18 -6q51 -24 116 -24q50 0 78 21.5t28 53.5v88q-51 -67 -141 -67q-75 0 -114 44t-39 127v321q0 32 60 32h28q60 0 60 -32v-299q0 -32 14.5 -53
t45.5 -21q53 0 80 52v321q0 32 60 32h28q60 0 60 -32z" />
    <glyph glyph-name="z" unicode="z" horiz-adv-x="489" 
d="M460 67v-17q0 -50 -30 -50h-374q-9 0 -19 27.5t-10 48.5q0 10 3 14l229 316h-186q-30 0 -30 50v17q0 50 30 50h354q8 0 18.5 -28t10.5 -49q0 -10 -3 -15l-228 -314h205q30 0 30 -50z" />
    <glyph glyph-name="braceleft" unicode="{" horiz-adv-x="274" 
d="M262 -84v-14q0 -40 -30 -40h-39q-44 0 -71.5 32.5t-27.5 83.5v168q0 50 -10.5 76t-36.5 37q-29 17 -29 50v12q0 33 29 50q26 11 36.5 37t10.5 76v168q0 51 27.5 83.5t71.5 32.5h39q30 0 30 -40v-14q0 -39 -26 -40h2q-29 0 -29 -36v-170q0 -114 -68 -153q68 -39 68 -153
v-170q0 -33 24 -36q29 0 29 -40z" />
    <glyph glyph-name="bar" unicode="|" horiz-adv-x="250" 
d="M183 738v-846q0 -30 -50 -30h-15q-50 0 -50 30v846q0 30 50 30h15q50 0 50 -30z" />
    <glyph glyph-name="braceright" unicode="}" horiz-adv-x="274" 
d="M263 321v-12q0 -33 -29 -50q-26 -11 -36.5 -37t-10.5 -76v-168q0 -51 -27.5 -83.5t-71.5 -32.5h-39q-30 0 -30 40v14q0 40 28 40q25 3 25 36v170q0 114 68 153q-68 39 -68 153v170q0 36 -29 36h1q-25 1 -25 40v14q0 40 30 40h39q44 0 71.5 -32.5t27.5 -83.5v-168
q0 -50 10.5 -76t36.5 -37q29 -17 29 -50z" />
    <glyph glyph-name="asciitilde" unicode="~" horiz-adv-x="547" 
d="M484 261q0 -28 -53 -53t-90 -25q-41 0 -94.5 21t-76.5 21q-20 0 -39.5 -5.5t-25.5 -5.5q-15 0 -28 17t-13 34q0 26 51 53.5t91 27.5t94 -21t77 -21q15 0 36 7.5t29 7.5q17 0 29.5 -20t12.5 -38z" />
    <glyph glyph-name="nbspace" unicode="&#xa0;" horiz-adv-x="480" 
 />
    <glyph glyph-name="exclamdown" unicode="&#xa1;" horiz-adv-x="294" 
d="M210 268v-416q0 -32 -60 -32h-43q-60 0 -60 28q0 7 50 420q2 17 12 24.5t39 7.5h11q29 0 40 -7.5t11 -24.5zM230 493v-92q0 -32 -60 -32h-32q-60 0 -60 32v92q0 32 60 32h32q60 0 60 -32z" />
    <glyph glyph-name="cent" unicode="&#xa2;" horiz-adv-x="486" 
d="M263 113v296q-71 -21 -71 -147q0 -129 71 -149zM461 62q0 -52 -141 -68v-42q0 -30 -27 -30q-30 0 -30 30v41q-112 6 -166.5 71.5t-54.5 193.5q0 127 53.5 195.5t167.5 76.5v27q0 30 27 30q30 0 30 -30v-27q54 -4 95.5 -22t41.5 -46q0 -15 -20.5 -46t-32.5 -31
q-3 0 -30 12.5t-54 15.5v-303q30 3 58 15.5t31 12.5q15 0 33.5 -29.5t18.5 -46.5z" />
    <glyph glyph-name="sterling" unicode="&#xa3;" horiz-adv-x="491" 
d="M451 67v-17q0 -50 -30 -50h-363q-40 0 -40 40v19q0 13 12 26t26 22t26 27t12 41v136h-33q-30 0 -30 50v17q0 50 30 50h33v74q0 206 230 206q110 0 110 -45q0 -26 -13.5 -50.5t-26.5 -24.5q-1 0 -10.5 2t-24 4t-29.5 2q-91 0 -91 -89v-79h108q30 0 30 -50v-17
q0 -50 -30 -50h-108v-60q0 -93 -41 -134h223q30 0 30 -50z" />
    <glyph glyph-name="currency" unicode="&#xa4;" horiz-adv-x="534" 
d="M357 289q0 41 -28.5 69t-68.5 28t-68.5 -28t-28.5 -69t28.5 -69t68.5 -28t68.5 28t28.5 69zM484 447q0 -13 -12 -25l-29 -29q28 -48 28 -104q0 -52 -26 -101l24 -24q12 -12 12 -25t-12 -25l-30 -30q-12 -12 -25 -12t-25 12l-23 23q-47 -29 -106 -29q-56 0 -105 27
l-21 -21q-12 -12 -25 -12t-25 12l-30 30q-12 12 -12 25t12 25l22 22q-27 48 -27 103q0 59 29 106l-27 27q-12 12 -12 25t12 25l30 30q12 12 25 12t25 -12l28 -28q49 26 101 26q54 0 103 -27l29 29q12 12 25 12t25 -12l30 -30q12 -12 12 -25z" />
    <glyph glyph-name="yen" unicode="&#xa5;" horiz-adv-x="559" 
d="M567 682q0 -10 -9 -25l-153 -248h82q30 0 30 -30v-15q0 -31 -30 -31h-128v-63h128q30 0 30 -30v-15q0 -30 -30 -30h-128v-165q0 -32 -60 -32h-34q-60 0 -60 32v165h-135q-30 0 -30 30v15q0 30 30 30h135v64h-135q-30 0 -30 30v15q0 30 30 30h89l-153 248q-10 17 -10 25
q0 20 64 20h43q49 0 60 -19l122 -214l123 214q11 19 60 19h36q63 0 63 -20z" />
    <glyph glyph-name="brokenbar" unicode="&#xa6;" horiz-adv-x="250" 
d="M183 218v-326q0 -32 -50 -32h-15q-50 0 -50 32v326q0 32 50 32h15q50 0 50 -32zM183 738v-326q0 -32 -50 -32h-15q-50 0 -50 32v326q0 32 50 32h15q50 0 50 -32z" />
    <glyph glyph-name="section" unicode="&#xa7;" horiz-adv-x="429" 
d="M261 335q0 29 -20 44.5t-60 29.5q-9 -17 -9 -43q0 -29 20 -44.5t60 -29.5q9 20 9 43zM392 147q0 -72 -49.5 -113t-134.5 -41q-17 0 -37.5 2t-48 8t-45 19.5t-17.5 33.5q0 13 15 43.5t28 30.5q1 0 29.5 -10.5t55.5 -10.5q54 0 54 31q0 18 -20.5 30t-50 23t-59 26.5
t-50 48.5t-20.5 82q0 64 37 109q-38 33 -38 95q0 72 49.5 113t134.5 41q17 0 37.5 -2t48 -8t45 -19.5t17.5 -33.5q0 -13 -15 -43.5t-28 -30.5q-1 0 -29.5 10.5t-55.5 10.5q-54 0 -54 -31q0 -18 20.5 -30t50 -23t59 -26.5t50 -48.5t20.5 -82q0 -66 -37 -109q38 -36 38 -95z
" />
    <glyph glyph-name="dieresis" unicode="&#xa8;" 
d="M131 670v-60q0 -32 -60 -32t-60 32v60q0 32 60 32t60 -32zM311 670v-60q0 -32 -60 -32t-60 32v60q0 32 60 32t60 -32z" />
    <glyph glyph-name="copyright" unicode="&#xa9;" horiz-adv-x="739" 
d="M505 199q0 -23 -41 -35t-83 -12q-94 0 -139 49t-45 152q0 199 186 199q41 0 79 -11.5t38 -27.5q0 -13 -13 -33t-23 -20q-2 0 -11.5 4.5t-28.5 9t-42 4.5q-97 0 -97 -125q0 -128 96 -128q23 0 44 5.5t33 11.5t14 6q12 0 22.5 -19.5t10.5 -29.5zM662 350q0 122 -86 208
t-208 86t-208 -86t-86 -208t86 -208t208 -86t208 86t86 208zM726 350q0 -148 -105 -253t-253 -105t-253 105t-105 253t105 253t253 105t253 -105t105 -253z" />
    <glyph glyph-name="ordfeminine" unicode="&#xaa;" horiz-adv-x="319" 
d="M185 529v27q-70 0 -70 -36q0 -22 25 -22q31 0 45 31zM264 460q0 -8 -20 -12.5t-36 -4.5q-4 0 -7 2t-5 6.5t-3 7.5t-2.5 9.5t-1.5 8.5q-2 -5 -9.5 -12.5t-25.5 -16t-39 -8.5q-73 0 -73 72q0 93 143 93v16q0 28 -39 28q-16 0 -30.5 -3.5t-23 -7.5t-10.5 -4q-7 0 -16 15.5
t-9 24.5q0 13 27.5 23.5t67.5 10.5q106 0 106 -83v-94q0 -22 1.5 -38t3 -23t1.5 -10z" />
    <glyph glyph-name="guillemotleft" unicode="&#xab;" horiz-adv-x="471" 
d="M256 95q0 -15 -21 -32t-38 -17q-13 0 -27 15l-127 153q-16 19 -16 44t16 44l127 153q13 14 27 14q16 0 37.5 -16.5t21.5 -32.5q0 -10 -9 -22l-110 -140l110 -140q9 -12 9 -23zM455 95q0 -15 -21 -32t-38 -17q-14 0 -27 15l-127 153q-16 19 -16 44t16 44l127 153
q13 14 27 14q16 0 37.5 -16.5t21.5 -32.5q0 -10 -9 -22l-110 -140l110 -140q9 -12 9 -23z" />
    <glyph glyph-name="logicalnot" unicode="&#xac;" horiz-adv-x="560" 
d="M530 309v-205q0 -32 -40 -32h-20q-40 0 -40 32v138h-370q-30 0 -30 50v7q0 50 30 50h430q40 0 40 -40z" />
    <glyph glyph-name="uni00AD" unicode="&#xad;" 
d="M285 269v-7q0 -50 -30 -50h-195q-30 0 -30 50v7q0 50 30 50h195q30 0 30 -50z" />
    <glyph glyph-name="registered" unicode="&#xae;" horiz-adv-x="739" 
d="M423 432q0 20 -12.5 31.5t-34.5 11.5h-49v-91h53q17 0 30 14.5t13 33.5zM538 167q0 -11 -33 -11h-23q-28 0 -33 12l-44 109q-7 18 -18.5 25.5t-37.5 7.5h-22v-136q0 -18 -34 -18h-18q-34 0 -34 18v352q0 22 22 22h109q139 0 139 -105q0 -63 -66 -89v-4q27 -12 41 -49
l49 -123q3 -7 3 -11zM662 350q0 122 -86 208t-208 86t-208 -86t-86 -208t86 -208t208 -86t208 86t86 208zM726 350q0 -148 -105 -253t-253 -105t-253 105t-105 253t105 253t253 105t253 -105t105 -253z" />
    <glyph glyph-name="macron" unicode="&#xaf;" 
d="M296 652v-15q0 -40 -30 -40h-215q-30 0 -30 40v15q0 40 30 40h215q30 0 30 -40z" />
    <glyph glyph-name="degree" unicode="&#xb0;" horiz-adv-x="345" 
d="M238 575q0 29 -20 50t-48 21t-47.5 -21t-19.5 -50t19.5 -49.5t47.5 -20.5t48 20.5t20 49.5zM303 575q0 -55 -39 -93.5t-94 -38.5t-93.5 38.5t-38.5 93.5t38.5 94t93.5 39t94 -39t39 -94z" />
    <glyph glyph-name="plusminus" unicode="&#xb1;" horiz-adv-x="560" 
d="M519 57v-7q0 -50 -30 -50h-418q-30 0 -30 50v7q0 50 30 50h418q30 0 30 -50zM519 369v-7q0 -50 -30 -50h-153v-152q0 -30 -50 -30h-14q-50 0 -50 30v152h-151q-30 0 -30 50v7q0 50 30 50h151v154q0 30 50 30h14q50 0 50 -30v-154h153q30 0 30 -50z" />
    <glyph glyph-name="twosuperior" unicode="&#xb2;" 
d="M283 332v-10q0 -30 -18 -30h-232q-6 0 -11.5 18.5t-5.5 33.5q0 5 2 9l148 180q22 27 22 57q0 23 -15 35t-39 12q-23 0 -46 -12l-22 -12q-13 0 -23.5 13.5t-10.5 26.5q0 24 35.5 38.5t81.5 14.5q59 0 93 -31.5t34 -82.5t-36 -96l-109 -136h134q18 0 18 -28z" />
    <glyph glyph-name="threesuperior" unicode="&#xb3;" 
d="M281 412q0 -58 -36.5 -91.5t-96.5 -33.5q-43 0 -85 12t-42 37q0 10 9.5 27t19.5 17l28 -12q28 -12 57 -12q27 0 42.5 15t15.5 42q0 60 -69 60h-16q-18 0 -18 29v11q0 29 18 29h11q28 0 44.5 13.5t16.5 35.5q0 48 -48 48q-27 0 -47.5 -9.5t-21.5 -9.5q-9 0 -19.5 16.5
t-10.5 28.5q0 21 33.5 32t80.5 11q56 0 88.5 -28t32.5 -75q0 -61 -55 -85v-4q68 -27 68 -104z" />
    <glyph glyph-name="acute" unicode="&#xb4;" 
d="M264 740q0 -6 -6 -14t-31 -34l-67 -72q-23 -25 -75 -25q-31 0 -31 15q0 3 2 8t7.5 15t12.5 20.5t19 31.5l24 42q15 27 85 27q60 0 60 -14z" />
    <glyph glyph-name="mu" unicode="&#xb5;" horiz-adv-x="566" 
d="M501 31q0 -16 -40.5 -24t-71.5 -8q-9 0 -15.5 4t-10.5 13.5t-6 15t-4.5 19.5t-3.5 17q-24 -31 -63.5 -53t-84.5 -23v-166q0 -32 -60 -32h-28q-60 0 -60 32v667q0 32 60 32h28q60 0 60 -32v-317q0 -62 60 -62q50 0 80 58v321q0 32 60 32h28q60 0 60 -32v-317q0 -62 6 -104
z" />
    <glyph glyph-name="paragraph" unicode="&#xb6;" horiz-adv-x="515" 
d="M501 668q0 -30 -30 -30h-26v-779q0 -30 -32 -30q-30 0 -30 30v779h-78v-779q0 -30 -32 -30q-30 0 -30 30v388q-85 10 -143.5 74.5t-58.5 151.5q0 100 65.5 163.5t161.5 63.5h203q30 0 30 -32z" />
    <glyph glyph-name="periodcentered" unicode="&#xb7;" horiz-adv-x="267" 
d="M211 359q0 -29 -20.5 -49.5t-49.5 -20.5t-49.5 20.5t-20.5 49.5t20.5 49.5t49.5 20.5t49.5 -20.5t20.5 -49.5z" />
    <glyph glyph-name="cedilla" unicode="&#xb8;" 
d="M279 -112q0 -100 -119 -100q-47 0 -89 14t-42 36t11.5 33t20.5 11t38.5 -10.5t52.5 -10.5q24 0 24 17q0 13 -26.5 24.5t-26.5 23.5q0 8 25 84h66l-13 -46q78 -16 78 -76z" />
    <glyph glyph-name="onesuperior" unicode="&#xb9;" horiz-adv-x="217" 
d="M199 690v-378q0 -19 -35 -19h-16q-35 0 -35 19v312l-79 -13q-19 0 -19 50q0 14 15 17l146 26q7 0 15 -4.5t8 -9.5z" />
    <glyph glyph-name="ordmasculine" unicode="&#xba;" horiz-adv-x="337" 
d="M213 575q0 75 -45 75q-46 0 -46 -75q0 -76 46 -76q45 0 45 76zM288 575q0 -134 -120 -134q-59 0 -90 34.5t-31 99.5t31 99t90 34q120 0 120 -133z" />
    <glyph glyph-name="guillemotright" unicode="&#xbb;" horiz-adv-x="471" 
d="M271 258q0 -25 -16 -44l-127 -153q-14 -15 -27 -15q-17 0 -38 17t-21 32q0 11 9 23l110 140l-110 140q-9 12 -9 22q0 16 21.5 32.5t37.5 16.5q14 0 27 -14l127 -153q16 -19 16 -44zM470 258q0 -25 -16 -44l-127 -153q-13 -15 -27 -15q-17 0 -38 17t-21 32q0 11 9 23
l110 140l-110 140q-9 12 -9 22q0 16 21.5 32.5t37.5 16.5q14 0 27 -14l127 -153q16 -19 16 -44z" />
    <glyph glyph-name="onequarter" unicode="&#xbc;" horiz-adv-x="671" 
d="M522 240l7 53h-4l-90 -143h87v90zM199 690v-378q0 -19 -35 -19h-16q-35 0 -35 19v312l-79 -13q-19 0 -19 50q0 14 15 17l146 26q7 0 15 -4.5t8 -9.5zM560 689q0 -3 -6 -15l-359 -648q-15 -26 -45 -26h-17q-21 0 -21 11q0 3 6 15l359 648q14 26 45 26h17q21 0 21 -11z
M648 121v-10q0 -29 -17 -29h-23v-65q0 -19 -35 -19h-16q-35 0 -35 19v65h-153q-7 0 -14 20t-7 34q0 5 1 7l173 256q7 11 36 11h15q35 0 35 -19v-241h23q17 0 17 -29z" />
    <glyph glyph-name="onehalf" unicode="&#xbd;" horiz-adv-x="746" 
d="M199 690v-378q0 -19 -35 -19h-16q-35 0 -35 19v312l-79 -13q-19 0 -19 50q0 14 15 17l146 26q7 0 15 -4.5t8 -9.5zM560 689q0 -3 -6 -15l-359 -648q-15 -26 -45 -26h-17q-21 0 -21 11q0 3 6 15l359 648q14 26 45 26h17q21 0 21 -11zM701 40v-10q0 -30 -18 -30h-232
q-6 0 -11.5 18.5t-5.5 33.5q0 5 2 9l148 180q22 27 22 57q0 23 -15 35t-39 12q-23 0 -46 -12l-22 -12q-13 0 -23.5 13.5t-10.5 26.5q0 24 35.5 38.5t81.5 14.5q59 0 93 -31.5t34 -82.5t-36 -96l-109 -136h134q18 0 18 -28z" />
    <glyph glyph-name="threequarters" unicode="&#xbe;" horiz-adv-x="738" 
d="M560 240l7 53h-4l-90 -143h87v90zM287 412q0 -58 -36.5 -91.5t-96.5 -33.5q-43 0 -85 12t-42 37q0 10 9.5 27t19.5 17l28 -12q28 -12 57 -12q27 0 42.5 15t15.5 42q0 60 -69 60h-16q-18 0 -18 29v11q0 29 18 29h11q28 0 44.5 13.5t16.5 35.5q0 48 -48 48
q-27 0 -47.5 -9.5t-21.5 -9.5q-9 0 -19.5 16.5t-10.5 28.5q0 21 33.5 32t80.5 11q56 0 88.5 -28t32.5 -75q0 -61 -55 -85v-4q68 -27 68 -104zM598 689q0 -3 -6 -15l-359 -648q-15 -26 -45 -26h-17q-21 0 -21 11q0 3 6 15l359 648q14 26 45 26h17q21 0 21 -11zM686 121v-10
q0 -29 -17 -29h-23v-65q0 -19 -35 -19h-16q-35 0 -35 19v65h-153q-7 0 -14 20t-7 34q0 5 1 7l173 256q7 11 36 11h15q35 0 35 -19v-241h23q17 0 17 -29z" />
    <glyph glyph-name="questiondown" unicode="&#xbf;" horiz-adv-x="425" 
d="M423 -104q0 -40 -59 -60.5t-129 -20.5q-101 0 -159 48t-58 130q0 43 17.5 78.5t43 60t52 45.5t47.5 46t26 51q4 15 16 21t37 6h23q49 0 49 -29q0 -35 -16 -70t-38.5 -62t-45.5 -51.5t-39 -46.5t-16 -39q0 -56 74 -56q34 0 72 15.5t40 15.5q19 0 41 -32t22 -50zM345 493
v-92q0 -32 -60 -32h-32q-60 0 -60 32v92q0 32 60 32h32q60 0 60 -32z" />
    <glyph glyph-name="Agrave" unicode="&#xc0;" horiz-adv-x="613" 
d="M230 273h150l-57 178l-15 64h-4q-9 -47 -15 -64zM613 20q0 -22 -50 -22h-44q-49 0 -56 21l-40 122h-236l-40 -122q-7 -21 -46 -21h-40q-61 0 -61 22q0 4 4 18l220 643q8 21 57 21h52q49 0 57 -21l220 -643q3 -10 3 -18zM397 790q0 -15 -31 -15q-52 0 -75 25l-67 72
q-26 28 -31.5 35t-5.5 13q0 14 60 14q70 0 85 -27l24 -42t19 -31.5t12.5 -20.5t7.5 -15t2 -8z" />
    <glyph glyph-name="Aacute" unicode="&#xc1;" horiz-adv-x="613" 
d="M230 273h150l-57 178l-15 64h-4q-9 -47 -15 -64zM613 20q0 -22 -50 -22h-44q-49 0 -56 21l-40 122h-236l-40 -122q-7 -21 -46 -21h-40q-61 0 -61 22q0 4 4 18l220 643q8 21 57 21h52q49 0 57 -21l220 -643q3 -10 3 -18zM439 920q0 -6 -6 -14t-31 -34l-67 -72
q-23 -25 -75 -25q-31 0 -31 15q0 3 2 8t7.5 15t12.5 20.5t19 31.5l24 42q15 27 85 27q60 0 60 -14z" />
    <glyph glyph-name="Acircumflex" unicode="&#xc2;" horiz-adv-x="613" 
d="M230 273h150l-57 178l-15 64h-4q-9 -47 -15 -64zM613 20q0 -22 -50 -22h-44q-49 0 -56 21l-40 122h-236l-40 -122q-7 -21 -46 -21h-40q-61 0 -61 22q0 4 4 18l220 643q8 21 57 21h52q49 0 57 -21l220 -643q3 -10 3 -18zM442 772q0 -10 -20 -10h-22q-52 0 -68 24l-28 40
l-28 -39q-18 -25 -67 -25h-22q-20 0 -20 10q0 6 6 15l65 102q12 19 61 19h11q49 0 61 -19l65 -102q6 -9 6 -15z" />
    <glyph glyph-name="Atilde" unicode="&#xc3;" horiz-adv-x="613" 
d="M230 273h150l-57 178l-15 64h-4q-9 -47 -15 -64zM613 20q0 -22 -50 -22h-44q-49 0 -56 21l-40 122h-236l-40 -122q-7 -21 -46 -21h-40q-61 0 -61 22q0 4 4 18l220 643q8 21 57 21h52q49 0 57 -21l220 -643q3 -10 3 -18zM465 834q0 -21 -33.5 -40t-74.5 -19q-28 0 -68 10
t-57 10q-8 -1 -23.5 -6t-21.5 -5q-16 0 -29 14.5t-13 30.5q0 21 33.5 40t74.5 19q28 0 67.5 -10t57.5 -10q8 1 24 6t22 5q15 0 28 -14.5t13 -30.5z" />
    <glyph glyph-name="Adieresis" unicode="&#xc4;" horiz-adv-x="613" 
d="M230 273h150l-57 178l-15 64h-4q-9 -47 -15 -64zM613 20q0 -22 -50 -22h-44q-49 0 -56 21l-40 122h-236l-40 -122q-7 -21 -46 -21h-40q-61 0 -61 22q0 4 4 18l220 643q8 21 57 21h52q49 0 57 -21l220 -643q3 -10 3 -18zM275 850v-60q0 -32 -60 -32t-60 32v60q0 32 60 32
t60 -32zM455 850v-60q0 -32 -60 -32t-60 32v60q0 32 60 32t60 -32z" />
    <glyph glyph-name="Aring" unicode="&#xc5;" horiz-adv-x="613" 
d="M230 273h150l-57 178l-15 64h-4q-9 -47 -15 -64zM342 828q0 15 -11 26t-26 11t-25.5 -11t-10.5 -26t10.5 -25.5t25.5 -10.5t26 10.5t11 25.5zM613 20q0 -22 -50 -22h-44q-49 0 -56 21l-40 122h-236l-40 -122q-7 -21 -46 -21h-40q-61 0 -61 22q0 4 4 18l220 643
q8 21 57 21h52q49 0 57 -21l220 -643q3 -10 3 -18zM405 829q0 -42 -29 -70.5t-71 -28.5t-70.5 28.5t-28.5 70.5t28.5 71t70.5 29t71 -29t29 -71z" />
    <glyph glyph-name="AE" unicode="&#xc6;" horiz-adv-x="915" 
d="M270 273h154l-33 181v83h-4l-28 -82zM865 81v-31q0 -50 -30 -50h-331q-29 0 -35 30l-21 111h-243l-60 -122q-11 -21 -46 -21h-37q-61 0 -61 22q0 10 4 18l321 635q14 27 44 27h464q30 0 30 -50v-31q0 -50 -30 -50h-317l28 -145h262q30 0 30 -50v-31q0 -50 -30 -50h-236
l31 -162h233q30 0 30 -50z" />
    <glyph glyph-name="Ccedilla" unicode="&#xc7;" horiz-adv-x="619" 
d="M597 76q0 -40 -71.5 -61.5t-147.5 -22.5l-7 -27q78 -16 78 -76q0 -100 -119 -100q-47 0 -89 14t-42 36t11.5 33t20.5 11t38.5 -10.5t52.5 -10.5q24 0 24 17q0 13 -26.5 24.5t-26.5 23.5q0 11 19 69q-136 14 -201.5 101.5t-65.5 254.5q0 356 334 356q73 0 141 -20t68 -50
q0 -22 -23.5 -58t-41.5 -36q-3 0 -20.5 8t-51 16t-75.5 8q-173 0 -173 -225q0 -228 171 -228q42 0 79 10t59 20t26 10q21 0 40 -34.5t19 -52.5z" />
    <glyph glyph-name="Egrave" unicode="&#xc8;" horiz-adv-x="546" 
d="M506 81v-31q0 -50 -30 -50h-367q-40 0 -40 40v620q0 40 40 40h366q30 0 30 -50v-31q0 -50 -30 -50h-252v-145h225q30 0 30 -50v-31q0 -50 -30 -50h-225v-162h253q30 0 30 -50zM384 790q0 -15 -31 -15q-52 0 -75 25l-67 72q-26 28 -31.5 35t-5.5 13q0 14 60 14
q70 0 85 -27l24 -42t19 -31.5t12.5 -20.5t7.5 -15t2 -8z" />
    <glyph glyph-name="Eacute" unicode="&#xc9;" horiz-adv-x="546" 
d="M506 81v-31q0 -50 -30 -50h-367q-40 0 -40 40v620q0 40 40 40h366q30 0 30 -50v-31q0 -50 -30 -50h-252v-145h225q30 0 30 -50v-31q0 -50 -30 -50h-225v-162h253q30 0 30 -50zM426 920q0 -6 -6 -14t-31 -34l-67 -72q-23 -25 -75 -25q-31 0 -31 15q0 3 2 8t7.5 15
t12.5 20.5t19 31.5l24 42q15 27 85 27q60 0 60 -14z" />
    <glyph glyph-name="Ecircumflex" unicode="&#xca;" horiz-adv-x="546" 
d="M506 81v-31q0 -50 -30 -50h-367q-40 0 -40 40v620q0 40 40 40h366q30 0 30 -50v-31q0 -50 -30 -50h-252v-145h225q30 0 30 -50v-31q0 -50 -30 -50h-225v-162h253q30 0 30 -50zM429 772q0 -10 -20 -10h-22q-52 0 -68 24l-28 40l-28 -39q-18 -25 -67 -25h-22q-20 0 -20 10
q0 6 6 15l65 102q12 19 61 19h11q49 0 61 -19l65 -102q6 -9 6 -15z" />
    <glyph glyph-name="Edieresis" unicode="&#xcb;" horiz-adv-x="546" 
d="M506 81v-31q0 -50 -30 -50h-367q-40 0 -40 40v620q0 40 40 40h366q30 0 30 -50v-31q0 -50 -30 -50h-252v-145h225q30 0 30 -50v-31q0 -50 -30 -50h-225v-162h253q30 0 30 -50zM262 850v-60q0 -32 -60 -32t-60 32v60q0 32 60 32t60 -32zM442 850v-60q0 -32 -60 -32t-60 32
v60q0 32 60 32t60 -32z" />
    <glyph glyph-name="Igrave" unicode="&#xcc;" horiz-adv-x="282" 
d="M218 670v-640q0 -33 -60 -33h-35q-60 0 -60 33v640q0 33 60 33h35q60 0 60 -33zM237 790q0 -15 -31 -15q-52 0 -75 25l-67 72q-26 28 -31.5 35t-5.5 13q0 14 60 14q70 0 85 -27l24 -42t19 -31.5t12.5 -20.5t7.5 -15t2 -8z" />
    <glyph glyph-name="Iacute" unicode="&#xcd;" horiz-adv-x="282" 
d="M218 670v-640q0 -33 -60 -33h-35q-60 0 -60 33v640q0 33 60 33h35q60 0 60 -33zM279 920q0 -6 -6 -14t-31 -34l-67 -72q-23 -25 -75 -25q-31 0 -31 15q0 3 2 8t7.5 15t12.5 20.5t19 31.5l24 42q15 27 85 27q60 0 60 -14z" />
    <glyph glyph-name="Icircumflex" unicode="&#xce;" horiz-adv-x="282" 
d="M218 670v-640q0 -33 -60 -33h-35q-60 0 -60 33v640q0 33 60 33h35q60 0 60 -33zM282 772q0 -10 -20 -10h-22q-52 0 -68 24l-28 40l-28 -39q-18 -25 -67 -25h-22q-20 0 -20 10q0 6 6 15l65 102q12 19 61 19h11q49 0 61 -19l65 -102q6 -9 6 -15z" />
    <glyph glyph-name="Idieresis" unicode="&#xcf;" horiz-adv-x="282" 
d="M218 670v-640q0 -33 -60 -33h-35q-60 0 -60 33v640q0 33 60 33h35q60 0 60 -33zM115 850v-60q0 -32 -60 -32t-60 32v60q0 32 60 32t60 -32zM295 850v-60q0 -32 -60 -32t-60 32v60q0 32 60 32t60 -32z" />
    <glyph glyph-name="Eth" unicode="&#xd0;" horiz-adv-x="696" 
d="M497 350q0 107 -41 163t-121 56h-109v-148h59q30 0 30 -50v-30q0 -50 -30 -50h-59v-160h109q80 0 121 56t41 163zM655 350q0 -169 -82.5 -259.5t-237.5 -90.5h-224q-40 0 -40 40v251h-29q-30 0 -30 50v30q0 50 30 50h29v239q0 40 40 40h224q155 0 237.5 -90.5
t82.5 -259.5z" />
    <glyph glyph-name="Ntilde" unicode="&#xd1;" horiz-adv-x="719" 
d="M650 670v-640q0 -32 -60 -32h-38q-48 0 -66 27l-268 410v-405q0 -32 -60 -32h-29q-60 0 -60 32v640q0 32 60 32h43q48 0 66 -27l263 -405v400q0 32 60 32h29q60 0 60 -32zM520 834q0 -21 -33.5 -40t-74.5 -19q-28 0 -68 10t-57 10q-8 -1 -23.5 -6t-21.5 -5
q-16 0 -29 14.5t-13 30.5q0 21 33.5 40t74.5 19q28 0 67.5 -10t57.5 -10q8 1 24 6t22 5q15 0 28 -14.5t13 -30.5z" />
    <glyph glyph-name="Ograve" unicode="&#xd2;" horiz-adv-x="731" 
d="M528 350q0 111 -41 168.5t-121 57.5t-121.5 -57.5t-41.5 -168.5t41.5 -169t121.5 -58t121 58t41 169zM686 350q0 -173 -82.5 -265.5t-237.5 -92.5t-238 92.5t-83 265.5t83 265.5t238 92.5t237.5 -92.5t82.5 -265.5zM457 790q0 -15 -31 -15q-52 0 -75 25l-67 72
q-26 28 -31.5 35t-5.5 13q0 14 60 14q70 0 85 -27l24 -42t19 -31.5t12.5 -20.5t7.5 -15t2 -8z" />
    <glyph glyph-name="Oacute" unicode="&#xd3;" horiz-adv-x="731" 
d="M528 350q0 111 -41 168.5t-121 57.5t-121.5 -57.5t-41.5 -168.5t41.5 -169t121.5 -58t121 58t41 169zM686 350q0 -173 -82.5 -265.5t-237.5 -92.5t-238 92.5t-83 265.5t83 265.5t238 92.5t237.5 -92.5t82.5 -265.5zM499 920q0 -6 -6 -14t-31 -34l-67 -72q-23 -25 -75 -25
q-31 0 -31 15q0 3 2 8t7.5 15t12.5 20.5t19 31.5l24 42q15 27 85 27q60 0 60 -14z" />
    <glyph glyph-name="Ocircumflex" unicode="&#xd4;" horiz-adv-x="731" 
d="M528 350q0 111 -41 168.5t-121 57.5t-121.5 -57.5t-41.5 -168.5t41.5 -169t121.5 -58t121 58t41 169zM686 350q0 -173 -82.5 -265.5t-237.5 -92.5t-238 92.5t-83 265.5t83 265.5t238 92.5t237.5 -92.5t82.5 -265.5zM502 772q0 -10 -20 -10h-22q-52 0 -68 24l-28 40
l-28 -39q-18 -25 -67 -25h-22q-20 0 -20 10q0 6 6 15l65 102q12 19 61 19h11q49 0 61 -19l65 -102q6 -9 6 -15z" />
    <glyph glyph-name="Otilde" unicode="&#xd5;" horiz-adv-x="731" 
d="M528 350q0 111 -41 168.5t-121 57.5t-121.5 -57.5t-41.5 -168.5t41.5 -169t121.5 -58t121 58t41 169zM686 350q0 -173 -82.5 -265.5t-237.5 -92.5t-238 92.5t-83 265.5t83 265.5t238 92.5t237.5 -92.5t82.5 -265.5zM525 834q0 -21 -33.5 -40t-74.5 -19q-28 0 -68 10
t-57 10q-8 -1 -23.5 -6t-21.5 -5q-16 0 -29 14.5t-13 30.5q0 21 33.5 40t74.5 19q28 0 67.5 -10t57.5 -10q8 1 24 6t22 5q15 0 28 -14.5t13 -30.5z" />
    <glyph glyph-name="Odieresis" unicode="&#xd6;" horiz-adv-x="731" 
d="M528 350q0 111 -41 168.5t-121 57.5t-121.5 -57.5t-41.5 -168.5t41.5 -169t121.5 -58t121 58t41 169zM686 350q0 -173 -82.5 -265.5t-237.5 -92.5t-238 92.5t-83 265.5t83 265.5t238 92.5t237.5 -92.5t82.5 -265.5zM335 850v-60q0 -32 -60 -32t-60 32v60q0 32 60 32
t60 -32zM515 850v-60q0 -32 -60 -32t-60 32v60q0 32 60 32t60 -32z" />
    <glyph glyph-name="multiply" unicode="&#xd7;" horiz-adv-x="560" 
d="M504 77q0 -15 -23 -38l-5 -5q-23 -23 -38 -23q-10 0 -18 9l-148 147l-147 -147q-9 -9 -18 -9q-15 0 -38 23l-5 5q-23 23 -23 38q0 9 9 18l147 147l-147 148q-9 8 -9 18q0 15 23 38l5 5q23 23 38 23q9 0 18 -9l147 -147l148 147q8 9 18 9q15 0 38 -23l5 -5q23 -23 23 -38
q0 -10 -9 -18l-147 -148l147 -147q9 -9 9 -18z" />
    <glyph glyph-name="Oslash" unicode="&#xd8;" horiz-adv-x="731" 
d="M528 350q0 72 -19 124l-262 -296q41 -55 119 -55q80 0 121 58t41 169zM211 260l252 284q-38 32 -97 32q-80 0 -121.5 -57.5t-41.5 -168.5q0 -47 8 -90zM686 350q0 -173 -82.5 -265.5t-237.5 -92.5q-139 0 -219 74l-58 -66q-11 -12 -22 -12q-13 0 -30.5 16t-17.5 30
q0 10 10 20l66 75q-50 86 -50 221q0 173 83 265.5t238 92.5q118 0 194 -55l52 59q10 12 22 12q13 0 30.5 -16.5t17.5 -29.5q0 -10 -10 -20l-54 -61q68 -93 68 -247z" />
    <glyph glyph-name="Ugrave" unicode="&#xd9;" horiz-adv-x="712" 
d="M646 670v-436q0 -115 -76 -178.5t-214 -63.5t-214 63.5t-76 178.5v436q0 32 60 32h34q60 0 60 -32v-426q0 -53 38 -87t98 -34t98.5 34t38.5 87v426q0 32 60 32h33q60 0 60 -32zM453 790q0 -15 -31 -15q-52 0 -75 25l-67 72q-26 28 -31.5 35t-5.5 13q0 14 60 14
q70 0 85 -27l24 -42t19 -31.5t12.5 -20.5t7.5 -15t2 -8z" />
    <glyph glyph-name="Uacute" unicode="&#xda;" horiz-adv-x="712" 
d="M646 670v-436q0 -115 -76 -178.5t-214 -63.5t-214 63.5t-76 178.5v436q0 32 60 32h34q60 0 60 -32v-426q0 -53 38 -87t98 -34t98.5 34t38.5 87v426q0 32 60 32h33q60 0 60 -32zM495 920q0 -6 -6 -14t-31 -34l-67 -72q-23 -25 -75 -25q-31 0 -31 15q0 3 2 8t7.5 15
t12.5 20.5t19 31.5l24 42q15 27 85 27q60 0 60 -14z" />
    <glyph glyph-name="Ucircumflex" unicode="&#xdb;" horiz-adv-x="712" 
d="M646 670v-436q0 -115 -76 -178.5t-214 -63.5t-214 63.5t-76 178.5v436q0 32 60 32h34q60 0 60 -32v-426q0 -53 38 -87t98 -34t98.5 34t38.5 87v426q0 32 60 32h33q60 0 60 -32zM498 772q0 -10 -20 -10h-22q-52 0 -68 24l-28 40l-28 -39q-18 -25 -67 -25h-22q-20 0 -20 10
q0 6 6 15l65 102q12 19 61 19h11q49 0 61 -19l65 -102q6 -9 6 -15z" />
    <glyph glyph-name="Udieresis" unicode="&#xdc;" horiz-adv-x="712" 
d="M646 670v-436q0 -115 -76 -178.5t-214 -63.5t-214 63.5t-76 178.5v436q0 32 60 32h34q60 0 60 -32v-426q0 -53 38 -87t98 -34t98.5 34t38.5 87v426q0 32 60 32h33q60 0 60 -32zM331 850v-60q0 -32 -60 -32t-60 32v60q0 32 60 32t60 -32zM511 850v-60q0 -32 -60 -32
t-60 32v60q0 32 60 32t60 -32z" />
    <glyph glyph-name="Yacute" unicode="&#xdd;" horiz-adv-x="559" 
d="M565 682q0 -10 -9 -25l-199 -324v-303q0 -32 -60 -32h-34q-60 0 -60 32v306l-199 321q-10 17 -10 25q0 20 64 20h43q49 0 60 -19l122 -214l123 214q11 19 60 19h36q63 0 63 -20zM411 920q0 -6 -6 -14t-31 -34l-67 -72q-23 -25 -75 -25q-31 0 -31 15q0 3 2 8t7.5 15
t12.5 20.5t19 31.5l24 42q15 27 85 27q60 0 60 -14z" />
    <glyph glyph-name="Thorn" unicode="&#xde;" horiz-adv-x="567" 
d="M405 374q0 49 -25.5 68.5t-61.5 19.5h-96v-175h96q36 0 61.5 19t25.5 68zM563 374q0 -55 -19 -96.5t-45.5 -64t-60.5 -36.5t-58 -18t-45 -4h-113v-125q0 -32 -60 -32h-34q-60 0 -60 32v640q0 32 60 32h34q60 0 60 -32v-77h103q31 0 59.5 -4t62.5 -18t58.5 -36.5t41 -64
t16.5 -96.5z" />
    <glyph glyph-name="germandbls" unicode="&#xdf;" horiz-adv-x="554" 
d="M533 210q0 -92 -63.5 -151t-170.5 -59h-23q-30 0 -30 50v17q0 50 30 50h14q42 0 67.5 25.5t25.5 67.5q0 46 -28.5 73.5t-78.5 27.5q-30 0 -30 50v17q0 49 27 50q38 1 61.5 24.5t23.5 58.5q0 27 -18.5 49.5t-54.5 22.5t-57.5 -22.5t-21.5 -58.5v-472q0 -32 -60 -32h-28
q-60 0 -60 32v460q0 99 64 158.5t165 59.5q97 0 159 -48t62 -130q0 -105 -93 -143v-4q118 -45 118 -173z" />
    <glyph glyph-name="agrave" unicode="&#xe0;" horiz-adv-x="565" 
d="M357 172v178q-9 26 -29.5 43.5t-43.5 17.5q-92 0 -92 -149t81 -149q50 0 84 59zM515 31q0 -16 -40.5 -24t-71.5 -8q-9 0 -15.5 4t-10.5 13t-6 15t-4.5 19.5t-3.5 16.5q-18 -33 -53.5 -54t-80.5 -21q-83 0 -135 71.5t-52 198.5q0 124 51.5 196.5t146.5 72.5q42 0 77 -22
t51 -47l3 22q0 1 0.5 6t1 6.5t1.5 5.5t2 5.5t2.5 4.5t3.5 4.5t5.5 3.5t7 3t9 1.5t11.5 0.5h28q60 0 60 -32v-317q0 -62 6 -104zM376 610q0 -15 -31 -15q-52 0 -75 25l-67 72q-26 28 -31.5 35t-5.5 13q0 14 60 14q70 0 85 -27l24 -42t19 -31.5t12.5 -20.5t7.5 -15t2 -8z" />
    <glyph glyph-name="aacute" unicode="&#xe1;" horiz-adv-x="565" 
d="M357 172v178q-9 26 -29.5 43.5t-43.5 17.5q-92 0 -92 -149t81 -149q50 0 84 59zM515 31q0 -16 -40.5 -24t-71.5 -8q-9 0 -15.5 4t-10.5 13t-6 15t-4.5 19.5t-3.5 16.5q-18 -33 -53.5 -54t-80.5 -21q-83 0 -135 71.5t-52 198.5q0 124 51.5 196.5t146.5 72.5q42 0 77 -22
t51 -47l3 22q0 1 0.5 6t1 6.5t1.5 5.5t2 5.5t2.5 4.5t3.5 4.5t5.5 3.5t7 3t9 1.5t11.5 0.5h28q60 0 60 -32v-317q0 -62 6 -104zM453 740q0 -6 -6 -14t-31 -34l-67 -72q-23 -25 -75 -25q-31 0 -31 15q0 3 2 8t7.5 15t12.5 20.5t19 31.5l24 42q15 27 85 27q60 0 60 -14z" />
    <glyph glyph-name="acircumflex" unicode="&#xe2;" horiz-adv-x="565" 
d="M357 172v178q-9 26 -29.5 43.5t-43.5 17.5q-92 0 -92 -149t81 -149q50 0 84 59zM515 31q0 -16 -40.5 -24t-71.5 -8q-9 0 -15.5 4t-10.5 13t-6 15t-4.5 19.5t-3.5 16.5q-18 -33 -53.5 -54t-80.5 -21q-83 0 -135 71.5t-52 198.5q0 124 51.5 196.5t146.5 72.5q42 0 77 -22
t51 -47l3 22q0 1 0.5 6t1 6.5t1.5 5.5t2 5.5t2.5 4.5t3.5 4.5t5.5 3.5t7 3t9 1.5t11.5 0.5h28q60 0 60 -32v-317q0 -62 6 -104zM421 592q0 -10 -20 -10h-22q-52 0 -68 24l-28 40l-28 -39q-18 -25 -67 -25h-22q-20 0 -20 10q0 6 6 15l65 102q12 19 61 19h11q49 0 61 -19
l65 -102q6 -9 6 -15z" />
    <glyph glyph-name="atilde" unicode="&#xe3;" horiz-adv-x="565" 
d="M357 172v178q-9 26 -29.5 43.5t-43.5 17.5q-92 0 -92 -149t81 -149q50 0 84 59zM515 31q0 -16 -40.5 -24t-71.5 -8q-9 0 -15.5 4t-10.5 13t-6 15t-4.5 19.5t-3.5 16.5q-18 -33 -53.5 -54t-80.5 -21q-83 0 -135 71.5t-52 198.5q0 124 51.5 196.5t146.5 72.5q42 0 77 -22
t51 -47l3 22q0 1 0.5 6t1 6.5t1.5 5.5t2 5.5t2.5 4.5t3.5 4.5t5.5 3.5t7 3t9 1.5t11.5 0.5h28q60 0 60 -32v-317q0 -62 6 -104zM444 654q0 -21 -33.5 -40t-74.5 -19q-28 0 -68 10t-57 10q-8 -1 -23.5 -6t-21.5 -5q-16 0 -29 14.5t-13 30.5q0 21 33.5 40t74.5 19
q28 0 67.5 -10t57.5 -10q8 1 24 6t22 5q15 0 28 -14.5t13 -30.5z" />
    <glyph glyph-name="adieresis" unicode="&#xe4;" horiz-adv-x="565" 
d="M357 172v178q-9 26 -29.5 43.5t-43.5 17.5q-92 0 -92 -149t81 -149q50 0 84 59zM515 31q0 -16 -40.5 -24t-71.5 -8q-9 0 -15.5 4t-10.5 13t-6 15t-4.5 19.5t-3.5 16.5q-18 -33 -53.5 -54t-80.5 -21q-83 0 -135 71.5t-52 198.5q0 124 51.5 196.5t146.5 72.5q42 0 77 -22
t51 -47l3 22q0 1 0.5 6t1 6.5t1.5 5.5t2 5.5t2.5 4.5t3.5 4.5t5.5 3.5t7 3t9 1.5t11.5 0.5h28q60 0 60 -32v-317q0 -62 6 -104zM254 670v-60q0 -32 -60 -32t-60 32v60q0 32 60 32t60 -32zM434 670v-60q0 -32 -60 -32t-60 32v60q0 32 60 32t60 -32z" />
    <glyph glyph-name="aring" unicode="&#xe5;" horiz-adv-x="565" 
d="M357 172v178q-9 26 -29.5 43.5t-43.5 17.5q-92 0 -92 -149t81 -149q50 0 84 59zM321 648q0 15 -11 26t-26 11t-25.5 -11t-10.5 -26t10.5 -25.5t25.5 -10.5t26 10.5t11 25.5zM515 31q0 -16 -40.5 -24t-71.5 -8q-9 0 -15.5 4t-10.5 13t-6 15t-4.5 19.5t-3.5 16.5
q-18 -33 -53.5 -54t-80.5 -21q-83 0 -135 71.5t-52 198.5q0 124 51.5 196.5t146.5 72.5q42 0 77 -22t51 -47l3 22q0 1 0.5 6t1 6.5t1.5 5.5t2 5.5t2.5 4.5t3.5 4.5t5.5 3.5t7 3t9 1.5t11.5 0.5h28q60 0 60 -32v-317q0 -62 6 -104zM384 649q0 -42 -29 -70.5t-71 -28.5
t-70.5 28.5t-28.5 70.5t28.5 71t70.5 29t71 -29t29 -71z" />
    <glyph glyph-name="ae" unicode="&#xe6;" horiz-adv-x="829" 
d="M334 156q-9 32 -12 69q-134 -1 -134 -72q0 -20 13 -32t37 -12q28 0 55 12.5t41 34.5zM474 323h162q0 43 -19.5 67t-52.5 24q-76 0 -90 -91zM780 283q0 -13 -19.5 -36t-29.5 -23h-255q0 -61 32 -88t81 -27q38 0 79 15.5t42 15.5q15 0 33.5 -29.5t18.5 -46.5
q0 -33 -62.5 -52.5t-117.5 -19.5q-127 0 -195 68q-24 -24 -71.5 -46t-108.5 -22q-78 0 -122 41t-44 105q0 28 5 50.5t23 48.5t47.5 44t83 30t125.5 12q4 35 15 64q-21 27 -90 27q-37 0 -81.5 -16t-46.5 -16q-15 0 -33.5 31t-18.5 49q0 27 55.5 48t135.5 21q108 0 161 -36
q58 36 142 36q112 0 164 -68t52 -180z" />
    <glyph glyph-name="ccedilla" unicode="&#xe7;" horiz-adv-x="485" 
d="M469 62q0 -33 -54 -49.5t-109 -20.5l-6 -23q78 -16 78 -76q0 -100 -119 -100q-47 0 -89 14t-42 36t11.5 33t20.5 11t38.5 -10.5t52.5 -10.5q24 0 24 17q0 13 -26.5 24.5t-26.5 23.5q0 11 18 64q-198 25 -198 263q0 136 62.5 204.5t194.5 68.5q61 0 113.5 -18.5
t52.5 -50.5q0 -15 -20.5 -46t-32.5 -31q-4 0 -18 7q-44 22 -87 22q-59 0 -86 -37t-27 -115t25.5 -115.5t81.5 -37.5q49 0 98 23q16 6 18 6q15 0 33.5 -29.5t18.5 -46.5z" />
    <glyph glyph-name="egrave" unicode="&#xe8;" horiz-adv-x="539" 
d="M195 313h162q0 46 -18 73.5t-54 27.5q-74 0 -90 -101zM501 273q0 -12 -20.5 -35.5t-30.5 -23.5h-255q5 -57 34 -81t81 -24q38 0 79 15.5t42 15.5q15 0 33.5 -29.5t18.5 -46.5q0 -33 -62.5 -52.5t-117.5 -19.5q-132 0 -196.5 70.5t-64.5 195.5q0 141 64.5 207t178.5 66
q111 0 163.5 -72t52.5 -186zM372 610q0 -15 -31 -15q-52 0 -75 25l-67 72q-26 28 -31.5 35t-5.5 13q0 14 60 14q70 0 85 -27l24 -42t19 -31.5t12.5 -20.5t7.5 -15t2 -8z" />
    <glyph glyph-name="eacute" unicode="&#xe9;" horiz-adv-x="539" 
d="M195 313h162q0 46 -18 73.5t-54 27.5q-74 0 -90 -101zM501 273q0 -12 -20.5 -35.5t-30.5 -23.5h-255q5 -57 34 -81t81 -24q38 0 79 15.5t42 15.5q15 0 33.5 -29.5t18.5 -46.5q0 -33 -62.5 -52.5t-117.5 -19.5q-132 0 -196.5 70.5t-64.5 195.5q0 141 64.5 207t178.5 66
q111 0 163.5 -72t52.5 -186zM414 740q0 -6 -6 -14t-31 -34l-67 -72q-23 -25 -75 -25q-31 0 -31 15q0 3 2 8t7.5 15t12.5 20.5t19 31.5l24 42q15 27 85 27q60 0 60 -14z" />
    <glyph glyph-name="ecircumflex" unicode="&#xea;" horiz-adv-x="539" 
d="M195 313h162q0 46 -18 73.5t-54 27.5q-74 0 -90 -101zM501 273q0 -12 -20.5 -35.5t-30.5 -23.5h-255q5 -57 34 -81t81 -24q38 0 79 15.5t42 15.5q15 0 33.5 -29.5t18.5 -46.5q0 -33 -62.5 -52.5t-117.5 -19.5q-132 0 -196.5 70.5t-64.5 195.5q0 141 64.5 207t178.5 66
q111 0 163.5 -72t52.5 -186zM417 592q0 -10 -20 -10h-22q-52 0 -68 24l-28 40l-28 -39q-18 -25 -67 -25h-22q-20 0 -20 10q0 6 6 15l65 102q12 19 61 19h11q49 0 61 -19l65 -102q6 -9 6 -15z" />
    <glyph glyph-name="edieresis" unicode="&#xeb;" horiz-adv-x="539" 
d="M195 313h162q0 46 -18 73.5t-54 27.5q-74 0 -90 -101zM501 273q0 -12 -20.5 -35.5t-30.5 -23.5h-255q5 -57 34 -81t81 -24q38 0 79 15.5t42 15.5q15 0 33.5 -29.5t18.5 -46.5q0 -33 -62.5 -52.5t-117.5 -19.5q-132 0 -196.5 70.5t-64.5 195.5q0 141 64.5 207t178.5 66
q111 0 163.5 -72t52.5 -186zM250 670v-60q0 -32 -60 -32t-60 32v60q0 32 60 32t60 -32zM430 670v-60q0 -32 -60 -32t-60 32v60q0 32 60 32t60 -32z" />
    <glyph glyph-name="igrave" unicode="&#xec;" horiz-adv-x="265" 
d="M207 493v-463q0 -32 -60 -32h-28q-60 0 -60 32v463q0 32 60 32h28q60 0 60 -32zM225 610q0 -15 -31 -15q-52 0 -75 25l-67 72q-26 28 -31.5 35t-5.5 13q0 14 60 14q70 0 85 -27l24 -42t19 -31.5t12.5 -20.5t7.5 -15t2 -8z" />
    <glyph glyph-name="iacute" unicode="&#xed;" horiz-adv-x="265" 
d="M207 493v-463q0 -32 -60 -32h-28q-60 0 -60 32v463q0 32 60 32h28q60 0 60 -32zM267 740q0 -6 -6 -14t-31 -34l-67 -72q-23 -25 -75 -25q-31 0 -31 15q0 3 2 8t7.5 15t12.5 20.5t19 31.5l24 42q15 27 85 27q60 0 60 -14z" />
    <glyph glyph-name="icircumflex" unicode="&#xee;" horiz-adv-x="265" 
d="M207 493v-463q0 -32 -60 -32h-28q-60 0 -60 32v463q0 32 60 32h28q60 0 60 -32zM270 592q0 -10 -20 -10h-22q-52 0 -68 24l-28 40l-28 -39q-18 -25 -67 -25h-22q-20 0 -20 10q0 6 6 15l65 102q12 19 61 19h11q49 0 61 -19l65 -102q6 -9 6 -15z" />
    <glyph glyph-name="idieresis" unicode="&#xef;" horiz-adv-x="265" 
d="M207 493v-463q0 -32 -60 -32h-28q-60 0 -60 32v463q0 32 60 32h28q60 0 60 -32zM103 670v-60q0 -32 -60 -32t-60 32v60q0 32 60 32t60 -32zM283 670v-60q0 -32 -60 -32t-60 32v60q0 32 60 32t60 -32z" />
    <glyph glyph-name="eth" unicode="&#xf0;" horiz-adv-x="569" 
d="M377 262q0 152 -92 152q-93 0 -93 -152q0 -153 93 -153q92 0 92 153zM527 262q0 -131 -61.5 -200.5t-180.5 -69.5t-181 69.5t-62 200.5t62 200t181 69q19 0 51 -4q-12 27 -32 62q-55 -8 -61 -8q-15 0 -27 13t-12 29q0 13 21 16l43 6l-15 18t-17 21t-6 12q0 11 19 12l62 7
q24 0 39.5 -12t34.5 -37l4 -5q66 9 68 9q13 0 25 -13.5t12 -28.5q0 -13 -21 -16l-46 -6q42 -64 71 -156.5t29 -187.5z" />
    <glyph glyph-name="ntilde" unicode="&#xf1;" horiz-adv-x="557" 
d="M498 369v-339q0 -32 -60 -32h-28q-60 0 -60 32v317q0 62 -60 62q-50 0 -80 -58v-321q0 -32 -60 -32h-28q-60 0 -60 32v317q0 44 -3 74.5t-6 45.5t-3 21q0 16 40.5 24t71.5 8q9 0 15.5 -4t10.5 -12.5t6 -14t4.5 -18.5t3.5 -16q24 32 64 54t85 22q75 0 111 -39.5t36 -122.5
zM446 654q0 -21 -33.5 -40t-74.5 -19q-28 0 -68 10t-57 10q-8 -1 -23.5 -6t-21.5 -5q-16 0 -29 14.5t-13 30.5q0 21 33.5 40t74.5 19q28 0 67.5 -10t57.5 -10q8 1 24 6t22 5q15 0 28 -14.5t13 -30.5z" />
    <glyph glyph-name="ograve" unicode="&#xf2;" horiz-adv-x="569" 
d="M377 262q0 152 -92 152q-93 0 -93 -152q0 -153 93 -153q92 0 92 153zM527 262q0 -131 -61.5 -200.5t-180.5 -69.5t-181 69.5t-62 200.5t62 200t181 69t180.5 -69t61.5 -200zM376 610q0 -15 -31 -15q-52 0 -75 25l-67 72q-26 28 -31.5 35t-5.5 13q0 14 60 14q70 0 85 -27
l24 -42t19 -31.5t12.5 -20.5t7.5 -15t2 -8z" />
    <glyph glyph-name="oacute" unicode="&#xf3;" horiz-adv-x="569" 
d="M377 262q0 152 -92 152q-93 0 -93 -152q0 -153 93 -153q92 0 92 153zM527 262q0 -131 -61.5 -200.5t-180.5 -69.5t-181 69.5t-62 200.5t62 200t181 69t180.5 -69t61.5 -200zM418 740q0 -6 -6 -14t-31 -34l-67 -72q-23 -25 -75 -25q-31 0 -31 15q0 3 2 8t7.5 15t12.5 20.5
t19 31.5l24 42q15 27 85 27q60 0 60 -14z" />
    <glyph glyph-name="ocircumflex" unicode="&#xf4;" horiz-adv-x="569" 
d="M377 262q0 152 -92 152q-93 0 -93 -152q0 -153 93 -153q92 0 92 153zM527 262q0 -131 -61.5 -200.5t-180.5 -69.5t-181 69.5t-62 200.5t62 200t181 69t180.5 -69t61.5 -200zM421 592q0 -10 -20 -10h-22q-52 0 -68 24l-28 40l-28 -39q-18 -25 -67 -25h-22q-20 0 -20 10
q0 6 6 15l65 102q12 19 61 19h11q49 0 61 -19l65 -102q6 -9 6 -15z" />
    <glyph glyph-name="otilde" unicode="&#xf5;" horiz-adv-x="569" 
d="M377 262q0 152 -92 152q-93 0 -93 -152q0 -153 93 -153q92 0 92 153zM527 262q0 -131 -61.5 -200.5t-180.5 -69.5t-181 69.5t-62 200.5t62 200t181 69t180.5 -69t61.5 -200zM444 654q0 -21 -33.5 -40t-74.5 -19q-28 0 -68 10t-57 10q-8 -1 -23.5 -6t-21.5 -5
q-16 0 -29 14.5t-13 30.5q0 21 33.5 40t74.5 19q28 0 67.5 -10t57.5 -10q8 1 24 6t22 5q15 0 28 -14.5t13 -30.5z" />
    <glyph glyph-name="odieresis" unicode="&#xf6;" horiz-adv-x="569" 
d="M377 262q0 152 -92 152q-93 0 -93 -152q0 -153 93 -153q92 0 92 153zM527 262q0 -131 -61.5 -200.5t-180.5 -69.5t-181 69.5t-62 200.5t62 200t181 69t180.5 -69t61.5 -200zM254 670v-60q0 -32 -60 -32t-60 32v60q0 32 60 32t60 -32zM434 670v-60q0 -32 -60 -32t-60 32
v60q0 32 60 32t60 -32z" />
    <glyph glyph-name="divide" unicode="&#xf7;" horiz-adv-x="560" 
d="M345 101v-71q0 -32 -60 -32h-11q-60 0 -60 32v71q0 32 60 32h11q60 0 60 -32zM532 229v-7q0 -50 -30 -50h-444q-30 0 -30 50v7q0 50 30 50h444q30 0 30 -50zM345 421v-71q0 -32 -60 -32h-11q-60 0 -60 32v71q0 32 60 32h11q60 0 60 -32z" />
    <glyph glyph-name="oslash" unicode="&#xf8;" horiz-adv-x="569" 
d="M377 262q0 26 -3 48l-150 -175q23 -26 61 -26q92 0 92 153zM194 221l147 172q-21 21 -56 21q-93 0 -93 -152q0 -15 2 -41zM530 500q0 -9 -10 -21l-36 -42q43 -68 43 -175q0 -131 -61.5 -200.5t-180.5 -69.5q-91 0 -149 41l-28 -32q-12 -13 -21 -13q-13 0 -30.5 15
t-17.5 29q0 10 10 21l33 38q-40 65 -40 171q0 131 62 200t181 69q86 0 143 -37l32 37q11 13 22 13q12 0 30 -16t18 -28z" />
    <glyph glyph-name="ugrave" unicode="&#xf9;" horiz-adv-x="557" 
d="M507 31q0 -16 -40.5 -24t-71.5 -8q-9 0 -15.5 4t-10.5 13.5t-6 15t-4.5 19.5t-3.5 17q-24 -32 -63.5 -54t-85.5 -22q-75 0 -111 39.5t-36 122.5v339q0 32 60 32h28q60 0 60 -32v-317q0 -62 60 -62q50 0 80 58v321q0 32 60 32h28q60 0 60 -32v-317q0 -62 6 -104zM378 610
q0 -15 -31 -15q-52 0 -75 25l-67 72q-26 28 -31.5 35t-5.5 13q0 14 60 14q70 0 85 -27l24 -42t19 -31.5t12.5 -20.5t7.5 -15t2 -8z" />
    <glyph glyph-name="uacute" unicode="&#xfa;" horiz-adv-x="557" 
d="M507 31q0 -16 -40.5 -24t-71.5 -8q-9 0 -15.5 4t-10.5 13.5t-6 15t-4.5 19.5t-3.5 17q-24 -32 -63.5 -54t-85.5 -22q-75 0 -111 39.5t-36 122.5v339q0 32 60 32h28q60 0 60 -32v-317q0 -62 60 -62q50 0 80 58v321q0 32 60 32h28q60 0 60 -32v-317q0 -62 6 -104zM420 740
q0 -6 -6 -14t-31 -34l-67 -72q-23 -25 -75 -25q-31 0 -31 15q0 3 2 8t7.5 15t12.5 20.5t19 31.5l24 42q15 27 85 27q60 0 60 -14z" />
    <glyph glyph-name="ucircumflex" unicode="&#xfb;" horiz-adv-x="557" 
d="M507 31q0 -16 -40.5 -24t-71.5 -8q-9 0 -15.5 4t-10.5 13.5t-6 15t-4.5 19.5t-3.5 17q-24 -32 -63.5 -54t-85.5 -22q-75 0 -111 39.5t-36 122.5v339q0 32 60 32h28q60 0 60 -32v-317q0 -62 60 -62q50 0 80 58v321q0 32 60 32h28q60 0 60 -32v-317q0 -62 6 -104zM423 592
q0 -10 -20 -10h-22q-52 0 -68 24l-28 40l-28 -39q-18 -25 -67 -25h-22q-20 0 -20 10q0 6 6 15l65 102q12 19 61 19h11q49 0 61 -19l65 -102q6 -9 6 -15z" />
    <glyph glyph-name="udieresis" unicode="&#xfc;" horiz-adv-x="557" 
d="M507 31q0 -16 -40.5 -24t-71.5 -8q-9 0 -15.5 4t-10.5 13.5t-6 15t-4.5 19.5t-3.5 17q-24 -32 -63.5 -54t-85.5 -22q-75 0 -111 39.5t-36 122.5v339q0 32 60 32h28q60 0 60 -32v-317q0 -62 60 -62q50 0 80 58v321q0 32 60 32h28q60 0 60 -32v-317q0 -62 6 -104zM256 670
v-60q0 -32 -60 -32t-60 32v60q0 32 60 32t60 -32zM436 670v-60q0 -32 -60 -32t-60 32v60q0 32 60 32t60 -32z" />
    <glyph glyph-name="yacute" unicode="&#xfd;" horiz-adv-x="557" 
d="M495 493l1 -524q0 -78 -72.5 -129.5t-187.5 -51.5q-20 0 -46.5 3.5t-57 11t-51 22t-20.5 34.5q0 17 18.5 46.5t33.5 29.5q2 0 18 -6q51 -24 116 -24q50 0 78 21.5t28 53.5v88q-51 -67 -141 -67q-75 0 -114 44t-39 127v321q0 32 60 32h28q60 0 60 -32v-299q0 -32 14.5 -53
t45.5 -21q53 0 80 52v321q0 32 60 32h28q60 0 60 -32zM425 740q0 -6 -6 -14t-31 -34l-67 -72q-23 -25 -75 -25q-31 0 -31 15q0 3 2 8t7.5 15t12.5 20.5t19 31.5l24 42q15 27 85 27q60 0 60 -14z" />
    <glyph glyph-name="thorn" unicode="&#xfe;" horiz-adv-x="570" 
d="M376 261q0 149 -81 149q-48 0 -82 -59v-223q34 -19 70 -19q93 0 93 152zM526 261q0 -124 -55.5 -196.5t-155.5 -72.5q-59 0 -102 31v-197q0 -32 -60 -32h-28q-60 0 -60 32v896q0 32 60 32h28q60 0 60 -32v-252q42 61 126 61q83 0 135 -71.5t52 -198.5z" />
    <glyph glyph-name="ydieresis" unicode="&#xff;" horiz-adv-x="557" 
d="M495 493l1 -524q0 -78 -72.5 -129.5t-187.5 -51.5q-20 0 -46.5 3.5t-57 11t-51 22t-20.5 34.5q0 17 18.5 46.5t33.5 29.5q2 0 18 -6q51 -24 116 -24q50 0 78 21.5t28 53.5v88q-51 -67 -141 -67q-75 0 -114 44t-39 127v321q0 32 60 32h28q60 0 60 -32v-299q0 -32 14.5 -53
t45.5 -21q53 0 80 52v321q0 32 60 32h28q60 0 60 -32zM256 670v-60q0 -32 -60 -32t-60 32v60q0 32 60 32t60 -32zM436 670v-60q0 -32 -60 -32t-60 32v60q0 32 60 32t60 -32z" />
    <glyph glyph-name="dotlessi" unicode="&#x131;" horiz-adv-x="265" 
d="M207 493v-463q0 -32 -60 -32h-28q-60 0 -60 32v463q0 32 60 32h28q60 0 60 -32z" />
    <glyph glyph-name="Lslash" unicode="&#x141;" horiz-adv-x="486" 
d="M478 81v-31q0 -50 -30 -50h-337q-40 0 -40 40v261l-19 -12q-7 -5 -15 -5q-11 0 -11 20v20q0 29 26 45l19 12v289q0 32 60 32h34q60 0 60 -32v-195l87 53q9 6 15 6q11 0 11 -20v-20q0 -30 -26 -46l-87 -53v-264h223q30 0 30 -50z" />
    <glyph glyph-name="lslash" unicode="&#x142;" horiz-adv-x="293" 
d="M301 41q0 -49 -96 -49q-146 0 -146 162v169l-22 -13q-11 -6 -16 -6q-10 0 -10 20v20q0 30 26 46l22 13v319q0 32 60 32h28q60 0 60 -32v-230l24 15q10 5 15 5q11 0 11 -20v-20q0 -29 -26 -45l-24 -15v-260q0 -43 36 -43q5 0 14.5 2t12.5 2q13 0 22 -29.5t9 -42.5z" />
    <glyph glyph-name="OE" unicode="&#x152;" horiz-adv-x="1021" 
d="M528 350q0 111 -41 168.5t-121 57.5t-121.5 -57.5t-41.5 -168.5t41.5 -169t121.5 -58t121 58t41 169zM967 81v-31q0 -50 -30 -50h-367q-39 0 -40 37q-74 -45 -174 -45q-150 0 -230.5 92.5t-80.5 265.5t80.5 265.5t230.5 92.5q101 0 174 -46q0 38 40 38h366q30 0 30 -50
v-31q0 -50 -30 -50h-252v-145h225q30 0 30 -50v-31q0 -50 -30 -50h-225v-162h253q30 0 30 -50z" />
    <glyph glyph-name="oe" unicode="&#x153;" horiz-adv-x="871" 
d="M376 262q0 152 -92 152q-93 0 -93 -152q0 -153 93 -153q92 0 92 153zM530 313h162q0 46 -18 73.5t-54 27.5q-74 0 -90 -101zM836 273q0 -12 -20.5 -35.5t-30.5 -23.5h-255q5 -57 34 -81t81 -24q38 0 79 15.5t42 15.5q15 0 33.5 -29.5t18.5 -46.5q0 -33 -62.5 -52.5
t-117.5 -19.5q-114 0 -184 62q-67 -62 -170 -62q-119 0 -181 69.5t-62 200.5t62 200t181 69q101 0 167 -61q67 61 169 61q111 0 163.5 -72t52.5 -186z" />
    <glyph glyph-name="Scaron" unicode="&#x160;" horiz-adv-x="500" 
d="M483 214q0 -60 -19.5 -104.5t-53 -69t-72 -36.5t-81.5 -12q-105 0 -170 29t-65 59q0 23 23 56t39 33q6 0 26.5 -11.5t53 -23t67.5 -11.5q94 0 94 73q0 32 -30 54t-72.5 38.5t-84.5 38t-72 66.5t-30 110q0 70 36 118t87.5 67.5t113.5 19.5q76 0 128 -22t52 -48
q0 -22 -19 -54.5t-36 -32.5q-4 0 -18 6.5t-39 12.5t-54 6q-52 0 -72.5 -18t-20.5 -41q0 -31 30 -52t72 -37t84.5 -37.5t72.5 -66.5t30 -110zM388 921q0 -6 -6 -15l-65 -102q-12 -19 -61 -19h-11q-49 0 -61 19l-65 102q-6 9 -6 15q0 10 20 10h22q49 0 67 -25l28 -39l28 40
q16 24 68 24h22q20 0 20 -10z" />
    <glyph glyph-name="scaron" unicode="&#x161;" horiz-adv-x="413" 
d="M393 166q0 -79 -51.5 -126.5t-135.5 -47.5q-71 0 -123 18.5t-52 52.5q0 16 19 45t34 29q2 0 36 -14t62 -14q61 0 61 45q0 24 -20.5 38.5t-50 24.5t-59 24t-50 46t-20.5 82q0 75 49.5 118.5t134.5 43.5q17 0 37.5 -2t48 -8t45 -19.5t17.5 -33.5q0 -13 -15 -43.5t-28 -30.5
q-1 0 -29.5 10.5t-55.5 10.5q-54 0 -54 -36q0 -20 20.5 -32.5t50 -23t59 -26t50 -49t20.5 -82.5zM358 718q0 -6 -6 -15l-65 -102q-12 -19 -61 -19h-11q-49 0 -61 19l-65 102q-6 9 -6 15q0 10 20 10h22q49 0 67 -25l28 -39l28 40q16 24 68 24h22q20 0 20 -10z" />
    <glyph glyph-name="Ydieresis" unicode="&#x178;" horiz-adv-x="559" 
d="M565 682q0 -10 -9 -25l-199 -324v-303q0 -32 -60 -32h-34q-60 0 -60 32v306l-199 321q-10 17 -10 25q0 20 64 20h43q49 0 60 -19l122 -214l123 214q11 19 60 19h36q63 0 63 -20zM247 850v-60q0 -32 -60 -32t-60 32v60q0 32 60 32t60 -32zM427 850v-60q0 -32 -60 -32
t-60 32v60q0 32 60 32t60 -32z" />
    <glyph glyph-name="Zcaron" unicode="&#x17d;" horiz-adv-x="616" 
d="M580 81v-31q0 -50 -30 -50h-484q-12 0 -25.5 33.5t-13.5 55.5q0 6 2 10l335 470h-278q-30 0 -30 50v31q0 50 30 50h457q11 0 24 -35t13 -57q0 -6 -1 -8l-334 -469h305q30 0 30 -50zM440 898q0 -6 -6 -15l-65 -102q-12 -19 -61 -19h-11q-49 0 -61 19l-65 102q-6 9 -6 15
q0 10 20 10h22q49 0 67 -25l28 -39l28 40q16 24 68 24h22q20 0 20 -10z" />
    <glyph glyph-name="zcaron" unicode="&#x17e;" horiz-adv-x="489" 
d="M460 67v-17q0 -50 -30 -50h-374q-9 0 -19 27.5t-10 48.5q0 10 3 14l229 316h-186q-30 0 -30 50v17q0 50 30 50h354q8 0 18.5 -28t10.5 -49q0 -10 -3 -15l-228 -314h205q30 0 30 -50zM387 718q0 -6 -6 -15l-65 -102q-12 -19 -61 -19h-11q-49 0 -61 19l-65 102q-6 9 -6 15
q0 10 20 10h22q49 0 67 -25l28 -39l28 40q16 24 68 24h22q20 0 20 -10z" />
    <glyph glyph-name="florin" unicode="&#x192;" horiz-adv-x="332" 
d="M357 711q0 -15 -14 -43.5t-27 -28.5q-3 0 -14 2t-16 2q-36 0 -42 -43l-11 -77h50q24 0 24 -31q0 -6 -1 -15.5t-4 -28t-12.5 -30.5t-23.5 -12h-50l-81 -581q-5 -32 -64 -32h-28q-33 0 -44.5 7.5t-11.5 24.5l81 581h-18q-25 0 -25 31q0 7 1 17t4.5 27.5t13 29.5t23.5 12h18
l10 75q22 162 169 162q93 0 93 -49z" />
    <glyph glyph-name="circumflex" unicode="&#x2c6;" 
d="M294 592q0 -10 -20 -10h-22q-52 0 -68 24l-28 40l-28 -39q-18 -25 -67 -25h-22q-20 0 -20 10q0 6 6 15l65 102q12 19 61 19h11q49 0 61 -19l65 -102q6 -9 6 -15z" />
    <glyph glyph-name="caron" unicode="&#x2c7;" 
d="M294 718q0 -6 -6 -15l-65 -102q-12 -19 -61 -19h-11q-49 0 -61 19l-65 102q-6 9 -6 15q0 10 20 10h22q49 0 67 -25l28 -39l28 40q16 24 68 24h22q20 0 20 -10z" />
    <glyph glyph-name="breve" unicode="&#x2d8;" 
d="M305 687q0 -44 -42 -78t-105 -34t-105 34t-42 78q0 28 35 28q13 0 22.5 -7.5t16 -17t25.5 -17t48 -7.5t48 7.5t25.5 17t16 17t22.5 7.5q35 0 35 -28z" />
    <glyph glyph-name="dotaccent" unicode="&#x2d9;" 
d="M222 670v-60q0 -32 -60 -32t-60 32v60q0 32 60 32t60 -32z" />
    <glyph glyph-name="ring" unicode="&#x2da;" 
d="M197 648q0 15 -11 26t-26 11t-25.5 -11t-10.5 -26t10.5 -25.5t25.5 -10.5t26 10.5t11 25.5zM260 649q0 -42 -29 -70.5t-71 -28.5t-70.5 28.5t-28.5 70.5t28.5 71t70.5 29t71 -29t29 -71z" />
    <glyph glyph-name="ogonek" unicode="&#x2db;" 
d="M254 -133q0 -50 -82 -50q-37 0 -63 11.5t-36.5 29.5t-14.5 32.5t-4 28.5q0 17 3.5 36t17.5 39t36 20q21 0 21 -19q0 -6 -5.5 -23.5t-5.5 -33.5q0 -51 62 -51q13 0 27 4t22 4q22 0 22 -28z" />
    <glyph glyph-name="tilde" unicode="&#x2dc;" horiz-adv-x="365" 
d="M343 654q0 -21 -33.5 -40t-74.5 -19q-28 0 -68 10t-57 10q-8 -1 -23.5 -6t-21.5 -5q-16 0 -29 14.5t-13 30.5q0 21 33.5 40t74.5 19q28 0 67.5 -10t57.5 -10q8 1 24 6t22 5q15 0 28 -14.5t13 -30.5z" />
    <glyph glyph-name="hungarumlaut" unicode="&#x2dd;" horiz-adv-x="384" 
d="M202 740q0 -6 -6 -14t-31 -34l-67 -72q-23 -25 -75 -25q-31 0 -31 15q0 3 2 8t7.5 15t12.5 20.5t19 31.5l24 42q15 27 85 27q60 0 60 -14zM385 740q0 -6 -6 -14t-31 -34l-67 -72q-23 -25 -75 -25q-31 0 -31 15q0 3 2 8t7.5 15t12.5 20.5t19 31.5l24 42q15 27 85 27
q60 0 60 -14z" />
    <glyph glyph-name="pi" unicode="&#x3c0;" horiz-adv-x="616" 
d="M601 492q0 -3 -4 -53q-3 -33 -37 -33h-47v-252q0 -23 1 -44.5t2.5 -35t2.5 -24t2 -16t1 -6.5q0 -30 -61 -30h-27q-66 0 -66 121v287h-93q-5 -95 -25 -205.5t-46 -173.5q-12 -29 -70 -29h-13q-29 0 -46 6.5t-17 16.5q0 2 2 10q26 75 46 180t24 195q-25 0 -45 -3t-31 -6
t-13 -3q-16 0 -25 21t-10 35t-1 23q0 50 157 50h405q34 0 34 -31z" />
    <glyph glyph-name="endash" unicode="&#x2013;" horiz-adv-x="500" 
d="M500 269v-7q0 -50 -30 -50h-440q-30 0 -30 50v7q0 50 30 50h440q30 0 30 -50z" />
    <glyph glyph-name="emdash" unicode="&#x2014;" horiz-adv-x="1000" 
d="M1000 269v-7q0 -50 -30 -50h-940q-30 0 -30 50v7q0 50 30 50h940q30 0 30 -50z" />
    <glyph glyph-name="quoteleft" unicode="&#x2018;" horiz-adv-x="212" 
d="M194 735q0 -10 -11 -35.5t-22 -71.5t-11 -106q0 -44 -60 -44h-19q-60 0 -60 44q0 53 25.5 109.5t58 91t54.5 34.5q16 0 30.5 -5.5t14.5 -16.5z" />
    <glyph glyph-name="quoteright" unicode="&#x2019;" horiz-adv-x="212" 
d="M202 713q0 -53 -25.5 -109.5t-58 -91t-54.5 -34.5q-16 0 -30.5 5.5t-14.5 16.5q0 10 11 35.5t22 71.5t11 106q0 44 60 44h19q60 0 60 -44z" />
    <glyph glyph-name="quotesinglbase" unicode="&#x201a;" horiz-adv-x="198" 
d="M195 110q0 -53 -25.5 -109.5t-58 -91t-54.5 -34.5q-16 0 -30.5 5.5t-14.5 16.5q0 10 11 35.5t22 71.5t11 106q0 44 60 44h19q60 0 60 -44z" />
    <glyph glyph-name="quotedblleft" unicode="&#x201c;" horiz-adv-x="350" 
d="M174 735q0 -10 -11 -35.5t-22 -71.5t-11 -106q0 -44 -60 -44h-19q-60 0 -60 44q0 53 25.5 109.5t58 91t54.5 34.5q16 0 30.5 -5.5t14.5 -16.5zM352 735q0 -10 -11 -35.5t-22 -71.5t-11 -106q0 -44 -60 -44h-19q-60 0 -60 44q0 53 25.5 109.5t58 91t54.5 34.5
q16 0 30.5 -5.5t14.5 -16.5z" />
    <glyph glyph-name="quotedblright" unicode="&#x201d;" horiz-adv-x="350" 
d="M183 713q0 -53 -25.5 -109.5t-58 -91t-54.5 -34.5q-16 0 -30.5 5.5t-14.5 16.5q0 10 11 35.5t22 71.5t11 106q0 44 60 44h19q60 0 60 -44zM361 713q0 -53 -25.5 -109.5t-58 -91t-54.5 -34.5q-16 0 -30.5 5.5t-14.5 16.5q0 10 11 35.5t22 71.5t11 106q0 44 60 44h19
q60 0 60 -44z" />
    <glyph glyph-name="quotedblbase" unicode="&#x201e;" horiz-adv-x="336" 
d="M175 110q0 -53 -25.5 -109.5t-58 -91t-54.5 -34.5q-16 0 -30.5 5.5t-14.5 16.5q0 10 11 35.5t22 71.5t11 106q0 44 60 44h19q60 0 60 -44zM353 110q0 -53 -25.5 -109.5t-58 -91t-54.5 -34.5q-16 0 -30.5 5.5t-14.5 16.5q0 10 11 35.5t22 71.5t11 106q0 44 60 44h19
q60 0 60 -44z" />
    <glyph glyph-name="dagger" unicode="&#x2020;" horiz-adv-x="535" 
d="M489 467v-7q0 -50 -30 -50h-134v-518q0 -32 -50 -32h-15q-50 0 -50 32v518h-134q-30 0 -30 50v7q0 50 30 50h134v153q0 32 50 32h15q50 0 50 -32v-153h134q30 0 30 -50z" />
    <glyph glyph-name="daggerdbl" unicode="&#x2021;" horiz-adv-x="535" 
d="M489 99v-7q0 -50 -30 -50h-134v-150q0 -32 -50 -32h-15q-50 0 -50 32v150h-134q-30 0 -30 50v7q0 50 30 50h134v261h-134q-30 0 -30 50v7q0 50 30 50h134v153q0 32 50 32h15q50 0 50 -32v-153h134q30 0 30 -50v-7q0 -50 -30 -50h-134v-261h134q30 0 30 -50z" />
    <glyph glyph-name="bullet" unicode="&#x2022;" horiz-adv-x="336" 
d="M301 326q0 -55 -39 -93.5t-94 -38.5t-93.5 38.5t-38.5 93.5t38.5 94t93.5 39t94 -39t39 -94z" />
    <glyph glyph-name="ellipsis" unicode="&#x2026;" horiz-adv-x="617" 
d="M176 122v-92q0 -32 -60 -32h-32q-60 0 -60 32v92q0 32 60 32h32q60 0 60 -32zM386 122v-92q0 -32 -60 -32h-32q-60 0 -60 32v92q0 32 60 32h32q60 0 60 -32zM596 122v-92q0 -32 -60 -32h-32q-60 0 -60 32v92q0 32 60 32h32q60 0 60 -32z" />
    <glyph glyph-name="perthousand" unicode="&#x2030;" horiz-adv-x="1038" 
d="M586 160q0 82 -47 82q-48 0 -48 -82q0 -86 48 -86q47 0 47 86zM235 540q0 82 -47 82q-48 0 -48 -82q0 -86 48 -86q47 0 47 86zM913 160q0 82 -47 82q-48 0 -48 -82q0 -86 48 -86q47 0 47 86zM689 160q0 -168 -150 -168t-150 168t150 168t150 -168zM599 688q0 -4 -5 -14
l-357 -648q-16 -28 -44 -28h-44q-21 0 -21 13q0 5 5 15l357 648q16 28 44 28h44q21 0 21 -14zM338 540q0 -168 -150 -168t-150 168t150 168t150 -168zM1016 160q0 -168 -150 -168t-150 168t150 168t150 -168z" />
    <glyph glyph-name="guilsinglleft" unicode="&#x2039;" horiz-adv-x="300" 
d="M256 95q0 -15 -21 -32t-38 -17q-13 0 -27 15l-127 153q-16 19 -16 44t16 44l127 153q13 14 27 14q16 0 37.5 -16.5t21.5 -32.5q0 -10 -9 -22l-110 -140l110 -140q9 -12 9 -23z" />
    <glyph glyph-name="guilsinglright" unicode="&#x203a;" horiz-adv-x="300" 
d="M269 258q0 -25 -16 -44l-127 -153q-14 -15 -27 -15q-17 0 -38 17t-21 32q0 11 9 23l110 140l-110 140q-9 12 -9 22q0 16 21.5 32.5t37.5 16.5q14 0 27 -14l127 -153q16 -19 16 -44z" />
    <glyph glyph-name="fraction" unicode="&#x2044;" horiz-adv-x="264" 
d="M359 689q0 -3 -6 -15l-359 -648q-15 -26 -45 -26h-17q-21 0 -21 11q0 3 6 15l359 648q14 26 45 26h17q21 0 21 -11z" />
    <glyph glyph-name="Euro" unicode="&#x20ac;" horiz-adv-x="600" 
d="M567 76q0 -40 -67.5 -62t-135.5 -22q-255 0 -297 241h-37q-30 0 -30 34v7q0 34 30 34h29q-1 14 -1 44q0 21 1 32h-29q-30 0 -30 34v7q0 34 30 34h36q44 249 303 249q66 0 127.5 -20t61.5 -50q0 -22 -23.5 -58t-41.5 -36q-2 0 -17.5 8t-44.5 16t-65 8q-111 0 -141 -117
h240q30 0 30 -34v-7q0 -34 -30 -34h-250q-1 -11 -1 -33q0 -30 1 -43h250q30 0 30 -34v-7q0 -34 -30 -34h-237q32 -110 136 -110q37 0 69.5 10t52 20t22.5 10q22 0 40.5 -34.5t18.5 -52.5z" />
    <glyph glyph-name="trademark" unicode="&#x2122;" horiz-adv-x="772" 
d="M323 672v-18q0 -28 -17 -28h-89v-303q0 -18 -34 -18h-20q-34 0 -34 18v303h-89q-17 0 -17 28v18q0 28 17 28h266q17 0 17 -28zM743 683v-360q0 -18 -34 -18h-16q-34 0 -34 18v233l-3 3l-81 -148q-5 -11 -22 -11h-17q-16 0 -22 11l-82 148l-2 -3v-233q0 -18 -34 -18h-16
q-34 0 -34 18v360q0 18 34 18h30q27 0 35 -15l99 -176l100 176q8 15 36 15h29q34 0 34 -18z" />
    <glyph glyph-name="Omega" unicode="&#x2126;" horiz-adv-x="731" 
d="M706 81v-31q0 -50 -30 -50h-247q-30 0 -30 50v26q0 29 14 34q116 37 116 240q0 111 -41.5 168.5t-121.5 57.5t-121.5 -57.5t-41.5 -168.5q0 -203 116 -240q14 -5 14 -34v-26q0 -50 -30 -50h-247q-30 0 -30 50v31q0 50 30 50q15 0 35.5 -4.5t33.5 -8.5l13 -5
q-93 93 -93 247q0 168 83 258t238 90t238 -90t83 -258q0 -154 -93 -247q49 18 82 18q30 0 30 -50z" />
    <glyph glyph-name="arrowleft" unicode="&#x2190;" horiz-adv-x="750" 
d="M751 273v-19q0 -44 -32 -44h-533l194 -191q10 -10 10 -14q0 -7 -19 -7h-86q-30 0 -51 21l-227 226q-7 7 -7 18t7 18l226 225q21 21 51 21h86q19 0 19 -7q0 -4 -10 -14l-192 -189h532q32 0 32 -44z" />
    <glyph glyph-name="arrowup" unicode="&#x2191;" horiz-adv-x="529" 
d="M531 369v-86q0 -30 -21 -51l-226 -227q-7 -7 -18 -7t-18 7l-225 226q-21 21 -21 51v86q0 19 7 19q4 0 14 -10l189 -192v494q0 32 44 32h19q44 0 44 -32v-495l191 194q10 10 14 10q7 0 7 -19z" />
    <glyph glyph-name="arrowright" unicode="&#x2192;" horiz-adv-x="750" 
d="M751 263q0 -11 -7 -18l-227 -226q-21 -21 -51 -21h-86q-19 0 -19 7q0 4 10 14l194 191h-533q-32 0 -32 44v19q0 44 32 44h532l-192 189q-10 10 -10 14q0 7 19 7h86q30 0 51 -21l226 -225q7 -7 7 -18z" />
    <glyph glyph-name="arrowdown" unicode="&#x2193;" horiz-adv-x="529" 
d="M529 427v-86q0 -19 -7 -19q-4 0 -14 10l-189 192v-494q0 -32 -44 -32h-19q-44 0 -44 32v495l-191 -194q-10 -10 -14 -10q-7 0 -7 19v86q0 30 21 51l226 227q7 7 18 7t18 -7l225 -226q21 -21 21 -51z" />
    <glyph glyph-name="partialdiff" unicode="&#x2202;" horiz-adv-x="514" 
d="M344 273q-39 31 -88 31q-40 0 -66.5 -31t-26.5 -75q0 -40 19.5 -62t51.5 -22q93 0 110 159zM494 333q0 -158 -68.5 -250.5t-191.5 -92.5q-94 0 -153.5 57.5t-59.5 147.5q0 103 66 168.5t162 65.5q54 0 97 -26q-8 109 -47.5 158.5t-99.5 49.5q-29 0 -56.5 -13t-31.5 -13
q-15 0 -34.5 24.5t-19.5 42.5q0 29 39.5 55.5t115.5 26.5q128 0 205 -109t77 -292z" />
    <glyph glyph-name="Delta" unicode="&#x2206;" horiz-adv-x="708" 
d="M181 130h342l-166 383h-10zM676 86v-51q0 -35 -35 -35h-577q-35 0 -35 35v51q0 25 9 44l243 553q11 27 41 27h61q30 0 41 -27l243 -553q9 -19 9 -44z" />
    <glyph glyph-name="product" unicode="&#x220f;" horiz-adv-x="750" 
d="M735 650v-30q0 -50 -30 -50h-84v-642q0 -32 -60 -32h-24q-60 0 -60 32v642h-206v-642q0 -32 -60 -32h-24q-60 0 -60 32v642h-81q-30 0 -30 50v30q0 50 30 50h659q30 0 30 -50z" />
    <glyph glyph-name="summation" unicode="&#x2211;" horiz-adv-x="593" 
d="M581 -22v-30q0 -50 -30 -50h-491q-40 0 -40 40v39q0 20 12 36l220 290l-214 282q-12 17 -12 36v39q0 40 40 40h469q30 0 30 -50v-30q0 -50 -30 -50h-312l181 -240q9 -12 9 -24t-9 -25l-189 -253h336q30 0 30 -50z" />
    <glyph glyph-name="minus" unicode="&#x2212;" horiz-adv-x="560" 
d="M532 229v-7q0 -50 -30 -50h-444q-30 0 -30 50v7q0 50 30 50h444q30 0 30 -50z" />
    <glyph glyph-name="radical" unicode="&#x221a;" horiz-adv-x="618" 
d="M631 794q0 -7 -1 -11l-219 -908q-7 -31 -57 -31h-30q-49 0 -60 30l-140 383l-40 -15q-9 -3 -16 -3q-19 0 -28 24l-12 34q-3 7 -3 15q0 20 24 29l128 50q9 3 16 3q21 0 29 -23l78 -219q8 -22 15 -50.5l11 -45.5l3 -18h5q7 83 15 115l152 630q7 31 57 31h29q44 0 44 -20z
" />
    <glyph glyph-name="infinity" unicode="&#x221e;" horiz-adv-x="788" 
d="M325 276q-56 61 -100 61q-23 0 -37 -15t-14 -40t16 -41t40 -16q40 0 95 51zM615 282q0 25 -14 40t-37 15q-49 0 -98 -59q48 -53 93 -53q23 0 39.5 16.5t16.5 40.5zM742 282q0 -73 -48 -122t-117 -49q-95 0 -185 98q-52 -54 -92.5 -76t-87.5 -22q-69 0 -117 49t-48 122
t49 119.5t124 46.5q89 0 172 -96q92 96 177 96q75 0 124 -46.5t49 -119.5z" />
    <glyph glyph-name="integral" unicode="&#x222b;" horiz-adv-x="372" 
d="M387 830q0 -27 -10 -48.5t-23 -21.5q-2 0 -15.5 4t-26.5 4q-36 0 -51 -37t-15 -126q0 -82 7 -253.5t7 -265.5q0 -126 -45 -191.5t-131 -65.5q-13 0 -27.5 2t-32 7t-28.5 17t-11 28q0 27 10 48.5t23 21.5q2 0 15.5 -4t26.5 -4q36 0 51 37t15 126q0 79 -7 249.5t-7 269.5
q0 126 45 191.5t131 65.5q13 0 27.5 -2t32 -7t28.5 -17t11 -28z" />
    <glyph glyph-name="approxequal" unicode="&#x2248;" horiz-adv-x="547" 
d="M484 126q0 -28 -53 -53t-90 -25q-41 0 -94.5 21t-76.5 21q-20 0 -39.5 -5.5t-25.5 -5.5q-15 0 -28 17t-13 34q0 26 51 53.5t91 27.5t94 -21t77 -21q15 0 36 7.5t29 7.5q17 0 29.5 -20t12.5 -38zM484 323q0 -28 -53 -53t-90 -25q-41 0 -94.5 21t-76.5 21q-20 0 -39.5 -5.5
t-25.5 -5.5q-15 0 -28 17t-13 34q0 26 51 53.5t91 27.5t94 -21t77 -21q15 0 36 7.5t29 7.5q17 0 29.5 -20t12.5 -38z" />
    <glyph glyph-name="notequal" unicode="&#x2260;" horiz-adv-x="560" 
d="M519 143v-7q0 -50 -30 -50h-250l-43 -54q-21 -26 -68 -26h-25q-39 0 -39 11q0 6 8 15l42 54h-43q-30 0 -30 50v7q0 50 30 50h126l58 74h-184q-30 0 -30 50v7q0 50 30 50h268l29 36q22 26 68 26h25q39 0 39 -11q0 -3 -7 -14l-29 -37h25q30 0 30 -50v-7q0 -50 -30 -50h-109
l-58 -74h167q30 0 30 -50z" />
    <glyph glyph-name="lessequal" unicode="&#x2264;" horiz-adv-x="566" 
d="M515 57v-7q0 -50 -30 -50h-417q-30 0 -30 50v7q0 50 30 50h417q30 0 30 -50zM514 197v-26q0 -43 -14 -43q-2 0 -14 4l-420 162q-28 11 -28 41v19q0 30 28 41l419 161q9 3 14 3q14 0 14 -42v-6q0 -49 -28 -60l-292 -107l293 -107q28 -10 28 -40z" />
    <glyph glyph-name="greaterequal" unicode="&#x2265;" horiz-adv-x="566" 
d="M518 57v-7q0 -50 -30 -50h-417q-30 0 -30 50v7q0 50 30 50h417q30 0 30 -50zM518 354v-19q0 -30 -28 -41l-420 -162q-12 -4 -14 -4q-14 0 -14 43v26q0 30 28 40l293 107l-292 107q-28 11 -28 60v6q0 42 14 42q5 0 14 -3l419 -161q28 -11 28 -41z" />
    <glyph glyph-name="lozenge" unicode="&#x25ca;" horiz-adv-x="558" 
d="M280 132l103 216l-103 213l-103 -213zM519 348q0 -13 -6 -24l-160 -307q-13 -25 -61 -25h-24q-48 0 -61 25l-160 307q-6 11 -6 24q0 12 6 24l164 313q13 25 61 25h16q48 0 61 -25l164 -313q6 -12 6 -24z" />
    <glyph glyph-name="fi" unicode="&#xfb01;" horiz-adv-x="563" 
d="M311 711q0 -13 -9 -42.5t-22 -29.5q-3 0 -14.5 2t-16.5 2q-36 0 -36 -43v-77h50q30 0 30 -50v-17q0 -50 -30 -50h-50v-376q0 -32 -60 -32h-28q-60 0 -60 32v376h-18q-30 0 -30 50v17q0 50 30 50h18v75q0 162 146 162q100 0 100 -49zM505 493v-463q0 -32 -60 -32h-28
q-60 0 -60 32v463q0 32 60 32h28q60 0 60 -32zM505 722v-81q0 -32 -60 -32h-28q-60 0 -60 32v81q0 32 60 32h28q60 0 60 -32z" />
    <glyph glyph-name="fl" unicode="&#xfb02;" horiz-adv-x="591" 
d="M311 711q0 -13 -9 -42.5t-22 -29.5q-3 0 -14.5 2t-16.5 2q-36 0 -36 -43v-77h50q30 0 30 -50v-17q0 -50 -30 -50h-50v-376q0 -32 -60 -32h-28q-60 0 -60 32v376h-18q-30 0 -30 50v17q0 50 30 50h18v75q0 162 146 162q100 0 100 -49zM599 41q0 -49 -96 -49
q-146 0 -146 162v568q0 32 60 32h28q60 0 60 -32v-570q0 -43 36 -43q5 0 14.5 2t12.5 2q13 0 22 -29.5t9 -42.5z" />
  </font>
</defs>
</svg>
